M48
; DRILL file {KiCad 5.1.5-52549c5~84~ubuntu18.04.1} date Sun 16 Feb 2020 10:49:14 PM CET
; FORMAT={-:-/ absolute / metric / decimal}
; #@! TF.CreationDate,2020-02-16T22:49:14+01:00
; #@! TF.GenerationSoftware,Kicad,Pcbnew,5.1.5-52549c5~84~ubuntu18.04.1
; #@! TF.FileFunction,Plated,1,4,PTH
FMAT,2
METRIC
T1C0.250
T2C1.000
T3C2.200
T4C2.499
T5C4.500
%
G90
G05
T1
X101.2Y-85.4
X101.2Y-86.4
X101.2Y-87.4
X101.2Y-88.6
X101.2Y-89.6
X101.4Y-63.6
X101.5Y-70.5
X102.0Y-85.8
X102.0Y-87.0
X102.0Y-88.0
X102.4Y-63.6
X102.5Y-65.3
X102.8Y-95.0
X103.0Y-70.5
X103.4Y-63.6
X103.7Y-59.5
X103.8Y-56.5
X103.8Y-64.6
X103.8Y-80.4
X103.8Y-81.4
X103.8Y-82.4
X103.8Y-83.4
X103.8Y-92.8
X103.8Y-97.2
X104.1Y-73.9
X104.5Y-66.5
X104.6Y-80.4
X104.6Y-81.4
X104.6Y-82.4
X104.6Y-83.4
X105.4Y-80.4
X105.4Y-81.4
X105.4Y-82.4
X105.4Y-83.4
X105.4Y-86.2
X105.4Y-87.2
X105.4Y-88.2
X105.4Y-89.2
X105.5Y-62.8
X106.0Y-63.5
X106.0Y-68.0
X106.0Y-75.0
X106.0Y-91.8
X106.0Y-98.0
X106.2Y-80.4
X106.2Y-81.4
X106.2Y-82.4
X106.2Y-83.4
X106.2Y-86.2
X106.2Y-87.2
X106.2Y-88.2
X106.2Y-89.2
X106.5Y-65.5
X106.5Y-72.5
X106.6Y-73.5
X106.7Y-55.5
X106.7Y-56.5
X106.7Y-60.5
X107.0Y-86.2
X107.0Y-87.2
X107.0Y-88.2
X107.0Y-89.2
X107.2Y-59.3
X107.3Y-76.7
X107.7Y-60.5
X107.8Y-86.2
X107.8Y-87.2
X107.8Y-88.2
X107.8Y-89.2
X108.0Y-58.8
X108.0Y-70.0
X108.0Y-71.0
X108.2Y-92.8
X108.2Y-97.0
X108.8Y-95.0
X109.5Y-65.5
X109.5Y-66.5
X109.6Y-53.6
X109.7Y-73.4
X109.9Y-76.0
X110.4Y-95.0
X110.8Y-92.8
X110.8Y-97.2
X111.7Y-66.7
X112.0Y-68.0
X112.0Y-69.0
X112.0Y-73.0
X112.6Y-66.5
X112.7Y-63.5
X113.0Y-84.8
X113.0Y-85.6
X113.0Y-86.4
X113.0Y-87.2
X113.0Y-88.0
X113.2Y-92.2
X113.2Y-97.8
X113.42Y-58.1
X113.5Y-73.0
X113.9Y-66.7
X114.0Y-84.8
X114.0Y-85.6
X114.0Y-86.4
X114.0Y-87.2
X114.0Y-88.0
X114.6Y-56.5
X114.6Y-57.3
X114.6Y-66.1
X114.8Y-55.6
X115.0Y-84.8
X115.0Y-85.6
X115.0Y-86.4
X115.0Y-87.2
X115.0Y-88.0
X115.2Y-61.2
X115.3Y-52.8
X115.3Y-66.7
X115.3Y-69.1
X115.366Y-73.096
X115.4Y-92.8
X115.4Y-97.2
X115.5Y-74.0
X115.6Y-64.0
X115.9Y-67.2
X116.0Y-77.1
X116.0Y-84.8
X116.0Y-85.6
X116.0Y-86.4
X116.0Y-87.2
X116.0Y-88.0
X116.0Y-95.0
X116.5Y-63.0
X116.5Y-64.0
X116.5Y-65.5
X116.6Y-80.4
X116.6Y-81.2
X117.5Y-63.0
X117.5Y-64.0
X117.5Y-65.5
X117.6Y-79.6
X117.6Y-80.4
X117.6Y-81.2
X117.708Y-76.186
X117.92Y-55.58
X118.3Y-56.9
X118.8Y-95.0
X118.8Y-97.4
X119.0Y-79.6
X119.0Y-81.4
X119.0Y-83.8
X119.0Y-84.6
X119.0Y-85.4
X119.0Y-86.2
X119.0Y-87.0
X119.0Y-92.6
X119.2Y-55.8
X119.6Y-59.8
X119.7Y-56.9
X119.7Y-73.6
X119.72Y-71.961
X119.961Y-57.761
X120.0Y-83.8
X120.0Y-84.6
X120.0Y-85.4
X120.0Y-86.2
X120.0Y-87.0
X120.5Y-60.3
X120.5Y-69.5
X120.6Y-76.0
X120.6Y-78.0
X120.676Y-58.745
X120.7Y-57.7
X121.0Y-83.8
X121.0Y-84.6
X121.0Y-85.4
X121.0Y-86.2
X121.0Y-87.0
X121.348Y-55.355
X121.4Y-58.7
X121.4Y-65.5
X121.4Y-92.4
X121.4Y-97.6
X121.5Y-64.5
X121.7Y-54.3
X121.7Y-62.1
X122.0Y-72.5
X122.0Y-79.6
X122.0Y-80.4
X122.0Y-81.2
X122.0Y-83.8
X122.0Y-84.6
X122.0Y-85.4
X122.0Y-86.2
X122.0Y-87.0
X122.2Y-66.7
X122.3Y-65.02
X122.8Y-54.1
X123.0Y-75.4
X123.0Y-78.5
X123.3Y-61.3
X123.6Y-70.6
X123.62Y-59.9
X123.8Y-92.6
X123.8Y-97.6
X124.0Y-66.5
X124.0Y-67.5
X124.0Y-95.0
X124.1Y-61.4
X124.5Y-58.9
X124.8Y-69.0
X125.0Y-67.0
X125.3Y-71.7
X125.4Y-52.82
X125.4Y-61.28
X125.5Y-68.1
X125.8Y-95.0
X126.0Y-72.4
X126.0Y-74.5
X126.05Y-67.45
X126.2Y-54.4
X126.6Y-73.0
X126.6Y-93.0
X126.6Y-97.2
X127.0Y-85.0
X127.0Y-85.8
X127.0Y-86.6
X127.0Y-87.4
X127.0Y-88.2
X127.1Y-73.7
X127.2Y-54.3
X127.2Y-64.32
X128.0Y-72.0
X128.0Y-85.0
X128.0Y-85.8
X128.0Y-86.6
X128.0Y-87.4
X128.0Y-88.2
X128.2Y-77.6
X128.2Y-78.6
X128.2Y-79.8
X128.49Y-71.24
X128.95Y-70.75
X129.0Y-73.0
X129.0Y-85.0
X129.0Y-85.8
X129.0Y-86.6
X129.0Y-87.4
X129.0Y-88.2
X129.0Y-92.0
X129.0Y-98.0
X129.55Y-70.15
X129.6Y-58.6
X130.0Y-85.0
X130.0Y-85.8
X130.0Y-86.6
X130.0Y-87.4
X130.0Y-88.2
X130.109Y-58.091
X130.7Y-61.5
X130.8Y-66.1
X131.0Y-65.0
X131.1Y-72.6
X131.4Y-93.0
X131.4Y-97.2
X131.5Y-64.5
X131.5Y-74.0
X131.6Y-56.0
X132.0Y-64.0
X132.0Y-95.0
X132.5Y-74.0
X132.7Y-63.3
X132.8Y-69.2
X133.0Y-83.8
X133.0Y-84.6
X133.0Y-85.4
X133.0Y-86.2
X133.0Y-87.0
X133.18Y-54.18
X133.5Y-74.0
X133.6Y-62.3
X133.6Y-68.7
X133.6Y-95.0
X134.0Y-83.8
X134.0Y-84.6
X134.0Y-85.4
X134.0Y-86.2
X134.0Y-87.0
X134.4Y-92.8
X134.4Y-97.2
X134.6Y-77.8
X134.6Y-80.6
X134.8Y-61.2
X135.0Y-83.8
X135.0Y-84.6
X135.0Y-85.4
X135.0Y-86.2
X135.0Y-87.0
X135.4Y-77.8
X135.4Y-80.6
X135.9Y-53.1
X136.0Y-54.4
X136.0Y-70.8
X136.0Y-83.8
X136.0Y-84.6
X136.0Y-85.4
X136.0Y-86.2
X136.0Y-87.0
X136.2Y-77.8
X136.2Y-80.6
X136.5Y-72.6
X136.5Y-74.4
X136.6Y-92.0
X136.6Y-98.0
X137.1Y-60.6
X137.154Y-73.015
X137.2Y-75.2
X137.3Y-54.8
X137.3Y-65.1
X137.867Y-69.333
X137.9Y-64.5
X138.1Y-72.9
X138.145Y-75.09
X138.5Y-62.8
X138.538Y-74.28
X138.8Y-92.8
X138.8Y-97.2
X139.385Y-62.615
X139.6Y-95.0
X139.8Y-67.1
X139.9Y-62.2
X139.9Y-77.1
X140.1Y-59.8
X140.182Y-61.118
X140.6Y-72.2
X140.78Y-60.6
X141.2Y-85.0
X141.2Y-85.8
X141.2Y-86.6
X141.2Y-87.4
X141.2Y-88.2
X141.6Y-55.7
X141.9Y-57.4
X141.9Y-59.3
X142.2Y-76.3
X142.2Y-81.0
X142.2Y-85.0
X142.2Y-85.8
X142.2Y-86.6
X142.2Y-87.4
X142.2Y-88.2
X142.2Y-95.0
X142.3Y-74.5
X142.3Y-78.9
X142.4Y-80.0
X142.5Y-72.4
X142.7Y-59.1
X143.0Y-93.0
X143.0Y-97.0
X143.2Y-85.0
X143.2Y-85.8
X143.2Y-86.6
X143.2Y-87.4
X143.2Y-88.2
X143.495Y-71.405
X143.7Y-56.1
X144.0Y-59.9
X144.2Y-85.0
X144.2Y-85.8
X144.2Y-86.6
X144.2Y-87.4
X144.2Y-88.2
X144.239Y-58.02
X144.5Y-66.5
X144.7Y-60.4
X144.7Y-59.7
X145.0Y-56.1
X145.0Y-64.7
X145.1Y-58.5
X145.2Y-92.0
X145.2Y-98.0
X145.368Y-59.9
X145.4Y-62.2
X145.7Y-67.7
X146.0Y-56.3
X146.0Y-73.0
X147.0Y-65.0
X147.0Y-83.8
X147.0Y-84.6
X147.0Y-85.4
X147.0Y-86.2
X147.0Y-87.0
X147.5Y-74.0
X147.6Y-93.0
X147.6Y-97.0
X147.8Y-56.2
X148.0Y-83.8
X148.0Y-84.6
X148.0Y-85.4
X148.0Y-86.2
X148.0Y-87.0
X148.4Y-95.0
X148.6Y-80.4
X148.8Y-77.6
X149.0Y-56.3
X149.0Y-74.0
X149.0Y-83.8
X149.0Y-84.6
X149.0Y-85.4
X149.0Y-86.2
X149.0Y-87.0
X149.5Y-62.5
X149.5Y-63.5
X149.5Y-64.5
X149.5Y-65.5
X149.6Y-77.6
X149.6Y-80.4
X149.6Y-95.4
X149.6Y-96.8
X149.784Y-56.034
X150.0Y-83.8
X150.0Y-84.6
X150.0Y-85.4
X150.0Y-86.2
X150.0Y-87.0
X150.0Y-92.6
X150.2Y-98.0
X150.4Y-77.6
X150.4Y-80.4
X150.5Y-74.0
X150.8Y-98.8
X151.2Y-58.4
X151.4Y-98.0
X151.9Y-58.4
X152.0Y-74.0
X152.0Y-75.5
X152.0Y-98.8
X152.3Y-59.5
X152.4Y-92.2
X152.6Y-58.4
X152.6Y-98.0
X153.4Y-98.8
X153.5Y-74.0
X154.0Y-53.7
X154.0Y-80.0
X154.0Y-81.0
X154.0Y-82.0
X154.0Y-83.5
X154.0Y-84.5
X154.0Y-85.5
X154.0Y-98.0
X154.025Y-55.012
X154.8Y-63.1
X155.0Y-92.6
X155.0Y-98.8
X155.35Y-97.05
X155.6Y-95.4
X155.8Y-80.4
X155.8Y-81.2
X155.8Y-82.0
X155.8Y-83.6
X155.8Y-84.4
X155.8Y-85.2
X156.2Y-59.1
X156.2Y-60.2
X156.3Y-98.0
X156.4Y-96.4
X156.5Y-74.0
X156.6Y-54.125
X156.6Y-56.3
X156.7Y-86.7
X156.9Y-62.3
X156.9Y-63.0
X156.9Y-63.8
T2
X109.0Y-52.0
X111.54Y-52.0
X114.08Y-52.0
X116.62Y-52.0
X119.16Y-52.0
X121.7Y-52.0
X124.24Y-52.0
X126.78Y-52.0
X129.32Y-52.0
X131.86Y-52.0
X134.4Y-52.0
X136.94Y-52.0
X139.48Y-52.0
X142.02Y-52.0
X144.56Y-52.0
X147.1Y-52.0
X149.64Y-52.0
X152.18Y-52.0
T3
X103.0Y-76.5
X155.0Y-76.5
T4
X121.38Y-95.0
X129.0Y-95.0
X136.62Y-95.0
T5
X106.0Y-95.0
X113.2Y-95.0
X145.3Y-95.0
X152.5Y-95.0
T0
M30
