G04 #@! TF.GenerationSoftware,KiCad,Pcbnew,5.1.5-52549c5~84~ubuntu18.04.1*
G04 #@! TF.CreationDate,2020-02-16T22:49:10+01:00*
G04 #@! TF.ProjectId,bldc_motor_cntroller,626c6463-5f6d-46f7-946f-725f636e7472,rev?*
G04 #@! TF.SameCoordinates,Original*
G04 #@! TF.FileFunction,OtherDrawing,Comment*
%FSLAX46Y46*%
G04 Gerber Fmt 4.6, Leading zero omitted, Abs format (unit mm)*
G04 Created by KiCad (PCBNEW 5.1.5-52549c5~84~ubuntu18.04.1) date 2020-02-16 22:49:10*
%MOMM*%
%LPD*%
G04 APERTURE LIST*
%ADD10C,0.100000*%
%ADD11C,0.150000*%
%ADD12C,0.300000*%
%ADD13C,0.400000*%
%ADD14C,0.200000*%
%ADD15C,0.040000*%
G04 APERTURE END LIST*
D10*
D11*
X177002200Y-166007200D02*
X177002200Y-198007200D01*
X285002200Y-198007200D01*
X285002200Y-166007200D01*
X177002200Y-166007200D01*
D10*
D11*
X10000000Y-10000000D02*
X10000000Y-200007200D01*
X287002200Y-200007200D01*
X287002200Y-10000000D01*
X10000000Y-10000000D01*
D10*
D11*
X12000000Y-12000000D02*
X12000000Y-198007200D01*
X285002200Y-198007200D01*
X285002200Y-12000000D01*
X12000000Y-12000000D01*
D10*
D11*
X60000000Y-12000000D02*
X60000000Y-10000000D01*
D10*
D11*
X110000000Y-12000000D02*
X110000000Y-10000000D01*
D10*
D11*
X160000000Y-12000000D02*
X160000000Y-10000000D01*
D10*
D11*
X210000000Y-12000000D02*
X210000000Y-10000000D01*
D10*
D11*
X260000000Y-12000000D02*
X260000000Y-10000000D01*
D10*
D11*
X36065476Y-11588095D02*
X35322619Y-11588095D01*
X35694047Y-11588095D02*
X35694047Y-10288095D01*
X35570238Y-10473809D01*
X35446428Y-10597619D01*
X35322619Y-10659523D01*
D10*
D11*
X85322619Y-10411904D02*
X85384523Y-10350000D01*
X85508333Y-10288095D01*
X85817857Y-10288095D01*
X85941666Y-10350000D01*
X86003571Y-10411904D01*
X86065476Y-10535714D01*
X86065476Y-10659523D01*
X86003571Y-10845238D01*
X85260714Y-11588095D01*
X86065476Y-11588095D01*
D10*
D11*
X135260714Y-10288095D02*
X136065476Y-10288095D01*
X135632142Y-10783333D01*
X135817857Y-10783333D01*
X135941666Y-10845238D01*
X136003571Y-10907142D01*
X136065476Y-11030952D01*
X136065476Y-11340476D01*
X136003571Y-11464285D01*
X135941666Y-11526190D01*
X135817857Y-11588095D01*
X135446428Y-11588095D01*
X135322619Y-11526190D01*
X135260714Y-11464285D01*
D10*
D11*
X185941666Y-10721428D02*
X185941666Y-11588095D01*
X185632142Y-10226190D02*
X185322619Y-11154761D01*
X186127380Y-11154761D01*
D10*
D11*
X236003571Y-10288095D02*
X235384523Y-10288095D01*
X235322619Y-10907142D01*
X235384523Y-10845238D01*
X235508333Y-10783333D01*
X235817857Y-10783333D01*
X235941666Y-10845238D01*
X236003571Y-10907142D01*
X236065476Y-11030952D01*
X236065476Y-11340476D01*
X236003571Y-11464285D01*
X235941666Y-11526190D01*
X235817857Y-11588095D01*
X235508333Y-11588095D01*
X235384523Y-11526190D01*
X235322619Y-11464285D01*
D10*
D11*
X285941666Y-10288095D02*
X285694047Y-10288095D01*
X285570238Y-10350000D01*
X285508333Y-10411904D01*
X285384523Y-10597619D01*
X285322619Y-10845238D01*
X285322619Y-11340476D01*
X285384523Y-11464285D01*
X285446428Y-11526190D01*
X285570238Y-11588095D01*
X285817857Y-11588095D01*
X285941666Y-11526190D01*
X286003571Y-11464285D01*
X286065476Y-11340476D01*
X286065476Y-11030952D01*
X286003571Y-10907142D01*
X285941666Y-10845238D01*
X285817857Y-10783333D01*
X285570238Y-10783333D01*
X285446428Y-10845238D01*
X285384523Y-10907142D01*
X285322619Y-11030952D01*
D10*
D11*
X60000000Y-198007200D02*
X60000000Y-200007200D01*
D10*
D11*
X110000000Y-198007200D02*
X110000000Y-200007200D01*
D10*
D11*
X160000000Y-198007200D02*
X160000000Y-200007200D01*
D10*
D11*
X210000000Y-198007200D02*
X210000000Y-200007200D01*
D10*
D11*
X260000000Y-198007200D02*
X260000000Y-200007200D01*
D10*
D11*
X36065476Y-199595295D02*
X35322619Y-199595295D01*
X35694047Y-199595295D02*
X35694047Y-198295295D01*
X35570238Y-198481009D01*
X35446428Y-198604819D01*
X35322619Y-198666723D01*
D10*
D11*
X85322619Y-198419104D02*
X85384523Y-198357200D01*
X85508333Y-198295295D01*
X85817857Y-198295295D01*
X85941666Y-198357200D01*
X86003571Y-198419104D01*
X86065476Y-198542914D01*
X86065476Y-198666723D01*
X86003571Y-198852438D01*
X85260714Y-199595295D01*
X86065476Y-199595295D01*
D10*
D11*
X135260714Y-198295295D02*
X136065476Y-198295295D01*
X135632142Y-198790533D01*
X135817857Y-198790533D01*
X135941666Y-198852438D01*
X136003571Y-198914342D01*
X136065476Y-199038152D01*
X136065476Y-199347676D01*
X136003571Y-199471485D01*
X135941666Y-199533390D01*
X135817857Y-199595295D01*
X135446428Y-199595295D01*
X135322619Y-199533390D01*
X135260714Y-199471485D01*
D10*
D11*
X185941666Y-198728628D02*
X185941666Y-199595295D01*
X185632142Y-198233390D02*
X185322619Y-199161961D01*
X186127380Y-199161961D01*
D10*
D11*
X236003571Y-198295295D02*
X235384523Y-198295295D01*
X235322619Y-198914342D01*
X235384523Y-198852438D01*
X235508333Y-198790533D01*
X235817857Y-198790533D01*
X235941666Y-198852438D01*
X236003571Y-198914342D01*
X236065476Y-199038152D01*
X236065476Y-199347676D01*
X236003571Y-199471485D01*
X235941666Y-199533390D01*
X235817857Y-199595295D01*
X235508333Y-199595295D01*
X235384523Y-199533390D01*
X235322619Y-199471485D01*
D10*
D11*
X285941666Y-198295295D02*
X285694047Y-198295295D01*
X285570238Y-198357200D01*
X285508333Y-198419104D01*
X285384523Y-198604819D01*
X285322619Y-198852438D01*
X285322619Y-199347676D01*
X285384523Y-199471485D01*
X285446428Y-199533390D01*
X285570238Y-199595295D01*
X285817857Y-199595295D01*
X285941666Y-199533390D01*
X286003571Y-199471485D01*
X286065476Y-199347676D01*
X286065476Y-199038152D01*
X286003571Y-198914342D01*
X285941666Y-198852438D01*
X285817857Y-198790533D01*
X285570238Y-198790533D01*
X285446428Y-198852438D01*
X285384523Y-198914342D01*
X285322619Y-199038152D01*
D10*
D11*
X10000000Y-60000000D02*
X12000000Y-60000000D01*
D10*
D11*
X10000000Y-110000000D02*
X12000000Y-110000000D01*
D10*
D11*
X10000000Y-160000000D02*
X12000000Y-160000000D01*
D10*
D11*
X10690476Y-35216666D02*
X11309523Y-35216666D01*
X10566666Y-35588095D02*
X11000000Y-34288095D01*
X11433333Y-35588095D01*
D10*
D11*
X11092857Y-84907142D02*
X11278571Y-84969047D01*
X11340476Y-85030952D01*
X11402380Y-85154761D01*
X11402380Y-85340476D01*
X11340476Y-85464285D01*
X11278571Y-85526190D01*
X11154761Y-85588095D01*
X10659523Y-85588095D01*
X10659523Y-84288095D01*
X11092857Y-84288095D01*
X11216666Y-84350000D01*
X11278571Y-84411904D01*
X11340476Y-84535714D01*
X11340476Y-84659523D01*
X11278571Y-84783333D01*
X11216666Y-84845238D01*
X11092857Y-84907142D01*
X10659523Y-84907142D01*
D10*
D11*
X11402380Y-135464285D02*
X11340476Y-135526190D01*
X11154761Y-135588095D01*
X11030952Y-135588095D01*
X10845238Y-135526190D01*
X10721428Y-135402380D01*
X10659523Y-135278571D01*
X10597619Y-135030952D01*
X10597619Y-134845238D01*
X10659523Y-134597619D01*
X10721428Y-134473809D01*
X10845238Y-134350000D01*
X11030952Y-134288095D01*
X11154761Y-134288095D01*
X11340476Y-134350000D01*
X11402380Y-134411904D01*
D10*
D11*
X10659523Y-185588095D02*
X10659523Y-184288095D01*
X10969047Y-184288095D01*
X11154761Y-184350000D01*
X11278571Y-184473809D01*
X11340476Y-184597619D01*
X11402380Y-184845238D01*
X11402380Y-185030952D01*
X11340476Y-185278571D01*
X11278571Y-185402380D01*
X11154761Y-185526190D01*
X10969047Y-185588095D01*
X10659523Y-185588095D01*
D10*
D11*
X287002200Y-60000000D02*
X285002200Y-60000000D01*
D10*
D11*
X287002200Y-110000000D02*
X285002200Y-110000000D01*
D10*
D11*
X287002200Y-160000000D02*
X285002200Y-160000000D01*
D10*
D11*
X285692676Y-35216666D02*
X286311723Y-35216666D01*
X285568866Y-35588095D02*
X286002200Y-34288095D01*
X286435533Y-35588095D01*
D10*
D11*
X286095057Y-84907142D02*
X286280771Y-84969047D01*
X286342676Y-85030952D01*
X286404580Y-85154761D01*
X286404580Y-85340476D01*
X286342676Y-85464285D01*
X286280771Y-85526190D01*
X286156961Y-85588095D01*
X285661723Y-85588095D01*
X285661723Y-84288095D01*
X286095057Y-84288095D01*
X286218866Y-84350000D01*
X286280771Y-84411904D01*
X286342676Y-84535714D01*
X286342676Y-84659523D01*
X286280771Y-84783333D01*
X286218866Y-84845238D01*
X286095057Y-84907142D01*
X285661723Y-84907142D01*
D10*
D11*
X286404580Y-135464285D02*
X286342676Y-135526190D01*
X286156961Y-135588095D01*
X286033152Y-135588095D01*
X285847438Y-135526190D01*
X285723628Y-135402380D01*
X285661723Y-135278571D01*
X285599819Y-135030952D01*
X285599819Y-134845238D01*
X285661723Y-134597619D01*
X285723628Y-134473809D01*
X285847438Y-134350000D01*
X286033152Y-134288095D01*
X286156961Y-134288095D01*
X286342676Y-134350000D01*
X286404580Y-134411904D01*
D10*
D11*
X285661723Y-185588095D02*
X285661723Y-184288095D01*
X285971247Y-184288095D01*
X286156961Y-184350000D01*
X286280771Y-184473809D01*
X286342676Y-184597619D01*
X286404580Y-184845238D01*
X286404580Y-185030952D01*
X286342676Y-185278571D01*
X286280771Y-185402380D01*
X286156961Y-185526190D01*
X285971247Y-185588095D01*
X285661723Y-185588095D01*
D10*
D11*
X200434342Y-193785771D02*
X200434342Y-192285771D01*
X200791485Y-192285771D01*
X201005771Y-192357200D01*
X201148628Y-192500057D01*
X201220057Y-192642914D01*
X201291485Y-192928628D01*
X201291485Y-193142914D01*
X201220057Y-193428628D01*
X201148628Y-193571485D01*
X201005771Y-193714342D01*
X200791485Y-193785771D01*
X200434342Y-193785771D01*
X202577200Y-193785771D02*
X202577200Y-193000057D01*
X202505771Y-192857200D01*
X202362914Y-192785771D01*
X202077200Y-192785771D01*
X201934342Y-192857200D01*
X202577200Y-193714342D02*
X202434342Y-193785771D01*
X202077200Y-193785771D01*
X201934342Y-193714342D01*
X201862914Y-193571485D01*
X201862914Y-193428628D01*
X201934342Y-193285771D01*
X202077200Y-193214342D01*
X202434342Y-193214342D01*
X202577200Y-193142914D01*
X203077200Y-192785771D02*
X203648628Y-192785771D01*
X203291485Y-192285771D02*
X203291485Y-193571485D01*
X203362914Y-193714342D01*
X203505771Y-193785771D01*
X203648628Y-193785771D01*
X204720057Y-193714342D02*
X204577200Y-193785771D01*
X204291485Y-193785771D01*
X204148628Y-193714342D01*
X204077200Y-193571485D01*
X204077200Y-193000057D01*
X204148628Y-192857200D01*
X204291485Y-192785771D01*
X204577200Y-192785771D01*
X204720057Y-192857200D01*
X204791485Y-193000057D01*
X204791485Y-193142914D01*
X204077200Y-193285771D01*
X205434342Y-193642914D02*
X205505771Y-193714342D01*
X205434342Y-193785771D01*
X205362914Y-193714342D01*
X205434342Y-193642914D01*
X205434342Y-193785771D01*
X205434342Y-192857200D02*
X205505771Y-192928628D01*
X205434342Y-193000057D01*
X205362914Y-192928628D01*
X205434342Y-192857200D01*
X205434342Y-193000057D01*
D10*
D11*
X177002200Y-194507200D02*
X285002200Y-194507200D01*
D10*
D11*
X178434342Y-196585771D02*
X178434342Y-195085771D01*
X179291485Y-196585771D02*
X178648628Y-195728628D01*
X179291485Y-195085771D02*
X178434342Y-195942914D01*
X179934342Y-196585771D02*
X179934342Y-195585771D01*
X179934342Y-195085771D02*
X179862914Y-195157200D01*
X179934342Y-195228628D01*
X180005771Y-195157200D01*
X179934342Y-195085771D01*
X179934342Y-195228628D01*
X181505771Y-196442914D02*
X181434342Y-196514342D01*
X181220057Y-196585771D01*
X181077200Y-196585771D01*
X180862914Y-196514342D01*
X180720057Y-196371485D01*
X180648628Y-196228628D01*
X180577200Y-195942914D01*
X180577200Y-195728628D01*
X180648628Y-195442914D01*
X180720057Y-195300057D01*
X180862914Y-195157200D01*
X181077200Y-195085771D01*
X181220057Y-195085771D01*
X181434342Y-195157200D01*
X181505771Y-195228628D01*
X182791485Y-196585771D02*
X182791485Y-195800057D01*
X182720057Y-195657200D01*
X182577200Y-195585771D01*
X182291485Y-195585771D01*
X182148628Y-195657200D01*
X182791485Y-196514342D02*
X182648628Y-196585771D01*
X182291485Y-196585771D01*
X182148628Y-196514342D01*
X182077200Y-196371485D01*
X182077200Y-196228628D01*
X182148628Y-196085771D01*
X182291485Y-196014342D01*
X182648628Y-196014342D01*
X182791485Y-195942914D01*
X184148628Y-196585771D02*
X184148628Y-195085771D01*
X184148628Y-196514342D02*
X184005771Y-196585771D01*
X183720057Y-196585771D01*
X183577200Y-196514342D01*
X183505771Y-196442914D01*
X183434342Y-196300057D01*
X183434342Y-195871485D01*
X183505771Y-195728628D01*
X183577200Y-195657200D01*
X183720057Y-195585771D01*
X184005771Y-195585771D01*
X184148628Y-195657200D01*
X186005771Y-195800057D02*
X186505771Y-195800057D01*
X186720057Y-196585771D02*
X186005771Y-196585771D01*
X186005771Y-195085771D01*
X186720057Y-195085771D01*
X187362914Y-196442914D02*
X187434342Y-196514342D01*
X187362914Y-196585771D01*
X187291485Y-196514342D01*
X187362914Y-196442914D01*
X187362914Y-196585771D01*
X188077200Y-196585771D02*
X188077200Y-195085771D01*
X188434342Y-195085771D01*
X188648628Y-195157200D01*
X188791485Y-195300057D01*
X188862914Y-195442914D01*
X188934342Y-195728628D01*
X188934342Y-195942914D01*
X188862914Y-196228628D01*
X188791485Y-196371485D01*
X188648628Y-196514342D01*
X188434342Y-196585771D01*
X188077200Y-196585771D01*
X189577200Y-196442914D02*
X189648628Y-196514342D01*
X189577200Y-196585771D01*
X189505771Y-196514342D01*
X189577200Y-196442914D01*
X189577200Y-196585771D01*
X190220057Y-196157200D02*
X190934342Y-196157200D01*
X190077200Y-196585771D02*
X190577200Y-195085771D01*
X191077200Y-196585771D01*
X191577200Y-196442914D02*
X191648628Y-196514342D01*
X191577200Y-196585771D01*
X191505771Y-196514342D01*
X191577200Y-196442914D01*
X191577200Y-196585771D01*
X194577200Y-196585771D02*
X194577200Y-195085771D01*
X194720057Y-196014342D02*
X195148628Y-196585771D01*
X195148628Y-195585771D02*
X194577200Y-196157200D01*
X195791485Y-196585771D02*
X195791485Y-195585771D01*
X195791485Y-195085771D02*
X195720057Y-195157200D01*
X195791485Y-195228628D01*
X195862914Y-195157200D01*
X195791485Y-195085771D01*
X195791485Y-195228628D01*
X197148628Y-196514342D02*
X197005771Y-196585771D01*
X196720057Y-196585771D01*
X196577200Y-196514342D01*
X196505771Y-196442914D01*
X196434342Y-196300057D01*
X196434342Y-195871485D01*
X196505771Y-195728628D01*
X196577200Y-195657200D01*
X196720057Y-195585771D01*
X197005771Y-195585771D01*
X197148628Y-195657200D01*
X198434342Y-196585771D02*
X198434342Y-195800057D01*
X198362914Y-195657200D01*
X198220057Y-195585771D01*
X197934342Y-195585771D01*
X197791485Y-195657200D01*
X198434342Y-196514342D02*
X198291485Y-196585771D01*
X197934342Y-196585771D01*
X197791485Y-196514342D01*
X197720057Y-196371485D01*
X197720057Y-196228628D01*
X197791485Y-196085771D01*
X197934342Y-196014342D01*
X198291485Y-196014342D01*
X198434342Y-195942914D01*
X199791485Y-196585771D02*
X199791485Y-195085771D01*
X199791485Y-196514342D02*
X199648628Y-196585771D01*
X199362914Y-196585771D01*
X199220057Y-196514342D01*
X199148628Y-196442914D01*
X199077200Y-196300057D01*
X199077200Y-195871485D01*
X199148628Y-195728628D01*
X199220057Y-195657200D01*
X199362914Y-195585771D01*
X199648628Y-195585771D01*
X199791485Y-195657200D01*
X202362914Y-195085771D02*
X201648628Y-195085771D01*
X201577200Y-195800057D01*
X201648628Y-195728628D01*
X201791485Y-195657200D01*
X202148628Y-195657200D01*
X202291485Y-195728628D01*
X202362914Y-195800057D01*
X202434342Y-195942914D01*
X202434342Y-196300057D01*
X202362914Y-196442914D01*
X202291485Y-196514342D01*
X202148628Y-196585771D01*
X201791485Y-196585771D01*
X201648628Y-196514342D01*
X201577200Y-196442914D01*
X203077200Y-196442914D02*
X203148628Y-196514342D01*
X203077200Y-196585771D01*
X203005771Y-196514342D01*
X203077200Y-196442914D01*
X203077200Y-196585771D01*
X204577200Y-196585771D02*
X203720057Y-196585771D01*
X204148628Y-196585771D02*
X204148628Y-195085771D01*
X204005771Y-195300057D01*
X203862914Y-195442914D01*
X203720057Y-195514342D01*
X205220057Y-196442914D02*
X205291485Y-196514342D01*
X205220057Y-196585771D01*
X205148628Y-196514342D01*
X205220057Y-196442914D01*
X205220057Y-196585771D01*
X206648628Y-195085771D02*
X205934342Y-195085771D01*
X205862914Y-195800057D01*
X205934342Y-195728628D01*
X206077200Y-195657200D01*
X206434342Y-195657200D01*
X206577200Y-195728628D01*
X206648628Y-195800057D01*
X206720057Y-195942914D01*
X206720057Y-196300057D01*
X206648628Y-196442914D01*
X206577200Y-196514342D01*
X206434342Y-196585771D01*
X206077200Y-196585771D01*
X205934342Y-196514342D01*
X205862914Y-196442914D01*
X207362914Y-196014342D02*
X208505771Y-196014342D01*
X209934342Y-195085771D02*
X209220057Y-195085771D01*
X209148628Y-195800057D01*
X209220057Y-195728628D01*
X209362914Y-195657200D01*
X209720057Y-195657200D01*
X209862914Y-195728628D01*
X209934342Y-195800057D01*
X210005771Y-195942914D01*
X210005771Y-196300057D01*
X209934342Y-196442914D01*
X209862914Y-196514342D01*
X209720057Y-196585771D01*
X209362914Y-196585771D01*
X209220057Y-196514342D01*
X209148628Y-196442914D01*
X210577200Y-195228628D02*
X210648628Y-195157200D01*
X210791485Y-195085771D01*
X211148628Y-195085771D01*
X211291485Y-195157200D01*
X211362914Y-195228628D01*
X211434342Y-195371485D01*
X211434342Y-195514342D01*
X211362914Y-195728628D01*
X210505771Y-196585771D01*
X211434342Y-196585771D01*
X212791485Y-195085771D02*
X212077200Y-195085771D01*
X212005771Y-195800057D01*
X212077200Y-195728628D01*
X212220057Y-195657200D01*
X212577200Y-195657200D01*
X212720057Y-195728628D01*
X212791485Y-195800057D01*
X212862914Y-195942914D01*
X212862914Y-196300057D01*
X212791485Y-196442914D01*
X212720057Y-196514342D01*
X212577200Y-196585771D01*
X212220057Y-196585771D01*
X212077200Y-196514342D01*
X212005771Y-196442914D01*
X214148628Y-195585771D02*
X214148628Y-196585771D01*
X213791485Y-195014342D02*
X213434342Y-196085771D01*
X214362914Y-196085771D01*
X215005771Y-196585771D02*
X215291485Y-196585771D01*
X215434342Y-196514342D01*
X215505771Y-196442914D01*
X215648628Y-196228628D01*
X215720057Y-195942914D01*
X215720057Y-195371485D01*
X215648628Y-195228628D01*
X215577200Y-195157200D01*
X215434342Y-195085771D01*
X215148628Y-195085771D01*
X215005771Y-195157200D01*
X214934342Y-195228628D01*
X214862914Y-195371485D01*
X214862914Y-195728628D01*
X214934342Y-195871485D01*
X215005771Y-195942914D01*
X215148628Y-196014342D01*
X215434342Y-196014342D01*
X215577200Y-195942914D01*
X215648628Y-195871485D01*
X215720057Y-195728628D01*
X217005771Y-196514342D02*
X216862914Y-196585771D01*
X216577200Y-196585771D01*
X216434342Y-196514342D01*
X216362914Y-196442914D01*
X216291485Y-196300057D01*
X216291485Y-195871485D01*
X216362914Y-195728628D01*
X216434342Y-195657200D01*
X216577200Y-195585771D01*
X216862914Y-195585771D01*
X217005771Y-195657200D01*
X218362914Y-195085771D02*
X217648628Y-195085771D01*
X217577200Y-195800057D01*
X217648628Y-195728628D01*
X217791485Y-195657200D01*
X218148628Y-195657200D01*
X218291485Y-195728628D01*
X218362914Y-195800057D01*
X218434342Y-195942914D01*
X218434342Y-196300057D01*
X218362914Y-196442914D01*
X218291485Y-196514342D01*
X218148628Y-196585771D01*
X217791485Y-196585771D01*
X217648628Y-196514342D01*
X217577200Y-196442914D01*
X218720057Y-194677200D02*
X220148628Y-194677200D01*
X219291485Y-195728628D02*
X219148628Y-195657200D01*
X219077200Y-195585771D01*
X219005771Y-195442914D01*
X219005771Y-195371485D01*
X219077200Y-195228628D01*
X219148628Y-195157200D01*
X219291485Y-195085771D01*
X219577200Y-195085771D01*
X219720057Y-195157200D01*
X219791485Y-195228628D01*
X219862914Y-195371485D01*
X219862914Y-195442914D01*
X219791485Y-195585771D01*
X219720057Y-195657200D01*
X219577200Y-195728628D01*
X219291485Y-195728628D01*
X219148628Y-195800057D01*
X219077200Y-195871485D01*
X219005771Y-196014342D01*
X219005771Y-196300057D01*
X219077200Y-196442914D01*
X219148628Y-196514342D01*
X219291485Y-196585771D01*
X219577200Y-196585771D01*
X219720057Y-196514342D01*
X219791485Y-196442914D01*
X219862914Y-196300057D01*
X219862914Y-196014342D01*
X219791485Y-195871485D01*
X219720057Y-195800057D01*
X219577200Y-195728628D01*
X220148628Y-194677200D02*
X221577199Y-194677200D01*
X221148628Y-195585771D02*
X221148628Y-196585771D01*
X220791485Y-195014342D02*
X220434342Y-196085771D01*
X221362914Y-196085771D01*
X222577199Y-195585771D02*
X222577199Y-196585771D01*
X221934342Y-195585771D02*
X221934342Y-196371485D01*
X222005771Y-196514342D01*
X222148628Y-196585771D01*
X222362914Y-196585771D01*
X222505771Y-196514342D01*
X222577199Y-196442914D01*
X223291485Y-196585771D02*
X223291485Y-195085771D01*
X223291485Y-195657200D02*
X223434342Y-195585771D01*
X223720057Y-195585771D01*
X223862914Y-195657200D01*
X223934342Y-195728628D01*
X224005771Y-195871485D01*
X224005771Y-196300057D01*
X223934342Y-196442914D01*
X223862914Y-196514342D01*
X223720057Y-196585771D01*
X223434342Y-196585771D01*
X223291485Y-196514342D01*
X225291485Y-195585771D02*
X225291485Y-196585771D01*
X224648628Y-195585771D02*
X224648628Y-196371485D01*
X224720057Y-196514342D01*
X224862914Y-196585771D01*
X225077199Y-196585771D01*
X225220057Y-196514342D01*
X225291485Y-196442914D01*
X226005771Y-195585771D02*
X226005771Y-196585771D01*
X226005771Y-195728628D02*
X226077199Y-195657200D01*
X226220057Y-195585771D01*
X226434342Y-195585771D01*
X226577199Y-195657200D01*
X226648628Y-195800057D01*
X226648628Y-196585771D01*
X227148628Y-195585771D02*
X227720057Y-195585771D01*
X227362914Y-195085771D02*
X227362914Y-196371485D01*
X227434342Y-196514342D01*
X227577200Y-196585771D01*
X227720057Y-196585771D01*
X228862914Y-195585771D02*
X228862914Y-196585771D01*
X228220057Y-195585771D02*
X228220057Y-196371485D01*
X228291485Y-196514342D01*
X228434342Y-196585771D01*
X228648628Y-196585771D01*
X228791485Y-196514342D01*
X228862914Y-196442914D01*
X230362914Y-196585771D02*
X229505771Y-196585771D01*
X229934342Y-196585771D02*
X229934342Y-195085771D01*
X229791485Y-195300057D01*
X229648628Y-195442914D01*
X229505771Y-195514342D01*
X231220057Y-195728628D02*
X231077199Y-195657200D01*
X231005771Y-195585771D01*
X230934342Y-195442914D01*
X230934342Y-195371485D01*
X231005771Y-195228628D01*
X231077199Y-195157200D01*
X231220057Y-195085771D01*
X231505771Y-195085771D01*
X231648628Y-195157200D01*
X231720057Y-195228628D01*
X231791485Y-195371485D01*
X231791485Y-195442914D01*
X231720057Y-195585771D01*
X231648628Y-195657200D01*
X231505771Y-195728628D01*
X231220057Y-195728628D01*
X231077199Y-195800057D01*
X231005771Y-195871485D01*
X230934342Y-196014342D01*
X230934342Y-196300057D01*
X231005771Y-196442914D01*
X231077199Y-196514342D01*
X231220057Y-196585771D01*
X231505771Y-196585771D01*
X231648628Y-196514342D01*
X231720057Y-196442914D01*
X231791485Y-196300057D01*
X231791485Y-196014342D01*
X231720057Y-195871485D01*
X231648628Y-195800057D01*
X231505771Y-195728628D01*
X232434342Y-196442914D02*
X232505771Y-196514342D01*
X232434342Y-196585771D01*
X232362914Y-196514342D01*
X232434342Y-196442914D01*
X232434342Y-196585771D01*
X233434342Y-195085771D02*
X233577199Y-195085771D01*
X233720057Y-195157200D01*
X233791485Y-195228628D01*
X233862914Y-195371485D01*
X233934342Y-195657200D01*
X233934342Y-196014342D01*
X233862914Y-196300057D01*
X233791485Y-196442914D01*
X233720057Y-196514342D01*
X233577199Y-196585771D01*
X233434342Y-196585771D01*
X233291485Y-196514342D01*
X233220057Y-196442914D01*
X233148628Y-196300057D01*
X233077199Y-196014342D01*
X233077199Y-195657200D01*
X233148628Y-195371485D01*
X233220057Y-195228628D01*
X233291485Y-195157200D01*
X233434342Y-195085771D01*
X235220057Y-195585771D02*
X235220057Y-196585771D01*
X234862914Y-195014342D02*
X234505771Y-196085771D01*
X235434342Y-196085771D01*
X236005771Y-196442914D02*
X236077199Y-196514342D01*
X236005771Y-196585771D01*
X235934342Y-196514342D01*
X236005771Y-196442914D01*
X236005771Y-196585771D01*
X237505771Y-196585771D02*
X236648628Y-196585771D01*
X237077199Y-196585771D02*
X237077199Y-195085771D01*
X236934342Y-195300057D01*
X236791485Y-195442914D01*
X236648628Y-195514342D01*
D10*
D11*
X177002200Y-191507200D02*
X285002200Y-191507200D01*
D10*
D12*
X264411485Y-193785771D02*
X263911485Y-193071485D01*
X263554342Y-193785771D02*
X263554342Y-192285771D01*
X264125771Y-192285771D01*
X264268628Y-192357200D01*
X264340057Y-192428628D01*
X264411485Y-192571485D01*
X264411485Y-192785771D01*
X264340057Y-192928628D01*
X264268628Y-193000057D01*
X264125771Y-193071485D01*
X263554342Y-193071485D01*
X265625771Y-193714342D02*
X265482914Y-193785771D01*
X265197200Y-193785771D01*
X265054342Y-193714342D01*
X264982914Y-193571485D01*
X264982914Y-193000057D01*
X265054342Y-192857200D01*
X265197200Y-192785771D01*
X265482914Y-192785771D01*
X265625771Y-192857200D01*
X265697200Y-193000057D01*
X265697200Y-193142914D01*
X264982914Y-193285771D01*
X266197200Y-192785771D02*
X266554342Y-193785771D01*
X266911485Y-192785771D01*
X267482914Y-193642914D02*
X267554342Y-193714342D01*
X267482914Y-193785771D01*
X267411485Y-193714342D01*
X267482914Y-193642914D01*
X267482914Y-193785771D01*
X267482914Y-192857200D02*
X267554342Y-192928628D01*
X267482914Y-193000057D01*
X267411485Y-192928628D01*
X267482914Y-192857200D01*
X267482914Y-193000057D01*
D10*
D11*
X178362914Y-193714342D02*
X178577200Y-193785771D01*
X178934342Y-193785771D01*
X179077200Y-193714342D01*
X179148628Y-193642914D01*
X179220057Y-193500057D01*
X179220057Y-193357200D01*
X179148628Y-193214342D01*
X179077200Y-193142914D01*
X178934342Y-193071485D01*
X178648628Y-193000057D01*
X178505771Y-192928628D01*
X178434342Y-192857200D01*
X178362914Y-192714342D01*
X178362914Y-192571485D01*
X178434342Y-192428628D01*
X178505771Y-192357200D01*
X178648628Y-192285771D01*
X179005771Y-192285771D01*
X179220057Y-192357200D01*
X179862914Y-193785771D02*
X179862914Y-192785771D01*
X179862914Y-192285771D02*
X179791485Y-192357200D01*
X179862914Y-192428628D01*
X179934342Y-192357200D01*
X179862914Y-192285771D01*
X179862914Y-192428628D01*
X180434342Y-192785771D02*
X181220057Y-192785771D01*
X180434342Y-193785771D01*
X181220057Y-193785771D01*
X182362914Y-193714342D02*
X182220057Y-193785771D01*
X181934342Y-193785771D01*
X181791485Y-193714342D01*
X181720057Y-193571485D01*
X181720057Y-193000057D01*
X181791485Y-192857200D01*
X181934342Y-192785771D01*
X182220057Y-192785771D01*
X182362914Y-192857200D01*
X182434342Y-193000057D01*
X182434342Y-193142914D01*
X181720057Y-193285771D01*
X183077200Y-193642914D02*
X183148628Y-193714342D01*
X183077200Y-193785771D01*
X183005771Y-193714342D01*
X183077200Y-193642914D01*
X183077200Y-193785771D01*
X183077200Y-192857200D02*
X183148628Y-192928628D01*
X183077200Y-193000057D01*
X183005771Y-192928628D01*
X183077200Y-192857200D01*
X183077200Y-193000057D01*
X184862914Y-193357200D02*
X185577200Y-193357200D01*
X184720057Y-193785771D02*
X185220057Y-192285771D01*
X185720057Y-193785771D01*
X186862914Y-192785771D02*
X186862914Y-193785771D01*
X186505771Y-192214342D02*
X186148628Y-193285771D01*
X187077200Y-193285771D01*
D10*
D11*
X263434342Y-196585771D02*
X263434342Y-195085771D01*
X264791485Y-196585771D02*
X264791485Y-195085771D01*
X264791485Y-196514342D02*
X264648628Y-196585771D01*
X264362914Y-196585771D01*
X264220057Y-196514342D01*
X264148628Y-196442914D01*
X264077200Y-196300057D01*
X264077200Y-195871485D01*
X264148628Y-195728628D01*
X264220057Y-195657200D01*
X264362914Y-195585771D01*
X264648628Y-195585771D01*
X264791485Y-195657200D01*
X265505771Y-196442914D02*
X265577200Y-196514342D01*
X265505771Y-196585771D01*
X265434342Y-196514342D01*
X265505771Y-196442914D01*
X265505771Y-196585771D01*
X265505771Y-195657200D02*
X265577200Y-195728628D01*
X265505771Y-195800057D01*
X265434342Y-195728628D01*
X265505771Y-195657200D01*
X265505771Y-195800057D01*
X268148628Y-196585771D02*
X267291485Y-196585771D01*
X267720057Y-196585771D02*
X267720057Y-195085771D01*
X267577200Y-195300057D01*
X267434342Y-195442914D01*
X267291485Y-195514342D01*
X269862914Y-195014342D02*
X268577200Y-196942914D01*
X271148628Y-196585771D02*
X270291485Y-196585771D01*
X270720057Y-196585771D02*
X270720057Y-195085771D01*
X270577200Y-195300057D01*
X270434342Y-195442914D01*
X270291485Y-195514342D01*
D10*
D11*
X177002200Y-187507200D02*
X285002200Y-187507200D01*
D10*
D13*
X178714580Y-188211961D02*
X179857438Y-188211961D01*
X179036009Y-190211961D02*
X179286009Y-188211961D01*
X180274104Y-190211961D02*
X180440771Y-188878628D01*
X180524104Y-188211961D02*
X180416961Y-188307200D01*
X180500295Y-188402438D01*
X180607438Y-188307200D01*
X180524104Y-188211961D01*
X180500295Y-188402438D01*
X181107438Y-188878628D02*
X181869342Y-188878628D01*
X181476485Y-188211961D02*
X181262200Y-189926247D01*
X181333628Y-190116723D01*
X181512200Y-190211961D01*
X181702676Y-190211961D01*
X182655057Y-190211961D02*
X182476485Y-190116723D01*
X182405057Y-189926247D01*
X182619342Y-188211961D01*
X184190771Y-190116723D02*
X183988390Y-190211961D01*
X183607438Y-190211961D01*
X183428866Y-190116723D01*
X183357438Y-189926247D01*
X183452676Y-189164342D01*
X183571723Y-188973866D01*
X183774104Y-188878628D01*
X184155057Y-188878628D01*
X184333628Y-188973866D01*
X184405057Y-189164342D01*
X184381247Y-189354819D01*
X183405057Y-189545295D01*
X185155057Y-190021485D02*
X185238390Y-190116723D01*
X185131247Y-190211961D01*
X185047914Y-190116723D01*
X185155057Y-190021485D01*
X185131247Y-190211961D01*
X185286009Y-188973866D02*
X185369342Y-189069104D01*
X185262200Y-189164342D01*
X185178866Y-189069104D01*
X185286009Y-188973866D01*
X185262200Y-189164342D01*
D10*
D11*
X178934342Y-185600057D02*
X178434342Y-185600057D01*
X178434342Y-186385771D02*
X178434342Y-184885771D01*
X179148628Y-184885771D01*
X179720057Y-186385771D02*
X179720057Y-185385771D01*
X179720057Y-184885771D02*
X179648628Y-184957200D01*
X179720057Y-185028628D01*
X179791485Y-184957200D01*
X179720057Y-184885771D01*
X179720057Y-185028628D01*
X180648628Y-186385771D02*
X180505771Y-186314342D01*
X180434342Y-186171485D01*
X180434342Y-184885771D01*
X181791485Y-186314342D02*
X181648628Y-186385771D01*
X181362914Y-186385771D01*
X181220057Y-186314342D01*
X181148628Y-186171485D01*
X181148628Y-185600057D01*
X181220057Y-185457200D01*
X181362914Y-185385771D01*
X181648628Y-185385771D01*
X181791485Y-185457200D01*
X181862914Y-185600057D01*
X181862914Y-185742914D01*
X181148628Y-185885771D01*
X182505771Y-186242914D02*
X182577200Y-186314342D01*
X182505771Y-186385771D01*
X182434342Y-186314342D01*
X182505771Y-186242914D01*
X182505771Y-186385771D01*
X182505771Y-185457200D02*
X182577200Y-185528628D01*
X182505771Y-185600057D01*
X182434342Y-185528628D01*
X182505771Y-185457200D01*
X182505771Y-185600057D01*
X184362914Y-186385771D02*
X184362914Y-184885771D01*
X184362914Y-185457200D02*
X184505771Y-185385771D01*
X184791485Y-185385771D01*
X184934342Y-185457200D01*
X185005771Y-185528628D01*
X185077200Y-185671485D01*
X185077200Y-186100057D01*
X185005771Y-186242914D01*
X184934342Y-186314342D01*
X184791485Y-186385771D01*
X184505771Y-186385771D01*
X184362914Y-186314342D01*
X185934342Y-186385771D02*
X185791485Y-186314342D01*
X185720057Y-186171485D01*
X185720057Y-184885771D01*
X187148628Y-186385771D02*
X187148628Y-184885771D01*
X187148628Y-186314342D02*
X187005771Y-186385771D01*
X186720057Y-186385771D01*
X186577200Y-186314342D01*
X186505771Y-186242914D01*
X186434342Y-186100057D01*
X186434342Y-185671485D01*
X186505771Y-185528628D01*
X186577200Y-185457200D01*
X186720057Y-185385771D01*
X187005771Y-185385771D01*
X187148628Y-185457200D01*
X188505771Y-186314342D02*
X188362914Y-186385771D01*
X188077200Y-186385771D01*
X187934342Y-186314342D01*
X187862914Y-186242914D01*
X187791485Y-186100057D01*
X187791485Y-185671485D01*
X187862914Y-185528628D01*
X187934342Y-185457200D01*
X188077200Y-185385771D01*
X188362914Y-185385771D01*
X188505771Y-185457200D01*
X188791485Y-186528628D02*
X189934342Y-186528628D01*
X190291485Y-186385771D02*
X190291485Y-185385771D01*
X190291485Y-185528628D02*
X190362914Y-185457200D01*
X190505771Y-185385771D01*
X190720057Y-185385771D01*
X190862914Y-185457200D01*
X190934342Y-185600057D01*
X190934342Y-186385771D01*
X190934342Y-185600057D02*
X191005771Y-185457200D01*
X191148628Y-185385771D01*
X191362914Y-185385771D01*
X191505771Y-185457200D01*
X191577200Y-185600057D01*
X191577200Y-186385771D01*
X192505771Y-186385771D02*
X192362914Y-186314342D01*
X192291485Y-186242914D01*
X192220057Y-186100057D01*
X192220057Y-185671485D01*
X192291485Y-185528628D01*
X192362914Y-185457200D01*
X192505771Y-185385771D01*
X192720057Y-185385771D01*
X192862914Y-185457200D01*
X192934342Y-185528628D01*
X193005771Y-185671485D01*
X193005771Y-186100057D01*
X192934342Y-186242914D01*
X192862914Y-186314342D01*
X192720057Y-186385771D01*
X192505771Y-186385771D01*
X193434342Y-185385771D02*
X194005771Y-185385771D01*
X193648628Y-184885771D02*
X193648628Y-186171485D01*
X193720057Y-186314342D01*
X193862914Y-186385771D01*
X194005771Y-186385771D01*
X194720057Y-186385771D02*
X194577200Y-186314342D01*
X194505771Y-186242914D01*
X194434342Y-186100057D01*
X194434342Y-185671485D01*
X194505771Y-185528628D01*
X194577200Y-185457200D01*
X194720057Y-185385771D01*
X194934342Y-185385771D01*
X195077200Y-185457200D01*
X195148628Y-185528628D01*
X195220057Y-185671485D01*
X195220057Y-186100057D01*
X195148628Y-186242914D01*
X195077200Y-186314342D01*
X194934342Y-186385771D01*
X194720057Y-186385771D01*
X195862914Y-186385771D02*
X195862914Y-185385771D01*
X195862914Y-185671485D02*
X195934342Y-185528628D01*
X196005771Y-185457200D01*
X196148628Y-185385771D01*
X196291485Y-185385771D01*
X196434342Y-186528628D02*
X197577200Y-186528628D01*
X198577200Y-186314342D02*
X198434342Y-186385771D01*
X198148628Y-186385771D01*
X198005771Y-186314342D01*
X197934342Y-186242914D01*
X197862914Y-186100057D01*
X197862914Y-185671485D01*
X197934342Y-185528628D01*
X198005771Y-185457200D01*
X198148628Y-185385771D01*
X198434342Y-185385771D01*
X198577200Y-185457200D01*
X199220057Y-185385771D02*
X199220057Y-186385771D01*
X199220057Y-185528628D02*
X199291485Y-185457200D01*
X199434342Y-185385771D01*
X199648628Y-185385771D01*
X199791485Y-185457200D01*
X199862914Y-185600057D01*
X199862914Y-186385771D01*
X200362914Y-185385771D02*
X200934342Y-185385771D01*
X200577200Y-184885771D02*
X200577200Y-186171485D01*
X200648628Y-186314342D01*
X200791485Y-186385771D01*
X200934342Y-186385771D01*
X201434342Y-186385771D02*
X201434342Y-185385771D01*
X201434342Y-185671485D02*
X201505771Y-185528628D01*
X201577200Y-185457200D01*
X201720057Y-185385771D01*
X201862914Y-185385771D01*
X202577200Y-186385771D02*
X202434342Y-186314342D01*
X202362914Y-186242914D01*
X202291485Y-186100057D01*
X202291485Y-185671485D01*
X202362914Y-185528628D01*
X202434342Y-185457200D01*
X202577200Y-185385771D01*
X202791485Y-185385771D01*
X202934342Y-185457200D01*
X203005771Y-185528628D01*
X203077200Y-185671485D01*
X203077200Y-186100057D01*
X203005771Y-186242914D01*
X202934342Y-186314342D01*
X202791485Y-186385771D01*
X202577200Y-186385771D01*
X203934342Y-186385771D02*
X203791485Y-186314342D01*
X203720057Y-186171485D01*
X203720057Y-184885771D01*
X204720057Y-186385771D02*
X204577200Y-186314342D01*
X204505771Y-186171485D01*
X204505771Y-184885771D01*
X205862914Y-186314342D02*
X205720057Y-186385771D01*
X205434342Y-186385771D01*
X205291485Y-186314342D01*
X205220057Y-186171485D01*
X205220057Y-185600057D01*
X205291485Y-185457200D01*
X205434342Y-185385771D01*
X205720057Y-185385771D01*
X205862914Y-185457200D01*
X205934342Y-185600057D01*
X205934342Y-185742914D01*
X205220057Y-185885771D01*
X206577200Y-186385771D02*
X206577200Y-185385771D01*
X206577200Y-185671485D02*
X206648628Y-185528628D01*
X206720057Y-185457200D01*
X206862914Y-185385771D01*
X207005771Y-185385771D01*
X207505771Y-186242914D02*
X207577200Y-186314342D01*
X207505771Y-186385771D01*
X207434342Y-186314342D01*
X207505771Y-186242914D01*
X207505771Y-186385771D01*
X208220057Y-186385771D02*
X208220057Y-184885771D01*
X208362914Y-185814342D02*
X208791485Y-186385771D01*
X208791485Y-185385771D02*
X208220057Y-185957200D01*
X209434342Y-186385771D02*
X209434342Y-185385771D01*
X209434342Y-184885771D02*
X209362914Y-184957200D01*
X209434342Y-185028628D01*
X209505771Y-184957200D01*
X209434342Y-184885771D01*
X209434342Y-185028628D01*
X210791485Y-186314342D02*
X210648628Y-186385771D01*
X210362914Y-186385771D01*
X210220057Y-186314342D01*
X210148628Y-186242914D01*
X210077200Y-186100057D01*
X210077200Y-185671485D01*
X210148628Y-185528628D01*
X210220057Y-185457200D01*
X210362914Y-185385771D01*
X210648628Y-185385771D01*
X210791485Y-185457200D01*
X212077200Y-186385771D02*
X212077200Y-185600057D01*
X212005771Y-185457200D01*
X211862914Y-185385771D01*
X211577200Y-185385771D01*
X211434342Y-185457200D01*
X212077200Y-186314342D02*
X211934342Y-186385771D01*
X211577200Y-186385771D01*
X211434342Y-186314342D01*
X211362914Y-186171485D01*
X211362914Y-186028628D01*
X211434342Y-185885771D01*
X211577200Y-185814342D01*
X211934342Y-185814342D01*
X212077200Y-185742914D01*
X213434342Y-186385771D02*
X213434342Y-184885771D01*
X213434342Y-186314342D02*
X213291485Y-186385771D01*
X213005771Y-186385771D01*
X212862914Y-186314342D01*
X212791485Y-186242914D01*
X212720057Y-186100057D01*
X212720057Y-185671485D01*
X212791485Y-185528628D01*
X212862914Y-185457200D01*
X213005771Y-185385771D01*
X213291485Y-185385771D01*
X213434342Y-185457200D01*
X213791485Y-186528628D02*
X214934342Y-186528628D01*
X215291485Y-185385771D02*
X215291485Y-186885771D01*
X215291485Y-185457200D02*
X215434342Y-185385771D01*
X215720057Y-185385771D01*
X215862914Y-185457200D01*
X215934342Y-185528628D01*
X216005771Y-185671485D01*
X216005771Y-186100057D01*
X215934342Y-186242914D01*
X215862914Y-186314342D01*
X215720057Y-186385771D01*
X215434342Y-186385771D01*
X215291485Y-186314342D01*
X217291485Y-186314342D02*
X217148628Y-186385771D01*
X216862914Y-186385771D01*
X216720057Y-186314342D01*
X216648628Y-186242914D01*
X216577200Y-186100057D01*
X216577200Y-185671485D01*
X216648628Y-185528628D01*
X216720057Y-185457200D01*
X216862914Y-185385771D01*
X217148628Y-185385771D01*
X217291485Y-185457200D01*
X217934342Y-186385771D02*
X217934342Y-184885771D01*
X217934342Y-185457200D02*
X218077200Y-185385771D01*
X218362914Y-185385771D01*
X218505771Y-185457200D01*
X218577200Y-185528628D01*
X218648628Y-185671485D01*
X218648628Y-186100057D01*
X218577200Y-186242914D01*
X218505771Y-186314342D01*
X218362914Y-186385771D01*
X218077200Y-186385771D01*
X217934342Y-186314342D01*
D10*
D11*
X177002200Y-181507200D02*
X285002200Y-181507200D01*
D10*
D11*
X178362914Y-183614342D02*
X178577200Y-183685771D01*
X178934342Y-183685771D01*
X179077200Y-183614342D01*
X179148628Y-183542914D01*
X179220057Y-183400057D01*
X179220057Y-183257200D01*
X179148628Y-183114342D01*
X179077200Y-183042914D01*
X178934342Y-182971485D01*
X178648628Y-182900057D01*
X178505771Y-182828628D01*
X178434342Y-182757200D01*
X178362914Y-182614342D01*
X178362914Y-182471485D01*
X178434342Y-182328628D01*
X178505771Y-182257200D01*
X178648628Y-182185771D01*
X179005771Y-182185771D01*
X179220057Y-182257200D01*
X179862914Y-183685771D02*
X179862914Y-182185771D01*
X180505771Y-183685771D02*
X180505771Y-182900057D01*
X180434342Y-182757200D01*
X180291485Y-182685771D01*
X180077200Y-182685771D01*
X179934342Y-182757200D01*
X179862914Y-182828628D01*
X181791485Y-183614342D02*
X181648628Y-183685771D01*
X181362914Y-183685771D01*
X181220057Y-183614342D01*
X181148628Y-183471485D01*
X181148628Y-182900057D01*
X181220057Y-182757200D01*
X181362914Y-182685771D01*
X181648628Y-182685771D01*
X181791485Y-182757200D01*
X181862914Y-182900057D01*
X181862914Y-183042914D01*
X181148628Y-183185771D01*
X183077200Y-183614342D02*
X182934342Y-183685771D01*
X182648628Y-183685771D01*
X182505771Y-183614342D01*
X182434342Y-183471485D01*
X182434342Y-182900057D01*
X182505771Y-182757200D01*
X182648628Y-182685771D01*
X182934342Y-182685771D01*
X183077200Y-182757200D01*
X183148628Y-182900057D01*
X183148628Y-183042914D01*
X182434342Y-183185771D01*
X183577200Y-182685771D02*
X184148628Y-182685771D01*
X183791485Y-182185771D02*
X183791485Y-183471485D01*
X183862914Y-183614342D01*
X184005771Y-183685771D01*
X184148628Y-183685771D01*
X184648628Y-183542914D02*
X184720057Y-183614342D01*
X184648628Y-183685771D01*
X184577200Y-183614342D01*
X184648628Y-183542914D01*
X184648628Y-183685771D01*
X184648628Y-182757200D02*
X184720057Y-182828628D01*
X184648628Y-182900057D01*
X184577200Y-182828628D01*
X184648628Y-182757200D01*
X184648628Y-182900057D01*
D10*
D11*
X197002200Y-191507200D02*
X197002200Y-194507200D01*
D10*
D11*
X261002200Y-191507200D02*
X261002200Y-198007200D01*
D14*
X100000000Y-90900000D02*
G75*
G02X100000000Y-93100000I0J-1100000D01*
G01*
X158000000Y-90100000D02*
G75*
G02X158000000Y-87900000I0J1100000D01*
G01*
X157100000Y-50000000D02*
G75*
G02X154900000Y-50000000I-1100000J0D01*
G01*
X103100000Y-50000000D02*
G75*
G02X100900000Y-50000000I-1100000J0D01*
G01*
X100900000Y-50000000D02*
X100000000Y-50000000D01*
X154900000Y-50000000D02*
X103100000Y-50000000D01*
X158000000Y-50000000D02*
X157100000Y-50000000D01*
X158000000Y-87900000D02*
X158000000Y-50000000D01*
X158000000Y-99900000D02*
X158000000Y-90100000D01*
X100000000Y-100000000D02*
X158000000Y-99900000D01*
X100000000Y-93100000D02*
X100000000Y-100000000D01*
X100000000Y-50000000D02*
X100000000Y-90900000D01*
X161821428Y-89092857D02*
X161821428Y-88235714D01*
X161821428Y-88664285D02*
X163321428Y-88664285D01*
X163107142Y-88521428D01*
X162964285Y-88378571D01*
X162892857Y-88235714D01*
X163321428Y-90021428D02*
X163321428Y-90164285D01*
X163250000Y-90307142D01*
X163178571Y-90378571D01*
X163035714Y-90450000D01*
X162750000Y-90521428D01*
X162392857Y-90521428D01*
X162107142Y-90450000D01*
X161964285Y-90378571D01*
X161892857Y-90307142D01*
X161821428Y-90164285D01*
X161821428Y-90021428D01*
X161892857Y-89878571D01*
X161964285Y-89807142D01*
X162107142Y-89735714D01*
X162392857Y-89664285D01*
X162750000Y-89664285D01*
X163035714Y-89735714D01*
X163178571Y-89807142D01*
X163250000Y-89878571D01*
X163321428Y-90021428D01*
X161964285Y-91164285D02*
X161892857Y-91235714D01*
X161821428Y-91164285D01*
X161892857Y-91092857D01*
X161964285Y-91164285D01*
X161821428Y-91164285D01*
X161821428Y-91950000D02*
X161821428Y-92235714D01*
X161892857Y-92378571D01*
X161964285Y-92450000D01*
X162178571Y-92592857D01*
X162464285Y-92664285D01*
X163035714Y-92664285D01*
X163178571Y-92592857D01*
X163250000Y-92521428D01*
X163321428Y-92378571D01*
X163321428Y-92092857D01*
X163250000Y-91950000D01*
X163178571Y-91878571D01*
X163035714Y-91807142D01*
X162678571Y-91807142D01*
X162535714Y-91878571D01*
X162464285Y-91950000D01*
X162392857Y-92092857D01*
X162392857Y-92378571D01*
X162464285Y-92521428D01*
X162535714Y-92592857D01*
X162678571Y-92664285D01*
X163321428Y-93592857D02*
X163321428Y-93735714D01*
X163250000Y-93878571D01*
X163178571Y-93950000D01*
X163035714Y-94021428D01*
X162750000Y-94092857D01*
X162392857Y-94092857D01*
X162107142Y-94021428D01*
X161964285Y-93950000D01*
X161892857Y-93878571D01*
X161821428Y-93735714D01*
X161821428Y-93592857D01*
X161892857Y-93450000D01*
X161964285Y-93378571D01*
X162107142Y-93307142D01*
X162392857Y-93235714D01*
X162750000Y-93235714D01*
X163035714Y-93307142D01*
X163178571Y-93378571D01*
X163250000Y-93450000D01*
X163321428Y-93592857D01*
X163321428Y-95021428D02*
X163321428Y-95164285D01*
X163250000Y-95307142D01*
X163178571Y-95378571D01*
X163035714Y-95450000D01*
X162750000Y-95521428D01*
X162392857Y-95521428D01*
X162107142Y-95450000D01*
X161964285Y-95378571D01*
X161892857Y-95307142D01*
X161821428Y-95164285D01*
X161821428Y-95021428D01*
X161892857Y-94878571D01*
X161964285Y-94807142D01*
X162107142Y-94735714D01*
X162392857Y-94664285D01*
X162750000Y-94664285D01*
X163035714Y-94735714D01*
X163178571Y-94807142D01*
X163250000Y-94878571D01*
X163321428Y-95021428D01*
X161821428Y-97307142D02*
X162821428Y-97307142D01*
X162678571Y-97307142D02*
X162750000Y-97378571D01*
X162821428Y-97521428D01*
X162821428Y-97735714D01*
X162750000Y-97878571D01*
X162607142Y-97950000D01*
X161821428Y-97950000D01*
X162607142Y-97950000D02*
X162750000Y-98021428D01*
X162821428Y-98164285D01*
X162821428Y-98378571D01*
X162750000Y-98521428D01*
X162607142Y-98592857D01*
X161821428Y-98592857D01*
X161821428Y-99307142D02*
X162821428Y-99307142D01*
X162678571Y-99307142D02*
X162750000Y-99378571D01*
X162821428Y-99521428D01*
X162821428Y-99735714D01*
X162750000Y-99878571D01*
X162607142Y-99950000D01*
X161821428Y-99950000D01*
X162607142Y-99950000D02*
X162750000Y-100021428D01*
X162821428Y-100164285D01*
X162821428Y-100378571D01*
X162750000Y-100521428D01*
X162607142Y-100592857D01*
X161821428Y-100592857D01*
X160600000Y-89000000D02*
X160600000Y-99900000D01*
X158000000Y-89000000D02*
X161186421Y-89000000D01*
X158000000Y-99900000D02*
X161186421Y-99900000D01*
X160600000Y-99900000D02*
X160013579Y-98773496D01*
X160600000Y-99900000D02*
X161186421Y-98773496D01*
X160600000Y-89000000D02*
X160013579Y-90126504D01*
X160600000Y-89000000D02*
X161186421Y-90126504D01*
X91278572Y-90785714D02*
X91350001Y-90642857D01*
X91421429Y-90571428D01*
X91564286Y-90500000D01*
X91635715Y-90500000D01*
X91778572Y-90571428D01*
X91850001Y-90642857D01*
X91921429Y-90785714D01*
X91921429Y-91071428D01*
X91850001Y-91214285D01*
X91778572Y-91285714D01*
X91635715Y-91357142D01*
X91564286Y-91357142D01*
X91421429Y-91285714D01*
X91350001Y-91214285D01*
X91278572Y-91071428D01*
X91278572Y-90785714D01*
X91207143Y-90642857D01*
X91135715Y-90571428D01*
X90992858Y-90500000D01*
X90707143Y-90500000D01*
X90564286Y-90571428D01*
X90492858Y-90642857D01*
X90421429Y-90785714D01*
X90421429Y-91071428D01*
X90492858Y-91214285D01*
X90564286Y-91285714D01*
X90707143Y-91357142D01*
X90992858Y-91357142D01*
X91135715Y-91285714D01*
X91207143Y-91214285D01*
X91278572Y-91071428D01*
X90564286Y-92000000D02*
X90492858Y-92071428D01*
X90421429Y-92000000D01*
X90492858Y-91928571D01*
X90564286Y-92000000D01*
X90421429Y-92000000D01*
X91921429Y-93000000D02*
X91921429Y-93142857D01*
X91850001Y-93285714D01*
X91778572Y-93357142D01*
X91635715Y-93428571D01*
X91350001Y-93500000D01*
X90992858Y-93500000D01*
X90707143Y-93428571D01*
X90564286Y-93357142D01*
X90492858Y-93285714D01*
X90421429Y-93142857D01*
X90421429Y-93000000D01*
X90492858Y-92857142D01*
X90564286Y-92785714D01*
X90707143Y-92714285D01*
X90992858Y-92642857D01*
X91350001Y-92642857D01*
X91635715Y-92714285D01*
X91778572Y-92785714D01*
X91850001Y-92857142D01*
X91921429Y-93000000D01*
X91921429Y-94428571D02*
X91921429Y-94571428D01*
X91850001Y-94714285D01*
X91778572Y-94785714D01*
X91635715Y-94857142D01*
X91350001Y-94928571D01*
X90992858Y-94928571D01*
X90707143Y-94857142D01*
X90564286Y-94785714D01*
X90492858Y-94714285D01*
X90421429Y-94571428D01*
X90421429Y-94428571D01*
X90492858Y-94285714D01*
X90564286Y-94214285D01*
X90707143Y-94142857D01*
X90992858Y-94071428D01*
X91350001Y-94071428D01*
X91635715Y-94142857D01*
X91778572Y-94214285D01*
X91850001Y-94285714D01*
X91921429Y-94428571D01*
X91921429Y-95857142D02*
X91921429Y-96000000D01*
X91850001Y-96142857D01*
X91778572Y-96214285D01*
X91635715Y-96285714D01*
X91350001Y-96357142D01*
X90992858Y-96357142D01*
X90707143Y-96285714D01*
X90564286Y-96214285D01*
X90492858Y-96142857D01*
X90421429Y-96000000D01*
X90421429Y-95857142D01*
X90492858Y-95714285D01*
X90564286Y-95642857D01*
X90707143Y-95571428D01*
X90992858Y-95500000D01*
X91350001Y-95500000D01*
X91635715Y-95571428D01*
X91778572Y-95642857D01*
X91850001Y-95714285D01*
X91921429Y-95857142D01*
X90421429Y-98142857D02*
X91421429Y-98142857D01*
X91278572Y-98142857D02*
X91350001Y-98214285D01*
X91421429Y-98357142D01*
X91421429Y-98571428D01*
X91350001Y-98714285D01*
X91207143Y-98785714D01*
X90421429Y-98785714D01*
X91207143Y-98785714D02*
X91350001Y-98857142D01*
X91421429Y-99000000D01*
X91421429Y-99214285D01*
X91350001Y-99357142D01*
X91207143Y-99428571D01*
X90421429Y-99428571D01*
X90421429Y-100142857D02*
X91421429Y-100142857D01*
X91278572Y-100142857D02*
X91350001Y-100214285D01*
X91421429Y-100357142D01*
X91421429Y-100571428D01*
X91350001Y-100714285D01*
X91207143Y-100785714D01*
X90421429Y-100785714D01*
X91207143Y-100785714D02*
X91350001Y-100857142D01*
X91421429Y-101000000D01*
X91421429Y-101214285D01*
X91350001Y-101357142D01*
X91207143Y-101428571D01*
X90421429Y-101428571D01*
X93000001Y-92000000D02*
X93000001Y-100000000D01*
X100000000Y-92000000D02*
X92413580Y-92000000D01*
X100000000Y-100000000D02*
X92413580Y-100000000D01*
X93000001Y-100000000D02*
X92413580Y-98873496D01*
X93000001Y-100000000D02*
X93586422Y-98873496D01*
X93000001Y-92000000D02*
X92413580Y-93126504D01*
X93000001Y-92000000D02*
X93586422Y-93126504D01*
X151500000Y-41321428D02*
X151571428Y-41250000D01*
X151714285Y-41178571D01*
X152071428Y-41178571D01*
X152214285Y-41250000D01*
X152285714Y-41321428D01*
X152357142Y-41464285D01*
X152357142Y-41607142D01*
X152285714Y-41821428D01*
X151428571Y-42678571D01*
X152357142Y-42678571D01*
X153000000Y-42535714D02*
X153071428Y-42607142D01*
X153000000Y-42678571D01*
X152928571Y-42607142D01*
X153000000Y-42535714D01*
X153000000Y-42678571D01*
X154000000Y-41178571D02*
X154142857Y-41178571D01*
X154285714Y-41250000D01*
X154357142Y-41321428D01*
X154428571Y-41464285D01*
X154500000Y-41750000D01*
X154500000Y-42107142D01*
X154428571Y-42392857D01*
X154357142Y-42535714D01*
X154285714Y-42607142D01*
X154142857Y-42678571D01*
X154000000Y-42678571D01*
X153857142Y-42607142D01*
X153785714Y-42535714D01*
X153714285Y-42392857D01*
X153642857Y-42107142D01*
X153642857Y-41750000D01*
X153714285Y-41464285D01*
X153785714Y-41321428D01*
X153857142Y-41250000D01*
X154000000Y-41178571D01*
X155428571Y-41178571D02*
X155571428Y-41178571D01*
X155714285Y-41250000D01*
X155785714Y-41321428D01*
X155857142Y-41464285D01*
X155928571Y-41750000D01*
X155928571Y-42107142D01*
X155857142Y-42392857D01*
X155785714Y-42535714D01*
X155714285Y-42607142D01*
X155571428Y-42678571D01*
X155428571Y-42678571D01*
X155285714Y-42607142D01*
X155214285Y-42535714D01*
X155142857Y-42392857D01*
X155071428Y-42107142D01*
X155071428Y-41750000D01*
X155142857Y-41464285D01*
X155214285Y-41321428D01*
X155285714Y-41250000D01*
X155428571Y-41178571D01*
X156857142Y-41178571D02*
X157000000Y-41178571D01*
X157142857Y-41250000D01*
X157214285Y-41321428D01*
X157285714Y-41464285D01*
X157357142Y-41750000D01*
X157357142Y-42107142D01*
X157285714Y-42392857D01*
X157214285Y-42535714D01*
X157142857Y-42607142D01*
X157000000Y-42678571D01*
X156857142Y-42678571D01*
X156714285Y-42607142D01*
X156642857Y-42535714D01*
X156571428Y-42392857D01*
X156500000Y-42107142D01*
X156500000Y-41750000D01*
X156571428Y-41464285D01*
X156642857Y-41321428D01*
X156714285Y-41250000D01*
X156857142Y-41178571D01*
X159142857Y-42678571D02*
X159142857Y-41678571D01*
X159142857Y-41821428D02*
X159214285Y-41750000D01*
X159357142Y-41678571D01*
X159571428Y-41678571D01*
X159714285Y-41750000D01*
X159785714Y-41892857D01*
X159785714Y-42678571D01*
X159785714Y-41892857D02*
X159857142Y-41750000D01*
X160000000Y-41678571D01*
X160214285Y-41678571D01*
X160357142Y-41750000D01*
X160428571Y-41892857D01*
X160428571Y-42678571D01*
X161142857Y-42678571D02*
X161142857Y-41678571D01*
X161142857Y-41821428D02*
X161214285Y-41750000D01*
X161357142Y-41678571D01*
X161571428Y-41678571D01*
X161714285Y-41750000D01*
X161785714Y-41892857D01*
X161785714Y-42678571D01*
X161785714Y-41892857D02*
X161857142Y-41750000D01*
X162000000Y-41678571D01*
X162214285Y-41678571D01*
X162357142Y-41750000D01*
X162428571Y-41892857D01*
X162428571Y-42678571D01*
X156000000Y-43900000D02*
X158000000Y-43900000D01*
X156000000Y-50000000D02*
X156000000Y-43313579D01*
X158000000Y-50000000D02*
X158000000Y-43313579D01*
X158000000Y-43900000D02*
X156873496Y-44486421D01*
X158000000Y-43900000D02*
X156873496Y-43313579D01*
X156000000Y-43900000D02*
X157126504Y-44486421D01*
X156000000Y-43900000D02*
X157126504Y-43313579D01*
X95500000Y-41621428D02*
X95571428Y-41550000D01*
X95714285Y-41478571D01*
X96071428Y-41478571D01*
X96214285Y-41550000D01*
X96285714Y-41621428D01*
X96357142Y-41764285D01*
X96357142Y-41907142D01*
X96285714Y-42121428D01*
X95428571Y-42978571D01*
X96357142Y-42978571D01*
X97000000Y-42835714D02*
X97071428Y-42907142D01*
X97000000Y-42978571D01*
X96928571Y-42907142D01*
X97000000Y-42835714D01*
X97000000Y-42978571D01*
X98000000Y-41478571D02*
X98142857Y-41478571D01*
X98285714Y-41550000D01*
X98357142Y-41621428D01*
X98428571Y-41764285D01*
X98500000Y-42050000D01*
X98500000Y-42407142D01*
X98428571Y-42692857D01*
X98357142Y-42835714D01*
X98285714Y-42907142D01*
X98142857Y-42978571D01*
X98000000Y-42978571D01*
X97857142Y-42907142D01*
X97785714Y-42835714D01*
X97714285Y-42692857D01*
X97642857Y-42407142D01*
X97642857Y-42050000D01*
X97714285Y-41764285D01*
X97785714Y-41621428D01*
X97857142Y-41550000D01*
X98000000Y-41478571D01*
X99428571Y-41478571D02*
X99571428Y-41478571D01*
X99714285Y-41550000D01*
X99785714Y-41621428D01*
X99857142Y-41764285D01*
X99928571Y-42050000D01*
X99928571Y-42407142D01*
X99857142Y-42692857D01*
X99785714Y-42835714D01*
X99714285Y-42907142D01*
X99571428Y-42978571D01*
X99428571Y-42978571D01*
X99285714Y-42907142D01*
X99214285Y-42835714D01*
X99142857Y-42692857D01*
X99071428Y-42407142D01*
X99071428Y-42050000D01*
X99142857Y-41764285D01*
X99214285Y-41621428D01*
X99285714Y-41550000D01*
X99428571Y-41478571D01*
X100857142Y-41478571D02*
X101000000Y-41478571D01*
X101142857Y-41550000D01*
X101214285Y-41621428D01*
X101285714Y-41764285D01*
X101357142Y-42050000D01*
X101357142Y-42407142D01*
X101285714Y-42692857D01*
X101214285Y-42835714D01*
X101142857Y-42907142D01*
X101000000Y-42978571D01*
X100857142Y-42978571D01*
X100714285Y-42907142D01*
X100642857Y-42835714D01*
X100571428Y-42692857D01*
X100500000Y-42407142D01*
X100500000Y-42050000D01*
X100571428Y-41764285D01*
X100642857Y-41621428D01*
X100714285Y-41550000D01*
X100857142Y-41478571D01*
X103142857Y-42978571D02*
X103142857Y-41978571D01*
X103142857Y-42121428D02*
X103214285Y-42050000D01*
X103357142Y-41978571D01*
X103571428Y-41978571D01*
X103714285Y-42050000D01*
X103785714Y-42192857D01*
X103785714Y-42978571D01*
X103785714Y-42192857D02*
X103857142Y-42050000D01*
X104000000Y-41978571D01*
X104214285Y-41978571D01*
X104357142Y-42050000D01*
X104428571Y-42192857D01*
X104428571Y-42978571D01*
X105142857Y-42978571D02*
X105142857Y-41978571D01*
X105142857Y-42121428D02*
X105214285Y-42050000D01*
X105357142Y-41978571D01*
X105571428Y-41978571D01*
X105714285Y-42050000D01*
X105785714Y-42192857D01*
X105785714Y-42978571D01*
X105785714Y-42192857D02*
X105857142Y-42050000D01*
X106000000Y-41978571D01*
X106214285Y-41978571D01*
X106357142Y-42050000D01*
X106428571Y-42192857D01*
X106428571Y-42978571D01*
X102000000Y-44200000D02*
X100000000Y-44200000D01*
X102000000Y-50000000D02*
X102000000Y-43613579D01*
X100000000Y-50000000D02*
X100000000Y-43613579D01*
X100000000Y-44200000D02*
X101126504Y-43613579D01*
X100000000Y-44200000D02*
X101126504Y-44786421D01*
X102000000Y-44200000D02*
X100873496Y-43613579D01*
X102000000Y-44200000D02*
X100873496Y-44786421D01*
X95121428Y-69571428D02*
X95121428Y-68857142D01*
X94407142Y-68785714D01*
X94478571Y-68857142D01*
X94550000Y-69000000D01*
X94550000Y-69357142D01*
X94478571Y-69500000D01*
X94407142Y-69571428D01*
X94264285Y-69642857D01*
X93907142Y-69642857D01*
X93764285Y-69571428D01*
X93692857Y-69500000D01*
X93621428Y-69357142D01*
X93621428Y-69000000D01*
X93692857Y-68857142D01*
X93764285Y-68785714D01*
X95121428Y-70571428D02*
X95121428Y-70714285D01*
X95050000Y-70857142D01*
X94978571Y-70928571D01*
X94835714Y-71000000D01*
X94550000Y-71071428D01*
X94192857Y-71071428D01*
X93907142Y-71000000D01*
X93764285Y-70928571D01*
X93692857Y-70857142D01*
X93621428Y-70714285D01*
X93621428Y-70571428D01*
X93692857Y-70428571D01*
X93764285Y-70357142D01*
X93907142Y-70285714D01*
X94192857Y-70214285D01*
X94550000Y-70214285D01*
X94835714Y-70285714D01*
X94978571Y-70357142D01*
X95050000Y-70428571D01*
X95121428Y-70571428D01*
X93764285Y-71714285D02*
X93692857Y-71785714D01*
X93621428Y-71714285D01*
X93692857Y-71642857D01*
X93764285Y-71714285D01*
X93621428Y-71714285D01*
X95121428Y-72714285D02*
X95121428Y-72857142D01*
X95050000Y-73000000D01*
X94978571Y-73071428D01*
X94835714Y-73142857D01*
X94550000Y-73214285D01*
X94192857Y-73214285D01*
X93907142Y-73142857D01*
X93764285Y-73071428D01*
X93692857Y-73000000D01*
X93621428Y-72857142D01*
X93621428Y-72714285D01*
X93692857Y-72571428D01*
X93764285Y-72500000D01*
X93907142Y-72428571D01*
X94192857Y-72357142D01*
X94550000Y-72357142D01*
X94835714Y-72428571D01*
X94978571Y-72500000D01*
X95050000Y-72571428D01*
X95121428Y-72714285D01*
X95121428Y-74142857D02*
X95121428Y-74285714D01*
X95050000Y-74428571D01*
X94978571Y-74500000D01*
X94835714Y-74571428D01*
X94550000Y-74642857D01*
X94192857Y-74642857D01*
X93907142Y-74571428D01*
X93764285Y-74500000D01*
X93692857Y-74428571D01*
X93621428Y-74285714D01*
X93621428Y-74142857D01*
X93692857Y-74000000D01*
X93764285Y-73928571D01*
X93907142Y-73857142D01*
X94192857Y-73785714D01*
X94550000Y-73785714D01*
X94835714Y-73857142D01*
X94978571Y-73928571D01*
X95050000Y-74000000D01*
X95121428Y-74142857D01*
X95121428Y-75571428D02*
X95121428Y-75714285D01*
X95050000Y-75857142D01*
X94978571Y-75928571D01*
X94835714Y-76000000D01*
X94550000Y-76071428D01*
X94192857Y-76071428D01*
X93907142Y-76000000D01*
X93764285Y-75928571D01*
X93692857Y-75857142D01*
X93621428Y-75714285D01*
X93621428Y-75571428D01*
X93692857Y-75428571D01*
X93764285Y-75357142D01*
X93907142Y-75285714D01*
X94192857Y-75214285D01*
X94550000Y-75214285D01*
X94835714Y-75285714D01*
X94978571Y-75357142D01*
X95050000Y-75428571D01*
X95121428Y-75571428D01*
X93621428Y-77857142D02*
X94621428Y-77857142D01*
X94478571Y-77857142D02*
X94550000Y-77928571D01*
X94621428Y-78071428D01*
X94621428Y-78285714D01*
X94550000Y-78428571D01*
X94407142Y-78500000D01*
X93621428Y-78500000D01*
X94407142Y-78500000D02*
X94550000Y-78571428D01*
X94621428Y-78714285D01*
X94621428Y-78928571D01*
X94550000Y-79071428D01*
X94407142Y-79142857D01*
X93621428Y-79142857D01*
X93621428Y-79857142D02*
X94621428Y-79857142D01*
X94478571Y-79857142D02*
X94550000Y-79928571D01*
X94621428Y-80071428D01*
X94621428Y-80285714D01*
X94550000Y-80428571D01*
X94407142Y-80500000D01*
X93621428Y-80500000D01*
X94407142Y-80500000D02*
X94550000Y-80571428D01*
X94621428Y-80714285D01*
X94621428Y-80928571D01*
X94550000Y-81071428D01*
X94407142Y-81142857D01*
X93621428Y-81142857D01*
X96200000Y-50000000D02*
X96200000Y-100000000D01*
X100000000Y-50000000D02*
X95613579Y-50000000D01*
X100000000Y-100000000D02*
X95613579Y-100000000D01*
X96200000Y-100000000D02*
X95613579Y-98873496D01*
X96200000Y-100000000D02*
X96786421Y-98873496D01*
X96200000Y-50000000D02*
X95613579Y-51126504D01*
X96200000Y-50000000D02*
X96786421Y-51126504D01*
X123571428Y-43478572D02*
X122857142Y-43478572D01*
X122785714Y-44192858D01*
X122857142Y-44121429D01*
X123000000Y-44050001D01*
X123357142Y-44050001D01*
X123500000Y-44121429D01*
X123571428Y-44192858D01*
X123642857Y-44335715D01*
X123642857Y-44692858D01*
X123571428Y-44835715D01*
X123500000Y-44907143D01*
X123357142Y-44978572D01*
X123000000Y-44978572D01*
X122857142Y-44907143D01*
X122785714Y-44835715D01*
X124500000Y-44121429D02*
X124357142Y-44050001D01*
X124285714Y-43978572D01*
X124214285Y-43835715D01*
X124214285Y-43764286D01*
X124285714Y-43621429D01*
X124357142Y-43550001D01*
X124500000Y-43478572D01*
X124785714Y-43478572D01*
X124928571Y-43550001D01*
X125000000Y-43621429D01*
X125071428Y-43764286D01*
X125071428Y-43835715D01*
X125000000Y-43978572D01*
X124928571Y-44050001D01*
X124785714Y-44121429D01*
X124500000Y-44121429D01*
X124357142Y-44192858D01*
X124285714Y-44264286D01*
X124214285Y-44407143D01*
X124214285Y-44692858D01*
X124285714Y-44835715D01*
X124357142Y-44907143D01*
X124500000Y-44978572D01*
X124785714Y-44978572D01*
X124928571Y-44907143D01*
X125000000Y-44835715D01*
X125071428Y-44692858D01*
X125071428Y-44407143D01*
X125000000Y-44264286D01*
X124928571Y-44192858D01*
X124785714Y-44121429D01*
X125714285Y-44835715D02*
X125785714Y-44907143D01*
X125714285Y-44978572D01*
X125642857Y-44907143D01*
X125714285Y-44835715D01*
X125714285Y-44978572D01*
X126714285Y-43478572D02*
X126857142Y-43478572D01*
X127000000Y-43550001D01*
X127071428Y-43621429D01*
X127142857Y-43764286D01*
X127214285Y-44050001D01*
X127214285Y-44407143D01*
X127142857Y-44692858D01*
X127071428Y-44835715D01*
X127000000Y-44907143D01*
X126857142Y-44978572D01*
X126714285Y-44978572D01*
X126571428Y-44907143D01*
X126500000Y-44835715D01*
X126428571Y-44692858D01*
X126357142Y-44407143D01*
X126357142Y-44050001D01*
X126428571Y-43764286D01*
X126500000Y-43621429D01*
X126571428Y-43550001D01*
X126714285Y-43478572D01*
X128142857Y-43478572D02*
X128285714Y-43478572D01*
X128428571Y-43550001D01*
X128500000Y-43621429D01*
X128571428Y-43764286D01*
X128642857Y-44050001D01*
X128642857Y-44407143D01*
X128571428Y-44692858D01*
X128500000Y-44835715D01*
X128428571Y-44907143D01*
X128285714Y-44978572D01*
X128142857Y-44978572D01*
X128000000Y-44907143D01*
X127928571Y-44835715D01*
X127857142Y-44692858D01*
X127785714Y-44407143D01*
X127785714Y-44050001D01*
X127857142Y-43764286D01*
X127928571Y-43621429D01*
X128000000Y-43550001D01*
X128142857Y-43478572D01*
X129571428Y-43478572D02*
X129714285Y-43478572D01*
X129857142Y-43550001D01*
X129928571Y-43621429D01*
X130000000Y-43764286D01*
X130071428Y-44050001D01*
X130071428Y-44407143D01*
X130000000Y-44692858D01*
X129928571Y-44835715D01*
X129857142Y-44907143D01*
X129714285Y-44978572D01*
X129571428Y-44978572D01*
X129428571Y-44907143D01*
X129357142Y-44835715D01*
X129285714Y-44692858D01*
X129214285Y-44407143D01*
X129214285Y-44050001D01*
X129285714Y-43764286D01*
X129357142Y-43621429D01*
X129428571Y-43550001D01*
X129571428Y-43478572D01*
X131857142Y-44978572D02*
X131857142Y-43978572D01*
X131857142Y-44121429D02*
X131928571Y-44050001D01*
X132071428Y-43978572D01*
X132285714Y-43978572D01*
X132428571Y-44050001D01*
X132500000Y-44192858D01*
X132500000Y-44978572D01*
X132500000Y-44192858D02*
X132571428Y-44050001D01*
X132714285Y-43978572D01*
X132928571Y-43978572D01*
X133071428Y-44050001D01*
X133142857Y-44192858D01*
X133142857Y-44978572D01*
X133857142Y-44978572D02*
X133857142Y-43978572D01*
X133857142Y-44121429D02*
X133928571Y-44050001D01*
X134071428Y-43978572D01*
X134285714Y-43978572D01*
X134428571Y-44050001D01*
X134500000Y-44192858D01*
X134500000Y-44978572D01*
X134500000Y-44192858D02*
X134571428Y-44050001D01*
X134714285Y-43978572D01*
X134928571Y-43978572D01*
X135071428Y-44050001D01*
X135142857Y-44192858D01*
X135142857Y-44978572D01*
X158000000Y-46200001D02*
X100000000Y-46200001D01*
X158000000Y-50000000D02*
X158000000Y-45613580D01*
X100000000Y-50000000D02*
X100000000Y-45613580D01*
X100000000Y-46200001D02*
X101126504Y-45613580D01*
X100000000Y-46200001D02*
X101126504Y-46786422D01*
X158000000Y-46200001D02*
X156873496Y-45613580D01*
X158000000Y-46200001D02*
X156873496Y-46786422D01*
D10*
X126235000Y-55065000D02*
X126870000Y-55700000D01*
X125600000Y-55065000D02*
X126870000Y-56335000D01*
X124965000Y-55065000D02*
X126235000Y-56335000D01*
X124330000Y-55700000D02*
X124965000Y-56335000D01*
X124330000Y-55065000D02*
X125600000Y-56335000D01*
X124330000Y-56335000D02*
X126870000Y-56335000D01*
X126870000Y-56335000D02*
X126870000Y-55065000D01*
X126870000Y-55065000D02*
X124330000Y-55065000D01*
X124330000Y-55065000D02*
X124330000Y-56335000D01*
D15*
X158250952Y-58871428D02*
X157850952Y-58871428D01*
X157850952Y-58719047D01*
X157870000Y-58680952D01*
X157889047Y-58661904D01*
X157927142Y-58642857D01*
X157984285Y-58642857D01*
X158022380Y-58661904D01*
X158041428Y-58680952D01*
X158060476Y-58719047D01*
X158060476Y-58871428D01*
X158212857Y-58242857D02*
X158231904Y-58261904D01*
X158250952Y-58319047D01*
X158250952Y-58357142D01*
X158231904Y-58414285D01*
X158193809Y-58452380D01*
X158155714Y-58471428D01*
X158079523Y-58490476D01*
X158022380Y-58490476D01*
X157946190Y-58471428D01*
X157908095Y-58452380D01*
X157870000Y-58414285D01*
X157850952Y-58357142D01*
X157850952Y-58319047D01*
X157870000Y-58261904D01*
X157889047Y-58242857D01*
X158041428Y-57938095D02*
X158060476Y-57880952D01*
X158079523Y-57861904D01*
X158117619Y-57842857D01*
X158174761Y-57842857D01*
X158212857Y-57861904D01*
X158231904Y-57880952D01*
X158250952Y-57919047D01*
X158250952Y-58071428D01*
X157850952Y-58071428D01*
X157850952Y-57938095D01*
X157870000Y-57900000D01*
X157889047Y-57880952D01*
X157927142Y-57861904D01*
X157965238Y-57861904D01*
X158003333Y-57880952D01*
X158022380Y-57900000D01*
X158041428Y-57938095D01*
X158041428Y-58071428D01*
X158041428Y-57366666D02*
X158041428Y-57233333D01*
X158250952Y-57176190D02*
X158250952Y-57366666D01*
X157850952Y-57366666D01*
X157850952Y-57176190D01*
X158250952Y-56833333D02*
X157850952Y-56833333D01*
X158231904Y-56833333D02*
X158250952Y-56871428D01*
X158250952Y-56947619D01*
X158231904Y-56985714D01*
X158212857Y-57004761D01*
X158174761Y-57023809D01*
X158060476Y-57023809D01*
X158022380Y-57004761D01*
X158003333Y-56985714D01*
X157984285Y-56947619D01*
X157984285Y-56871428D01*
X158003333Y-56833333D01*
X157984285Y-56471428D02*
X158308095Y-56471428D01*
X158346190Y-56490476D01*
X158365238Y-56509523D01*
X158384285Y-56547619D01*
X158384285Y-56604761D01*
X158365238Y-56642857D01*
X158231904Y-56471428D02*
X158250952Y-56509523D01*
X158250952Y-56585714D01*
X158231904Y-56623809D01*
X158212857Y-56642857D01*
X158174761Y-56661904D01*
X158060476Y-56661904D01*
X158022380Y-56642857D01*
X158003333Y-56623809D01*
X157984285Y-56585714D01*
X157984285Y-56509523D01*
X158003333Y-56471428D01*
X158231904Y-56128571D02*
X158250952Y-56166666D01*
X158250952Y-56242857D01*
X158231904Y-56280952D01*
X158193809Y-56300000D01*
X158041428Y-56300000D01*
X158003333Y-56280952D01*
X157984285Y-56242857D01*
X157984285Y-56166666D01*
X158003333Y-56128571D01*
X158041428Y-56109523D01*
X158079523Y-56109523D01*
X158117619Y-56300000D01*
M02*
