G04 #@! TF.GenerationSoftware,KiCad,Pcbnew,5.1.5-52549c5~84~ubuntu18.04.1*
G04 #@! TF.CreationDate,2020-02-16T22:49:11+01:00*
G04 #@! TF.ProjectId,bldc_motor_cntroller,626c6463-5f6d-46f7-946f-725f636e7472,rev?*
G04 #@! TF.SameCoordinates,Original*
G04 #@! TF.FileFunction,Other,Fab,Bot*
%FSLAX46Y46*%
G04 Gerber Fmt 4.6, Leading zero omitted, Abs format (unit mm)*
G04 Created by KiCad (PCBNEW 5.1.5-52549c5~84~ubuntu18.04.1) date 2020-02-16 22:49:11*
%MOMM*%
%LPD*%
G04 APERTURE LIST*
%ADD10C,0.100000*%
%ADD11C,0.150000*%
%ADD12C,0.300000*%
%ADD13C,0.400000*%
%ADD14C,0.120000*%
%ADD15C,0.075000*%
%ADD16C,0.040000*%
G04 APERTURE END LIST*
D10*
D11*
X177002200Y-166007200D02*
X177002200Y-198007200D01*
X285002200Y-198007200D01*
X285002200Y-166007200D01*
X177002200Y-166007200D01*
D10*
D11*
X10000000Y-10000000D02*
X10000000Y-200007200D01*
X287002200Y-200007200D01*
X287002200Y-10000000D01*
X10000000Y-10000000D01*
D10*
D11*
X12000000Y-12000000D02*
X12000000Y-198007200D01*
X285002200Y-198007200D01*
X285002200Y-12000000D01*
X12000000Y-12000000D01*
D10*
D11*
X60000000Y-12000000D02*
X60000000Y-10000000D01*
D10*
D11*
X110000000Y-12000000D02*
X110000000Y-10000000D01*
D10*
D11*
X160000000Y-12000000D02*
X160000000Y-10000000D01*
D10*
D11*
X210000000Y-12000000D02*
X210000000Y-10000000D01*
D10*
D11*
X260000000Y-12000000D02*
X260000000Y-10000000D01*
D10*
D11*
X36065476Y-11588095D02*
X35322619Y-11588095D01*
X35694047Y-11588095D02*
X35694047Y-10288095D01*
X35570238Y-10473809D01*
X35446428Y-10597619D01*
X35322619Y-10659523D01*
D10*
D11*
X85322619Y-10411904D02*
X85384523Y-10350000D01*
X85508333Y-10288095D01*
X85817857Y-10288095D01*
X85941666Y-10350000D01*
X86003571Y-10411904D01*
X86065476Y-10535714D01*
X86065476Y-10659523D01*
X86003571Y-10845238D01*
X85260714Y-11588095D01*
X86065476Y-11588095D01*
D10*
D11*
X135260714Y-10288095D02*
X136065476Y-10288095D01*
X135632142Y-10783333D01*
X135817857Y-10783333D01*
X135941666Y-10845238D01*
X136003571Y-10907142D01*
X136065476Y-11030952D01*
X136065476Y-11340476D01*
X136003571Y-11464285D01*
X135941666Y-11526190D01*
X135817857Y-11588095D01*
X135446428Y-11588095D01*
X135322619Y-11526190D01*
X135260714Y-11464285D01*
D10*
D11*
X185941666Y-10721428D02*
X185941666Y-11588095D01*
X185632142Y-10226190D02*
X185322619Y-11154761D01*
X186127380Y-11154761D01*
D10*
D11*
X236003571Y-10288095D02*
X235384523Y-10288095D01*
X235322619Y-10907142D01*
X235384523Y-10845238D01*
X235508333Y-10783333D01*
X235817857Y-10783333D01*
X235941666Y-10845238D01*
X236003571Y-10907142D01*
X236065476Y-11030952D01*
X236065476Y-11340476D01*
X236003571Y-11464285D01*
X235941666Y-11526190D01*
X235817857Y-11588095D01*
X235508333Y-11588095D01*
X235384523Y-11526190D01*
X235322619Y-11464285D01*
D10*
D11*
X285941666Y-10288095D02*
X285694047Y-10288095D01*
X285570238Y-10350000D01*
X285508333Y-10411904D01*
X285384523Y-10597619D01*
X285322619Y-10845238D01*
X285322619Y-11340476D01*
X285384523Y-11464285D01*
X285446428Y-11526190D01*
X285570238Y-11588095D01*
X285817857Y-11588095D01*
X285941666Y-11526190D01*
X286003571Y-11464285D01*
X286065476Y-11340476D01*
X286065476Y-11030952D01*
X286003571Y-10907142D01*
X285941666Y-10845238D01*
X285817857Y-10783333D01*
X285570238Y-10783333D01*
X285446428Y-10845238D01*
X285384523Y-10907142D01*
X285322619Y-11030952D01*
D10*
D11*
X60000000Y-198007200D02*
X60000000Y-200007200D01*
D10*
D11*
X110000000Y-198007200D02*
X110000000Y-200007200D01*
D10*
D11*
X160000000Y-198007200D02*
X160000000Y-200007200D01*
D10*
D11*
X210000000Y-198007200D02*
X210000000Y-200007200D01*
D10*
D11*
X260000000Y-198007200D02*
X260000000Y-200007200D01*
D10*
D11*
X36065476Y-199595295D02*
X35322619Y-199595295D01*
X35694047Y-199595295D02*
X35694047Y-198295295D01*
X35570238Y-198481009D01*
X35446428Y-198604819D01*
X35322619Y-198666723D01*
D10*
D11*
X85322619Y-198419104D02*
X85384523Y-198357200D01*
X85508333Y-198295295D01*
X85817857Y-198295295D01*
X85941666Y-198357200D01*
X86003571Y-198419104D01*
X86065476Y-198542914D01*
X86065476Y-198666723D01*
X86003571Y-198852438D01*
X85260714Y-199595295D01*
X86065476Y-199595295D01*
D10*
D11*
X135260714Y-198295295D02*
X136065476Y-198295295D01*
X135632142Y-198790533D01*
X135817857Y-198790533D01*
X135941666Y-198852438D01*
X136003571Y-198914342D01*
X136065476Y-199038152D01*
X136065476Y-199347676D01*
X136003571Y-199471485D01*
X135941666Y-199533390D01*
X135817857Y-199595295D01*
X135446428Y-199595295D01*
X135322619Y-199533390D01*
X135260714Y-199471485D01*
D10*
D11*
X185941666Y-198728628D02*
X185941666Y-199595295D01*
X185632142Y-198233390D02*
X185322619Y-199161961D01*
X186127380Y-199161961D01*
D10*
D11*
X236003571Y-198295295D02*
X235384523Y-198295295D01*
X235322619Y-198914342D01*
X235384523Y-198852438D01*
X235508333Y-198790533D01*
X235817857Y-198790533D01*
X235941666Y-198852438D01*
X236003571Y-198914342D01*
X236065476Y-199038152D01*
X236065476Y-199347676D01*
X236003571Y-199471485D01*
X235941666Y-199533390D01*
X235817857Y-199595295D01*
X235508333Y-199595295D01*
X235384523Y-199533390D01*
X235322619Y-199471485D01*
D10*
D11*
X285941666Y-198295295D02*
X285694047Y-198295295D01*
X285570238Y-198357200D01*
X285508333Y-198419104D01*
X285384523Y-198604819D01*
X285322619Y-198852438D01*
X285322619Y-199347676D01*
X285384523Y-199471485D01*
X285446428Y-199533390D01*
X285570238Y-199595295D01*
X285817857Y-199595295D01*
X285941666Y-199533390D01*
X286003571Y-199471485D01*
X286065476Y-199347676D01*
X286065476Y-199038152D01*
X286003571Y-198914342D01*
X285941666Y-198852438D01*
X285817857Y-198790533D01*
X285570238Y-198790533D01*
X285446428Y-198852438D01*
X285384523Y-198914342D01*
X285322619Y-199038152D01*
D10*
D11*
X10000000Y-60000000D02*
X12000000Y-60000000D01*
D10*
D11*
X10000000Y-110000000D02*
X12000000Y-110000000D01*
D10*
D11*
X10000000Y-160000000D02*
X12000000Y-160000000D01*
D10*
D11*
X10690476Y-35216666D02*
X11309523Y-35216666D01*
X10566666Y-35588095D02*
X11000000Y-34288095D01*
X11433333Y-35588095D01*
D10*
D11*
X11092857Y-84907142D02*
X11278571Y-84969047D01*
X11340476Y-85030952D01*
X11402380Y-85154761D01*
X11402380Y-85340476D01*
X11340476Y-85464285D01*
X11278571Y-85526190D01*
X11154761Y-85588095D01*
X10659523Y-85588095D01*
X10659523Y-84288095D01*
X11092857Y-84288095D01*
X11216666Y-84350000D01*
X11278571Y-84411904D01*
X11340476Y-84535714D01*
X11340476Y-84659523D01*
X11278571Y-84783333D01*
X11216666Y-84845238D01*
X11092857Y-84907142D01*
X10659523Y-84907142D01*
D10*
D11*
X11402380Y-135464285D02*
X11340476Y-135526190D01*
X11154761Y-135588095D01*
X11030952Y-135588095D01*
X10845238Y-135526190D01*
X10721428Y-135402380D01*
X10659523Y-135278571D01*
X10597619Y-135030952D01*
X10597619Y-134845238D01*
X10659523Y-134597619D01*
X10721428Y-134473809D01*
X10845238Y-134350000D01*
X11030952Y-134288095D01*
X11154761Y-134288095D01*
X11340476Y-134350000D01*
X11402380Y-134411904D01*
D10*
D11*
X10659523Y-185588095D02*
X10659523Y-184288095D01*
X10969047Y-184288095D01*
X11154761Y-184350000D01*
X11278571Y-184473809D01*
X11340476Y-184597619D01*
X11402380Y-184845238D01*
X11402380Y-185030952D01*
X11340476Y-185278571D01*
X11278571Y-185402380D01*
X11154761Y-185526190D01*
X10969047Y-185588095D01*
X10659523Y-185588095D01*
D10*
D11*
X287002200Y-60000000D02*
X285002200Y-60000000D01*
D10*
D11*
X287002200Y-110000000D02*
X285002200Y-110000000D01*
D10*
D11*
X287002200Y-160000000D02*
X285002200Y-160000000D01*
D10*
D11*
X285692676Y-35216666D02*
X286311723Y-35216666D01*
X285568866Y-35588095D02*
X286002200Y-34288095D01*
X286435533Y-35588095D01*
D10*
D11*
X286095057Y-84907142D02*
X286280771Y-84969047D01*
X286342676Y-85030952D01*
X286404580Y-85154761D01*
X286404580Y-85340476D01*
X286342676Y-85464285D01*
X286280771Y-85526190D01*
X286156961Y-85588095D01*
X285661723Y-85588095D01*
X285661723Y-84288095D01*
X286095057Y-84288095D01*
X286218866Y-84350000D01*
X286280771Y-84411904D01*
X286342676Y-84535714D01*
X286342676Y-84659523D01*
X286280771Y-84783333D01*
X286218866Y-84845238D01*
X286095057Y-84907142D01*
X285661723Y-84907142D01*
D10*
D11*
X286404580Y-135464285D02*
X286342676Y-135526190D01*
X286156961Y-135588095D01*
X286033152Y-135588095D01*
X285847438Y-135526190D01*
X285723628Y-135402380D01*
X285661723Y-135278571D01*
X285599819Y-135030952D01*
X285599819Y-134845238D01*
X285661723Y-134597619D01*
X285723628Y-134473809D01*
X285847438Y-134350000D01*
X286033152Y-134288095D01*
X286156961Y-134288095D01*
X286342676Y-134350000D01*
X286404580Y-134411904D01*
D10*
D11*
X285661723Y-185588095D02*
X285661723Y-184288095D01*
X285971247Y-184288095D01*
X286156961Y-184350000D01*
X286280771Y-184473809D01*
X286342676Y-184597619D01*
X286404580Y-184845238D01*
X286404580Y-185030952D01*
X286342676Y-185278571D01*
X286280771Y-185402380D01*
X286156961Y-185526190D01*
X285971247Y-185588095D01*
X285661723Y-185588095D01*
D10*
D11*
X200434342Y-193785771D02*
X200434342Y-192285771D01*
X200791485Y-192285771D01*
X201005771Y-192357200D01*
X201148628Y-192500057D01*
X201220057Y-192642914D01*
X201291485Y-192928628D01*
X201291485Y-193142914D01*
X201220057Y-193428628D01*
X201148628Y-193571485D01*
X201005771Y-193714342D01*
X200791485Y-193785771D01*
X200434342Y-193785771D01*
X202577200Y-193785771D02*
X202577200Y-193000057D01*
X202505771Y-192857200D01*
X202362914Y-192785771D01*
X202077200Y-192785771D01*
X201934342Y-192857200D01*
X202577200Y-193714342D02*
X202434342Y-193785771D01*
X202077200Y-193785771D01*
X201934342Y-193714342D01*
X201862914Y-193571485D01*
X201862914Y-193428628D01*
X201934342Y-193285771D01*
X202077200Y-193214342D01*
X202434342Y-193214342D01*
X202577200Y-193142914D01*
X203077200Y-192785771D02*
X203648628Y-192785771D01*
X203291485Y-192285771D02*
X203291485Y-193571485D01*
X203362914Y-193714342D01*
X203505771Y-193785771D01*
X203648628Y-193785771D01*
X204720057Y-193714342D02*
X204577200Y-193785771D01*
X204291485Y-193785771D01*
X204148628Y-193714342D01*
X204077200Y-193571485D01*
X204077200Y-193000057D01*
X204148628Y-192857200D01*
X204291485Y-192785771D01*
X204577200Y-192785771D01*
X204720057Y-192857200D01*
X204791485Y-193000057D01*
X204791485Y-193142914D01*
X204077200Y-193285771D01*
X205434342Y-193642914D02*
X205505771Y-193714342D01*
X205434342Y-193785771D01*
X205362914Y-193714342D01*
X205434342Y-193642914D01*
X205434342Y-193785771D01*
X205434342Y-192857200D02*
X205505771Y-192928628D01*
X205434342Y-193000057D01*
X205362914Y-192928628D01*
X205434342Y-192857200D01*
X205434342Y-193000057D01*
D10*
D11*
X177002200Y-194507200D02*
X285002200Y-194507200D01*
D10*
D11*
X178434342Y-196585771D02*
X178434342Y-195085771D01*
X179291485Y-196585771D02*
X178648628Y-195728628D01*
X179291485Y-195085771D02*
X178434342Y-195942914D01*
X179934342Y-196585771D02*
X179934342Y-195585771D01*
X179934342Y-195085771D02*
X179862914Y-195157200D01*
X179934342Y-195228628D01*
X180005771Y-195157200D01*
X179934342Y-195085771D01*
X179934342Y-195228628D01*
X181505771Y-196442914D02*
X181434342Y-196514342D01*
X181220057Y-196585771D01*
X181077200Y-196585771D01*
X180862914Y-196514342D01*
X180720057Y-196371485D01*
X180648628Y-196228628D01*
X180577200Y-195942914D01*
X180577200Y-195728628D01*
X180648628Y-195442914D01*
X180720057Y-195300057D01*
X180862914Y-195157200D01*
X181077200Y-195085771D01*
X181220057Y-195085771D01*
X181434342Y-195157200D01*
X181505771Y-195228628D01*
X182791485Y-196585771D02*
X182791485Y-195800057D01*
X182720057Y-195657200D01*
X182577200Y-195585771D01*
X182291485Y-195585771D01*
X182148628Y-195657200D01*
X182791485Y-196514342D02*
X182648628Y-196585771D01*
X182291485Y-196585771D01*
X182148628Y-196514342D01*
X182077200Y-196371485D01*
X182077200Y-196228628D01*
X182148628Y-196085771D01*
X182291485Y-196014342D01*
X182648628Y-196014342D01*
X182791485Y-195942914D01*
X184148628Y-196585771D02*
X184148628Y-195085771D01*
X184148628Y-196514342D02*
X184005771Y-196585771D01*
X183720057Y-196585771D01*
X183577200Y-196514342D01*
X183505771Y-196442914D01*
X183434342Y-196300057D01*
X183434342Y-195871485D01*
X183505771Y-195728628D01*
X183577200Y-195657200D01*
X183720057Y-195585771D01*
X184005771Y-195585771D01*
X184148628Y-195657200D01*
X186005771Y-195800057D02*
X186505771Y-195800057D01*
X186720057Y-196585771D02*
X186005771Y-196585771D01*
X186005771Y-195085771D01*
X186720057Y-195085771D01*
X187362914Y-196442914D02*
X187434342Y-196514342D01*
X187362914Y-196585771D01*
X187291485Y-196514342D01*
X187362914Y-196442914D01*
X187362914Y-196585771D01*
X188077200Y-196585771D02*
X188077200Y-195085771D01*
X188434342Y-195085771D01*
X188648628Y-195157200D01*
X188791485Y-195300057D01*
X188862914Y-195442914D01*
X188934342Y-195728628D01*
X188934342Y-195942914D01*
X188862914Y-196228628D01*
X188791485Y-196371485D01*
X188648628Y-196514342D01*
X188434342Y-196585771D01*
X188077200Y-196585771D01*
X189577200Y-196442914D02*
X189648628Y-196514342D01*
X189577200Y-196585771D01*
X189505771Y-196514342D01*
X189577200Y-196442914D01*
X189577200Y-196585771D01*
X190220057Y-196157200D02*
X190934342Y-196157200D01*
X190077200Y-196585771D02*
X190577200Y-195085771D01*
X191077200Y-196585771D01*
X191577200Y-196442914D02*
X191648628Y-196514342D01*
X191577200Y-196585771D01*
X191505771Y-196514342D01*
X191577200Y-196442914D01*
X191577200Y-196585771D01*
X194577200Y-196585771D02*
X194577200Y-195085771D01*
X194720057Y-196014342D02*
X195148628Y-196585771D01*
X195148628Y-195585771D02*
X194577200Y-196157200D01*
X195791485Y-196585771D02*
X195791485Y-195585771D01*
X195791485Y-195085771D02*
X195720057Y-195157200D01*
X195791485Y-195228628D01*
X195862914Y-195157200D01*
X195791485Y-195085771D01*
X195791485Y-195228628D01*
X197148628Y-196514342D02*
X197005771Y-196585771D01*
X196720057Y-196585771D01*
X196577200Y-196514342D01*
X196505771Y-196442914D01*
X196434342Y-196300057D01*
X196434342Y-195871485D01*
X196505771Y-195728628D01*
X196577200Y-195657200D01*
X196720057Y-195585771D01*
X197005771Y-195585771D01*
X197148628Y-195657200D01*
X198434342Y-196585771D02*
X198434342Y-195800057D01*
X198362914Y-195657200D01*
X198220057Y-195585771D01*
X197934342Y-195585771D01*
X197791485Y-195657200D01*
X198434342Y-196514342D02*
X198291485Y-196585771D01*
X197934342Y-196585771D01*
X197791485Y-196514342D01*
X197720057Y-196371485D01*
X197720057Y-196228628D01*
X197791485Y-196085771D01*
X197934342Y-196014342D01*
X198291485Y-196014342D01*
X198434342Y-195942914D01*
X199791485Y-196585771D02*
X199791485Y-195085771D01*
X199791485Y-196514342D02*
X199648628Y-196585771D01*
X199362914Y-196585771D01*
X199220057Y-196514342D01*
X199148628Y-196442914D01*
X199077200Y-196300057D01*
X199077200Y-195871485D01*
X199148628Y-195728628D01*
X199220057Y-195657200D01*
X199362914Y-195585771D01*
X199648628Y-195585771D01*
X199791485Y-195657200D01*
X202362914Y-195085771D02*
X201648628Y-195085771D01*
X201577200Y-195800057D01*
X201648628Y-195728628D01*
X201791485Y-195657200D01*
X202148628Y-195657200D01*
X202291485Y-195728628D01*
X202362914Y-195800057D01*
X202434342Y-195942914D01*
X202434342Y-196300057D01*
X202362914Y-196442914D01*
X202291485Y-196514342D01*
X202148628Y-196585771D01*
X201791485Y-196585771D01*
X201648628Y-196514342D01*
X201577200Y-196442914D01*
X203077200Y-196442914D02*
X203148628Y-196514342D01*
X203077200Y-196585771D01*
X203005771Y-196514342D01*
X203077200Y-196442914D01*
X203077200Y-196585771D01*
X204577200Y-196585771D02*
X203720057Y-196585771D01*
X204148628Y-196585771D02*
X204148628Y-195085771D01*
X204005771Y-195300057D01*
X203862914Y-195442914D01*
X203720057Y-195514342D01*
X205220057Y-196442914D02*
X205291485Y-196514342D01*
X205220057Y-196585771D01*
X205148628Y-196514342D01*
X205220057Y-196442914D01*
X205220057Y-196585771D01*
X206648628Y-195085771D02*
X205934342Y-195085771D01*
X205862914Y-195800057D01*
X205934342Y-195728628D01*
X206077200Y-195657200D01*
X206434342Y-195657200D01*
X206577200Y-195728628D01*
X206648628Y-195800057D01*
X206720057Y-195942914D01*
X206720057Y-196300057D01*
X206648628Y-196442914D01*
X206577200Y-196514342D01*
X206434342Y-196585771D01*
X206077200Y-196585771D01*
X205934342Y-196514342D01*
X205862914Y-196442914D01*
X207362914Y-196014342D02*
X208505771Y-196014342D01*
X209934342Y-195085771D02*
X209220057Y-195085771D01*
X209148628Y-195800057D01*
X209220057Y-195728628D01*
X209362914Y-195657200D01*
X209720057Y-195657200D01*
X209862914Y-195728628D01*
X209934342Y-195800057D01*
X210005771Y-195942914D01*
X210005771Y-196300057D01*
X209934342Y-196442914D01*
X209862914Y-196514342D01*
X209720057Y-196585771D01*
X209362914Y-196585771D01*
X209220057Y-196514342D01*
X209148628Y-196442914D01*
X210577200Y-195228628D02*
X210648628Y-195157200D01*
X210791485Y-195085771D01*
X211148628Y-195085771D01*
X211291485Y-195157200D01*
X211362914Y-195228628D01*
X211434342Y-195371485D01*
X211434342Y-195514342D01*
X211362914Y-195728628D01*
X210505771Y-196585771D01*
X211434342Y-196585771D01*
X212791485Y-195085771D02*
X212077200Y-195085771D01*
X212005771Y-195800057D01*
X212077200Y-195728628D01*
X212220057Y-195657200D01*
X212577200Y-195657200D01*
X212720057Y-195728628D01*
X212791485Y-195800057D01*
X212862914Y-195942914D01*
X212862914Y-196300057D01*
X212791485Y-196442914D01*
X212720057Y-196514342D01*
X212577200Y-196585771D01*
X212220057Y-196585771D01*
X212077200Y-196514342D01*
X212005771Y-196442914D01*
X214148628Y-195585771D02*
X214148628Y-196585771D01*
X213791485Y-195014342D02*
X213434342Y-196085771D01*
X214362914Y-196085771D01*
X215005771Y-196585771D02*
X215291485Y-196585771D01*
X215434342Y-196514342D01*
X215505771Y-196442914D01*
X215648628Y-196228628D01*
X215720057Y-195942914D01*
X215720057Y-195371485D01*
X215648628Y-195228628D01*
X215577200Y-195157200D01*
X215434342Y-195085771D01*
X215148628Y-195085771D01*
X215005771Y-195157200D01*
X214934342Y-195228628D01*
X214862914Y-195371485D01*
X214862914Y-195728628D01*
X214934342Y-195871485D01*
X215005771Y-195942914D01*
X215148628Y-196014342D01*
X215434342Y-196014342D01*
X215577200Y-195942914D01*
X215648628Y-195871485D01*
X215720057Y-195728628D01*
X217005771Y-196514342D02*
X216862914Y-196585771D01*
X216577200Y-196585771D01*
X216434342Y-196514342D01*
X216362914Y-196442914D01*
X216291485Y-196300057D01*
X216291485Y-195871485D01*
X216362914Y-195728628D01*
X216434342Y-195657200D01*
X216577200Y-195585771D01*
X216862914Y-195585771D01*
X217005771Y-195657200D01*
X218362914Y-195085771D02*
X217648628Y-195085771D01*
X217577200Y-195800057D01*
X217648628Y-195728628D01*
X217791485Y-195657200D01*
X218148628Y-195657200D01*
X218291485Y-195728628D01*
X218362914Y-195800057D01*
X218434342Y-195942914D01*
X218434342Y-196300057D01*
X218362914Y-196442914D01*
X218291485Y-196514342D01*
X218148628Y-196585771D01*
X217791485Y-196585771D01*
X217648628Y-196514342D01*
X217577200Y-196442914D01*
X218720057Y-194677200D02*
X220148628Y-194677200D01*
X219291485Y-195728628D02*
X219148628Y-195657200D01*
X219077200Y-195585771D01*
X219005771Y-195442914D01*
X219005771Y-195371485D01*
X219077200Y-195228628D01*
X219148628Y-195157200D01*
X219291485Y-195085771D01*
X219577200Y-195085771D01*
X219720057Y-195157200D01*
X219791485Y-195228628D01*
X219862914Y-195371485D01*
X219862914Y-195442914D01*
X219791485Y-195585771D01*
X219720057Y-195657200D01*
X219577200Y-195728628D01*
X219291485Y-195728628D01*
X219148628Y-195800057D01*
X219077200Y-195871485D01*
X219005771Y-196014342D01*
X219005771Y-196300057D01*
X219077200Y-196442914D01*
X219148628Y-196514342D01*
X219291485Y-196585771D01*
X219577200Y-196585771D01*
X219720057Y-196514342D01*
X219791485Y-196442914D01*
X219862914Y-196300057D01*
X219862914Y-196014342D01*
X219791485Y-195871485D01*
X219720057Y-195800057D01*
X219577200Y-195728628D01*
X220148628Y-194677200D02*
X221577199Y-194677200D01*
X221148628Y-195585771D02*
X221148628Y-196585771D01*
X220791485Y-195014342D02*
X220434342Y-196085771D01*
X221362914Y-196085771D01*
X222577199Y-195585771D02*
X222577199Y-196585771D01*
X221934342Y-195585771D02*
X221934342Y-196371485D01*
X222005771Y-196514342D01*
X222148628Y-196585771D01*
X222362914Y-196585771D01*
X222505771Y-196514342D01*
X222577199Y-196442914D01*
X223291485Y-196585771D02*
X223291485Y-195085771D01*
X223291485Y-195657200D02*
X223434342Y-195585771D01*
X223720057Y-195585771D01*
X223862914Y-195657200D01*
X223934342Y-195728628D01*
X224005771Y-195871485D01*
X224005771Y-196300057D01*
X223934342Y-196442914D01*
X223862914Y-196514342D01*
X223720057Y-196585771D01*
X223434342Y-196585771D01*
X223291485Y-196514342D01*
X225291485Y-195585771D02*
X225291485Y-196585771D01*
X224648628Y-195585771D02*
X224648628Y-196371485D01*
X224720057Y-196514342D01*
X224862914Y-196585771D01*
X225077199Y-196585771D01*
X225220057Y-196514342D01*
X225291485Y-196442914D01*
X226005771Y-195585771D02*
X226005771Y-196585771D01*
X226005771Y-195728628D02*
X226077199Y-195657200D01*
X226220057Y-195585771D01*
X226434342Y-195585771D01*
X226577199Y-195657200D01*
X226648628Y-195800057D01*
X226648628Y-196585771D01*
X227148628Y-195585771D02*
X227720057Y-195585771D01*
X227362914Y-195085771D02*
X227362914Y-196371485D01*
X227434342Y-196514342D01*
X227577200Y-196585771D01*
X227720057Y-196585771D01*
X228862914Y-195585771D02*
X228862914Y-196585771D01*
X228220057Y-195585771D02*
X228220057Y-196371485D01*
X228291485Y-196514342D01*
X228434342Y-196585771D01*
X228648628Y-196585771D01*
X228791485Y-196514342D01*
X228862914Y-196442914D01*
X230362914Y-196585771D02*
X229505771Y-196585771D01*
X229934342Y-196585771D02*
X229934342Y-195085771D01*
X229791485Y-195300057D01*
X229648628Y-195442914D01*
X229505771Y-195514342D01*
X231220057Y-195728628D02*
X231077199Y-195657200D01*
X231005771Y-195585771D01*
X230934342Y-195442914D01*
X230934342Y-195371485D01*
X231005771Y-195228628D01*
X231077199Y-195157200D01*
X231220057Y-195085771D01*
X231505771Y-195085771D01*
X231648628Y-195157200D01*
X231720057Y-195228628D01*
X231791485Y-195371485D01*
X231791485Y-195442914D01*
X231720057Y-195585771D01*
X231648628Y-195657200D01*
X231505771Y-195728628D01*
X231220057Y-195728628D01*
X231077199Y-195800057D01*
X231005771Y-195871485D01*
X230934342Y-196014342D01*
X230934342Y-196300057D01*
X231005771Y-196442914D01*
X231077199Y-196514342D01*
X231220057Y-196585771D01*
X231505771Y-196585771D01*
X231648628Y-196514342D01*
X231720057Y-196442914D01*
X231791485Y-196300057D01*
X231791485Y-196014342D01*
X231720057Y-195871485D01*
X231648628Y-195800057D01*
X231505771Y-195728628D01*
X232434342Y-196442914D02*
X232505771Y-196514342D01*
X232434342Y-196585771D01*
X232362914Y-196514342D01*
X232434342Y-196442914D01*
X232434342Y-196585771D01*
X233434342Y-195085771D02*
X233577199Y-195085771D01*
X233720057Y-195157200D01*
X233791485Y-195228628D01*
X233862914Y-195371485D01*
X233934342Y-195657200D01*
X233934342Y-196014342D01*
X233862914Y-196300057D01*
X233791485Y-196442914D01*
X233720057Y-196514342D01*
X233577199Y-196585771D01*
X233434342Y-196585771D01*
X233291485Y-196514342D01*
X233220057Y-196442914D01*
X233148628Y-196300057D01*
X233077199Y-196014342D01*
X233077199Y-195657200D01*
X233148628Y-195371485D01*
X233220057Y-195228628D01*
X233291485Y-195157200D01*
X233434342Y-195085771D01*
X235220057Y-195585771D02*
X235220057Y-196585771D01*
X234862914Y-195014342D02*
X234505771Y-196085771D01*
X235434342Y-196085771D01*
X236005771Y-196442914D02*
X236077199Y-196514342D01*
X236005771Y-196585771D01*
X235934342Y-196514342D01*
X236005771Y-196442914D01*
X236005771Y-196585771D01*
X237505771Y-196585771D02*
X236648628Y-196585771D01*
X237077199Y-196585771D02*
X237077199Y-195085771D01*
X236934342Y-195300057D01*
X236791485Y-195442914D01*
X236648628Y-195514342D01*
D10*
D11*
X177002200Y-191507200D02*
X285002200Y-191507200D01*
D10*
D12*
X264411485Y-193785771D02*
X263911485Y-193071485D01*
X263554342Y-193785771D02*
X263554342Y-192285771D01*
X264125771Y-192285771D01*
X264268628Y-192357200D01*
X264340057Y-192428628D01*
X264411485Y-192571485D01*
X264411485Y-192785771D01*
X264340057Y-192928628D01*
X264268628Y-193000057D01*
X264125771Y-193071485D01*
X263554342Y-193071485D01*
X265625771Y-193714342D02*
X265482914Y-193785771D01*
X265197200Y-193785771D01*
X265054342Y-193714342D01*
X264982914Y-193571485D01*
X264982914Y-193000057D01*
X265054342Y-192857200D01*
X265197200Y-192785771D01*
X265482914Y-192785771D01*
X265625771Y-192857200D01*
X265697200Y-193000057D01*
X265697200Y-193142914D01*
X264982914Y-193285771D01*
X266197200Y-192785771D02*
X266554342Y-193785771D01*
X266911485Y-192785771D01*
X267482914Y-193642914D02*
X267554342Y-193714342D01*
X267482914Y-193785771D01*
X267411485Y-193714342D01*
X267482914Y-193642914D01*
X267482914Y-193785771D01*
X267482914Y-192857200D02*
X267554342Y-192928628D01*
X267482914Y-193000057D01*
X267411485Y-192928628D01*
X267482914Y-192857200D01*
X267482914Y-193000057D01*
D10*
D11*
X178362914Y-193714342D02*
X178577200Y-193785771D01*
X178934342Y-193785771D01*
X179077200Y-193714342D01*
X179148628Y-193642914D01*
X179220057Y-193500057D01*
X179220057Y-193357200D01*
X179148628Y-193214342D01*
X179077200Y-193142914D01*
X178934342Y-193071485D01*
X178648628Y-193000057D01*
X178505771Y-192928628D01*
X178434342Y-192857200D01*
X178362914Y-192714342D01*
X178362914Y-192571485D01*
X178434342Y-192428628D01*
X178505771Y-192357200D01*
X178648628Y-192285771D01*
X179005771Y-192285771D01*
X179220057Y-192357200D01*
X179862914Y-193785771D02*
X179862914Y-192785771D01*
X179862914Y-192285771D02*
X179791485Y-192357200D01*
X179862914Y-192428628D01*
X179934342Y-192357200D01*
X179862914Y-192285771D01*
X179862914Y-192428628D01*
X180434342Y-192785771D02*
X181220057Y-192785771D01*
X180434342Y-193785771D01*
X181220057Y-193785771D01*
X182362914Y-193714342D02*
X182220057Y-193785771D01*
X181934342Y-193785771D01*
X181791485Y-193714342D01*
X181720057Y-193571485D01*
X181720057Y-193000057D01*
X181791485Y-192857200D01*
X181934342Y-192785771D01*
X182220057Y-192785771D01*
X182362914Y-192857200D01*
X182434342Y-193000057D01*
X182434342Y-193142914D01*
X181720057Y-193285771D01*
X183077200Y-193642914D02*
X183148628Y-193714342D01*
X183077200Y-193785771D01*
X183005771Y-193714342D01*
X183077200Y-193642914D01*
X183077200Y-193785771D01*
X183077200Y-192857200D02*
X183148628Y-192928628D01*
X183077200Y-193000057D01*
X183005771Y-192928628D01*
X183077200Y-192857200D01*
X183077200Y-193000057D01*
X184862914Y-193357200D02*
X185577200Y-193357200D01*
X184720057Y-193785771D02*
X185220057Y-192285771D01*
X185720057Y-193785771D01*
X186862914Y-192785771D02*
X186862914Y-193785771D01*
X186505771Y-192214342D02*
X186148628Y-193285771D01*
X187077200Y-193285771D01*
D10*
D11*
X263434342Y-196585771D02*
X263434342Y-195085771D01*
X264791485Y-196585771D02*
X264791485Y-195085771D01*
X264791485Y-196514342D02*
X264648628Y-196585771D01*
X264362914Y-196585771D01*
X264220057Y-196514342D01*
X264148628Y-196442914D01*
X264077200Y-196300057D01*
X264077200Y-195871485D01*
X264148628Y-195728628D01*
X264220057Y-195657200D01*
X264362914Y-195585771D01*
X264648628Y-195585771D01*
X264791485Y-195657200D01*
X265505771Y-196442914D02*
X265577200Y-196514342D01*
X265505771Y-196585771D01*
X265434342Y-196514342D01*
X265505771Y-196442914D01*
X265505771Y-196585771D01*
X265505771Y-195657200D02*
X265577200Y-195728628D01*
X265505771Y-195800057D01*
X265434342Y-195728628D01*
X265505771Y-195657200D01*
X265505771Y-195800057D01*
X268148628Y-196585771D02*
X267291485Y-196585771D01*
X267720057Y-196585771D02*
X267720057Y-195085771D01*
X267577200Y-195300057D01*
X267434342Y-195442914D01*
X267291485Y-195514342D01*
X269862914Y-195014342D02*
X268577200Y-196942914D01*
X271148628Y-196585771D02*
X270291485Y-196585771D01*
X270720057Y-196585771D02*
X270720057Y-195085771D01*
X270577200Y-195300057D01*
X270434342Y-195442914D01*
X270291485Y-195514342D01*
D10*
D11*
X177002200Y-187507200D02*
X285002200Y-187507200D01*
D10*
D13*
X178714580Y-188211961D02*
X179857438Y-188211961D01*
X179036009Y-190211961D02*
X179286009Y-188211961D01*
X180274104Y-190211961D02*
X180440771Y-188878628D01*
X180524104Y-188211961D02*
X180416961Y-188307200D01*
X180500295Y-188402438D01*
X180607438Y-188307200D01*
X180524104Y-188211961D01*
X180500295Y-188402438D01*
X181107438Y-188878628D02*
X181869342Y-188878628D01*
X181476485Y-188211961D02*
X181262200Y-189926247D01*
X181333628Y-190116723D01*
X181512200Y-190211961D01*
X181702676Y-190211961D01*
X182655057Y-190211961D02*
X182476485Y-190116723D01*
X182405057Y-189926247D01*
X182619342Y-188211961D01*
X184190771Y-190116723D02*
X183988390Y-190211961D01*
X183607438Y-190211961D01*
X183428866Y-190116723D01*
X183357438Y-189926247D01*
X183452676Y-189164342D01*
X183571723Y-188973866D01*
X183774104Y-188878628D01*
X184155057Y-188878628D01*
X184333628Y-188973866D01*
X184405057Y-189164342D01*
X184381247Y-189354819D01*
X183405057Y-189545295D01*
X185155057Y-190021485D02*
X185238390Y-190116723D01*
X185131247Y-190211961D01*
X185047914Y-190116723D01*
X185155057Y-190021485D01*
X185131247Y-190211961D01*
X185286009Y-188973866D02*
X185369342Y-189069104D01*
X185262200Y-189164342D01*
X185178866Y-189069104D01*
X185286009Y-188973866D01*
X185262200Y-189164342D01*
D10*
D11*
X178934342Y-185600057D02*
X178434342Y-185600057D01*
X178434342Y-186385771D02*
X178434342Y-184885771D01*
X179148628Y-184885771D01*
X179720057Y-186385771D02*
X179720057Y-185385771D01*
X179720057Y-184885771D02*
X179648628Y-184957200D01*
X179720057Y-185028628D01*
X179791485Y-184957200D01*
X179720057Y-184885771D01*
X179720057Y-185028628D01*
X180648628Y-186385771D02*
X180505771Y-186314342D01*
X180434342Y-186171485D01*
X180434342Y-184885771D01*
X181791485Y-186314342D02*
X181648628Y-186385771D01*
X181362914Y-186385771D01*
X181220057Y-186314342D01*
X181148628Y-186171485D01*
X181148628Y-185600057D01*
X181220057Y-185457200D01*
X181362914Y-185385771D01*
X181648628Y-185385771D01*
X181791485Y-185457200D01*
X181862914Y-185600057D01*
X181862914Y-185742914D01*
X181148628Y-185885771D01*
X182505771Y-186242914D02*
X182577200Y-186314342D01*
X182505771Y-186385771D01*
X182434342Y-186314342D01*
X182505771Y-186242914D01*
X182505771Y-186385771D01*
X182505771Y-185457200D02*
X182577200Y-185528628D01*
X182505771Y-185600057D01*
X182434342Y-185528628D01*
X182505771Y-185457200D01*
X182505771Y-185600057D01*
X184362914Y-186385771D02*
X184362914Y-184885771D01*
X184362914Y-185457200D02*
X184505771Y-185385771D01*
X184791485Y-185385771D01*
X184934342Y-185457200D01*
X185005771Y-185528628D01*
X185077200Y-185671485D01*
X185077200Y-186100057D01*
X185005771Y-186242914D01*
X184934342Y-186314342D01*
X184791485Y-186385771D01*
X184505771Y-186385771D01*
X184362914Y-186314342D01*
X185934342Y-186385771D02*
X185791485Y-186314342D01*
X185720057Y-186171485D01*
X185720057Y-184885771D01*
X187148628Y-186385771D02*
X187148628Y-184885771D01*
X187148628Y-186314342D02*
X187005771Y-186385771D01*
X186720057Y-186385771D01*
X186577200Y-186314342D01*
X186505771Y-186242914D01*
X186434342Y-186100057D01*
X186434342Y-185671485D01*
X186505771Y-185528628D01*
X186577200Y-185457200D01*
X186720057Y-185385771D01*
X187005771Y-185385771D01*
X187148628Y-185457200D01*
X188505771Y-186314342D02*
X188362914Y-186385771D01*
X188077200Y-186385771D01*
X187934342Y-186314342D01*
X187862914Y-186242914D01*
X187791485Y-186100057D01*
X187791485Y-185671485D01*
X187862914Y-185528628D01*
X187934342Y-185457200D01*
X188077200Y-185385771D01*
X188362914Y-185385771D01*
X188505771Y-185457200D01*
X188791485Y-186528628D02*
X189934342Y-186528628D01*
X190291485Y-186385771D02*
X190291485Y-185385771D01*
X190291485Y-185528628D02*
X190362914Y-185457200D01*
X190505771Y-185385771D01*
X190720057Y-185385771D01*
X190862914Y-185457200D01*
X190934342Y-185600057D01*
X190934342Y-186385771D01*
X190934342Y-185600057D02*
X191005771Y-185457200D01*
X191148628Y-185385771D01*
X191362914Y-185385771D01*
X191505771Y-185457200D01*
X191577200Y-185600057D01*
X191577200Y-186385771D01*
X192505771Y-186385771D02*
X192362914Y-186314342D01*
X192291485Y-186242914D01*
X192220057Y-186100057D01*
X192220057Y-185671485D01*
X192291485Y-185528628D01*
X192362914Y-185457200D01*
X192505771Y-185385771D01*
X192720057Y-185385771D01*
X192862914Y-185457200D01*
X192934342Y-185528628D01*
X193005771Y-185671485D01*
X193005771Y-186100057D01*
X192934342Y-186242914D01*
X192862914Y-186314342D01*
X192720057Y-186385771D01*
X192505771Y-186385771D01*
X193434342Y-185385771D02*
X194005771Y-185385771D01*
X193648628Y-184885771D02*
X193648628Y-186171485D01*
X193720057Y-186314342D01*
X193862914Y-186385771D01*
X194005771Y-186385771D01*
X194720057Y-186385771D02*
X194577200Y-186314342D01*
X194505771Y-186242914D01*
X194434342Y-186100057D01*
X194434342Y-185671485D01*
X194505771Y-185528628D01*
X194577200Y-185457200D01*
X194720057Y-185385771D01*
X194934342Y-185385771D01*
X195077200Y-185457200D01*
X195148628Y-185528628D01*
X195220057Y-185671485D01*
X195220057Y-186100057D01*
X195148628Y-186242914D01*
X195077200Y-186314342D01*
X194934342Y-186385771D01*
X194720057Y-186385771D01*
X195862914Y-186385771D02*
X195862914Y-185385771D01*
X195862914Y-185671485D02*
X195934342Y-185528628D01*
X196005771Y-185457200D01*
X196148628Y-185385771D01*
X196291485Y-185385771D01*
X196434342Y-186528628D02*
X197577200Y-186528628D01*
X198577200Y-186314342D02*
X198434342Y-186385771D01*
X198148628Y-186385771D01*
X198005771Y-186314342D01*
X197934342Y-186242914D01*
X197862914Y-186100057D01*
X197862914Y-185671485D01*
X197934342Y-185528628D01*
X198005771Y-185457200D01*
X198148628Y-185385771D01*
X198434342Y-185385771D01*
X198577200Y-185457200D01*
X199220057Y-185385771D02*
X199220057Y-186385771D01*
X199220057Y-185528628D02*
X199291485Y-185457200D01*
X199434342Y-185385771D01*
X199648628Y-185385771D01*
X199791485Y-185457200D01*
X199862914Y-185600057D01*
X199862914Y-186385771D01*
X200362914Y-185385771D02*
X200934342Y-185385771D01*
X200577200Y-184885771D02*
X200577200Y-186171485D01*
X200648628Y-186314342D01*
X200791485Y-186385771D01*
X200934342Y-186385771D01*
X201434342Y-186385771D02*
X201434342Y-185385771D01*
X201434342Y-185671485D02*
X201505771Y-185528628D01*
X201577200Y-185457200D01*
X201720057Y-185385771D01*
X201862914Y-185385771D01*
X202577200Y-186385771D02*
X202434342Y-186314342D01*
X202362914Y-186242914D01*
X202291485Y-186100057D01*
X202291485Y-185671485D01*
X202362914Y-185528628D01*
X202434342Y-185457200D01*
X202577200Y-185385771D01*
X202791485Y-185385771D01*
X202934342Y-185457200D01*
X203005771Y-185528628D01*
X203077200Y-185671485D01*
X203077200Y-186100057D01*
X203005771Y-186242914D01*
X202934342Y-186314342D01*
X202791485Y-186385771D01*
X202577200Y-186385771D01*
X203934342Y-186385771D02*
X203791485Y-186314342D01*
X203720057Y-186171485D01*
X203720057Y-184885771D01*
X204720057Y-186385771D02*
X204577200Y-186314342D01*
X204505771Y-186171485D01*
X204505771Y-184885771D01*
X205862914Y-186314342D02*
X205720057Y-186385771D01*
X205434342Y-186385771D01*
X205291485Y-186314342D01*
X205220057Y-186171485D01*
X205220057Y-185600057D01*
X205291485Y-185457200D01*
X205434342Y-185385771D01*
X205720057Y-185385771D01*
X205862914Y-185457200D01*
X205934342Y-185600057D01*
X205934342Y-185742914D01*
X205220057Y-185885771D01*
X206577200Y-186385771D02*
X206577200Y-185385771D01*
X206577200Y-185671485D02*
X206648628Y-185528628D01*
X206720057Y-185457200D01*
X206862914Y-185385771D01*
X207005771Y-185385771D01*
X207505771Y-186242914D02*
X207577200Y-186314342D01*
X207505771Y-186385771D01*
X207434342Y-186314342D01*
X207505771Y-186242914D01*
X207505771Y-186385771D01*
X208220057Y-186385771D02*
X208220057Y-184885771D01*
X208362914Y-185814342D02*
X208791485Y-186385771D01*
X208791485Y-185385771D02*
X208220057Y-185957200D01*
X209434342Y-186385771D02*
X209434342Y-185385771D01*
X209434342Y-184885771D02*
X209362914Y-184957200D01*
X209434342Y-185028628D01*
X209505771Y-184957200D01*
X209434342Y-184885771D01*
X209434342Y-185028628D01*
X210791485Y-186314342D02*
X210648628Y-186385771D01*
X210362914Y-186385771D01*
X210220057Y-186314342D01*
X210148628Y-186242914D01*
X210077200Y-186100057D01*
X210077200Y-185671485D01*
X210148628Y-185528628D01*
X210220057Y-185457200D01*
X210362914Y-185385771D01*
X210648628Y-185385771D01*
X210791485Y-185457200D01*
X212077200Y-186385771D02*
X212077200Y-185600057D01*
X212005771Y-185457200D01*
X211862914Y-185385771D01*
X211577200Y-185385771D01*
X211434342Y-185457200D01*
X212077200Y-186314342D02*
X211934342Y-186385771D01*
X211577200Y-186385771D01*
X211434342Y-186314342D01*
X211362914Y-186171485D01*
X211362914Y-186028628D01*
X211434342Y-185885771D01*
X211577200Y-185814342D01*
X211934342Y-185814342D01*
X212077200Y-185742914D01*
X213434342Y-186385771D02*
X213434342Y-184885771D01*
X213434342Y-186314342D02*
X213291485Y-186385771D01*
X213005771Y-186385771D01*
X212862914Y-186314342D01*
X212791485Y-186242914D01*
X212720057Y-186100057D01*
X212720057Y-185671485D01*
X212791485Y-185528628D01*
X212862914Y-185457200D01*
X213005771Y-185385771D01*
X213291485Y-185385771D01*
X213434342Y-185457200D01*
X213791485Y-186528628D02*
X214934342Y-186528628D01*
X215291485Y-185385771D02*
X215291485Y-186885771D01*
X215291485Y-185457200D02*
X215434342Y-185385771D01*
X215720057Y-185385771D01*
X215862914Y-185457200D01*
X215934342Y-185528628D01*
X216005771Y-185671485D01*
X216005771Y-186100057D01*
X215934342Y-186242914D01*
X215862914Y-186314342D01*
X215720057Y-186385771D01*
X215434342Y-186385771D01*
X215291485Y-186314342D01*
X217291485Y-186314342D02*
X217148628Y-186385771D01*
X216862914Y-186385771D01*
X216720057Y-186314342D01*
X216648628Y-186242914D01*
X216577200Y-186100057D01*
X216577200Y-185671485D01*
X216648628Y-185528628D01*
X216720057Y-185457200D01*
X216862914Y-185385771D01*
X217148628Y-185385771D01*
X217291485Y-185457200D01*
X217934342Y-186385771D02*
X217934342Y-184885771D01*
X217934342Y-185457200D02*
X218077200Y-185385771D01*
X218362914Y-185385771D01*
X218505771Y-185457200D01*
X218577200Y-185528628D01*
X218648628Y-185671485D01*
X218648628Y-186100057D01*
X218577200Y-186242914D01*
X218505771Y-186314342D01*
X218362914Y-186385771D01*
X218077200Y-186385771D01*
X217934342Y-186314342D01*
D10*
D11*
X177002200Y-181507200D02*
X285002200Y-181507200D01*
D10*
D11*
X178362914Y-183614342D02*
X178577200Y-183685771D01*
X178934342Y-183685771D01*
X179077200Y-183614342D01*
X179148628Y-183542914D01*
X179220057Y-183400057D01*
X179220057Y-183257200D01*
X179148628Y-183114342D01*
X179077200Y-183042914D01*
X178934342Y-182971485D01*
X178648628Y-182900057D01*
X178505771Y-182828628D01*
X178434342Y-182757200D01*
X178362914Y-182614342D01*
X178362914Y-182471485D01*
X178434342Y-182328628D01*
X178505771Y-182257200D01*
X178648628Y-182185771D01*
X179005771Y-182185771D01*
X179220057Y-182257200D01*
X179862914Y-183685771D02*
X179862914Y-182185771D01*
X180505771Y-183685771D02*
X180505771Y-182900057D01*
X180434342Y-182757200D01*
X180291485Y-182685771D01*
X180077200Y-182685771D01*
X179934342Y-182757200D01*
X179862914Y-182828628D01*
X181791485Y-183614342D02*
X181648628Y-183685771D01*
X181362914Y-183685771D01*
X181220057Y-183614342D01*
X181148628Y-183471485D01*
X181148628Y-182900057D01*
X181220057Y-182757200D01*
X181362914Y-182685771D01*
X181648628Y-182685771D01*
X181791485Y-182757200D01*
X181862914Y-182900057D01*
X181862914Y-183042914D01*
X181148628Y-183185771D01*
X183077200Y-183614342D02*
X182934342Y-183685771D01*
X182648628Y-183685771D01*
X182505771Y-183614342D01*
X182434342Y-183471485D01*
X182434342Y-182900057D01*
X182505771Y-182757200D01*
X182648628Y-182685771D01*
X182934342Y-182685771D01*
X183077200Y-182757200D01*
X183148628Y-182900057D01*
X183148628Y-183042914D01*
X182434342Y-183185771D01*
X183577200Y-182685771D02*
X184148628Y-182685771D01*
X183791485Y-182185771D02*
X183791485Y-183471485D01*
X183862914Y-183614342D01*
X184005771Y-183685771D01*
X184148628Y-183685771D01*
X184648628Y-183542914D02*
X184720057Y-183614342D01*
X184648628Y-183685771D01*
X184577200Y-183614342D01*
X184648628Y-183542914D01*
X184648628Y-183685771D01*
X184648628Y-182757200D02*
X184720057Y-182828628D01*
X184648628Y-182900057D01*
X184577200Y-182828628D01*
X184648628Y-182757200D01*
X184648628Y-182900057D01*
D10*
D11*
X197002200Y-191507200D02*
X197002200Y-194507200D01*
D10*
D11*
X261002200Y-191507200D02*
X261002200Y-198007200D01*
D10*
X104267893Y-59500000D02*
X104975000Y-59000000D01*
X104975000Y-60000000D02*
X104267893Y-59500000D01*
X104975000Y-55000000D02*
X100725000Y-55000000D01*
X104975000Y-61000000D02*
X100725000Y-61000000D01*
X100725000Y-61000000D02*
X100725000Y-55000000D01*
X104975000Y-61000000D02*
X104975000Y-55000000D01*
X158050000Y-54250000D02*
X158050000Y-60750000D01*
X158750000Y-53750000D02*
X153750000Y-53750000D01*
X153750000Y-53750000D02*
X153750000Y-61250000D01*
X153750000Y-61250000D02*
X158750000Y-61250000D01*
X158750000Y-61250000D02*
X158750000Y-53750000D01*
X108200000Y-72058325D02*
X107200000Y-72058325D01*
X107700000Y-72558325D02*
X107700000Y-71558325D01*
X101750000Y-73250000D02*
X100750000Y-72250000D01*
X110250000Y-73250000D02*
X111250000Y-72250000D01*
X110250000Y-73250000D02*
X101750000Y-73250000D01*
X100750000Y-72250000D02*
X100750000Y-62750000D01*
X111250000Y-72250000D02*
X111250000Y-62750000D01*
X111250000Y-62750000D02*
X100750000Y-62750000D01*
X111000000Y-68000000D02*
G75*
G03X111000000Y-68000000I-5000000J0D01*
G01*
X110500000Y-55250000D02*
X110500000Y-58350000D01*
X110500000Y-58350000D02*
X112300000Y-58350000D01*
X112300000Y-55900000D02*
X112300000Y-58350000D01*
X110500000Y-55250000D02*
X111650000Y-55250000D01*
X112300000Y-55900000D02*
X111650000Y-55250000D01*
X124450000Y-60500000D02*
G75*
G03X124450000Y-60500000I-750000J0D01*
G01*
X125200000Y-61750000D02*
X125200000Y-59250000D01*
X122200000Y-61750000D02*
X125200000Y-61750000D01*
X122200000Y-59250000D02*
X122200000Y-61750000D01*
X125200000Y-59250000D02*
X122200000Y-59250000D01*
X136250000Y-60500000D02*
G75*
G03X136250000Y-60500000I-750000J0D01*
G01*
X137000000Y-61750000D02*
X137000000Y-59250000D01*
X134000000Y-61750000D02*
X137000000Y-61750000D01*
X134000000Y-59250000D02*
X134000000Y-61750000D01*
X137000000Y-59250000D02*
X134000000Y-59250000D01*
X138400000Y-60850000D02*
X139400000Y-60850000D01*
X138400000Y-60350000D02*
X138400000Y-60850000D01*
X139400000Y-60350000D02*
X138400000Y-60350000D01*
X139400000Y-60850000D02*
X139400000Y-60350000D01*
X151400000Y-60450000D02*
X150400000Y-60450000D01*
X151400000Y-60950000D02*
X151400000Y-60450000D01*
X150400000Y-60950000D02*
X151400000Y-60950000D01*
X150400000Y-60450000D02*
X150400000Y-60950000D01*
X144800000Y-61350000D02*
X143800000Y-61350000D01*
X144800000Y-61850000D02*
X144800000Y-61350000D01*
X143800000Y-61850000D02*
X144800000Y-61850000D01*
X143800000Y-61350000D02*
X143800000Y-61850000D01*
X151400000Y-59350000D02*
X150400000Y-59350000D01*
X151400000Y-59850000D02*
X151400000Y-59350000D01*
X150400000Y-59850000D02*
X151400000Y-59850000D01*
X150400000Y-59350000D02*
X150400000Y-59850000D01*
X129700000Y-60450000D02*
X128700000Y-60450000D01*
X129700000Y-60950000D02*
X129700000Y-60450000D01*
X128700000Y-60950000D02*
X129700000Y-60950000D01*
X128700000Y-60450000D02*
X128700000Y-60950000D01*
X108150000Y-56300000D02*
X108150000Y-57300000D01*
X108650000Y-56300000D02*
X108150000Y-56300000D01*
X108650000Y-57300000D02*
X108650000Y-56300000D01*
X108150000Y-57300000D02*
X108650000Y-57300000D01*
X132250000Y-60250000D02*
X132250000Y-61250000D01*
X132750000Y-60250000D02*
X132250000Y-60250000D01*
X132750000Y-61250000D02*
X132750000Y-60250000D01*
X132250000Y-61250000D02*
X132750000Y-61250000D01*
X151700000Y-56250000D02*
X150700000Y-56250000D01*
X151700000Y-56750000D02*
X151700000Y-56250000D01*
X150700000Y-56750000D02*
X151700000Y-56750000D01*
X150700000Y-56250000D02*
X150700000Y-56750000D01*
X151700000Y-57350000D02*
X150700000Y-57350000D01*
X151700000Y-57850000D02*
X151700000Y-57350000D01*
X150700000Y-57850000D02*
X151700000Y-57850000D01*
X150700000Y-57350000D02*
X150700000Y-57850000D01*
X149250000Y-55265000D02*
X149250000Y-54265000D01*
X148750000Y-55265000D02*
X149250000Y-55265000D01*
X148750000Y-54265000D02*
X148750000Y-55265000D01*
X149250000Y-54265000D02*
X148750000Y-54265000D01*
X147000000Y-55250000D02*
X147000000Y-54250000D01*
X146500000Y-55250000D02*
X147000000Y-55250000D01*
X146500000Y-54250000D02*
X146500000Y-55250000D01*
X147000000Y-54250000D02*
X146500000Y-54250000D01*
X144000000Y-55250000D02*
X144000000Y-54250000D01*
X143500000Y-55250000D02*
X144000000Y-55250000D01*
X143500000Y-54250000D02*
X143500000Y-55250000D01*
X144000000Y-54250000D02*
X143500000Y-54250000D01*
X134500000Y-55265000D02*
X134500000Y-54265000D01*
X134000000Y-55265000D02*
X134500000Y-55265000D01*
X134000000Y-54265000D02*
X134000000Y-55265000D01*
X134500000Y-54265000D02*
X134000000Y-54265000D01*
X131500000Y-55250000D02*
X131500000Y-54250000D01*
X131000000Y-55250000D02*
X131500000Y-55250000D01*
X131000000Y-54250000D02*
X131000000Y-55250000D01*
X131500000Y-54250000D02*
X131000000Y-54250000D01*
X114050000Y-57300000D02*
X114050000Y-56300000D01*
X113550000Y-57300000D02*
X114050000Y-57300000D01*
X113550000Y-56300000D02*
X113550000Y-57300000D01*
X114050000Y-56300000D02*
X113550000Y-56300000D01*
X150250000Y-55250000D02*
X150250000Y-54250000D01*
X149750000Y-55250000D02*
X150250000Y-55250000D01*
X149750000Y-54250000D02*
X149750000Y-55250000D01*
X150250000Y-54250000D02*
X149750000Y-54250000D01*
X148000000Y-55250000D02*
X148000000Y-54250000D01*
X147500000Y-55250000D02*
X148000000Y-55250000D01*
X147500000Y-54250000D02*
X147500000Y-55250000D01*
X148000000Y-54250000D02*
X147500000Y-54250000D01*
X145000000Y-55250000D02*
X145000000Y-54250000D01*
X144500000Y-55250000D02*
X145000000Y-55250000D01*
X144500000Y-54250000D02*
X144500000Y-55250000D01*
X145000000Y-54250000D02*
X144500000Y-54250000D01*
X135500000Y-55250000D02*
X135500000Y-54250000D01*
X135000000Y-55250000D02*
X135500000Y-55250000D01*
X135000000Y-54250000D02*
X135000000Y-55250000D01*
X135500000Y-54250000D02*
X135000000Y-54250000D01*
X132500000Y-55250000D02*
X132500000Y-54250000D01*
X132000000Y-55250000D02*
X132500000Y-55250000D01*
X132000000Y-54250000D02*
X132000000Y-55250000D01*
X132500000Y-54250000D02*
X132000000Y-54250000D01*
X111300000Y-54150000D02*
X110300000Y-54150000D01*
X111300000Y-54650000D02*
X111300000Y-54150000D01*
X110300000Y-54650000D02*
X111300000Y-54650000D01*
X110300000Y-54150000D02*
X110300000Y-54650000D01*
X114100000Y-54650000D02*
X115100000Y-54650000D01*
X114100000Y-54150000D02*
X114100000Y-54650000D01*
X115100000Y-54150000D02*
X114100000Y-54150000D01*
X115100000Y-54650000D02*
X115100000Y-54150000D01*
D14*
X101850000Y-90950000D02*
X114600000Y-90950000D01*
X114600000Y-90950000D02*
X117350000Y-93450000D01*
X117350000Y-93450000D02*
X117350000Y-96550000D01*
X117350000Y-96550000D02*
X114600000Y-99050000D01*
X114600000Y-99050000D02*
X101850000Y-99050000D01*
X101850000Y-99050000D02*
X101850000Y-90950000D01*
X141150000Y-90950000D02*
X153900000Y-90950000D01*
X153900000Y-90950000D02*
X156650000Y-93450000D01*
X156650000Y-93450000D02*
X156650000Y-96550000D01*
X156650000Y-96550000D02*
X153900000Y-99050000D01*
X153900000Y-99050000D02*
X141150000Y-99050000D01*
X141150000Y-99050000D02*
X141150000Y-90950000D01*
D10*
X131200000Y-72058325D02*
X130200000Y-72058325D01*
X130700000Y-72558325D02*
X130700000Y-71558325D01*
X124750000Y-73250000D02*
X123750000Y-72250000D01*
X133250000Y-73250000D02*
X134250000Y-72250000D01*
X133250000Y-73250000D02*
X124750000Y-73250000D01*
X123750000Y-72250000D02*
X123750000Y-62750000D01*
X134250000Y-72250000D02*
X134250000Y-62750000D01*
X134250000Y-62750000D02*
X123750000Y-62750000D01*
X134000000Y-68000000D02*
G75*
G03X134000000Y-68000000I-5000000J0D01*
G01*
X142700000Y-72058325D02*
X141700000Y-72058325D01*
X142200000Y-72558325D02*
X142200000Y-71558325D01*
X136250000Y-73250000D02*
X135250000Y-72250000D01*
X144750000Y-73250000D02*
X145750000Y-72250000D01*
X144750000Y-73250000D02*
X136250000Y-73250000D01*
X135250000Y-72250000D02*
X135250000Y-62750000D01*
X145750000Y-72250000D02*
X145750000Y-62750000D01*
X145750000Y-62750000D02*
X135250000Y-62750000D01*
X145500000Y-68000000D02*
G75*
G03X145500000Y-68000000I-5000000J0D01*
G01*
X154200000Y-72058325D02*
X153200000Y-72058325D01*
X153700000Y-72558325D02*
X153700000Y-71558325D01*
X147750000Y-73250000D02*
X146750000Y-72250000D01*
X156250000Y-73250000D02*
X157250000Y-72250000D01*
X156250000Y-73250000D02*
X147750000Y-73250000D01*
X146750000Y-72250000D02*
X146750000Y-62750000D01*
X157250000Y-72250000D02*
X157250000Y-62750000D01*
X157250000Y-62750000D02*
X146750000Y-62750000D01*
X157000000Y-68000000D02*
G75*
G03X157000000Y-68000000I-5000000J0D01*
G01*
X119700000Y-72058325D02*
X118700000Y-72058325D01*
X119200000Y-72558325D02*
X119200000Y-71558325D01*
X113250000Y-73250000D02*
X112250000Y-72250000D01*
X121750000Y-73250000D02*
X122750000Y-72250000D01*
X121750000Y-73250000D02*
X113250000Y-73250000D01*
X112250000Y-72250000D02*
X112250000Y-62750000D01*
X122750000Y-72250000D02*
X122750000Y-62750000D01*
X122750000Y-62750000D02*
X112250000Y-62750000D01*
X122500000Y-68000000D02*
G75*
G03X122500000Y-68000000I-5000000J0D01*
G01*
D11*
X147161904Y-58252380D02*
X146590476Y-58252380D01*
X146876190Y-59252380D02*
X146876190Y-58252380D01*
X146257142Y-59252380D02*
X146257142Y-58252380D01*
X145876190Y-58252380D01*
X145780952Y-58300000D01*
X145733333Y-58347619D01*
X145685714Y-58442857D01*
X145685714Y-58585714D01*
X145733333Y-58680952D01*
X145780952Y-58728571D01*
X145876190Y-58776190D01*
X146257142Y-58776190D01*
X144828571Y-58585714D02*
X144828571Y-59252380D01*
X145066666Y-58204761D02*
X145304761Y-58919047D01*
X144685714Y-58919047D01*
D10*
X105802380Y-52738095D02*
X105826190Y-52809523D01*
X105826190Y-52928571D01*
X105802380Y-52976190D01*
X105778571Y-53000000D01*
X105730952Y-53023809D01*
X105683333Y-53023809D01*
X105635714Y-53000000D01*
X105611904Y-52976190D01*
X105588095Y-52928571D01*
X105564285Y-52833333D01*
X105540476Y-52785714D01*
X105516666Y-52761904D01*
X105469047Y-52738095D01*
X105421428Y-52738095D01*
X105373809Y-52761904D01*
X105350000Y-52785714D01*
X105326190Y-52833333D01*
X105326190Y-52952380D01*
X105350000Y-53023809D01*
X105826190Y-53238095D02*
X105326190Y-53238095D01*
X105683333Y-53404761D01*
X105326190Y-53571428D01*
X105826190Y-53571428D01*
X105326190Y-53904761D02*
X105326190Y-53952380D01*
X105350000Y-54000000D01*
X105373809Y-54023809D01*
X105421428Y-54047619D01*
X105516666Y-54071428D01*
X105635714Y-54071428D01*
X105730952Y-54047619D01*
X105778571Y-54023809D01*
X105802380Y-54000000D01*
X105826190Y-53952380D01*
X105826190Y-53904761D01*
X105802380Y-53857142D01*
X105778571Y-53833333D01*
X105730952Y-53809523D01*
X105635714Y-53785714D01*
X105516666Y-53785714D01*
X105421428Y-53809523D01*
X105373809Y-53833333D01*
X105350000Y-53857142D01*
X105326190Y-53904761D01*
X105492857Y-54499999D02*
X105826190Y-54499999D01*
X105302380Y-54380952D02*
X105659523Y-54261904D01*
X105659523Y-54571428D01*
X105564285Y-54928571D02*
X105588095Y-54999999D01*
X105611904Y-55023809D01*
X105659523Y-55047619D01*
X105730952Y-55047619D01*
X105778571Y-55023809D01*
X105802380Y-54999999D01*
X105826190Y-54952380D01*
X105826190Y-54761904D01*
X105326190Y-54761904D01*
X105326190Y-54928571D01*
X105350000Y-54976190D01*
X105373809Y-54999999D01*
X105421428Y-55023809D01*
X105469047Y-55023809D01*
X105516666Y-54999999D01*
X105540476Y-54976190D01*
X105564285Y-54928571D01*
X105564285Y-54761904D01*
X105635714Y-55261904D02*
X105635714Y-55642857D01*
X105802380Y-55857142D02*
X105826190Y-55928571D01*
X105826190Y-56047619D01*
X105802380Y-56095238D01*
X105778571Y-56119047D01*
X105730952Y-56142857D01*
X105683333Y-56142857D01*
X105635714Y-56119047D01*
X105611904Y-56095238D01*
X105588095Y-56047619D01*
X105564285Y-55952380D01*
X105540476Y-55904761D01*
X105516666Y-55880952D01*
X105469047Y-55857142D01*
X105421428Y-55857142D01*
X105373809Y-55880952D01*
X105350000Y-55904761D01*
X105326190Y-55952380D01*
X105326190Y-56071428D01*
X105350000Y-56142857D01*
X105826190Y-56642857D02*
X105588095Y-56476190D01*
X105826190Y-56357142D02*
X105326190Y-56357142D01*
X105326190Y-56547619D01*
X105350000Y-56595238D01*
X105373809Y-56619047D01*
X105421428Y-56642857D01*
X105492857Y-56642857D01*
X105540476Y-56619047D01*
X105564285Y-56595238D01*
X105588095Y-56547619D01*
X105588095Y-56357142D01*
X105802380Y-56833333D02*
X105826190Y-56904761D01*
X105826190Y-57023809D01*
X105802380Y-57071428D01*
X105778571Y-57095238D01*
X105730952Y-57119047D01*
X105683333Y-57119047D01*
X105635714Y-57095238D01*
X105611904Y-57071428D01*
X105588095Y-57023809D01*
X105564285Y-56928571D01*
X105540476Y-56880952D01*
X105516666Y-56857142D01*
X105469047Y-56833333D01*
X105421428Y-56833333D01*
X105373809Y-56857142D01*
X105350000Y-56880952D01*
X105326190Y-56928571D01*
X105326190Y-57047619D01*
X105350000Y-57119047D01*
X105802380Y-57309523D02*
X105826190Y-57380952D01*
X105826190Y-57499999D01*
X105802380Y-57547619D01*
X105778571Y-57571428D01*
X105730952Y-57595238D01*
X105683333Y-57595238D01*
X105635714Y-57571428D01*
X105611904Y-57547619D01*
X105588095Y-57499999D01*
X105564285Y-57404761D01*
X105540476Y-57357142D01*
X105516666Y-57333333D01*
X105469047Y-57309523D01*
X105421428Y-57309523D01*
X105373809Y-57333333D01*
X105350000Y-57357142D01*
X105326190Y-57404761D01*
X105326190Y-57523809D01*
X105350000Y-57595238D01*
X105635714Y-57809523D02*
X105635714Y-58190476D01*
X105326190Y-58357142D02*
X105326190Y-58642857D01*
X105826190Y-58499999D02*
X105326190Y-58499999D01*
X105564285Y-58976190D02*
X105588095Y-59047619D01*
X105611904Y-59071428D01*
X105659523Y-59095238D01*
X105730952Y-59095238D01*
X105778571Y-59071428D01*
X105802380Y-59047619D01*
X105826190Y-58999999D01*
X105826190Y-58809523D01*
X105326190Y-58809523D01*
X105326190Y-58976190D01*
X105350000Y-59023809D01*
X105373809Y-59047619D01*
X105421428Y-59071428D01*
X105469047Y-59071428D01*
X105516666Y-59047619D01*
X105540476Y-59023809D01*
X105564285Y-58976190D01*
X105564285Y-58809523D01*
X106016666Y-59452380D02*
X105992857Y-59428571D01*
X105921428Y-59380952D01*
X105873809Y-59357142D01*
X105802380Y-59333333D01*
X105683333Y-59309523D01*
X105588095Y-59309523D01*
X105469047Y-59333333D01*
X105397619Y-59357142D01*
X105350000Y-59380952D01*
X105278571Y-59428571D01*
X105254761Y-59452380D01*
X105826190Y-59880952D02*
X105826190Y-59642857D01*
X105326190Y-59642857D01*
X105564285Y-60214285D02*
X105564285Y-60047619D01*
X105826190Y-60047619D02*
X105326190Y-60047619D01*
X105326190Y-60285714D01*
X106016666Y-60428571D02*
X105992857Y-60452380D01*
X105921428Y-60499999D01*
X105873809Y-60523809D01*
X105802380Y-60547619D01*
X105683333Y-60571428D01*
X105588095Y-60571428D01*
X105469047Y-60547619D01*
X105397619Y-60523809D01*
X105350000Y-60499999D01*
X105278571Y-60452380D01*
X105254761Y-60428571D01*
X106016666Y-60952380D02*
X105992857Y-60928571D01*
X105921428Y-60880952D01*
X105873809Y-60857142D01*
X105802380Y-60833333D01*
X105683333Y-60809523D01*
X105588095Y-60809523D01*
X105469047Y-60833333D01*
X105397619Y-60857142D01*
X105350000Y-60880952D01*
X105278571Y-60928571D01*
X105254761Y-60952380D01*
X105802380Y-61119047D02*
X105826190Y-61190476D01*
X105826190Y-61309523D01*
X105802380Y-61357142D01*
X105778571Y-61380952D01*
X105730952Y-61404761D01*
X105683333Y-61404761D01*
X105635714Y-61380952D01*
X105611904Y-61357142D01*
X105588095Y-61309523D01*
X105564285Y-61214285D01*
X105540476Y-61166666D01*
X105516666Y-61142857D01*
X105469047Y-61119047D01*
X105421428Y-61119047D01*
X105373809Y-61142857D01*
X105350000Y-61166666D01*
X105326190Y-61214285D01*
X105326190Y-61333333D01*
X105350000Y-61404761D01*
X105826190Y-61619047D02*
X105326190Y-61619047D01*
X105826190Y-61904761D01*
X105326190Y-61904761D01*
X106016666Y-62095238D02*
X105992857Y-62119047D01*
X105921428Y-62166666D01*
X105873809Y-62190476D01*
X105802380Y-62214285D01*
X105683333Y-62238095D01*
X105588095Y-62238095D01*
X105469047Y-62214285D01*
X105397619Y-62190476D01*
X105350000Y-62166666D01*
X105278571Y-62119047D01*
X105254761Y-62095238D01*
D11*
X102752380Y-57666666D02*
X103466666Y-57666666D01*
X103609523Y-57619047D01*
X103704761Y-57523809D01*
X103752380Y-57380952D01*
X103752380Y-57285714D01*
X102752380Y-58047619D02*
X102752380Y-58666666D01*
X103133333Y-58333333D01*
X103133333Y-58476190D01*
X103180952Y-58571428D01*
X103228571Y-58619047D01*
X103323809Y-58666666D01*
X103561904Y-58666666D01*
X103657142Y-58619047D01*
X103704761Y-58571428D01*
X103752380Y-58476190D01*
X103752380Y-58190476D01*
X103704761Y-58095238D01*
X103657142Y-58047619D01*
D10*
X154126190Y-55233333D02*
X154126190Y-55280952D01*
X154150000Y-55328571D01*
X154173809Y-55352380D01*
X154221428Y-55376190D01*
X154316666Y-55400000D01*
X154435714Y-55400000D01*
X154530952Y-55376190D01*
X154578571Y-55352380D01*
X154602380Y-55328571D01*
X154626190Y-55280952D01*
X154626190Y-55233333D01*
X154602380Y-55185714D01*
X154578571Y-55161904D01*
X154530952Y-55138095D01*
X154435714Y-55114285D01*
X154316666Y-55114285D01*
X154221428Y-55138095D01*
X154173809Y-55161904D01*
X154150000Y-55185714D01*
X154126190Y-55233333D01*
X154292857Y-55828571D02*
X154626190Y-55828571D01*
X154102380Y-55709523D02*
X154459523Y-55590476D01*
X154459523Y-55900000D01*
X154126190Y-56042857D02*
X154126190Y-56376190D01*
X154626190Y-56161904D01*
X154126190Y-56519047D02*
X154126190Y-56828571D01*
X154316666Y-56661904D01*
X154316666Y-56733333D01*
X154340476Y-56780952D01*
X154364285Y-56804761D01*
X154411904Y-56828571D01*
X154530952Y-56828571D01*
X154578571Y-56804761D01*
X154602380Y-56780952D01*
X154626190Y-56733333D01*
X154626190Y-56590476D01*
X154602380Y-56542857D01*
X154578571Y-56519047D01*
X154292857Y-57257142D02*
X154626190Y-57257142D01*
X154102380Y-57138095D02*
X154459523Y-57019047D01*
X154459523Y-57328571D01*
X154126190Y-57733333D02*
X154126190Y-57638095D01*
X154150000Y-57590476D01*
X154173809Y-57566666D01*
X154245238Y-57519047D01*
X154340476Y-57495238D01*
X154530952Y-57495238D01*
X154578571Y-57519047D01*
X154602380Y-57542857D01*
X154626190Y-57590476D01*
X154626190Y-57685714D01*
X154602380Y-57733333D01*
X154578571Y-57757142D01*
X154530952Y-57780952D01*
X154411904Y-57780952D01*
X154364285Y-57757142D01*
X154340476Y-57733333D01*
X154316666Y-57685714D01*
X154316666Y-57590476D01*
X154340476Y-57542857D01*
X154364285Y-57519047D01*
X154411904Y-57495238D01*
X154126190Y-58090476D02*
X154126190Y-58138095D01*
X154150000Y-58185714D01*
X154173809Y-58209523D01*
X154221428Y-58233333D01*
X154316666Y-58257142D01*
X154435714Y-58257142D01*
X154530952Y-58233333D01*
X154578571Y-58209523D01*
X154602380Y-58185714D01*
X154626190Y-58138095D01*
X154626190Y-58090476D01*
X154602380Y-58042857D01*
X154578571Y-58019047D01*
X154530952Y-57995238D01*
X154435714Y-57971428D01*
X154316666Y-57971428D01*
X154221428Y-57995238D01*
X154173809Y-58019047D01*
X154150000Y-58042857D01*
X154126190Y-58090476D01*
X154126190Y-58566666D02*
X154126190Y-58614285D01*
X154150000Y-58661904D01*
X154173809Y-58685714D01*
X154221428Y-58709523D01*
X154316666Y-58733333D01*
X154435714Y-58733333D01*
X154530952Y-58709523D01*
X154578571Y-58685714D01*
X154602380Y-58661904D01*
X154626190Y-58614285D01*
X154626190Y-58566666D01*
X154602380Y-58519047D01*
X154578571Y-58495238D01*
X154530952Y-58471428D01*
X154435714Y-58447619D01*
X154316666Y-58447619D01*
X154221428Y-58471428D01*
X154173809Y-58495238D01*
X154150000Y-58519047D01*
X154126190Y-58566666D01*
X154126190Y-59042857D02*
X154126190Y-59090476D01*
X154150000Y-59138095D01*
X154173809Y-59161904D01*
X154221428Y-59185714D01*
X154316666Y-59209523D01*
X154435714Y-59209523D01*
X154530952Y-59185714D01*
X154578571Y-59161904D01*
X154602380Y-59138095D01*
X154626190Y-59090476D01*
X154626190Y-59042857D01*
X154602380Y-58995238D01*
X154578571Y-58971428D01*
X154530952Y-58947619D01*
X154435714Y-58923809D01*
X154316666Y-58923809D01*
X154221428Y-58947619D01*
X154173809Y-58971428D01*
X154150000Y-58995238D01*
X154126190Y-59042857D01*
X154626190Y-59685714D02*
X154626190Y-59400000D01*
X154626190Y-59542857D02*
X154126190Y-59542857D01*
X154197619Y-59495238D01*
X154245238Y-59447619D01*
X154269047Y-59400000D01*
D11*
X156052380Y-57166666D02*
X156766666Y-57166666D01*
X156909523Y-57119047D01*
X157004761Y-57023809D01*
X157052380Y-56880952D01*
X157052380Y-56785714D01*
X156052380Y-58119047D02*
X156052380Y-57642857D01*
X156528571Y-57595238D01*
X156480952Y-57642857D01*
X156433333Y-57738095D01*
X156433333Y-57976190D01*
X156480952Y-58071428D01*
X156528571Y-58119047D01*
X156623809Y-58166666D01*
X156861904Y-58166666D01*
X156957142Y-58119047D01*
X157004761Y-58071428D01*
X157052380Y-57976190D01*
X157052380Y-57738095D01*
X157004761Y-57642857D01*
X156957142Y-57595238D01*
D10*
X105026190Y-65580952D02*
X105026190Y-65295238D01*
X105026190Y-65438095D02*
X104526190Y-65438095D01*
X104597619Y-65390476D01*
X104645238Y-65342857D01*
X104669047Y-65295238D01*
X104526190Y-66033333D02*
X104526190Y-65795238D01*
X104764285Y-65771428D01*
X104740476Y-65795238D01*
X104716666Y-65842857D01*
X104716666Y-65961904D01*
X104740476Y-66009523D01*
X104764285Y-66033333D01*
X104811904Y-66057142D01*
X104930952Y-66057142D01*
X104978571Y-66033333D01*
X105002380Y-66009523D01*
X105026190Y-65961904D01*
X105026190Y-65842857D01*
X105002380Y-65795238D01*
X104978571Y-65771428D01*
X104526190Y-66366666D02*
X104526190Y-66414285D01*
X104550000Y-66461904D01*
X104573809Y-66485714D01*
X104621428Y-66509523D01*
X104716666Y-66533333D01*
X104835714Y-66533333D01*
X104930952Y-66509523D01*
X104978571Y-66485714D01*
X105002380Y-66461904D01*
X105026190Y-66414285D01*
X105026190Y-66366666D01*
X105002380Y-66319047D01*
X104978571Y-66295238D01*
X104930952Y-66271428D01*
X104835714Y-66247619D01*
X104716666Y-66247619D01*
X104621428Y-66271428D01*
X104573809Y-66295238D01*
X104550000Y-66319047D01*
X104526190Y-66366666D01*
X104692857Y-66961904D02*
X105026190Y-66961904D01*
X104692857Y-66747619D02*
X104954761Y-66747619D01*
X105002380Y-66771428D01*
X105026190Y-66819047D01*
X105026190Y-66890476D01*
X105002380Y-66938095D01*
X104978571Y-66961904D01*
X104764285Y-67366666D02*
X104764285Y-67200000D01*
X105026190Y-67200000D02*
X104526190Y-67200000D01*
X104526190Y-67438095D01*
X104526190Y-68223809D02*
X104526190Y-68128571D01*
X104550000Y-68080952D01*
X104573809Y-68057142D01*
X104645238Y-68009523D01*
X104740476Y-67985714D01*
X104930952Y-67985714D01*
X104978571Y-68009523D01*
X105002380Y-68033333D01*
X105026190Y-68080952D01*
X105026190Y-68176190D01*
X105002380Y-68223809D01*
X104978571Y-68247619D01*
X104930952Y-68271428D01*
X104811904Y-68271428D01*
X104764285Y-68247619D01*
X104740476Y-68223809D01*
X104716666Y-68176190D01*
X104716666Y-68080952D01*
X104740476Y-68033333D01*
X104764285Y-68009523D01*
X104811904Y-67985714D01*
X104526190Y-68438095D02*
X104526190Y-68747619D01*
X104716666Y-68580952D01*
X104716666Y-68652380D01*
X104740476Y-68700000D01*
X104764285Y-68723809D01*
X104811904Y-68747619D01*
X104930952Y-68747619D01*
X104978571Y-68723809D01*
X105002380Y-68700000D01*
X105026190Y-68652380D01*
X105026190Y-68509523D01*
X105002380Y-68461904D01*
X104978571Y-68438095D01*
X104526190Y-68890476D02*
X105026190Y-69057142D01*
X104526190Y-69223809D01*
X104692857Y-69771428D02*
X105192857Y-69771428D01*
X104716666Y-69771428D02*
X104692857Y-69819047D01*
X104692857Y-69914285D01*
X104716666Y-69961904D01*
X104740476Y-69985714D01*
X104788095Y-70009523D01*
X104930952Y-70009523D01*
X104978571Y-69985714D01*
X105002380Y-69961904D01*
X105026190Y-69914285D01*
X105026190Y-69819047D01*
X105002380Y-69771428D01*
X105026190Y-70295238D02*
X105002380Y-70247619D01*
X104978571Y-70223809D01*
X104930952Y-70200000D01*
X104788095Y-70200000D01*
X104740476Y-70223809D01*
X104716666Y-70247619D01*
X104692857Y-70295238D01*
X104692857Y-70366666D01*
X104716666Y-70414285D01*
X104740476Y-70438095D01*
X104788095Y-70461904D01*
X104930952Y-70461904D01*
X104978571Y-70438095D01*
X105002380Y-70414285D01*
X105026190Y-70366666D01*
X105026190Y-70295238D01*
X105026190Y-70747619D02*
X105002380Y-70700000D01*
X104954761Y-70676190D01*
X104526190Y-70676190D01*
X104692857Y-70890476D02*
X105026190Y-71009523D01*
X104692857Y-71128571D02*
X105026190Y-71009523D01*
X105145238Y-70961904D01*
X105169047Y-70938095D01*
X105192857Y-70890476D01*
D11*
X106357142Y-67357142D02*
X106404761Y-67309523D01*
X106452380Y-67166666D01*
X106452380Y-67071428D01*
X106404761Y-66928571D01*
X106309523Y-66833333D01*
X106214285Y-66785714D01*
X106023809Y-66738095D01*
X105880952Y-66738095D01*
X105690476Y-66785714D01*
X105595238Y-66833333D01*
X105500000Y-66928571D01*
X105452380Y-67071428D01*
X105452380Y-67166666D01*
X105500000Y-67309523D01*
X105547619Y-67357142D01*
X105452380Y-68261904D02*
X105452380Y-67785714D01*
X105928571Y-67738095D01*
X105880952Y-67785714D01*
X105833333Y-67880952D01*
X105833333Y-68119047D01*
X105880952Y-68214285D01*
X105928571Y-68261904D01*
X106023809Y-68309523D01*
X106261904Y-68309523D01*
X106357142Y-68261904D01*
X106404761Y-68214285D01*
X106452380Y-68119047D01*
X106452380Y-67880952D01*
X106404761Y-67785714D01*
X106357142Y-67738095D01*
X105880952Y-68880952D02*
X105833333Y-68785714D01*
X105785714Y-68738095D01*
X105690476Y-68690476D01*
X105642857Y-68690476D01*
X105547619Y-68738095D01*
X105500000Y-68785714D01*
X105452380Y-68880952D01*
X105452380Y-69071428D01*
X105500000Y-69166666D01*
X105547619Y-69214285D01*
X105642857Y-69261904D01*
X105690476Y-69261904D01*
X105785714Y-69214285D01*
X105833333Y-69166666D01*
X105880952Y-69071428D01*
X105880952Y-68880952D01*
X105928571Y-68785714D01*
X105976190Y-68738095D01*
X106071428Y-68690476D01*
X106261904Y-68690476D01*
X106357142Y-68738095D01*
X106404761Y-68785714D01*
X106452380Y-68880952D01*
X106452380Y-69071428D01*
X106404761Y-69166666D01*
X106357142Y-69214285D01*
X106261904Y-69261904D01*
X106071428Y-69261904D01*
X105976190Y-69214285D01*
X105928571Y-69166666D01*
X105880952Y-69071428D01*
D10*
X133019047Y-93826190D02*
X133019047Y-93326190D01*
X132852380Y-93683333D01*
X132685714Y-93326190D01*
X132685714Y-93826190D01*
X132161904Y-93826190D02*
X132328571Y-93588095D01*
X132447619Y-93826190D02*
X132447619Y-93326190D01*
X132257142Y-93326190D01*
X132209523Y-93350000D01*
X132185714Y-93373809D01*
X132161904Y-93421428D01*
X132161904Y-93492857D01*
X132185714Y-93540476D01*
X132209523Y-93564285D01*
X132257142Y-93588095D01*
X132447619Y-93588095D01*
X131995238Y-93326190D02*
X131685714Y-93326190D01*
X131852380Y-93516666D01*
X131780952Y-93516666D01*
X131733333Y-93540476D01*
X131709523Y-93564285D01*
X131685714Y-93611904D01*
X131685714Y-93730952D01*
X131709523Y-93778571D01*
X131733333Y-93802380D01*
X131780952Y-93826190D01*
X131923809Y-93826190D01*
X131971428Y-93802380D01*
X131995238Y-93778571D01*
X131376190Y-93326190D02*
X131328571Y-93326190D01*
X131280952Y-93350000D01*
X131257142Y-93373809D01*
X131233333Y-93421428D01*
X131209523Y-93516666D01*
X131209523Y-93635714D01*
X131233333Y-93730952D01*
X131257142Y-93778571D01*
X131280952Y-93802380D01*
X131328571Y-93826190D01*
X131376190Y-93826190D01*
X131423809Y-93802380D01*
X131447619Y-93778571D01*
X131471428Y-93730952D01*
X131495238Y-93635714D01*
X131495238Y-93516666D01*
X131471428Y-93421428D01*
X131447619Y-93373809D01*
X131423809Y-93350000D01*
X131376190Y-93326190D01*
X130995238Y-93826190D02*
X130995238Y-93326190D01*
X130804761Y-93326190D01*
X130757142Y-93350000D01*
X130733333Y-93373809D01*
X130709523Y-93421428D01*
X130709523Y-93492857D01*
X130733333Y-93540476D01*
X130757142Y-93564285D01*
X130804761Y-93588095D01*
X130995238Y-93588095D01*
X130542857Y-93326190D02*
X130423809Y-93826190D01*
X130328571Y-93469047D01*
X130233333Y-93826190D01*
X130114285Y-93326190D01*
X129923809Y-93635714D02*
X129542857Y-93635714D01*
X129304761Y-93826190D02*
X129304761Y-93326190D01*
X129138095Y-93683333D01*
X128971428Y-93326190D01*
X128971428Y-93826190D01*
X128090476Y-93826190D02*
X128376190Y-93826190D01*
X128233333Y-93826190D02*
X128233333Y-93326190D01*
X128280952Y-93397619D01*
X128328571Y-93445238D01*
X128376190Y-93469047D01*
X127638095Y-93326190D02*
X127876190Y-93326190D01*
X127900000Y-93564285D01*
X127876190Y-93540476D01*
X127828571Y-93516666D01*
X127709523Y-93516666D01*
X127661904Y-93540476D01*
X127638095Y-93564285D01*
X127614285Y-93611904D01*
X127614285Y-93730952D01*
X127638095Y-93778571D01*
X127661904Y-93802380D01*
X127709523Y-93826190D01*
X127828571Y-93826190D01*
X127876190Y-93802380D01*
X127900000Y-93778571D01*
X127423809Y-93683333D02*
X127185714Y-93683333D01*
X127471428Y-93826190D02*
X127304761Y-93326190D01*
X127138095Y-93826190D01*
X126447619Y-94016666D02*
X126471428Y-93992857D01*
X126519047Y-93921428D01*
X126542857Y-93873809D01*
X126566666Y-93802380D01*
X126590476Y-93683333D01*
X126590476Y-93588095D01*
X126566666Y-93469047D01*
X126542857Y-93397619D01*
X126519047Y-93350000D01*
X126471428Y-93278571D01*
X126447619Y-93254761D01*
X126304761Y-93326190D02*
X125995238Y-93326190D01*
X126161904Y-93516666D01*
X126090476Y-93516666D01*
X126042857Y-93540476D01*
X126019047Y-93564285D01*
X125995238Y-93611904D01*
X125995238Y-93730952D01*
X126019047Y-93778571D01*
X126042857Y-93802380D01*
X126090476Y-93826190D01*
X126233333Y-93826190D01*
X126280952Y-93802380D01*
X126304761Y-93778571D01*
X125685714Y-93326190D02*
X125638095Y-93326190D01*
X125590476Y-93350000D01*
X125566666Y-93373809D01*
X125542857Y-93421428D01*
X125519047Y-93516666D01*
X125519047Y-93635714D01*
X125542857Y-93730952D01*
X125566666Y-93778571D01*
X125590476Y-93802380D01*
X125638095Y-93826190D01*
X125685714Y-93826190D01*
X125733333Y-93802380D01*
X125757142Y-93778571D01*
X125780952Y-93730952D01*
X125804761Y-93635714D01*
X125804761Y-93516666D01*
X125780952Y-93421428D01*
X125757142Y-93373809D01*
X125733333Y-93350000D01*
X125685714Y-93326190D01*
X125328571Y-93683333D02*
X125090476Y-93683333D01*
X125376190Y-93826190D02*
X125209523Y-93326190D01*
X125042857Y-93826190D01*
X124923809Y-94016666D02*
X124900000Y-93992857D01*
X124852380Y-93921428D01*
X124828571Y-93873809D01*
X124804761Y-93802380D01*
X124780952Y-93683333D01*
X124780952Y-93588095D01*
X124804761Y-93469047D01*
X124828571Y-93397619D01*
X124852380Y-93350000D01*
X124900000Y-93278571D01*
X124923809Y-93254761D01*
D11*
X129809523Y-94452380D02*
X129809523Y-95166666D01*
X129857142Y-95309523D01*
X129952380Y-95404761D01*
X130095238Y-95452380D01*
X130190476Y-95452380D01*
X128809523Y-95452380D02*
X129380952Y-95452380D01*
X129095238Y-95452380D02*
X129095238Y-94452380D01*
X129190476Y-94595238D01*
X129285714Y-94690476D01*
X129380952Y-94738095D01*
X128190476Y-94452380D02*
X128095238Y-94452380D01*
X128000000Y-94500000D01*
X127952380Y-94547619D01*
X127904761Y-94642857D01*
X127857142Y-94833333D01*
X127857142Y-95071428D01*
X127904761Y-95261904D01*
X127952380Y-95357142D01*
X128000000Y-95404761D01*
X128095238Y-95452380D01*
X128190476Y-95452380D01*
X128285714Y-95404761D01*
X128333333Y-95357142D01*
X128380952Y-95261904D01*
X128428571Y-95071428D01*
X128428571Y-94833333D01*
X128380952Y-94642857D01*
X128333333Y-94547619D01*
X128285714Y-94500000D01*
X128190476Y-94452380D01*
D10*
X114085714Y-58726190D02*
X113800000Y-58726190D01*
X113942857Y-59226190D02*
X113942857Y-58726190D01*
X113347619Y-59178571D02*
X113371428Y-59202380D01*
X113442857Y-59226190D01*
X113490476Y-59226190D01*
X113561904Y-59202380D01*
X113609523Y-59154761D01*
X113633333Y-59107142D01*
X113657142Y-59011904D01*
X113657142Y-58940476D01*
X113633333Y-58845238D01*
X113609523Y-58797619D01*
X113561904Y-58750000D01*
X113490476Y-58726190D01*
X113442857Y-58726190D01*
X113371428Y-58750000D01*
X113347619Y-58773809D01*
X113157142Y-59083333D02*
X112919047Y-59083333D01*
X113204761Y-59226190D02*
X113038095Y-58726190D01*
X112871428Y-59226190D01*
X112704761Y-59226190D02*
X112704761Y-58726190D01*
X112419047Y-59226190D01*
X112419047Y-58726190D01*
X112228571Y-58726190D02*
X111919047Y-58726190D01*
X112085714Y-58916666D01*
X112014285Y-58916666D01*
X111966666Y-58940476D01*
X111942857Y-58964285D01*
X111919047Y-59011904D01*
X111919047Y-59130952D01*
X111942857Y-59178571D01*
X111966666Y-59202380D01*
X112014285Y-59226190D01*
X112157142Y-59226190D01*
X112204761Y-59202380D01*
X112228571Y-59178571D01*
X111752380Y-58726190D02*
X111442857Y-58726190D01*
X111609523Y-58916666D01*
X111538095Y-58916666D01*
X111490476Y-58940476D01*
X111466666Y-58964285D01*
X111442857Y-59011904D01*
X111442857Y-59130952D01*
X111466666Y-59178571D01*
X111490476Y-59202380D01*
X111538095Y-59226190D01*
X111680952Y-59226190D01*
X111728571Y-59202380D01*
X111752380Y-59178571D01*
X111252380Y-58773809D02*
X111228571Y-58750000D01*
X111180952Y-58726190D01*
X111061904Y-58726190D01*
X111014285Y-58750000D01*
X110990476Y-58773809D01*
X110966666Y-58821428D01*
X110966666Y-58869047D01*
X110990476Y-58940476D01*
X111276190Y-59226190D01*
X110966666Y-59226190D01*
X110490476Y-58750000D02*
X110538095Y-58726190D01*
X110609523Y-58726190D01*
X110680952Y-58750000D01*
X110728571Y-58797619D01*
X110752380Y-58845238D01*
X110776190Y-58940476D01*
X110776190Y-59011904D01*
X110752380Y-59107142D01*
X110728571Y-59154761D01*
X110680952Y-59202380D01*
X110609523Y-59226190D01*
X110561904Y-59226190D01*
X110490476Y-59202380D01*
X110466666Y-59178571D01*
X110466666Y-59011904D01*
X110561904Y-59011904D01*
X110252380Y-59226190D02*
X110252380Y-58726190D01*
X110133333Y-58726190D01*
X110061904Y-58750000D01*
X110014285Y-58797619D01*
X109990476Y-58845238D01*
X109966666Y-58940476D01*
X109966666Y-59011904D01*
X109990476Y-59107142D01*
X110014285Y-59154761D01*
X110061904Y-59202380D01*
X110133333Y-59226190D01*
X110252380Y-59226190D01*
X109466666Y-59178571D02*
X109490476Y-59202380D01*
X109561904Y-59226190D01*
X109609523Y-59226190D01*
X109680952Y-59202380D01*
X109728571Y-59154761D01*
X109752380Y-59107142D01*
X109776190Y-59011904D01*
X109776190Y-58940476D01*
X109752380Y-58845238D01*
X109728571Y-58797619D01*
X109680952Y-58750000D01*
X109609523Y-58726190D01*
X109561904Y-58726190D01*
X109490476Y-58750000D01*
X109466666Y-58773809D01*
X109252380Y-59226190D02*
X109252380Y-58726190D01*
X108966666Y-59226190D01*
X108966666Y-58726190D01*
X108800000Y-58726190D02*
X108514285Y-58726190D01*
X108657142Y-59226190D02*
X108657142Y-58726190D01*
D15*
X111126190Y-56419047D02*
X111530952Y-56419047D01*
X111578571Y-56442857D01*
X111602380Y-56466666D01*
X111626190Y-56514285D01*
X111626190Y-56609523D01*
X111602380Y-56657142D01*
X111578571Y-56680952D01*
X111530952Y-56704761D01*
X111126190Y-56704761D01*
X111626190Y-57204761D02*
X111626190Y-56919047D01*
X111626190Y-57061904D02*
X111126190Y-57061904D01*
X111197619Y-57014285D01*
X111245238Y-56966666D01*
X111269047Y-56919047D01*
D11*
X112961904Y-60752380D02*
X112390476Y-60752380D01*
X112676190Y-61752380D02*
X112676190Y-60752380D01*
X112057142Y-61752380D02*
X112057142Y-60752380D01*
X111676190Y-60752380D01*
X111580952Y-60800000D01*
X111533333Y-60847619D01*
X111485714Y-60942857D01*
X111485714Y-61085714D01*
X111533333Y-61180952D01*
X111580952Y-61228571D01*
X111676190Y-61276190D01*
X112057142Y-61276190D01*
X111009523Y-61752380D02*
X110819047Y-61752380D01*
X110723809Y-61704761D01*
X110676190Y-61657142D01*
X110580952Y-61514285D01*
X110533333Y-61323809D01*
X110533333Y-60942857D01*
X110580952Y-60847619D01*
X110628571Y-60800000D01*
X110723809Y-60752380D01*
X110914285Y-60752380D01*
X111009523Y-60800000D01*
X111057142Y-60847619D01*
X111104761Y-60942857D01*
X111104761Y-61180952D01*
X111057142Y-61276190D01*
X111009523Y-61323809D01*
X110914285Y-61371428D01*
X110723809Y-61371428D01*
X110628571Y-61323809D01*
X110580952Y-61276190D01*
X110533333Y-61180952D01*
X109861904Y-60852380D02*
X109290476Y-60852380D01*
X109576190Y-61852380D02*
X109576190Y-60852380D01*
X108957142Y-61852380D02*
X108957142Y-60852380D01*
X108576190Y-60852380D01*
X108480952Y-60900000D01*
X108433333Y-60947619D01*
X108385714Y-61042857D01*
X108385714Y-61185714D01*
X108433333Y-61280952D01*
X108480952Y-61328571D01*
X108576190Y-61376190D01*
X108957142Y-61376190D01*
X107814285Y-61280952D02*
X107909523Y-61233333D01*
X107957142Y-61185714D01*
X108004761Y-61090476D01*
X108004761Y-61042857D01*
X107957142Y-60947619D01*
X107909523Y-60900000D01*
X107814285Y-60852380D01*
X107623809Y-60852380D01*
X107528571Y-60900000D01*
X107480952Y-60947619D01*
X107433333Y-61042857D01*
X107433333Y-61090476D01*
X107480952Y-61185714D01*
X107528571Y-61233333D01*
X107623809Y-61280952D01*
X107814285Y-61280952D01*
X107909523Y-61328571D01*
X107957142Y-61376190D01*
X108004761Y-61471428D01*
X108004761Y-61661904D01*
X107957142Y-61757142D01*
X107909523Y-61804761D01*
X107814285Y-61852380D01*
X107623809Y-61852380D01*
X107528571Y-61804761D01*
X107480952Y-61757142D01*
X107433333Y-61661904D01*
X107433333Y-61471428D01*
X107480952Y-61376190D01*
X107528571Y-61328571D01*
X107623809Y-61280952D01*
X147461904Y-60852380D02*
X146890476Y-60852380D01*
X147176190Y-61852380D02*
X147176190Y-60852380D01*
X146557142Y-61852380D02*
X146557142Y-60852380D01*
X146176190Y-60852380D01*
X146080952Y-60900000D01*
X146033333Y-60947619D01*
X145985714Y-61042857D01*
X145985714Y-61185714D01*
X146033333Y-61280952D01*
X146080952Y-61328571D01*
X146176190Y-61376190D01*
X146557142Y-61376190D01*
X145128571Y-60852380D02*
X145319047Y-60852380D01*
X145414285Y-60900000D01*
X145461904Y-60947619D01*
X145557142Y-61090476D01*
X145604761Y-61280952D01*
X145604761Y-61661904D01*
X145557142Y-61757142D01*
X145509523Y-61804761D01*
X145414285Y-61852380D01*
X145223809Y-61852380D01*
X145128571Y-61804761D01*
X145080952Y-61757142D01*
X145033333Y-61661904D01*
X145033333Y-61423809D01*
X145080952Y-61328571D01*
X145128571Y-61280952D01*
X145223809Y-61233333D01*
X145414285Y-61233333D01*
X145509523Y-61280952D01*
X145557142Y-61328571D01*
X145604761Y-61423809D01*
X150161904Y-60852380D02*
X149590476Y-60852380D01*
X149876190Y-61852380D02*
X149876190Y-60852380D01*
X149257142Y-61852380D02*
X149257142Y-60852380D01*
X148876190Y-60852380D01*
X148780952Y-60900000D01*
X148733333Y-60947619D01*
X148685714Y-61042857D01*
X148685714Y-61185714D01*
X148733333Y-61280952D01*
X148780952Y-61328571D01*
X148876190Y-61376190D01*
X149257142Y-61376190D01*
X147780952Y-60852380D02*
X148257142Y-60852380D01*
X148304761Y-61328571D01*
X148257142Y-61280952D01*
X148161904Y-61233333D01*
X147923809Y-61233333D01*
X147828571Y-61280952D01*
X147780952Y-61328571D01*
X147733333Y-61423809D01*
X147733333Y-61661904D01*
X147780952Y-61757142D01*
X147828571Y-61804761D01*
X147923809Y-61852380D01*
X148161904Y-61852380D01*
X148257142Y-61804761D01*
X148304761Y-61757142D01*
X153161904Y-54252380D02*
X152590476Y-54252380D01*
X152876190Y-55252380D02*
X152876190Y-54252380D01*
X152257142Y-55252380D02*
X152257142Y-54252380D01*
X151876190Y-54252380D01*
X151780952Y-54300000D01*
X151733333Y-54347619D01*
X151685714Y-54442857D01*
X151685714Y-54585714D01*
X151733333Y-54680952D01*
X151780952Y-54728571D01*
X151876190Y-54776190D01*
X152257142Y-54776190D01*
X151352380Y-54252380D02*
X150733333Y-54252380D01*
X151066666Y-54633333D01*
X150923809Y-54633333D01*
X150828571Y-54680952D01*
X150780952Y-54728571D01*
X150733333Y-54823809D01*
X150733333Y-55061904D01*
X150780952Y-55157142D01*
X150828571Y-55204761D01*
X150923809Y-55252380D01*
X151209523Y-55252380D01*
X151304761Y-55204761D01*
X151352380Y-55157142D01*
X150061904Y-58152380D02*
X149490476Y-58152380D01*
X149776190Y-59152380D02*
X149776190Y-58152380D01*
X149157142Y-59152380D02*
X149157142Y-58152380D01*
X148776190Y-58152380D01*
X148680952Y-58200000D01*
X148633333Y-58247619D01*
X148585714Y-58342857D01*
X148585714Y-58485714D01*
X148633333Y-58580952D01*
X148680952Y-58628571D01*
X148776190Y-58676190D01*
X149157142Y-58676190D01*
X148204761Y-58247619D02*
X148157142Y-58200000D01*
X148061904Y-58152380D01*
X147823809Y-58152380D01*
X147728571Y-58200000D01*
X147680952Y-58247619D01*
X147633333Y-58342857D01*
X147633333Y-58438095D01*
X147680952Y-58580952D01*
X148252380Y-59152380D01*
X147633333Y-59152380D01*
D10*
X125935714Y-62164285D02*
X125864285Y-62188095D01*
X125840476Y-62211904D01*
X125816666Y-62259523D01*
X125816666Y-62330952D01*
X125840476Y-62378571D01*
X125864285Y-62402380D01*
X125911904Y-62426190D01*
X126102380Y-62426190D01*
X126102380Y-61926190D01*
X125935714Y-61926190D01*
X125888095Y-61950000D01*
X125864285Y-61973809D01*
X125840476Y-62021428D01*
X125840476Y-62069047D01*
X125864285Y-62116666D01*
X125888095Y-62140476D01*
X125935714Y-62164285D01*
X126102380Y-62164285D01*
X125650000Y-61926190D02*
X125340476Y-61926190D01*
X125507142Y-62116666D01*
X125435714Y-62116666D01*
X125388095Y-62140476D01*
X125364285Y-62164285D01*
X125340476Y-62211904D01*
X125340476Y-62330952D01*
X125364285Y-62378571D01*
X125388095Y-62402380D01*
X125435714Y-62426190D01*
X125578571Y-62426190D01*
X125626190Y-62402380D01*
X125650000Y-62378571D01*
X125126190Y-61926190D02*
X125126190Y-62330952D01*
X125102380Y-62378571D01*
X125078571Y-62402380D01*
X125030952Y-62426190D01*
X124935714Y-62426190D01*
X124888095Y-62402380D01*
X124864285Y-62378571D01*
X124840476Y-62330952D01*
X124840476Y-61926190D01*
X124602380Y-62235714D02*
X124221428Y-62235714D01*
X123721428Y-62426190D02*
X124007142Y-62426190D01*
X123864285Y-62426190D02*
X123864285Y-61926190D01*
X123911904Y-61997619D01*
X123959523Y-62045238D01*
X124007142Y-62069047D01*
X123411904Y-61926190D02*
X123364285Y-61926190D01*
X123316666Y-61950000D01*
X123292857Y-61973809D01*
X123269047Y-62021428D01*
X123245238Y-62116666D01*
X123245238Y-62235714D01*
X123269047Y-62330952D01*
X123292857Y-62378571D01*
X123316666Y-62402380D01*
X123364285Y-62426190D01*
X123411904Y-62426190D01*
X123459523Y-62402380D01*
X123483333Y-62378571D01*
X123507142Y-62330952D01*
X123530952Y-62235714D01*
X123530952Y-62116666D01*
X123507142Y-62021428D01*
X123483333Y-61973809D01*
X123459523Y-61950000D01*
X123411904Y-61926190D01*
X122935714Y-61926190D02*
X122888095Y-61926190D01*
X122840476Y-61950000D01*
X122816666Y-61973809D01*
X122792857Y-62021428D01*
X122769047Y-62116666D01*
X122769047Y-62235714D01*
X122792857Y-62330952D01*
X122816666Y-62378571D01*
X122840476Y-62402380D01*
X122888095Y-62426190D01*
X122935714Y-62426190D01*
X122983333Y-62402380D01*
X123007142Y-62378571D01*
X123030952Y-62330952D01*
X123054761Y-62235714D01*
X123054761Y-62116666D01*
X123030952Y-62021428D01*
X123007142Y-61973809D01*
X122983333Y-61950000D01*
X122935714Y-61926190D01*
X122459523Y-61926190D02*
X122411904Y-61926190D01*
X122364285Y-61950000D01*
X122340476Y-61973809D01*
X122316666Y-62021428D01*
X122292857Y-62116666D01*
X122292857Y-62235714D01*
X122316666Y-62330952D01*
X122340476Y-62378571D01*
X122364285Y-62402380D01*
X122411904Y-62426190D01*
X122459523Y-62426190D01*
X122507142Y-62402380D01*
X122530952Y-62378571D01*
X122554761Y-62330952D01*
X122578571Y-62235714D01*
X122578571Y-62116666D01*
X122554761Y-62021428D01*
X122530952Y-61973809D01*
X122507142Y-61950000D01*
X122459523Y-61926190D01*
X122078571Y-62426190D02*
X122078571Y-61926190D01*
X121888095Y-61926190D01*
X121840476Y-61950000D01*
X121816666Y-61973809D01*
X121792857Y-62021428D01*
X121792857Y-62092857D01*
X121816666Y-62140476D01*
X121840476Y-62164285D01*
X121888095Y-62188095D01*
X122078571Y-62188095D01*
X121578571Y-62235714D02*
X121197619Y-62235714D01*
X120792857Y-62164285D02*
X120721428Y-62188095D01*
X120697619Y-62211904D01*
X120673809Y-62259523D01*
X120673809Y-62330952D01*
X120697619Y-62378571D01*
X120721428Y-62402380D01*
X120769047Y-62426190D01*
X120959523Y-62426190D01*
X120959523Y-61926190D01*
X120792857Y-61926190D01*
X120745238Y-61950000D01*
X120721428Y-61973809D01*
X120697619Y-62021428D01*
X120697619Y-62069047D01*
X120721428Y-62116666D01*
X120745238Y-62140476D01*
X120792857Y-62164285D01*
X120959523Y-62164285D01*
D11*
X125033333Y-58404761D02*
X124890476Y-58452380D01*
X124652380Y-58452380D01*
X124557142Y-58404761D01*
X124509523Y-58357142D01*
X124461904Y-58261904D01*
X124461904Y-58166666D01*
X124509523Y-58071428D01*
X124557142Y-58023809D01*
X124652380Y-57976190D01*
X124842857Y-57928571D01*
X124938095Y-57880952D01*
X124985714Y-57833333D01*
X125033333Y-57738095D01*
X125033333Y-57642857D01*
X124985714Y-57547619D01*
X124938095Y-57500000D01*
X124842857Y-57452380D01*
X124604761Y-57452380D01*
X124461904Y-57500000D01*
X124128571Y-57452380D02*
X123890476Y-58452380D01*
X123700000Y-57738095D01*
X123509523Y-58452380D01*
X123271428Y-57452380D01*
X122938095Y-57547619D02*
X122890476Y-57500000D01*
X122795238Y-57452380D01*
X122557142Y-57452380D01*
X122461904Y-57500000D01*
X122414285Y-57547619D01*
X122366666Y-57642857D01*
X122366666Y-57738095D01*
X122414285Y-57880952D01*
X122985714Y-58452380D01*
X122366666Y-58452380D01*
D10*
X138035714Y-62164285D02*
X137964285Y-62188095D01*
X137940476Y-62211904D01*
X137916666Y-62259523D01*
X137916666Y-62330952D01*
X137940476Y-62378571D01*
X137964285Y-62402380D01*
X138011904Y-62426190D01*
X138202380Y-62426190D01*
X138202380Y-61926190D01*
X138035714Y-61926190D01*
X137988095Y-61950000D01*
X137964285Y-61973809D01*
X137940476Y-62021428D01*
X137940476Y-62069047D01*
X137964285Y-62116666D01*
X137988095Y-62140476D01*
X138035714Y-62164285D01*
X138202380Y-62164285D01*
X137750000Y-61926190D02*
X137440476Y-61926190D01*
X137607142Y-62116666D01*
X137535714Y-62116666D01*
X137488095Y-62140476D01*
X137464285Y-62164285D01*
X137440476Y-62211904D01*
X137440476Y-62330952D01*
X137464285Y-62378571D01*
X137488095Y-62402380D01*
X137535714Y-62426190D01*
X137678571Y-62426190D01*
X137726190Y-62402380D01*
X137750000Y-62378571D01*
X137226190Y-61926190D02*
X137226190Y-62330952D01*
X137202380Y-62378571D01*
X137178571Y-62402380D01*
X137130952Y-62426190D01*
X137035714Y-62426190D01*
X136988095Y-62402380D01*
X136964285Y-62378571D01*
X136940476Y-62330952D01*
X136940476Y-61926190D01*
X136702380Y-62235714D02*
X136321428Y-62235714D01*
X135821428Y-62426190D02*
X136107142Y-62426190D01*
X135964285Y-62426190D02*
X135964285Y-61926190D01*
X136011904Y-61997619D01*
X136059523Y-62045238D01*
X136107142Y-62069047D01*
X135511904Y-61926190D02*
X135464285Y-61926190D01*
X135416666Y-61950000D01*
X135392857Y-61973809D01*
X135369047Y-62021428D01*
X135345238Y-62116666D01*
X135345238Y-62235714D01*
X135369047Y-62330952D01*
X135392857Y-62378571D01*
X135416666Y-62402380D01*
X135464285Y-62426190D01*
X135511904Y-62426190D01*
X135559523Y-62402380D01*
X135583333Y-62378571D01*
X135607142Y-62330952D01*
X135630952Y-62235714D01*
X135630952Y-62116666D01*
X135607142Y-62021428D01*
X135583333Y-61973809D01*
X135559523Y-61950000D01*
X135511904Y-61926190D01*
X135035714Y-61926190D02*
X134988095Y-61926190D01*
X134940476Y-61950000D01*
X134916666Y-61973809D01*
X134892857Y-62021428D01*
X134869047Y-62116666D01*
X134869047Y-62235714D01*
X134892857Y-62330952D01*
X134916666Y-62378571D01*
X134940476Y-62402380D01*
X134988095Y-62426190D01*
X135035714Y-62426190D01*
X135083333Y-62402380D01*
X135107142Y-62378571D01*
X135130952Y-62330952D01*
X135154761Y-62235714D01*
X135154761Y-62116666D01*
X135130952Y-62021428D01*
X135107142Y-61973809D01*
X135083333Y-61950000D01*
X135035714Y-61926190D01*
X134559523Y-61926190D02*
X134511904Y-61926190D01*
X134464285Y-61950000D01*
X134440476Y-61973809D01*
X134416666Y-62021428D01*
X134392857Y-62116666D01*
X134392857Y-62235714D01*
X134416666Y-62330952D01*
X134440476Y-62378571D01*
X134464285Y-62402380D01*
X134511904Y-62426190D01*
X134559523Y-62426190D01*
X134607142Y-62402380D01*
X134630952Y-62378571D01*
X134654761Y-62330952D01*
X134678571Y-62235714D01*
X134678571Y-62116666D01*
X134654761Y-62021428D01*
X134630952Y-61973809D01*
X134607142Y-61950000D01*
X134559523Y-61926190D01*
X134178571Y-62426190D02*
X134178571Y-61926190D01*
X133988095Y-61926190D01*
X133940476Y-61950000D01*
X133916666Y-61973809D01*
X133892857Y-62021428D01*
X133892857Y-62092857D01*
X133916666Y-62140476D01*
X133940476Y-62164285D01*
X133988095Y-62188095D01*
X134178571Y-62188095D01*
X133678571Y-62235714D02*
X133297619Y-62235714D01*
X132892857Y-62164285D02*
X132821428Y-62188095D01*
X132797619Y-62211904D01*
X132773809Y-62259523D01*
X132773809Y-62330952D01*
X132797619Y-62378571D01*
X132821428Y-62402380D01*
X132869047Y-62426190D01*
X133059523Y-62426190D01*
X133059523Y-61926190D01*
X132892857Y-61926190D01*
X132845238Y-61950000D01*
X132821428Y-61973809D01*
X132797619Y-62021428D01*
X132797619Y-62069047D01*
X132821428Y-62116666D01*
X132845238Y-62140476D01*
X132892857Y-62164285D01*
X133059523Y-62164285D01*
D11*
X136833333Y-58404761D02*
X136690476Y-58452380D01*
X136452380Y-58452380D01*
X136357142Y-58404761D01*
X136309523Y-58357142D01*
X136261904Y-58261904D01*
X136261904Y-58166666D01*
X136309523Y-58071428D01*
X136357142Y-58023809D01*
X136452380Y-57976190D01*
X136642857Y-57928571D01*
X136738095Y-57880952D01*
X136785714Y-57833333D01*
X136833333Y-57738095D01*
X136833333Y-57642857D01*
X136785714Y-57547619D01*
X136738095Y-57500000D01*
X136642857Y-57452380D01*
X136404761Y-57452380D01*
X136261904Y-57500000D01*
X135928571Y-57452380D02*
X135690476Y-58452380D01*
X135500000Y-57738095D01*
X135309523Y-58452380D01*
X135071428Y-57452380D01*
X134166666Y-58452380D02*
X134738095Y-58452380D01*
X134452380Y-58452380D02*
X134452380Y-57452380D01*
X134547619Y-57595238D01*
X134642857Y-57690476D01*
X134738095Y-57738095D01*
D10*
X139526190Y-59526190D02*
X139216666Y-59526190D01*
X139383333Y-59716666D01*
X139311904Y-59716666D01*
X139264285Y-59740476D01*
X139240476Y-59764285D01*
X139216666Y-59811904D01*
X139216666Y-59930952D01*
X139240476Y-59978571D01*
X139264285Y-60002380D01*
X139311904Y-60026190D01*
X139454761Y-60026190D01*
X139502380Y-60002380D01*
X139526190Y-59978571D01*
X139002380Y-59978571D02*
X138978571Y-60002380D01*
X139002380Y-60026190D01*
X139026190Y-60002380D01*
X139002380Y-59978571D01*
X139002380Y-60026190D01*
X138811904Y-59526190D02*
X138502380Y-59526190D01*
X138669047Y-59716666D01*
X138597619Y-59716666D01*
X138550000Y-59740476D01*
X138526190Y-59764285D01*
X138502380Y-59811904D01*
X138502380Y-59930952D01*
X138526190Y-59978571D01*
X138550000Y-60002380D01*
X138597619Y-60026190D01*
X138740476Y-60026190D01*
X138788095Y-60002380D01*
X138811904Y-59978571D01*
X138288095Y-60026190D02*
X138288095Y-59526190D01*
X138240476Y-59835714D02*
X138097619Y-60026190D01*
X138097619Y-59692857D02*
X138288095Y-59883333D01*
D16*
X139060714Y-60713095D02*
X139144047Y-60594047D01*
X139203571Y-60713095D02*
X139203571Y-60463095D01*
X139108333Y-60463095D01*
X139084523Y-60475000D01*
X139072619Y-60486904D01*
X139060714Y-60510714D01*
X139060714Y-60546428D01*
X139072619Y-60570238D01*
X139084523Y-60582142D01*
X139108333Y-60594047D01*
X139203571Y-60594047D01*
X138977380Y-60463095D02*
X138822619Y-60463095D01*
X138905952Y-60558333D01*
X138870238Y-60558333D01*
X138846428Y-60570238D01*
X138834523Y-60582142D01*
X138822619Y-60605952D01*
X138822619Y-60665476D01*
X138834523Y-60689285D01*
X138846428Y-60701190D01*
X138870238Y-60713095D01*
X138941666Y-60713095D01*
X138965476Y-60701190D01*
X138977380Y-60689285D01*
X138584523Y-60713095D02*
X138727380Y-60713095D01*
X138655952Y-60713095D02*
X138655952Y-60463095D01*
X138679761Y-60498809D01*
X138703571Y-60522619D01*
X138727380Y-60534523D01*
D10*
X152597619Y-60926190D02*
X152883333Y-60926190D01*
X152740476Y-60926190D02*
X152740476Y-60426190D01*
X152788095Y-60497619D01*
X152835714Y-60545238D01*
X152883333Y-60569047D01*
X152288095Y-60426190D02*
X152240476Y-60426190D01*
X152192857Y-60450000D01*
X152169047Y-60473809D01*
X152145238Y-60521428D01*
X152121428Y-60616666D01*
X152121428Y-60735714D01*
X152145238Y-60830952D01*
X152169047Y-60878571D01*
X152192857Y-60902380D01*
X152240476Y-60926190D01*
X152288095Y-60926190D01*
X152335714Y-60902380D01*
X152359523Y-60878571D01*
X152383333Y-60830952D01*
X152407142Y-60735714D01*
X152407142Y-60616666D01*
X152383333Y-60521428D01*
X152359523Y-60473809D01*
X152335714Y-60450000D01*
X152288095Y-60426190D01*
X151907142Y-60926190D02*
X151907142Y-60426190D01*
X151859523Y-60735714D02*
X151716666Y-60926190D01*
X151716666Y-60592857D02*
X151907142Y-60783333D01*
D16*
X151060714Y-60813095D02*
X151144047Y-60694047D01*
X151203571Y-60813095D02*
X151203571Y-60563095D01*
X151108333Y-60563095D01*
X151084523Y-60575000D01*
X151072619Y-60586904D01*
X151060714Y-60610714D01*
X151060714Y-60646428D01*
X151072619Y-60670238D01*
X151084523Y-60682142D01*
X151108333Y-60694047D01*
X151203571Y-60694047D01*
X150965476Y-60586904D02*
X150953571Y-60575000D01*
X150929761Y-60563095D01*
X150870238Y-60563095D01*
X150846428Y-60575000D01*
X150834523Y-60586904D01*
X150822619Y-60610714D01*
X150822619Y-60634523D01*
X150834523Y-60670238D01*
X150977380Y-60813095D01*
X150822619Y-60813095D01*
X150739285Y-60563095D02*
X150572619Y-60563095D01*
X150679761Y-60813095D01*
D10*
X143297619Y-61826190D02*
X143583333Y-61826190D01*
X143440476Y-61826190D02*
X143440476Y-61326190D01*
X143488095Y-61397619D01*
X143535714Y-61445238D01*
X143583333Y-61469047D01*
X142988095Y-61326190D02*
X142940476Y-61326190D01*
X142892857Y-61350000D01*
X142869047Y-61373809D01*
X142845238Y-61421428D01*
X142821428Y-61516666D01*
X142821428Y-61635714D01*
X142845238Y-61730952D01*
X142869047Y-61778571D01*
X142892857Y-61802380D01*
X142940476Y-61826190D01*
X142988095Y-61826190D01*
X143035714Y-61802380D01*
X143059523Y-61778571D01*
X143083333Y-61730952D01*
X143107142Y-61635714D01*
X143107142Y-61516666D01*
X143083333Y-61421428D01*
X143059523Y-61373809D01*
X143035714Y-61350000D01*
X142988095Y-61326190D01*
X142607142Y-61826190D02*
X142607142Y-61326190D01*
X142559523Y-61635714D02*
X142416666Y-61826190D01*
X142416666Y-61492857D02*
X142607142Y-61683333D01*
D16*
X144460714Y-61713095D02*
X144544047Y-61594047D01*
X144603571Y-61713095D02*
X144603571Y-61463095D01*
X144508333Y-61463095D01*
X144484523Y-61475000D01*
X144472619Y-61486904D01*
X144460714Y-61510714D01*
X144460714Y-61546428D01*
X144472619Y-61570238D01*
X144484523Y-61582142D01*
X144508333Y-61594047D01*
X144603571Y-61594047D01*
X144365476Y-61486904D02*
X144353571Y-61475000D01*
X144329761Y-61463095D01*
X144270238Y-61463095D01*
X144246428Y-61475000D01*
X144234523Y-61486904D01*
X144222619Y-61510714D01*
X144222619Y-61534523D01*
X144234523Y-61570238D01*
X144377380Y-61713095D01*
X144222619Y-61713095D01*
X144008333Y-61463095D02*
X144055952Y-61463095D01*
X144079761Y-61475000D01*
X144091666Y-61486904D01*
X144115476Y-61522619D01*
X144127380Y-61570238D01*
X144127380Y-61665476D01*
X144115476Y-61689285D01*
X144103571Y-61701190D01*
X144079761Y-61713095D01*
X144032142Y-61713095D01*
X144008333Y-61701190D01*
X143996428Y-61689285D01*
X143984523Y-61665476D01*
X143984523Y-61605952D01*
X143996428Y-61582142D01*
X144008333Y-61570238D01*
X144032142Y-61558333D01*
X144079761Y-61558333D01*
X144103571Y-61570238D01*
X144115476Y-61582142D01*
X144127380Y-61605952D01*
D10*
X152597619Y-59826190D02*
X152883333Y-59826190D01*
X152740476Y-59826190D02*
X152740476Y-59326190D01*
X152788095Y-59397619D01*
X152835714Y-59445238D01*
X152883333Y-59469047D01*
X152288095Y-59326190D02*
X152240476Y-59326190D01*
X152192857Y-59350000D01*
X152169047Y-59373809D01*
X152145238Y-59421428D01*
X152121428Y-59516666D01*
X152121428Y-59635714D01*
X152145238Y-59730952D01*
X152169047Y-59778571D01*
X152192857Y-59802380D01*
X152240476Y-59826190D01*
X152288095Y-59826190D01*
X152335714Y-59802380D01*
X152359523Y-59778571D01*
X152383333Y-59730952D01*
X152407142Y-59635714D01*
X152407142Y-59516666D01*
X152383333Y-59421428D01*
X152359523Y-59373809D01*
X152335714Y-59350000D01*
X152288095Y-59326190D01*
X151907142Y-59826190D02*
X151907142Y-59326190D01*
X151859523Y-59635714D02*
X151716666Y-59826190D01*
X151716666Y-59492857D02*
X151907142Y-59683333D01*
D16*
X151060714Y-59713095D02*
X151144047Y-59594047D01*
X151203571Y-59713095D02*
X151203571Y-59463095D01*
X151108333Y-59463095D01*
X151084523Y-59475000D01*
X151072619Y-59486904D01*
X151060714Y-59510714D01*
X151060714Y-59546428D01*
X151072619Y-59570238D01*
X151084523Y-59582142D01*
X151108333Y-59594047D01*
X151203571Y-59594047D01*
X150965476Y-59486904D02*
X150953571Y-59475000D01*
X150929761Y-59463095D01*
X150870238Y-59463095D01*
X150846428Y-59475000D01*
X150834523Y-59486904D01*
X150822619Y-59510714D01*
X150822619Y-59534523D01*
X150834523Y-59570238D01*
X150977380Y-59713095D01*
X150822619Y-59713095D01*
X150596428Y-59463095D02*
X150715476Y-59463095D01*
X150727380Y-59582142D01*
X150715476Y-59570238D01*
X150691666Y-59558333D01*
X150632142Y-59558333D01*
X150608333Y-59570238D01*
X150596428Y-59582142D01*
X150584523Y-59605952D01*
X150584523Y-59665476D01*
X150596428Y-59689285D01*
X150608333Y-59701190D01*
X150632142Y-59713095D01*
X150691666Y-59713095D01*
X150715476Y-59701190D01*
X150727380Y-59689285D01*
D10*
X129259523Y-60226190D02*
X129545238Y-60226190D01*
X129402380Y-60226190D02*
X129402380Y-59726190D01*
X129450000Y-59797619D01*
X129497619Y-59845238D01*
X129545238Y-59869047D01*
X129045238Y-60226190D02*
X129045238Y-59726190D01*
X128997619Y-60035714D02*
X128854761Y-60226190D01*
X128854761Y-59892857D02*
X129045238Y-60083333D01*
D16*
X129360714Y-60813095D02*
X129444047Y-60694047D01*
X129503571Y-60813095D02*
X129503571Y-60563095D01*
X129408333Y-60563095D01*
X129384523Y-60575000D01*
X129372619Y-60586904D01*
X129360714Y-60610714D01*
X129360714Y-60646428D01*
X129372619Y-60670238D01*
X129384523Y-60682142D01*
X129408333Y-60694047D01*
X129503571Y-60694047D01*
X129265476Y-60586904D02*
X129253571Y-60575000D01*
X129229761Y-60563095D01*
X129170238Y-60563095D01*
X129146428Y-60575000D01*
X129134523Y-60586904D01*
X129122619Y-60610714D01*
X129122619Y-60634523D01*
X129134523Y-60670238D01*
X129277380Y-60813095D01*
X129122619Y-60813095D01*
X128884523Y-60813095D02*
X129027380Y-60813095D01*
X128955952Y-60813095D02*
X128955952Y-60563095D01*
X128979761Y-60598809D01*
X129003571Y-60622619D01*
X129027380Y-60634523D01*
D10*
X108726190Y-54616666D02*
X108726190Y-54330952D01*
X108726190Y-54473809D02*
X108226190Y-54473809D01*
X108297619Y-54426190D01*
X108345238Y-54378571D01*
X108369047Y-54330952D01*
X108273809Y-54807142D02*
X108250000Y-54830952D01*
X108226190Y-54878571D01*
X108226190Y-54997619D01*
X108250000Y-55045238D01*
X108273809Y-55069047D01*
X108321428Y-55092857D01*
X108369047Y-55092857D01*
X108440476Y-55069047D01*
X108726190Y-54783333D01*
X108726190Y-55092857D01*
X108226190Y-55402380D02*
X108226190Y-55450000D01*
X108250000Y-55497619D01*
X108273809Y-55521428D01*
X108321428Y-55545238D01*
X108416666Y-55569047D01*
X108535714Y-55569047D01*
X108630952Y-55545238D01*
X108678571Y-55521428D01*
X108702380Y-55497619D01*
X108726190Y-55450000D01*
X108726190Y-55402380D01*
X108702380Y-55354761D01*
X108678571Y-55330952D01*
X108630952Y-55307142D01*
X108535714Y-55283333D01*
X108416666Y-55283333D01*
X108321428Y-55307142D01*
X108273809Y-55330952D01*
X108250000Y-55354761D01*
X108226190Y-55402380D01*
X108726190Y-56069047D02*
X108488095Y-55902380D01*
X108726190Y-55783333D02*
X108226190Y-55783333D01*
X108226190Y-55973809D01*
X108250000Y-56021428D01*
X108273809Y-56045238D01*
X108321428Y-56069047D01*
X108392857Y-56069047D01*
X108440476Y-56045238D01*
X108464285Y-56021428D01*
X108488095Y-55973809D01*
X108488095Y-55783333D01*
D16*
X108513095Y-56639285D02*
X108394047Y-56555952D01*
X108513095Y-56496428D02*
X108263095Y-56496428D01*
X108263095Y-56591666D01*
X108275000Y-56615476D01*
X108286904Y-56627380D01*
X108310714Y-56639285D01*
X108346428Y-56639285D01*
X108370238Y-56627380D01*
X108382142Y-56615476D01*
X108394047Y-56591666D01*
X108394047Y-56496428D01*
X108513095Y-56877380D02*
X108513095Y-56734523D01*
X108513095Y-56805952D02*
X108263095Y-56805952D01*
X108298809Y-56782142D01*
X108322619Y-56758333D01*
X108334523Y-56734523D01*
X108286904Y-56972619D02*
X108275000Y-56984523D01*
X108263095Y-57008333D01*
X108263095Y-57067857D01*
X108275000Y-57091666D01*
X108286904Y-57103571D01*
X108310714Y-57115476D01*
X108334523Y-57115476D01*
X108370238Y-57103571D01*
X108513095Y-56960714D01*
X108513095Y-57115476D01*
D10*
X131926190Y-60402380D02*
X131926190Y-60116666D01*
X131926190Y-60259523D02*
X131426190Y-60259523D01*
X131497619Y-60211904D01*
X131545238Y-60164285D01*
X131569047Y-60116666D01*
X131426190Y-60711904D02*
X131426190Y-60759523D01*
X131450000Y-60807142D01*
X131473809Y-60830952D01*
X131521428Y-60854761D01*
X131616666Y-60878571D01*
X131735714Y-60878571D01*
X131830952Y-60854761D01*
X131878571Y-60830952D01*
X131902380Y-60807142D01*
X131926190Y-60759523D01*
X131926190Y-60711904D01*
X131902380Y-60664285D01*
X131878571Y-60640476D01*
X131830952Y-60616666D01*
X131735714Y-60592857D01*
X131616666Y-60592857D01*
X131521428Y-60616666D01*
X131473809Y-60640476D01*
X131450000Y-60664285D01*
X131426190Y-60711904D01*
X131926190Y-61092857D02*
X131426190Y-61092857D01*
X131735714Y-61140476D02*
X131926190Y-61283333D01*
X131592857Y-61283333D02*
X131783333Y-61092857D01*
D16*
X132613095Y-60589285D02*
X132494047Y-60505952D01*
X132613095Y-60446428D02*
X132363095Y-60446428D01*
X132363095Y-60541666D01*
X132375000Y-60565476D01*
X132386904Y-60577380D01*
X132410714Y-60589285D01*
X132446428Y-60589285D01*
X132470238Y-60577380D01*
X132482142Y-60565476D01*
X132494047Y-60541666D01*
X132494047Y-60446428D01*
X132613095Y-60827380D02*
X132613095Y-60684523D01*
X132613095Y-60755952D02*
X132363095Y-60755952D01*
X132398809Y-60732142D01*
X132422619Y-60708333D01*
X132434523Y-60684523D01*
X132613095Y-61065476D02*
X132613095Y-60922619D01*
X132613095Y-60994047D02*
X132363095Y-60994047D01*
X132398809Y-60970238D01*
X132422619Y-60946428D01*
X132434523Y-60922619D01*
D10*
X153130952Y-56273809D02*
X153107142Y-56250000D01*
X153059523Y-56226190D01*
X152940476Y-56226190D01*
X152892857Y-56250000D01*
X152869047Y-56273809D01*
X152845238Y-56321428D01*
X152845238Y-56369047D01*
X152869047Y-56440476D01*
X153154761Y-56726190D01*
X152845238Y-56726190D01*
X152654761Y-56273809D02*
X152630952Y-56250000D01*
X152583333Y-56226190D01*
X152464285Y-56226190D01*
X152416666Y-56250000D01*
X152392857Y-56273809D01*
X152369047Y-56321428D01*
X152369047Y-56369047D01*
X152392857Y-56440476D01*
X152678571Y-56726190D01*
X152369047Y-56726190D01*
X151869047Y-56726190D02*
X152035714Y-56488095D01*
X152154761Y-56726190D02*
X152154761Y-56226190D01*
X151964285Y-56226190D01*
X151916666Y-56250000D01*
X151892857Y-56273809D01*
X151869047Y-56321428D01*
X151869047Y-56392857D01*
X151892857Y-56440476D01*
X151916666Y-56464285D01*
X151964285Y-56488095D01*
X152154761Y-56488095D01*
D16*
X151360714Y-56613095D02*
X151444047Y-56494047D01*
X151503571Y-56613095D02*
X151503571Y-56363095D01*
X151408333Y-56363095D01*
X151384523Y-56375000D01*
X151372619Y-56386904D01*
X151360714Y-56410714D01*
X151360714Y-56446428D01*
X151372619Y-56470238D01*
X151384523Y-56482142D01*
X151408333Y-56494047D01*
X151503571Y-56494047D01*
X151122619Y-56613095D02*
X151265476Y-56613095D01*
X151194047Y-56613095D02*
X151194047Y-56363095D01*
X151217857Y-56398809D01*
X151241666Y-56422619D01*
X151265476Y-56434523D01*
X150967857Y-56363095D02*
X150944047Y-56363095D01*
X150920238Y-56375000D01*
X150908333Y-56386904D01*
X150896428Y-56410714D01*
X150884523Y-56458333D01*
X150884523Y-56517857D01*
X150896428Y-56565476D01*
X150908333Y-56589285D01*
X150920238Y-56601190D01*
X150944047Y-56613095D01*
X150967857Y-56613095D01*
X150991666Y-56601190D01*
X151003571Y-56589285D01*
X151015476Y-56565476D01*
X151027380Y-56517857D01*
X151027380Y-56458333D01*
X151015476Y-56410714D01*
X151003571Y-56386904D01*
X150991666Y-56375000D01*
X150967857Y-56363095D01*
D10*
X153130952Y-57373809D02*
X153107142Y-57350000D01*
X153059523Y-57326190D01*
X152940476Y-57326190D01*
X152892857Y-57350000D01*
X152869047Y-57373809D01*
X152845238Y-57421428D01*
X152845238Y-57469047D01*
X152869047Y-57540476D01*
X153154761Y-57826190D01*
X152845238Y-57826190D01*
X152654761Y-57373809D02*
X152630952Y-57350000D01*
X152583333Y-57326190D01*
X152464285Y-57326190D01*
X152416666Y-57350000D01*
X152392857Y-57373809D01*
X152369047Y-57421428D01*
X152369047Y-57469047D01*
X152392857Y-57540476D01*
X152678571Y-57826190D01*
X152369047Y-57826190D01*
X151869047Y-57826190D02*
X152035714Y-57588095D01*
X152154761Y-57826190D02*
X152154761Y-57326190D01*
X151964285Y-57326190D01*
X151916666Y-57350000D01*
X151892857Y-57373809D01*
X151869047Y-57421428D01*
X151869047Y-57492857D01*
X151892857Y-57540476D01*
X151916666Y-57564285D01*
X151964285Y-57588095D01*
X152154761Y-57588095D01*
D16*
X151241666Y-57713095D02*
X151325000Y-57594047D01*
X151384523Y-57713095D02*
X151384523Y-57463095D01*
X151289285Y-57463095D01*
X151265476Y-57475000D01*
X151253571Y-57486904D01*
X151241666Y-57510714D01*
X151241666Y-57546428D01*
X151253571Y-57570238D01*
X151265476Y-57582142D01*
X151289285Y-57594047D01*
X151384523Y-57594047D01*
X151122619Y-57713095D02*
X151075000Y-57713095D01*
X151051190Y-57701190D01*
X151039285Y-57689285D01*
X151015476Y-57653571D01*
X151003571Y-57605952D01*
X151003571Y-57510714D01*
X151015476Y-57486904D01*
X151027380Y-57475000D01*
X151051190Y-57463095D01*
X151098809Y-57463095D01*
X151122619Y-57475000D01*
X151134523Y-57486904D01*
X151146428Y-57510714D01*
X151146428Y-57570238D01*
X151134523Y-57594047D01*
X151122619Y-57605952D01*
X151098809Y-57617857D01*
X151051190Y-57617857D01*
X151027380Y-57605952D01*
X151015476Y-57594047D01*
X151003571Y-57570238D01*
D10*
X148726190Y-53226190D02*
X148726190Y-53273809D01*
X148750000Y-53321428D01*
X148773809Y-53345238D01*
X148821428Y-53369047D01*
X148916666Y-53392857D01*
X149035714Y-53392857D01*
X149130952Y-53369047D01*
X149178571Y-53345238D01*
X149202380Y-53321428D01*
X149226190Y-53273809D01*
X149226190Y-53226190D01*
X149202380Y-53178571D01*
X149178571Y-53154761D01*
X149130952Y-53130952D01*
X149035714Y-53107142D01*
X148916666Y-53107142D01*
X148821428Y-53130952D01*
X148773809Y-53154761D01*
X148750000Y-53178571D01*
X148726190Y-53226190D01*
X149226190Y-53892857D02*
X148988095Y-53726190D01*
X149226190Y-53607142D02*
X148726190Y-53607142D01*
X148726190Y-53797619D01*
X148750000Y-53845238D01*
X148773809Y-53869047D01*
X148821428Y-53892857D01*
X148892857Y-53892857D01*
X148940476Y-53869047D01*
X148964285Y-53845238D01*
X148988095Y-53797619D01*
X148988095Y-53607142D01*
D16*
X149113095Y-54723333D02*
X148994047Y-54640000D01*
X149113095Y-54580476D02*
X148863095Y-54580476D01*
X148863095Y-54675714D01*
X148875000Y-54699523D01*
X148886904Y-54711428D01*
X148910714Y-54723333D01*
X148946428Y-54723333D01*
X148970238Y-54711428D01*
X148982142Y-54699523D01*
X148994047Y-54675714D01*
X148994047Y-54580476D01*
X148970238Y-54866190D02*
X148958333Y-54842380D01*
X148946428Y-54830476D01*
X148922619Y-54818571D01*
X148910714Y-54818571D01*
X148886904Y-54830476D01*
X148875000Y-54842380D01*
X148863095Y-54866190D01*
X148863095Y-54913809D01*
X148875000Y-54937619D01*
X148886904Y-54949523D01*
X148910714Y-54961428D01*
X148922619Y-54961428D01*
X148946428Y-54949523D01*
X148958333Y-54937619D01*
X148970238Y-54913809D01*
X148970238Y-54866190D01*
X148982142Y-54842380D01*
X148994047Y-54830476D01*
X149017857Y-54818571D01*
X149065476Y-54818571D01*
X149089285Y-54830476D01*
X149101190Y-54842380D01*
X149113095Y-54866190D01*
X149113095Y-54913809D01*
X149101190Y-54937619D01*
X149089285Y-54949523D01*
X149065476Y-54961428D01*
X149017857Y-54961428D01*
X148994047Y-54949523D01*
X148982142Y-54937619D01*
X148970238Y-54913809D01*
D10*
X146526190Y-53226190D02*
X146526190Y-53273809D01*
X146550000Y-53321428D01*
X146573809Y-53345238D01*
X146621428Y-53369047D01*
X146716666Y-53392857D01*
X146835714Y-53392857D01*
X146930952Y-53369047D01*
X146978571Y-53345238D01*
X147002380Y-53321428D01*
X147026190Y-53273809D01*
X147026190Y-53226190D01*
X147002380Y-53178571D01*
X146978571Y-53154761D01*
X146930952Y-53130952D01*
X146835714Y-53107142D01*
X146716666Y-53107142D01*
X146621428Y-53130952D01*
X146573809Y-53154761D01*
X146550000Y-53178571D01*
X146526190Y-53226190D01*
X147026190Y-53892857D02*
X146788095Y-53726190D01*
X147026190Y-53607142D02*
X146526190Y-53607142D01*
X146526190Y-53797619D01*
X146550000Y-53845238D01*
X146573809Y-53869047D01*
X146621428Y-53892857D01*
X146692857Y-53892857D01*
X146740476Y-53869047D01*
X146764285Y-53845238D01*
X146788095Y-53797619D01*
X146788095Y-53607142D01*
D16*
X146863095Y-54708333D02*
X146744047Y-54625000D01*
X146863095Y-54565476D02*
X146613095Y-54565476D01*
X146613095Y-54660714D01*
X146625000Y-54684523D01*
X146636904Y-54696428D01*
X146660714Y-54708333D01*
X146696428Y-54708333D01*
X146720238Y-54696428D01*
X146732142Y-54684523D01*
X146744047Y-54660714D01*
X146744047Y-54565476D01*
X146613095Y-54791666D02*
X146613095Y-54958333D01*
X146863095Y-54851190D01*
D10*
X143526190Y-53226190D02*
X143526190Y-53273809D01*
X143550000Y-53321428D01*
X143573809Y-53345238D01*
X143621428Y-53369047D01*
X143716666Y-53392857D01*
X143835714Y-53392857D01*
X143930952Y-53369047D01*
X143978571Y-53345238D01*
X144002380Y-53321428D01*
X144026190Y-53273809D01*
X144026190Y-53226190D01*
X144002380Y-53178571D01*
X143978571Y-53154761D01*
X143930952Y-53130952D01*
X143835714Y-53107142D01*
X143716666Y-53107142D01*
X143621428Y-53130952D01*
X143573809Y-53154761D01*
X143550000Y-53178571D01*
X143526190Y-53226190D01*
X144026190Y-53892857D02*
X143788095Y-53726190D01*
X144026190Y-53607142D02*
X143526190Y-53607142D01*
X143526190Y-53797619D01*
X143550000Y-53845238D01*
X143573809Y-53869047D01*
X143621428Y-53892857D01*
X143692857Y-53892857D01*
X143740476Y-53869047D01*
X143764285Y-53845238D01*
X143788095Y-53797619D01*
X143788095Y-53607142D01*
D16*
X143863095Y-54708333D02*
X143744047Y-54625000D01*
X143863095Y-54565476D02*
X143613095Y-54565476D01*
X143613095Y-54660714D01*
X143625000Y-54684523D01*
X143636904Y-54696428D01*
X143660714Y-54708333D01*
X143696428Y-54708333D01*
X143720238Y-54696428D01*
X143732142Y-54684523D01*
X143744047Y-54660714D01*
X143744047Y-54565476D01*
X143613095Y-54922619D02*
X143613095Y-54875000D01*
X143625000Y-54851190D01*
X143636904Y-54839285D01*
X143672619Y-54815476D01*
X143720238Y-54803571D01*
X143815476Y-54803571D01*
X143839285Y-54815476D01*
X143851190Y-54827380D01*
X143863095Y-54851190D01*
X143863095Y-54898809D01*
X143851190Y-54922619D01*
X143839285Y-54934523D01*
X143815476Y-54946428D01*
X143755952Y-54946428D01*
X143732142Y-54934523D01*
X143720238Y-54922619D01*
X143708333Y-54898809D01*
X143708333Y-54851190D01*
X143720238Y-54827380D01*
X143732142Y-54815476D01*
X143755952Y-54803571D01*
D10*
X134026190Y-53226190D02*
X134026190Y-53273809D01*
X134050000Y-53321428D01*
X134073809Y-53345238D01*
X134121428Y-53369047D01*
X134216666Y-53392857D01*
X134335714Y-53392857D01*
X134430952Y-53369047D01*
X134478571Y-53345238D01*
X134502380Y-53321428D01*
X134526190Y-53273809D01*
X134526190Y-53226190D01*
X134502380Y-53178571D01*
X134478571Y-53154761D01*
X134430952Y-53130952D01*
X134335714Y-53107142D01*
X134216666Y-53107142D01*
X134121428Y-53130952D01*
X134073809Y-53154761D01*
X134050000Y-53178571D01*
X134026190Y-53226190D01*
X134526190Y-53892857D02*
X134288095Y-53726190D01*
X134526190Y-53607142D02*
X134026190Y-53607142D01*
X134026190Y-53797619D01*
X134050000Y-53845238D01*
X134073809Y-53869047D01*
X134121428Y-53892857D01*
X134192857Y-53892857D01*
X134240476Y-53869047D01*
X134264285Y-53845238D01*
X134288095Y-53797619D01*
X134288095Y-53607142D01*
D16*
X134363095Y-54723333D02*
X134244047Y-54640000D01*
X134363095Y-54580476D02*
X134113095Y-54580476D01*
X134113095Y-54675714D01*
X134125000Y-54699523D01*
X134136904Y-54711428D01*
X134160714Y-54723333D01*
X134196428Y-54723333D01*
X134220238Y-54711428D01*
X134232142Y-54699523D01*
X134244047Y-54675714D01*
X134244047Y-54580476D01*
X134136904Y-54818571D02*
X134125000Y-54830476D01*
X134113095Y-54854285D01*
X134113095Y-54913809D01*
X134125000Y-54937619D01*
X134136904Y-54949523D01*
X134160714Y-54961428D01*
X134184523Y-54961428D01*
X134220238Y-54949523D01*
X134363095Y-54806666D01*
X134363095Y-54961428D01*
D10*
X131026190Y-53226190D02*
X131026190Y-53273809D01*
X131050000Y-53321428D01*
X131073809Y-53345238D01*
X131121428Y-53369047D01*
X131216666Y-53392857D01*
X131335714Y-53392857D01*
X131430952Y-53369047D01*
X131478571Y-53345238D01*
X131502380Y-53321428D01*
X131526190Y-53273809D01*
X131526190Y-53226190D01*
X131502380Y-53178571D01*
X131478571Y-53154761D01*
X131430952Y-53130952D01*
X131335714Y-53107142D01*
X131216666Y-53107142D01*
X131121428Y-53130952D01*
X131073809Y-53154761D01*
X131050000Y-53178571D01*
X131026190Y-53226190D01*
X131526190Y-53892857D02*
X131288095Y-53726190D01*
X131526190Y-53607142D02*
X131026190Y-53607142D01*
X131026190Y-53797619D01*
X131050000Y-53845238D01*
X131073809Y-53869047D01*
X131121428Y-53892857D01*
X131192857Y-53892857D01*
X131240476Y-53869047D01*
X131264285Y-53845238D01*
X131288095Y-53797619D01*
X131288095Y-53607142D01*
D16*
X131363095Y-54708333D02*
X131244047Y-54625000D01*
X131363095Y-54565476D02*
X131113095Y-54565476D01*
X131113095Y-54660714D01*
X131125000Y-54684523D01*
X131136904Y-54696428D01*
X131160714Y-54708333D01*
X131196428Y-54708333D01*
X131220238Y-54696428D01*
X131232142Y-54684523D01*
X131244047Y-54660714D01*
X131244047Y-54565476D01*
X131363095Y-54946428D02*
X131363095Y-54803571D01*
X131363095Y-54875000D02*
X131113095Y-54875000D01*
X131148809Y-54851190D01*
X131172619Y-54827380D01*
X131184523Y-54803571D01*
D10*
X114826190Y-55926190D02*
X114826190Y-55640476D01*
X114826190Y-55783333D02*
X114326190Y-55783333D01*
X114397619Y-55735714D01*
X114445238Y-55688095D01*
X114469047Y-55640476D01*
X114326190Y-56235714D02*
X114326190Y-56283333D01*
X114350000Y-56330952D01*
X114373809Y-56354761D01*
X114421428Y-56378571D01*
X114516666Y-56402380D01*
X114635714Y-56402380D01*
X114730952Y-56378571D01*
X114778571Y-56354761D01*
X114802380Y-56330952D01*
X114826190Y-56283333D01*
X114826190Y-56235714D01*
X114802380Y-56188095D01*
X114778571Y-56164285D01*
X114730952Y-56140476D01*
X114635714Y-56116666D01*
X114516666Y-56116666D01*
X114421428Y-56140476D01*
X114373809Y-56164285D01*
X114350000Y-56188095D01*
X114326190Y-56235714D01*
X114326190Y-56711904D02*
X114326190Y-56759523D01*
X114350000Y-56807142D01*
X114373809Y-56830952D01*
X114421428Y-56854761D01*
X114516666Y-56878571D01*
X114635714Y-56878571D01*
X114730952Y-56854761D01*
X114778571Y-56830952D01*
X114802380Y-56807142D01*
X114826190Y-56759523D01*
X114826190Y-56711904D01*
X114802380Y-56664285D01*
X114778571Y-56640476D01*
X114730952Y-56616666D01*
X114635714Y-56592857D01*
X114516666Y-56592857D01*
X114421428Y-56616666D01*
X114373809Y-56640476D01*
X114350000Y-56664285D01*
X114326190Y-56711904D01*
X114492857Y-57092857D02*
X114826190Y-57092857D01*
X114540476Y-57092857D02*
X114516666Y-57116666D01*
X114492857Y-57164285D01*
X114492857Y-57235714D01*
X114516666Y-57283333D01*
X114564285Y-57307142D01*
X114826190Y-57307142D01*
X114564285Y-57711904D02*
X114564285Y-57545238D01*
X114826190Y-57545238D02*
X114326190Y-57545238D01*
X114326190Y-57783333D01*
D16*
X113889285Y-56758333D02*
X113901190Y-56746428D01*
X113913095Y-56710714D01*
X113913095Y-56686904D01*
X113901190Y-56651190D01*
X113877380Y-56627380D01*
X113853571Y-56615476D01*
X113805952Y-56603571D01*
X113770238Y-56603571D01*
X113722619Y-56615476D01*
X113698809Y-56627380D01*
X113675000Y-56651190D01*
X113663095Y-56686904D01*
X113663095Y-56710714D01*
X113675000Y-56746428D01*
X113686904Y-56758333D01*
X113663095Y-56972619D02*
X113663095Y-56925000D01*
X113675000Y-56901190D01*
X113686904Y-56889285D01*
X113722619Y-56865476D01*
X113770238Y-56853571D01*
X113865476Y-56853571D01*
X113889285Y-56865476D01*
X113901190Y-56877380D01*
X113913095Y-56901190D01*
X113913095Y-56948809D01*
X113901190Y-56972619D01*
X113889285Y-56984523D01*
X113865476Y-56996428D01*
X113805952Y-56996428D01*
X113782142Y-56984523D01*
X113770238Y-56972619D01*
X113758333Y-56948809D01*
X113758333Y-56901190D01*
X113770238Y-56877380D01*
X113782142Y-56865476D01*
X113805952Y-56853571D01*
D10*
X150040476Y-52373809D02*
X150016666Y-52326190D01*
X149992857Y-52302380D01*
X149945238Y-52278571D01*
X149921428Y-52278571D01*
X149873809Y-52302380D01*
X149850000Y-52326190D01*
X149826190Y-52373809D01*
X149826190Y-52469047D01*
X149850000Y-52516666D01*
X149873809Y-52540476D01*
X149921428Y-52564285D01*
X149945238Y-52564285D01*
X149992857Y-52540476D01*
X150016666Y-52516666D01*
X150040476Y-52469047D01*
X150040476Y-52373809D01*
X150064285Y-52326190D01*
X150088095Y-52302380D01*
X150135714Y-52278571D01*
X150230952Y-52278571D01*
X150278571Y-52302380D01*
X150302380Y-52326190D01*
X150326190Y-52373809D01*
X150326190Y-52469047D01*
X150302380Y-52516666D01*
X150278571Y-52540476D01*
X150230952Y-52564285D01*
X150135714Y-52564285D01*
X150088095Y-52540476D01*
X150064285Y-52516666D01*
X150040476Y-52469047D01*
X149873809Y-52754761D02*
X149850000Y-52778571D01*
X149826190Y-52826190D01*
X149826190Y-52945238D01*
X149850000Y-52992857D01*
X149873809Y-53016666D01*
X149921428Y-53040476D01*
X149969047Y-53040476D01*
X150040476Y-53016666D01*
X150326190Y-52730952D01*
X150326190Y-53040476D01*
X149992857Y-53254761D02*
X150492857Y-53254761D01*
X150016666Y-53254761D02*
X149992857Y-53302380D01*
X149992857Y-53397619D01*
X150016666Y-53445238D01*
X150040476Y-53469047D01*
X150088095Y-53492857D01*
X150230952Y-53492857D01*
X150278571Y-53469047D01*
X150302380Y-53445238D01*
X150326190Y-53397619D01*
X150326190Y-53302380D01*
X150302380Y-53254761D01*
X150064285Y-53873809D02*
X150064285Y-53707142D01*
X150326190Y-53707142D02*
X149826190Y-53707142D01*
X149826190Y-53945238D01*
D16*
X150089285Y-54708333D02*
X150101190Y-54696428D01*
X150113095Y-54660714D01*
X150113095Y-54636904D01*
X150101190Y-54601190D01*
X150077380Y-54577380D01*
X150053571Y-54565476D01*
X150005952Y-54553571D01*
X149970238Y-54553571D01*
X149922619Y-54565476D01*
X149898809Y-54577380D01*
X149875000Y-54601190D01*
X149863095Y-54636904D01*
X149863095Y-54660714D01*
X149875000Y-54696428D01*
X149886904Y-54708333D01*
X149863095Y-54934523D02*
X149863095Y-54815476D01*
X149982142Y-54803571D01*
X149970238Y-54815476D01*
X149958333Y-54839285D01*
X149958333Y-54898809D01*
X149970238Y-54922619D01*
X149982142Y-54934523D01*
X150005952Y-54946428D01*
X150065476Y-54946428D01*
X150089285Y-54934523D01*
X150101190Y-54922619D01*
X150113095Y-54898809D01*
X150113095Y-54839285D01*
X150101190Y-54815476D01*
X150089285Y-54803571D01*
D10*
X147740476Y-52373809D02*
X147716666Y-52326190D01*
X147692857Y-52302380D01*
X147645238Y-52278571D01*
X147621428Y-52278571D01*
X147573809Y-52302380D01*
X147550000Y-52326190D01*
X147526190Y-52373809D01*
X147526190Y-52469047D01*
X147550000Y-52516666D01*
X147573809Y-52540476D01*
X147621428Y-52564285D01*
X147645238Y-52564285D01*
X147692857Y-52540476D01*
X147716666Y-52516666D01*
X147740476Y-52469047D01*
X147740476Y-52373809D01*
X147764285Y-52326190D01*
X147788095Y-52302380D01*
X147835714Y-52278571D01*
X147930952Y-52278571D01*
X147978571Y-52302380D01*
X148002380Y-52326190D01*
X148026190Y-52373809D01*
X148026190Y-52469047D01*
X148002380Y-52516666D01*
X147978571Y-52540476D01*
X147930952Y-52564285D01*
X147835714Y-52564285D01*
X147788095Y-52540476D01*
X147764285Y-52516666D01*
X147740476Y-52469047D01*
X147573809Y-52754761D02*
X147550000Y-52778571D01*
X147526190Y-52826190D01*
X147526190Y-52945238D01*
X147550000Y-52992857D01*
X147573809Y-53016666D01*
X147621428Y-53040476D01*
X147669047Y-53040476D01*
X147740476Y-53016666D01*
X148026190Y-52730952D01*
X148026190Y-53040476D01*
X147692857Y-53254761D02*
X148192857Y-53254761D01*
X147716666Y-53254761D02*
X147692857Y-53302380D01*
X147692857Y-53397619D01*
X147716666Y-53445238D01*
X147740476Y-53469047D01*
X147788095Y-53492857D01*
X147930952Y-53492857D01*
X147978571Y-53469047D01*
X148002380Y-53445238D01*
X148026190Y-53397619D01*
X148026190Y-53302380D01*
X148002380Y-53254761D01*
X147764285Y-53873809D02*
X147764285Y-53707142D01*
X148026190Y-53707142D02*
X147526190Y-53707142D01*
X147526190Y-53945238D01*
D16*
X147839285Y-54708333D02*
X147851190Y-54696428D01*
X147863095Y-54660714D01*
X147863095Y-54636904D01*
X147851190Y-54601190D01*
X147827380Y-54577380D01*
X147803571Y-54565476D01*
X147755952Y-54553571D01*
X147720238Y-54553571D01*
X147672619Y-54565476D01*
X147648809Y-54577380D01*
X147625000Y-54601190D01*
X147613095Y-54636904D01*
X147613095Y-54660714D01*
X147625000Y-54696428D01*
X147636904Y-54708333D01*
X147696428Y-54922619D02*
X147863095Y-54922619D01*
X147601190Y-54863095D02*
X147779761Y-54803571D01*
X147779761Y-54958333D01*
D10*
X144740476Y-52373809D02*
X144716666Y-52326190D01*
X144692857Y-52302380D01*
X144645238Y-52278571D01*
X144621428Y-52278571D01*
X144573809Y-52302380D01*
X144550000Y-52326190D01*
X144526190Y-52373809D01*
X144526190Y-52469047D01*
X144550000Y-52516666D01*
X144573809Y-52540476D01*
X144621428Y-52564285D01*
X144645238Y-52564285D01*
X144692857Y-52540476D01*
X144716666Y-52516666D01*
X144740476Y-52469047D01*
X144740476Y-52373809D01*
X144764285Y-52326190D01*
X144788095Y-52302380D01*
X144835714Y-52278571D01*
X144930952Y-52278571D01*
X144978571Y-52302380D01*
X145002380Y-52326190D01*
X145026190Y-52373809D01*
X145026190Y-52469047D01*
X145002380Y-52516666D01*
X144978571Y-52540476D01*
X144930952Y-52564285D01*
X144835714Y-52564285D01*
X144788095Y-52540476D01*
X144764285Y-52516666D01*
X144740476Y-52469047D01*
X144573809Y-52754761D02*
X144550000Y-52778571D01*
X144526190Y-52826190D01*
X144526190Y-52945238D01*
X144550000Y-52992857D01*
X144573809Y-53016666D01*
X144621428Y-53040476D01*
X144669047Y-53040476D01*
X144740476Y-53016666D01*
X145026190Y-52730952D01*
X145026190Y-53040476D01*
X144692857Y-53254761D02*
X145192857Y-53254761D01*
X144716666Y-53254761D02*
X144692857Y-53302380D01*
X144692857Y-53397619D01*
X144716666Y-53445238D01*
X144740476Y-53469047D01*
X144788095Y-53492857D01*
X144930952Y-53492857D01*
X144978571Y-53469047D01*
X145002380Y-53445238D01*
X145026190Y-53397619D01*
X145026190Y-53302380D01*
X145002380Y-53254761D01*
X144764285Y-53873809D02*
X144764285Y-53707142D01*
X145026190Y-53707142D02*
X144526190Y-53707142D01*
X144526190Y-53945238D01*
D16*
X144839285Y-54708333D02*
X144851190Y-54696428D01*
X144863095Y-54660714D01*
X144863095Y-54636904D01*
X144851190Y-54601190D01*
X144827380Y-54577380D01*
X144803571Y-54565476D01*
X144755952Y-54553571D01*
X144720238Y-54553571D01*
X144672619Y-54565476D01*
X144648809Y-54577380D01*
X144625000Y-54601190D01*
X144613095Y-54636904D01*
X144613095Y-54660714D01*
X144625000Y-54696428D01*
X144636904Y-54708333D01*
X144613095Y-54791666D02*
X144613095Y-54946428D01*
X144708333Y-54863095D01*
X144708333Y-54898809D01*
X144720238Y-54922619D01*
X144732142Y-54934523D01*
X144755952Y-54946428D01*
X144815476Y-54946428D01*
X144839285Y-54934523D01*
X144851190Y-54922619D01*
X144863095Y-54898809D01*
X144863095Y-54827380D01*
X144851190Y-54803571D01*
X144839285Y-54791666D01*
D10*
X135240476Y-52373809D02*
X135216666Y-52326190D01*
X135192857Y-52302380D01*
X135145238Y-52278571D01*
X135121428Y-52278571D01*
X135073809Y-52302380D01*
X135050000Y-52326190D01*
X135026190Y-52373809D01*
X135026190Y-52469047D01*
X135050000Y-52516666D01*
X135073809Y-52540476D01*
X135121428Y-52564285D01*
X135145238Y-52564285D01*
X135192857Y-52540476D01*
X135216666Y-52516666D01*
X135240476Y-52469047D01*
X135240476Y-52373809D01*
X135264285Y-52326190D01*
X135288095Y-52302380D01*
X135335714Y-52278571D01*
X135430952Y-52278571D01*
X135478571Y-52302380D01*
X135502380Y-52326190D01*
X135526190Y-52373809D01*
X135526190Y-52469047D01*
X135502380Y-52516666D01*
X135478571Y-52540476D01*
X135430952Y-52564285D01*
X135335714Y-52564285D01*
X135288095Y-52540476D01*
X135264285Y-52516666D01*
X135240476Y-52469047D01*
X135073809Y-52754761D02*
X135050000Y-52778571D01*
X135026190Y-52826190D01*
X135026190Y-52945238D01*
X135050000Y-52992857D01*
X135073809Y-53016666D01*
X135121428Y-53040476D01*
X135169047Y-53040476D01*
X135240476Y-53016666D01*
X135526190Y-52730952D01*
X135526190Y-53040476D01*
X135192857Y-53254761D02*
X135692857Y-53254761D01*
X135216666Y-53254761D02*
X135192857Y-53302380D01*
X135192857Y-53397619D01*
X135216666Y-53445238D01*
X135240476Y-53469047D01*
X135288095Y-53492857D01*
X135430952Y-53492857D01*
X135478571Y-53469047D01*
X135502380Y-53445238D01*
X135526190Y-53397619D01*
X135526190Y-53302380D01*
X135502380Y-53254761D01*
X135264285Y-53873809D02*
X135264285Y-53707142D01*
X135526190Y-53707142D02*
X135026190Y-53707142D01*
X135026190Y-53945238D01*
D16*
X135339285Y-54708333D02*
X135351190Y-54696428D01*
X135363095Y-54660714D01*
X135363095Y-54636904D01*
X135351190Y-54601190D01*
X135327380Y-54577380D01*
X135303571Y-54565476D01*
X135255952Y-54553571D01*
X135220238Y-54553571D01*
X135172619Y-54565476D01*
X135148809Y-54577380D01*
X135125000Y-54601190D01*
X135113095Y-54636904D01*
X135113095Y-54660714D01*
X135125000Y-54696428D01*
X135136904Y-54708333D01*
X135136904Y-54803571D02*
X135125000Y-54815476D01*
X135113095Y-54839285D01*
X135113095Y-54898809D01*
X135125000Y-54922619D01*
X135136904Y-54934523D01*
X135160714Y-54946428D01*
X135184523Y-54946428D01*
X135220238Y-54934523D01*
X135363095Y-54791666D01*
X135363095Y-54946428D01*
D10*
X132240476Y-52373809D02*
X132216666Y-52326190D01*
X132192857Y-52302380D01*
X132145238Y-52278571D01*
X132121428Y-52278571D01*
X132073809Y-52302380D01*
X132050000Y-52326190D01*
X132026190Y-52373809D01*
X132026190Y-52469047D01*
X132050000Y-52516666D01*
X132073809Y-52540476D01*
X132121428Y-52564285D01*
X132145238Y-52564285D01*
X132192857Y-52540476D01*
X132216666Y-52516666D01*
X132240476Y-52469047D01*
X132240476Y-52373809D01*
X132264285Y-52326190D01*
X132288095Y-52302380D01*
X132335714Y-52278571D01*
X132430952Y-52278571D01*
X132478571Y-52302380D01*
X132502380Y-52326190D01*
X132526190Y-52373809D01*
X132526190Y-52469047D01*
X132502380Y-52516666D01*
X132478571Y-52540476D01*
X132430952Y-52564285D01*
X132335714Y-52564285D01*
X132288095Y-52540476D01*
X132264285Y-52516666D01*
X132240476Y-52469047D01*
X132073809Y-52754761D02*
X132050000Y-52778571D01*
X132026190Y-52826190D01*
X132026190Y-52945238D01*
X132050000Y-52992857D01*
X132073809Y-53016666D01*
X132121428Y-53040476D01*
X132169047Y-53040476D01*
X132240476Y-53016666D01*
X132526190Y-52730952D01*
X132526190Y-53040476D01*
X132192857Y-53254761D02*
X132692857Y-53254761D01*
X132216666Y-53254761D02*
X132192857Y-53302380D01*
X132192857Y-53397619D01*
X132216666Y-53445238D01*
X132240476Y-53469047D01*
X132288095Y-53492857D01*
X132430952Y-53492857D01*
X132478571Y-53469047D01*
X132502380Y-53445238D01*
X132526190Y-53397619D01*
X132526190Y-53302380D01*
X132502380Y-53254761D01*
X132264285Y-53873809D02*
X132264285Y-53707142D01*
X132526190Y-53707142D02*
X132026190Y-53707142D01*
X132026190Y-53945238D01*
D16*
X132339285Y-54708333D02*
X132351190Y-54696428D01*
X132363095Y-54660714D01*
X132363095Y-54636904D01*
X132351190Y-54601190D01*
X132327380Y-54577380D01*
X132303571Y-54565476D01*
X132255952Y-54553571D01*
X132220238Y-54553571D01*
X132172619Y-54565476D01*
X132148809Y-54577380D01*
X132125000Y-54601190D01*
X132113095Y-54636904D01*
X132113095Y-54660714D01*
X132125000Y-54696428D01*
X132136904Y-54708333D01*
X132363095Y-54946428D02*
X132363095Y-54803571D01*
X132363095Y-54875000D02*
X132113095Y-54875000D01*
X132148809Y-54851190D01*
X132172619Y-54827380D01*
X132184523Y-54803571D01*
D10*
X111526190Y-53326190D02*
X111216666Y-53326190D01*
X111383333Y-53516666D01*
X111311904Y-53516666D01*
X111264285Y-53540476D01*
X111240476Y-53564285D01*
X111216666Y-53611904D01*
X111216666Y-53730952D01*
X111240476Y-53778571D01*
X111264285Y-53802380D01*
X111311904Y-53826190D01*
X111454761Y-53826190D01*
X111502380Y-53802380D01*
X111526190Y-53778571D01*
X111002380Y-53778571D02*
X110978571Y-53802380D01*
X111002380Y-53826190D01*
X111026190Y-53802380D01*
X111002380Y-53778571D01*
X111002380Y-53826190D01*
X110811904Y-53326190D02*
X110502380Y-53326190D01*
X110669047Y-53516666D01*
X110597619Y-53516666D01*
X110550000Y-53540476D01*
X110526190Y-53564285D01*
X110502380Y-53611904D01*
X110502380Y-53730952D01*
X110526190Y-53778571D01*
X110550000Y-53802380D01*
X110597619Y-53826190D01*
X110740476Y-53826190D01*
X110788095Y-53802380D01*
X110811904Y-53778571D01*
X110288095Y-53826190D02*
X110288095Y-53326190D01*
X110240476Y-53635714D02*
X110097619Y-53826190D01*
X110097619Y-53492857D02*
X110288095Y-53683333D01*
D16*
X110841666Y-54513095D02*
X110925000Y-54394047D01*
X110984523Y-54513095D02*
X110984523Y-54263095D01*
X110889285Y-54263095D01*
X110865476Y-54275000D01*
X110853571Y-54286904D01*
X110841666Y-54310714D01*
X110841666Y-54346428D01*
X110853571Y-54370238D01*
X110865476Y-54382142D01*
X110889285Y-54394047D01*
X110984523Y-54394047D01*
X110627380Y-54346428D02*
X110627380Y-54513095D01*
X110686904Y-54251190D02*
X110746428Y-54429761D01*
X110591666Y-54429761D01*
D10*
X115226190Y-53326190D02*
X114916666Y-53326190D01*
X115083333Y-53516666D01*
X115011904Y-53516666D01*
X114964285Y-53540476D01*
X114940476Y-53564285D01*
X114916666Y-53611904D01*
X114916666Y-53730952D01*
X114940476Y-53778571D01*
X114964285Y-53802380D01*
X115011904Y-53826190D01*
X115154761Y-53826190D01*
X115202380Y-53802380D01*
X115226190Y-53778571D01*
X114702380Y-53778571D02*
X114678571Y-53802380D01*
X114702380Y-53826190D01*
X114726190Y-53802380D01*
X114702380Y-53778571D01*
X114702380Y-53826190D01*
X114511904Y-53326190D02*
X114202380Y-53326190D01*
X114369047Y-53516666D01*
X114297619Y-53516666D01*
X114250000Y-53540476D01*
X114226190Y-53564285D01*
X114202380Y-53611904D01*
X114202380Y-53730952D01*
X114226190Y-53778571D01*
X114250000Y-53802380D01*
X114297619Y-53826190D01*
X114440476Y-53826190D01*
X114488095Y-53802380D01*
X114511904Y-53778571D01*
X113988095Y-53826190D02*
X113988095Y-53326190D01*
X113940476Y-53635714D02*
X113797619Y-53826190D01*
X113797619Y-53492857D02*
X113988095Y-53683333D01*
D16*
X114641666Y-54513095D02*
X114725000Y-54394047D01*
X114784523Y-54513095D02*
X114784523Y-54263095D01*
X114689285Y-54263095D01*
X114665476Y-54275000D01*
X114653571Y-54286904D01*
X114641666Y-54310714D01*
X114641666Y-54346428D01*
X114653571Y-54370238D01*
X114665476Y-54382142D01*
X114689285Y-54394047D01*
X114784523Y-54394047D01*
X114558333Y-54263095D02*
X114403571Y-54263095D01*
X114486904Y-54358333D01*
X114451190Y-54358333D01*
X114427380Y-54370238D01*
X114415476Y-54382142D01*
X114403571Y-54405952D01*
X114403571Y-54465476D01*
X114415476Y-54489285D01*
X114427380Y-54501190D01*
X114451190Y-54513095D01*
X114522619Y-54513095D01*
X114546428Y-54501190D01*
X114558333Y-54489285D01*
D10*
X110133333Y-98026190D02*
X109800000Y-98526190D01*
X109800000Y-98026190D02*
X110133333Y-98526190D01*
X109680952Y-98026190D02*
X109395238Y-98026190D01*
X109538095Y-98526190D02*
X109538095Y-98026190D01*
X109014285Y-98026190D02*
X109109523Y-98026190D01*
X109157142Y-98050000D01*
X109180952Y-98073809D01*
X109228571Y-98145238D01*
X109252380Y-98240476D01*
X109252380Y-98430952D01*
X109228571Y-98478571D01*
X109204761Y-98502380D01*
X109157142Y-98526190D01*
X109061904Y-98526190D01*
X109014285Y-98502380D01*
X108990476Y-98478571D01*
X108966666Y-98430952D01*
X108966666Y-98311904D01*
X108990476Y-98264285D01*
X109014285Y-98240476D01*
X109061904Y-98216666D01*
X109157142Y-98216666D01*
X109204761Y-98240476D01*
X109228571Y-98264285D01*
X109252380Y-98311904D01*
X108657142Y-98026190D02*
X108609523Y-98026190D01*
X108561904Y-98050000D01*
X108538095Y-98073809D01*
X108514285Y-98121428D01*
X108490476Y-98216666D01*
X108490476Y-98335714D01*
X108514285Y-98430952D01*
X108538095Y-98478571D01*
X108561904Y-98502380D01*
X108609523Y-98526190D01*
X108657142Y-98526190D01*
X108704761Y-98502380D01*
X108728571Y-98478571D01*
X108752380Y-98430952D01*
X108776190Y-98335714D01*
X108776190Y-98216666D01*
X108752380Y-98121428D01*
X108728571Y-98073809D01*
X108704761Y-98050000D01*
X108657142Y-98026190D01*
D11*
X109933333Y-94502380D02*
X109933333Y-95216666D01*
X109980952Y-95359523D01*
X110076190Y-95454761D01*
X110219047Y-95502380D01*
X110314285Y-95502380D01*
X109409523Y-95502380D02*
X109219047Y-95502380D01*
X109123809Y-95454761D01*
X109076190Y-95407142D01*
X108980952Y-95264285D01*
X108933333Y-95073809D01*
X108933333Y-94692857D01*
X108980952Y-94597619D01*
X109028571Y-94550000D01*
X109123809Y-94502380D01*
X109314285Y-94502380D01*
X109409523Y-94550000D01*
X109457142Y-94597619D01*
X109504761Y-94692857D01*
X109504761Y-94930952D01*
X109457142Y-95026190D01*
X109409523Y-95073809D01*
X109314285Y-95121428D01*
X109123809Y-95121428D01*
X109028571Y-95073809D01*
X108980952Y-95026190D01*
X108933333Y-94930952D01*
D10*
X149933333Y-97926190D02*
X149600000Y-98426190D01*
X149600000Y-97926190D02*
X149933333Y-98426190D01*
X149480952Y-97926190D02*
X149195238Y-97926190D01*
X149338095Y-98426190D02*
X149338095Y-97926190D01*
X148814285Y-97926190D02*
X148909523Y-97926190D01*
X148957142Y-97950000D01*
X148980952Y-97973809D01*
X149028571Y-98045238D01*
X149052380Y-98140476D01*
X149052380Y-98330952D01*
X149028571Y-98378571D01*
X149004761Y-98402380D01*
X148957142Y-98426190D01*
X148861904Y-98426190D01*
X148814285Y-98402380D01*
X148790476Y-98378571D01*
X148766666Y-98330952D01*
X148766666Y-98211904D01*
X148790476Y-98164285D01*
X148814285Y-98140476D01*
X148861904Y-98116666D01*
X148957142Y-98116666D01*
X149004761Y-98140476D01*
X149028571Y-98164285D01*
X149052380Y-98211904D01*
X148457142Y-97926190D02*
X148409523Y-97926190D01*
X148361904Y-97950000D01*
X148338095Y-97973809D01*
X148314285Y-98021428D01*
X148290476Y-98116666D01*
X148290476Y-98235714D01*
X148314285Y-98330952D01*
X148338095Y-98378571D01*
X148361904Y-98402380D01*
X148409523Y-98426190D01*
X148457142Y-98426190D01*
X148504761Y-98402380D01*
X148528571Y-98378571D01*
X148552380Y-98330952D01*
X148576190Y-98235714D01*
X148576190Y-98116666D01*
X148552380Y-98021428D01*
X148528571Y-97973809D01*
X148504761Y-97950000D01*
X148457142Y-97926190D01*
D11*
X149233333Y-94502380D02*
X149233333Y-95216666D01*
X149280952Y-95359523D01*
X149376190Y-95454761D01*
X149519047Y-95502380D01*
X149614285Y-95502380D01*
X148614285Y-94930952D02*
X148709523Y-94883333D01*
X148757142Y-94835714D01*
X148804761Y-94740476D01*
X148804761Y-94692857D01*
X148757142Y-94597619D01*
X148709523Y-94550000D01*
X148614285Y-94502380D01*
X148423809Y-94502380D01*
X148328571Y-94550000D01*
X148280952Y-94597619D01*
X148233333Y-94692857D01*
X148233333Y-94740476D01*
X148280952Y-94835714D01*
X148328571Y-94883333D01*
X148423809Y-94930952D01*
X148614285Y-94930952D01*
X148709523Y-94978571D01*
X148757142Y-95026190D01*
X148804761Y-95121428D01*
X148804761Y-95311904D01*
X148757142Y-95407142D01*
X148709523Y-95454761D01*
X148614285Y-95502380D01*
X148423809Y-95502380D01*
X148328571Y-95454761D01*
X148280952Y-95407142D01*
X148233333Y-95311904D01*
X148233333Y-95121428D01*
X148280952Y-95026190D01*
X148328571Y-94978571D01*
X148423809Y-94930952D01*
D10*
X129052380Y-53926190D02*
X128766666Y-53926190D01*
X128909523Y-54426190D02*
X128909523Y-53926190D01*
X128314285Y-54378571D02*
X128338095Y-54402380D01*
X128409523Y-54426190D01*
X128457142Y-54426190D01*
X128528571Y-54402380D01*
X128576190Y-54354761D01*
X128600000Y-54307142D01*
X128623809Y-54211904D01*
X128623809Y-54140476D01*
X128600000Y-54045238D01*
X128576190Y-53997619D01*
X128528571Y-53950000D01*
X128457142Y-53926190D01*
X128409523Y-53926190D01*
X128338095Y-53950000D01*
X128314285Y-53973809D01*
X128123809Y-53973809D02*
X128100000Y-53950000D01*
X128052380Y-53926190D01*
X127933333Y-53926190D01*
X127885714Y-53950000D01*
X127861904Y-53973809D01*
X127838095Y-54021428D01*
X127838095Y-54069047D01*
X127861904Y-54140476D01*
X128147619Y-54426190D01*
X127838095Y-54426190D01*
X127528571Y-53926190D02*
X127480952Y-53926190D01*
X127433333Y-53950000D01*
X127409523Y-53973809D01*
X127385714Y-54021428D01*
X127361904Y-54116666D01*
X127361904Y-54235714D01*
X127385714Y-54330952D01*
X127409523Y-54378571D01*
X127433333Y-54402380D01*
X127480952Y-54426190D01*
X127528571Y-54426190D01*
X127576190Y-54402380D01*
X127600000Y-54378571D01*
X127623809Y-54330952D01*
X127647619Y-54235714D01*
X127647619Y-54116666D01*
X127623809Y-54021428D01*
X127600000Y-53973809D01*
X127576190Y-53950000D01*
X127528571Y-53926190D01*
X127195238Y-53926190D02*
X126885714Y-53926190D01*
X127052380Y-54116666D01*
X126980952Y-54116666D01*
X126933333Y-54140476D01*
X126909523Y-54164285D01*
X126885714Y-54211904D01*
X126885714Y-54330952D01*
X126909523Y-54378571D01*
X126933333Y-54402380D01*
X126980952Y-54426190D01*
X127123809Y-54426190D01*
X127171428Y-54402380D01*
X127195238Y-54378571D01*
X126576190Y-53926190D02*
X126528571Y-53926190D01*
X126480952Y-53950000D01*
X126457142Y-53973809D01*
X126433333Y-54021428D01*
X126409523Y-54116666D01*
X126409523Y-54235714D01*
X126433333Y-54330952D01*
X126457142Y-54378571D01*
X126480952Y-54402380D01*
X126528571Y-54426190D01*
X126576190Y-54426190D01*
X126623809Y-54402380D01*
X126647619Y-54378571D01*
X126671428Y-54330952D01*
X126695238Y-54235714D01*
X126695238Y-54116666D01*
X126671428Y-54021428D01*
X126647619Y-53973809D01*
X126623809Y-53950000D01*
X126576190Y-53926190D01*
X125885714Y-53926190D02*
X125600000Y-53926190D01*
X125742857Y-54426190D02*
X125742857Y-53926190D01*
X125219047Y-54426190D02*
X125219047Y-54164285D01*
X125242857Y-54116666D01*
X125290476Y-54092857D01*
X125385714Y-54092857D01*
X125433333Y-54116666D01*
X125219047Y-54402380D02*
X125266666Y-54426190D01*
X125385714Y-54426190D01*
X125433333Y-54402380D01*
X125457142Y-54354761D01*
X125457142Y-54307142D01*
X125433333Y-54259523D01*
X125385714Y-54235714D01*
X125266666Y-54235714D01*
X125219047Y-54211904D01*
X124766666Y-54092857D02*
X124766666Y-54497619D01*
X124790476Y-54545238D01*
X124814285Y-54569047D01*
X124861904Y-54592857D01*
X124933333Y-54592857D01*
X124980952Y-54569047D01*
X124766666Y-54402380D02*
X124814285Y-54426190D01*
X124909523Y-54426190D01*
X124957142Y-54402380D01*
X124980952Y-54378571D01*
X125004761Y-54330952D01*
X125004761Y-54188095D01*
X124980952Y-54140476D01*
X124957142Y-54116666D01*
X124909523Y-54092857D01*
X124814285Y-54092857D01*
X124766666Y-54116666D01*
X124528571Y-54235714D02*
X124147619Y-54235714D01*
X123695238Y-54402380D02*
X123742857Y-54426190D01*
X123838095Y-54426190D01*
X123885714Y-54402380D01*
X123909523Y-54378571D01*
X123933333Y-54330952D01*
X123933333Y-54188095D01*
X123909523Y-54140476D01*
X123885714Y-54116666D01*
X123838095Y-54092857D01*
X123742857Y-54092857D01*
X123695238Y-54116666D01*
X123409523Y-54426190D02*
X123457142Y-54402380D01*
X123480952Y-54378571D01*
X123504761Y-54330952D01*
X123504761Y-54188095D01*
X123480952Y-54140476D01*
X123457142Y-54116666D01*
X123409523Y-54092857D01*
X123338095Y-54092857D01*
X123290476Y-54116666D01*
X123266666Y-54140476D01*
X123242857Y-54188095D01*
X123242857Y-54330952D01*
X123266666Y-54378571D01*
X123290476Y-54402380D01*
X123338095Y-54426190D01*
X123409523Y-54426190D01*
X123028571Y-54092857D02*
X123028571Y-54426190D01*
X123028571Y-54140476D02*
X123004761Y-54116666D01*
X122957142Y-54092857D01*
X122885714Y-54092857D01*
X122838095Y-54116666D01*
X122814285Y-54164285D01*
X122814285Y-54426190D01*
X122576190Y-54092857D02*
X122576190Y-54426190D01*
X122576190Y-54140476D02*
X122552380Y-54116666D01*
X122504761Y-54092857D01*
X122433333Y-54092857D01*
X122385714Y-54116666D01*
X122361904Y-54164285D01*
X122361904Y-54426190D01*
X121933333Y-54402380D02*
X121980952Y-54426190D01*
X122076190Y-54426190D01*
X122123809Y-54402380D01*
X122147619Y-54354761D01*
X122147619Y-54164285D01*
X122123809Y-54116666D01*
X122076190Y-54092857D01*
X121980952Y-54092857D01*
X121933333Y-54116666D01*
X121909523Y-54164285D01*
X121909523Y-54211904D01*
X122147619Y-54259523D01*
X121480952Y-54402380D02*
X121528571Y-54426190D01*
X121623809Y-54426190D01*
X121671428Y-54402380D01*
X121695238Y-54378571D01*
X121719047Y-54330952D01*
X121719047Y-54188095D01*
X121695238Y-54140476D01*
X121671428Y-54116666D01*
X121623809Y-54092857D01*
X121528571Y-54092857D01*
X121480952Y-54116666D01*
X121338095Y-54092857D02*
X121147619Y-54092857D01*
X121266666Y-53926190D02*
X121266666Y-54354761D01*
X121242857Y-54402380D01*
X121195238Y-54426190D01*
X121147619Y-54426190D01*
D11*
X125933333Y-55152380D02*
X125933333Y-55866666D01*
X125980952Y-56009523D01*
X126076190Y-56104761D01*
X126219047Y-56152380D01*
X126314285Y-56152380D01*
X125028571Y-55152380D02*
X125219047Y-55152380D01*
X125314285Y-55200000D01*
X125361904Y-55247619D01*
X125457142Y-55390476D01*
X125504761Y-55580952D01*
X125504761Y-55961904D01*
X125457142Y-56057142D01*
X125409523Y-56104761D01*
X125314285Y-56152380D01*
X125123809Y-56152380D01*
X125028571Y-56104761D01*
X124980952Y-56057142D01*
X124933333Y-55961904D01*
X124933333Y-55723809D01*
X124980952Y-55628571D01*
X125028571Y-55580952D01*
X125123809Y-55533333D01*
X125314285Y-55533333D01*
X125409523Y-55580952D01*
X125457142Y-55628571D01*
X125504761Y-55723809D01*
D10*
X128026190Y-65580952D02*
X128026190Y-65295238D01*
X128026190Y-65438095D02*
X127526190Y-65438095D01*
X127597619Y-65390476D01*
X127645238Y-65342857D01*
X127669047Y-65295238D01*
X127526190Y-66033333D02*
X127526190Y-65795238D01*
X127764285Y-65771428D01*
X127740476Y-65795238D01*
X127716666Y-65842857D01*
X127716666Y-65961904D01*
X127740476Y-66009523D01*
X127764285Y-66033333D01*
X127811904Y-66057142D01*
X127930952Y-66057142D01*
X127978571Y-66033333D01*
X128002380Y-66009523D01*
X128026190Y-65961904D01*
X128026190Y-65842857D01*
X128002380Y-65795238D01*
X127978571Y-65771428D01*
X127526190Y-66366666D02*
X127526190Y-66414285D01*
X127550000Y-66461904D01*
X127573809Y-66485714D01*
X127621428Y-66509523D01*
X127716666Y-66533333D01*
X127835714Y-66533333D01*
X127930952Y-66509523D01*
X127978571Y-66485714D01*
X128002380Y-66461904D01*
X128026190Y-66414285D01*
X128026190Y-66366666D01*
X128002380Y-66319047D01*
X127978571Y-66295238D01*
X127930952Y-66271428D01*
X127835714Y-66247619D01*
X127716666Y-66247619D01*
X127621428Y-66271428D01*
X127573809Y-66295238D01*
X127550000Y-66319047D01*
X127526190Y-66366666D01*
X127692857Y-66961904D02*
X128026190Y-66961904D01*
X127692857Y-66747619D02*
X127954761Y-66747619D01*
X128002380Y-66771428D01*
X128026190Y-66819047D01*
X128026190Y-66890476D01*
X128002380Y-66938095D01*
X127978571Y-66961904D01*
X127764285Y-67366666D02*
X127764285Y-67200000D01*
X128026190Y-67200000D02*
X127526190Y-67200000D01*
X127526190Y-67438095D01*
X127526190Y-68223809D02*
X127526190Y-68128571D01*
X127550000Y-68080952D01*
X127573809Y-68057142D01*
X127645238Y-68009523D01*
X127740476Y-67985714D01*
X127930952Y-67985714D01*
X127978571Y-68009523D01*
X128002380Y-68033333D01*
X128026190Y-68080952D01*
X128026190Y-68176190D01*
X128002380Y-68223809D01*
X127978571Y-68247619D01*
X127930952Y-68271428D01*
X127811904Y-68271428D01*
X127764285Y-68247619D01*
X127740476Y-68223809D01*
X127716666Y-68176190D01*
X127716666Y-68080952D01*
X127740476Y-68033333D01*
X127764285Y-68009523D01*
X127811904Y-67985714D01*
X127526190Y-68438095D02*
X127526190Y-68747619D01*
X127716666Y-68580952D01*
X127716666Y-68652380D01*
X127740476Y-68700000D01*
X127764285Y-68723809D01*
X127811904Y-68747619D01*
X127930952Y-68747619D01*
X127978571Y-68723809D01*
X128002380Y-68700000D01*
X128026190Y-68652380D01*
X128026190Y-68509523D01*
X128002380Y-68461904D01*
X127978571Y-68438095D01*
X127526190Y-68890476D02*
X128026190Y-69057142D01*
X127526190Y-69223809D01*
X127692857Y-69771428D02*
X128192857Y-69771428D01*
X127716666Y-69771428D02*
X127692857Y-69819047D01*
X127692857Y-69914285D01*
X127716666Y-69961904D01*
X127740476Y-69985714D01*
X127788095Y-70009523D01*
X127930952Y-70009523D01*
X127978571Y-69985714D01*
X128002380Y-69961904D01*
X128026190Y-69914285D01*
X128026190Y-69819047D01*
X128002380Y-69771428D01*
X128026190Y-70295238D02*
X128002380Y-70247619D01*
X127978571Y-70223809D01*
X127930952Y-70200000D01*
X127788095Y-70200000D01*
X127740476Y-70223809D01*
X127716666Y-70247619D01*
X127692857Y-70295238D01*
X127692857Y-70366666D01*
X127716666Y-70414285D01*
X127740476Y-70438095D01*
X127788095Y-70461904D01*
X127930952Y-70461904D01*
X127978571Y-70438095D01*
X128002380Y-70414285D01*
X128026190Y-70366666D01*
X128026190Y-70295238D01*
X128026190Y-70747619D02*
X128002380Y-70700000D01*
X127954761Y-70676190D01*
X127526190Y-70676190D01*
X127692857Y-70890476D02*
X128026190Y-71009523D01*
X127692857Y-71128571D02*
X128026190Y-71009523D01*
X128145238Y-70961904D01*
X128169047Y-70938095D01*
X128192857Y-70890476D01*
D11*
X129357142Y-67357142D02*
X129404761Y-67309523D01*
X129452380Y-67166666D01*
X129452380Y-67071428D01*
X129404761Y-66928571D01*
X129309523Y-66833333D01*
X129214285Y-66785714D01*
X129023809Y-66738095D01*
X128880952Y-66738095D01*
X128690476Y-66785714D01*
X128595238Y-66833333D01*
X128500000Y-66928571D01*
X128452380Y-67071428D01*
X128452380Y-67166666D01*
X128500000Y-67309523D01*
X128547619Y-67357142D01*
X129452380Y-68309523D02*
X129452380Y-67738095D01*
X129452380Y-68023809D02*
X128452380Y-68023809D01*
X128595238Y-67928571D01*
X128690476Y-67833333D01*
X128738095Y-67738095D01*
X128452380Y-68928571D02*
X128452380Y-69023809D01*
X128500000Y-69119047D01*
X128547619Y-69166666D01*
X128642857Y-69214285D01*
X128833333Y-69261904D01*
X129071428Y-69261904D01*
X129261904Y-69214285D01*
X129357142Y-69166666D01*
X129404761Y-69119047D01*
X129452380Y-69023809D01*
X129452380Y-68928571D01*
X129404761Y-68833333D01*
X129357142Y-68785714D01*
X129261904Y-68738095D01*
X129071428Y-68690476D01*
X128833333Y-68690476D01*
X128642857Y-68738095D01*
X128547619Y-68785714D01*
X128500000Y-68833333D01*
X128452380Y-68928571D01*
D10*
X139326190Y-65580952D02*
X139326190Y-65295238D01*
X139326190Y-65438095D02*
X138826190Y-65438095D01*
X138897619Y-65390476D01*
X138945238Y-65342857D01*
X138969047Y-65295238D01*
X138826190Y-66033333D02*
X138826190Y-65795238D01*
X139064285Y-65771428D01*
X139040476Y-65795238D01*
X139016666Y-65842857D01*
X139016666Y-65961904D01*
X139040476Y-66009523D01*
X139064285Y-66033333D01*
X139111904Y-66057142D01*
X139230952Y-66057142D01*
X139278571Y-66033333D01*
X139302380Y-66009523D01*
X139326190Y-65961904D01*
X139326190Y-65842857D01*
X139302380Y-65795238D01*
X139278571Y-65771428D01*
X138826190Y-66366666D02*
X138826190Y-66414285D01*
X138850000Y-66461904D01*
X138873809Y-66485714D01*
X138921428Y-66509523D01*
X139016666Y-66533333D01*
X139135714Y-66533333D01*
X139230952Y-66509523D01*
X139278571Y-66485714D01*
X139302380Y-66461904D01*
X139326190Y-66414285D01*
X139326190Y-66366666D01*
X139302380Y-66319047D01*
X139278571Y-66295238D01*
X139230952Y-66271428D01*
X139135714Y-66247619D01*
X139016666Y-66247619D01*
X138921428Y-66271428D01*
X138873809Y-66295238D01*
X138850000Y-66319047D01*
X138826190Y-66366666D01*
X138992857Y-66961904D02*
X139326190Y-66961904D01*
X138992857Y-66747619D02*
X139254761Y-66747619D01*
X139302380Y-66771428D01*
X139326190Y-66819047D01*
X139326190Y-66890476D01*
X139302380Y-66938095D01*
X139278571Y-66961904D01*
X139064285Y-67366666D02*
X139064285Y-67200000D01*
X139326190Y-67200000D02*
X138826190Y-67200000D01*
X138826190Y-67438095D01*
X138826190Y-68223809D02*
X138826190Y-68128571D01*
X138850000Y-68080952D01*
X138873809Y-68057142D01*
X138945238Y-68009523D01*
X139040476Y-67985714D01*
X139230952Y-67985714D01*
X139278571Y-68009523D01*
X139302380Y-68033333D01*
X139326190Y-68080952D01*
X139326190Y-68176190D01*
X139302380Y-68223809D01*
X139278571Y-68247619D01*
X139230952Y-68271428D01*
X139111904Y-68271428D01*
X139064285Y-68247619D01*
X139040476Y-68223809D01*
X139016666Y-68176190D01*
X139016666Y-68080952D01*
X139040476Y-68033333D01*
X139064285Y-68009523D01*
X139111904Y-67985714D01*
X138826190Y-68438095D02*
X138826190Y-68747619D01*
X139016666Y-68580952D01*
X139016666Y-68652380D01*
X139040476Y-68700000D01*
X139064285Y-68723809D01*
X139111904Y-68747619D01*
X139230952Y-68747619D01*
X139278571Y-68723809D01*
X139302380Y-68700000D01*
X139326190Y-68652380D01*
X139326190Y-68509523D01*
X139302380Y-68461904D01*
X139278571Y-68438095D01*
X138826190Y-68890476D02*
X139326190Y-69057142D01*
X138826190Y-69223809D01*
X138992857Y-69771428D02*
X139492857Y-69771428D01*
X139016666Y-69771428D02*
X138992857Y-69819047D01*
X138992857Y-69914285D01*
X139016666Y-69961904D01*
X139040476Y-69985714D01*
X139088095Y-70009523D01*
X139230952Y-70009523D01*
X139278571Y-69985714D01*
X139302380Y-69961904D01*
X139326190Y-69914285D01*
X139326190Y-69819047D01*
X139302380Y-69771428D01*
X139326190Y-70295238D02*
X139302380Y-70247619D01*
X139278571Y-70223809D01*
X139230952Y-70200000D01*
X139088095Y-70200000D01*
X139040476Y-70223809D01*
X139016666Y-70247619D01*
X138992857Y-70295238D01*
X138992857Y-70366666D01*
X139016666Y-70414285D01*
X139040476Y-70438095D01*
X139088095Y-70461904D01*
X139230952Y-70461904D01*
X139278571Y-70438095D01*
X139302380Y-70414285D01*
X139326190Y-70366666D01*
X139326190Y-70295238D01*
X139326190Y-70747619D02*
X139302380Y-70700000D01*
X139254761Y-70676190D01*
X138826190Y-70676190D01*
X138992857Y-70890476D02*
X139326190Y-71009523D01*
X138992857Y-71128571D02*
X139326190Y-71009523D01*
X139445238Y-70961904D01*
X139469047Y-70938095D01*
X139492857Y-70890476D01*
D11*
X140857142Y-67833333D02*
X140904761Y-67785714D01*
X140952380Y-67642857D01*
X140952380Y-67547619D01*
X140904761Y-67404761D01*
X140809523Y-67309523D01*
X140714285Y-67261904D01*
X140523809Y-67214285D01*
X140380952Y-67214285D01*
X140190476Y-67261904D01*
X140095238Y-67309523D01*
X140000000Y-67404761D01*
X139952380Y-67547619D01*
X139952380Y-67642857D01*
X140000000Y-67785714D01*
X140047619Y-67833333D01*
X140952380Y-68309523D02*
X140952380Y-68500000D01*
X140904761Y-68595238D01*
X140857142Y-68642857D01*
X140714285Y-68738095D01*
X140523809Y-68785714D01*
X140142857Y-68785714D01*
X140047619Y-68738095D01*
X140000000Y-68690476D01*
X139952380Y-68595238D01*
X139952380Y-68404761D01*
X140000000Y-68309523D01*
X140047619Y-68261904D01*
X140142857Y-68214285D01*
X140380952Y-68214285D01*
X140476190Y-68261904D01*
X140523809Y-68309523D01*
X140571428Y-68404761D01*
X140571428Y-68595238D01*
X140523809Y-68690476D01*
X140476190Y-68738095D01*
X140380952Y-68785714D01*
D10*
X151026190Y-65480952D02*
X151026190Y-65195238D01*
X151026190Y-65338095D02*
X150526190Y-65338095D01*
X150597619Y-65290476D01*
X150645238Y-65242857D01*
X150669047Y-65195238D01*
X150526190Y-65933333D02*
X150526190Y-65695238D01*
X150764285Y-65671428D01*
X150740476Y-65695238D01*
X150716666Y-65742857D01*
X150716666Y-65861904D01*
X150740476Y-65909523D01*
X150764285Y-65933333D01*
X150811904Y-65957142D01*
X150930952Y-65957142D01*
X150978571Y-65933333D01*
X151002380Y-65909523D01*
X151026190Y-65861904D01*
X151026190Y-65742857D01*
X151002380Y-65695238D01*
X150978571Y-65671428D01*
X150526190Y-66266666D02*
X150526190Y-66314285D01*
X150550000Y-66361904D01*
X150573809Y-66385714D01*
X150621428Y-66409523D01*
X150716666Y-66433333D01*
X150835714Y-66433333D01*
X150930952Y-66409523D01*
X150978571Y-66385714D01*
X151002380Y-66361904D01*
X151026190Y-66314285D01*
X151026190Y-66266666D01*
X151002380Y-66219047D01*
X150978571Y-66195238D01*
X150930952Y-66171428D01*
X150835714Y-66147619D01*
X150716666Y-66147619D01*
X150621428Y-66171428D01*
X150573809Y-66195238D01*
X150550000Y-66219047D01*
X150526190Y-66266666D01*
X150692857Y-66861904D02*
X151026190Y-66861904D01*
X150692857Y-66647619D02*
X150954761Y-66647619D01*
X151002380Y-66671428D01*
X151026190Y-66719047D01*
X151026190Y-66790476D01*
X151002380Y-66838095D01*
X150978571Y-66861904D01*
X150764285Y-67266666D02*
X150764285Y-67100000D01*
X151026190Y-67100000D02*
X150526190Y-67100000D01*
X150526190Y-67338095D01*
X150526190Y-68123809D02*
X150526190Y-68028571D01*
X150550000Y-67980952D01*
X150573809Y-67957142D01*
X150645238Y-67909523D01*
X150740476Y-67885714D01*
X150930952Y-67885714D01*
X150978571Y-67909523D01*
X151002380Y-67933333D01*
X151026190Y-67980952D01*
X151026190Y-68076190D01*
X151002380Y-68123809D01*
X150978571Y-68147619D01*
X150930952Y-68171428D01*
X150811904Y-68171428D01*
X150764285Y-68147619D01*
X150740476Y-68123809D01*
X150716666Y-68076190D01*
X150716666Y-67980952D01*
X150740476Y-67933333D01*
X150764285Y-67909523D01*
X150811904Y-67885714D01*
X150526190Y-68338095D02*
X150526190Y-68647619D01*
X150716666Y-68480952D01*
X150716666Y-68552380D01*
X150740476Y-68600000D01*
X150764285Y-68623809D01*
X150811904Y-68647619D01*
X150930952Y-68647619D01*
X150978571Y-68623809D01*
X151002380Y-68600000D01*
X151026190Y-68552380D01*
X151026190Y-68409523D01*
X151002380Y-68361904D01*
X150978571Y-68338095D01*
X150526190Y-68790476D02*
X151026190Y-68957142D01*
X150526190Y-69123809D01*
X150692857Y-69671428D02*
X151192857Y-69671428D01*
X150716666Y-69671428D02*
X150692857Y-69719047D01*
X150692857Y-69814285D01*
X150716666Y-69861904D01*
X150740476Y-69885714D01*
X150788095Y-69909523D01*
X150930952Y-69909523D01*
X150978571Y-69885714D01*
X151002380Y-69861904D01*
X151026190Y-69814285D01*
X151026190Y-69719047D01*
X151002380Y-69671428D01*
X151026190Y-70195238D02*
X151002380Y-70147619D01*
X150978571Y-70123809D01*
X150930952Y-70100000D01*
X150788095Y-70100000D01*
X150740476Y-70123809D01*
X150716666Y-70147619D01*
X150692857Y-70195238D01*
X150692857Y-70266666D01*
X150716666Y-70314285D01*
X150740476Y-70338095D01*
X150788095Y-70361904D01*
X150930952Y-70361904D01*
X150978571Y-70338095D01*
X151002380Y-70314285D01*
X151026190Y-70266666D01*
X151026190Y-70195238D01*
X151026190Y-70647619D02*
X151002380Y-70600000D01*
X150954761Y-70576190D01*
X150526190Y-70576190D01*
X150692857Y-70790476D02*
X151026190Y-70909523D01*
X150692857Y-71028571D02*
X151026190Y-70909523D01*
X151145238Y-70861904D01*
X151169047Y-70838095D01*
X151192857Y-70790476D01*
D11*
X152357142Y-67833333D02*
X152404761Y-67785714D01*
X152452380Y-67642857D01*
X152452380Y-67547619D01*
X152404761Y-67404761D01*
X152309523Y-67309523D01*
X152214285Y-67261904D01*
X152023809Y-67214285D01*
X151880952Y-67214285D01*
X151690476Y-67261904D01*
X151595238Y-67309523D01*
X151500000Y-67404761D01*
X151452380Y-67547619D01*
X151452380Y-67642857D01*
X151500000Y-67785714D01*
X151547619Y-67833333D01*
X151880952Y-68404761D02*
X151833333Y-68309523D01*
X151785714Y-68261904D01*
X151690476Y-68214285D01*
X151642857Y-68214285D01*
X151547619Y-68261904D01*
X151500000Y-68309523D01*
X151452380Y-68404761D01*
X151452380Y-68595238D01*
X151500000Y-68690476D01*
X151547619Y-68738095D01*
X151642857Y-68785714D01*
X151690476Y-68785714D01*
X151785714Y-68738095D01*
X151833333Y-68690476D01*
X151880952Y-68595238D01*
X151880952Y-68404761D01*
X151928571Y-68309523D01*
X151976190Y-68261904D01*
X152071428Y-68214285D01*
X152261904Y-68214285D01*
X152357142Y-68261904D01*
X152404761Y-68309523D01*
X152452380Y-68404761D01*
X152452380Y-68595238D01*
X152404761Y-68690476D01*
X152357142Y-68738095D01*
X152261904Y-68785714D01*
X152071428Y-68785714D01*
X151976190Y-68738095D01*
X151928571Y-68690476D01*
X151880952Y-68595238D01*
D10*
X116526190Y-65480952D02*
X116526190Y-65195238D01*
X116526190Y-65338095D02*
X116026190Y-65338095D01*
X116097619Y-65290476D01*
X116145238Y-65242857D01*
X116169047Y-65195238D01*
X116026190Y-65933333D02*
X116026190Y-65695238D01*
X116264285Y-65671428D01*
X116240476Y-65695238D01*
X116216666Y-65742857D01*
X116216666Y-65861904D01*
X116240476Y-65909523D01*
X116264285Y-65933333D01*
X116311904Y-65957142D01*
X116430952Y-65957142D01*
X116478571Y-65933333D01*
X116502380Y-65909523D01*
X116526190Y-65861904D01*
X116526190Y-65742857D01*
X116502380Y-65695238D01*
X116478571Y-65671428D01*
X116026190Y-66266666D02*
X116026190Y-66314285D01*
X116050000Y-66361904D01*
X116073809Y-66385714D01*
X116121428Y-66409523D01*
X116216666Y-66433333D01*
X116335714Y-66433333D01*
X116430952Y-66409523D01*
X116478571Y-66385714D01*
X116502380Y-66361904D01*
X116526190Y-66314285D01*
X116526190Y-66266666D01*
X116502380Y-66219047D01*
X116478571Y-66195238D01*
X116430952Y-66171428D01*
X116335714Y-66147619D01*
X116216666Y-66147619D01*
X116121428Y-66171428D01*
X116073809Y-66195238D01*
X116050000Y-66219047D01*
X116026190Y-66266666D01*
X116192857Y-66861904D02*
X116526190Y-66861904D01*
X116192857Y-66647619D02*
X116454761Y-66647619D01*
X116502380Y-66671428D01*
X116526190Y-66719047D01*
X116526190Y-66790476D01*
X116502380Y-66838095D01*
X116478571Y-66861904D01*
X116264285Y-67266666D02*
X116264285Y-67100000D01*
X116526190Y-67100000D02*
X116026190Y-67100000D01*
X116026190Y-67338095D01*
X116026190Y-68123809D02*
X116026190Y-68028571D01*
X116050000Y-67980952D01*
X116073809Y-67957142D01*
X116145238Y-67909523D01*
X116240476Y-67885714D01*
X116430952Y-67885714D01*
X116478571Y-67909523D01*
X116502380Y-67933333D01*
X116526190Y-67980952D01*
X116526190Y-68076190D01*
X116502380Y-68123809D01*
X116478571Y-68147619D01*
X116430952Y-68171428D01*
X116311904Y-68171428D01*
X116264285Y-68147619D01*
X116240476Y-68123809D01*
X116216666Y-68076190D01*
X116216666Y-67980952D01*
X116240476Y-67933333D01*
X116264285Y-67909523D01*
X116311904Y-67885714D01*
X116026190Y-68338095D02*
X116026190Y-68647619D01*
X116216666Y-68480952D01*
X116216666Y-68552380D01*
X116240476Y-68600000D01*
X116264285Y-68623809D01*
X116311904Y-68647619D01*
X116430952Y-68647619D01*
X116478571Y-68623809D01*
X116502380Y-68600000D01*
X116526190Y-68552380D01*
X116526190Y-68409523D01*
X116502380Y-68361904D01*
X116478571Y-68338095D01*
X116026190Y-68790476D02*
X116526190Y-68957142D01*
X116026190Y-69123809D01*
X116192857Y-69671428D02*
X116692857Y-69671428D01*
X116216666Y-69671428D02*
X116192857Y-69719047D01*
X116192857Y-69814285D01*
X116216666Y-69861904D01*
X116240476Y-69885714D01*
X116288095Y-69909523D01*
X116430952Y-69909523D01*
X116478571Y-69885714D01*
X116502380Y-69861904D01*
X116526190Y-69814285D01*
X116526190Y-69719047D01*
X116502380Y-69671428D01*
X116526190Y-70195238D02*
X116502380Y-70147619D01*
X116478571Y-70123809D01*
X116430952Y-70100000D01*
X116288095Y-70100000D01*
X116240476Y-70123809D01*
X116216666Y-70147619D01*
X116192857Y-70195238D01*
X116192857Y-70266666D01*
X116216666Y-70314285D01*
X116240476Y-70338095D01*
X116288095Y-70361904D01*
X116430952Y-70361904D01*
X116478571Y-70338095D01*
X116502380Y-70314285D01*
X116526190Y-70266666D01*
X116526190Y-70195238D01*
X116526190Y-70647619D02*
X116502380Y-70600000D01*
X116454761Y-70576190D01*
X116026190Y-70576190D01*
X116192857Y-70790476D02*
X116526190Y-70909523D01*
X116192857Y-71028571D02*
X116526190Y-70909523D01*
X116645238Y-70861904D01*
X116669047Y-70838095D01*
X116692857Y-70790476D01*
D11*
X117857142Y-67833333D02*
X117904761Y-67785714D01*
X117952380Y-67642857D01*
X117952380Y-67547619D01*
X117904761Y-67404761D01*
X117809523Y-67309523D01*
X117714285Y-67261904D01*
X117523809Y-67214285D01*
X117380952Y-67214285D01*
X117190476Y-67261904D01*
X117095238Y-67309523D01*
X117000000Y-67404761D01*
X116952380Y-67547619D01*
X116952380Y-67642857D01*
X117000000Y-67785714D01*
X117047619Y-67833333D01*
X116952380Y-68166666D02*
X116952380Y-68833333D01*
X117952380Y-68404761D01*
M02*
