G04 #@! TF.GenerationSoftware,KiCad,Pcbnew,5.1.5-52549c5~84~ubuntu18.04.1*
G04 #@! TF.CreationDate,2020-02-16T22:49:10+01:00*
G04 #@! TF.ProjectId,bldc_motor_cntroller,626c6463-5f6d-46f7-946f-725f636e7472,rev?*
G04 #@! TF.SameCoordinates,Original*
G04 #@! TF.FileFunction,Soldermask,Bot*
G04 #@! TF.FilePolarity,Negative*
%FSLAX46Y46*%
G04 Gerber Fmt 4.6, Leading zero omitted, Abs format (unit mm)*
G04 Created by KiCad (PCBNEW 5.1.5-52549c5~84~ubuntu18.04.1) date 2020-02-16 22:49:10*
%MOMM*%
%LPD*%
G04 APERTURE LIST*
%ADD10C,0.100000*%
%ADD11C,0.150000*%
%ADD12C,0.300000*%
%ADD13C,0.400000*%
G04 APERTURE END LIST*
D10*
D11*
X177002200Y-166007200D02*
X177002200Y-198007200D01*
X285002200Y-198007200D01*
X285002200Y-166007200D01*
X177002200Y-166007200D01*
D10*
D11*
X10000000Y-10000000D02*
X10000000Y-200007200D01*
X287002200Y-200007200D01*
X287002200Y-10000000D01*
X10000000Y-10000000D01*
D10*
D11*
X12000000Y-12000000D02*
X12000000Y-198007200D01*
X285002200Y-198007200D01*
X285002200Y-12000000D01*
X12000000Y-12000000D01*
D10*
D11*
X60000000Y-12000000D02*
X60000000Y-10000000D01*
D10*
D11*
X110000000Y-12000000D02*
X110000000Y-10000000D01*
D10*
D11*
X160000000Y-12000000D02*
X160000000Y-10000000D01*
D10*
D11*
X210000000Y-12000000D02*
X210000000Y-10000000D01*
D10*
D11*
X260000000Y-12000000D02*
X260000000Y-10000000D01*
D10*
D11*
X36065476Y-11588095D02*
X35322619Y-11588095D01*
X35694047Y-11588095D02*
X35694047Y-10288095D01*
X35570238Y-10473809D01*
X35446428Y-10597619D01*
X35322619Y-10659523D01*
D10*
D11*
X85322619Y-10411904D02*
X85384523Y-10350000D01*
X85508333Y-10288095D01*
X85817857Y-10288095D01*
X85941666Y-10350000D01*
X86003571Y-10411904D01*
X86065476Y-10535714D01*
X86065476Y-10659523D01*
X86003571Y-10845238D01*
X85260714Y-11588095D01*
X86065476Y-11588095D01*
D10*
D11*
X135260714Y-10288095D02*
X136065476Y-10288095D01*
X135632142Y-10783333D01*
X135817857Y-10783333D01*
X135941666Y-10845238D01*
X136003571Y-10907142D01*
X136065476Y-11030952D01*
X136065476Y-11340476D01*
X136003571Y-11464285D01*
X135941666Y-11526190D01*
X135817857Y-11588095D01*
X135446428Y-11588095D01*
X135322619Y-11526190D01*
X135260714Y-11464285D01*
D10*
D11*
X185941666Y-10721428D02*
X185941666Y-11588095D01*
X185632142Y-10226190D02*
X185322619Y-11154761D01*
X186127380Y-11154761D01*
D10*
D11*
X236003571Y-10288095D02*
X235384523Y-10288095D01*
X235322619Y-10907142D01*
X235384523Y-10845238D01*
X235508333Y-10783333D01*
X235817857Y-10783333D01*
X235941666Y-10845238D01*
X236003571Y-10907142D01*
X236065476Y-11030952D01*
X236065476Y-11340476D01*
X236003571Y-11464285D01*
X235941666Y-11526190D01*
X235817857Y-11588095D01*
X235508333Y-11588095D01*
X235384523Y-11526190D01*
X235322619Y-11464285D01*
D10*
D11*
X285941666Y-10288095D02*
X285694047Y-10288095D01*
X285570238Y-10350000D01*
X285508333Y-10411904D01*
X285384523Y-10597619D01*
X285322619Y-10845238D01*
X285322619Y-11340476D01*
X285384523Y-11464285D01*
X285446428Y-11526190D01*
X285570238Y-11588095D01*
X285817857Y-11588095D01*
X285941666Y-11526190D01*
X286003571Y-11464285D01*
X286065476Y-11340476D01*
X286065476Y-11030952D01*
X286003571Y-10907142D01*
X285941666Y-10845238D01*
X285817857Y-10783333D01*
X285570238Y-10783333D01*
X285446428Y-10845238D01*
X285384523Y-10907142D01*
X285322619Y-11030952D01*
D10*
D11*
X60000000Y-198007200D02*
X60000000Y-200007200D01*
D10*
D11*
X110000000Y-198007200D02*
X110000000Y-200007200D01*
D10*
D11*
X160000000Y-198007200D02*
X160000000Y-200007200D01*
D10*
D11*
X210000000Y-198007200D02*
X210000000Y-200007200D01*
D10*
D11*
X260000000Y-198007200D02*
X260000000Y-200007200D01*
D10*
D11*
X36065476Y-199595295D02*
X35322619Y-199595295D01*
X35694047Y-199595295D02*
X35694047Y-198295295D01*
X35570238Y-198481009D01*
X35446428Y-198604819D01*
X35322619Y-198666723D01*
D10*
D11*
X85322619Y-198419104D02*
X85384523Y-198357200D01*
X85508333Y-198295295D01*
X85817857Y-198295295D01*
X85941666Y-198357200D01*
X86003571Y-198419104D01*
X86065476Y-198542914D01*
X86065476Y-198666723D01*
X86003571Y-198852438D01*
X85260714Y-199595295D01*
X86065476Y-199595295D01*
D10*
D11*
X135260714Y-198295295D02*
X136065476Y-198295295D01*
X135632142Y-198790533D01*
X135817857Y-198790533D01*
X135941666Y-198852438D01*
X136003571Y-198914342D01*
X136065476Y-199038152D01*
X136065476Y-199347676D01*
X136003571Y-199471485D01*
X135941666Y-199533390D01*
X135817857Y-199595295D01*
X135446428Y-199595295D01*
X135322619Y-199533390D01*
X135260714Y-199471485D01*
D10*
D11*
X185941666Y-198728628D02*
X185941666Y-199595295D01*
X185632142Y-198233390D02*
X185322619Y-199161961D01*
X186127380Y-199161961D01*
D10*
D11*
X236003571Y-198295295D02*
X235384523Y-198295295D01*
X235322619Y-198914342D01*
X235384523Y-198852438D01*
X235508333Y-198790533D01*
X235817857Y-198790533D01*
X235941666Y-198852438D01*
X236003571Y-198914342D01*
X236065476Y-199038152D01*
X236065476Y-199347676D01*
X236003571Y-199471485D01*
X235941666Y-199533390D01*
X235817857Y-199595295D01*
X235508333Y-199595295D01*
X235384523Y-199533390D01*
X235322619Y-199471485D01*
D10*
D11*
X285941666Y-198295295D02*
X285694047Y-198295295D01*
X285570238Y-198357200D01*
X285508333Y-198419104D01*
X285384523Y-198604819D01*
X285322619Y-198852438D01*
X285322619Y-199347676D01*
X285384523Y-199471485D01*
X285446428Y-199533390D01*
X285570238Y-199595295D01*
X285817857Y-199595295D01*
X285941666Y-199533390D01*
X286003571Y-199471485D01*
X286065476Y-199347676D01*
X286065476Y-199038152D01*
X286003571Y-198914342D01*
X285941666Y-198852438D01*
X285817857Y-198790533D01*
X285570238Y-198790533D01*
X285446428Y-198852438D01*
X285384523Y-198914342D01*
X285322619Y-199038152D01*
D10*
D11*
X10000000Y-60000000D02*
X12000000Y-60000000D01*
D10*
D11*
X10000000Y-110000000D02*
X12000000Y-110000000D01*
D10*
D11*
X10000000Y-160000000D02*
X12000000Y-160000000D01*
D10*
D11*
X10690476Y-35216666D02*
X11309523Y-35216666D01*
X10566666Y-35588095D02*
X11000000Y-34288095D01*
X11433333Y-35588095D01*
D10*
D11*
X11092857Y-84907142D02*
X11278571Y-84969047D01*
X11340476Y-85030952D01*
X11402380Y-85154761D01*
X11402380Y-85340476D01*
X11340476Y-85464285D01*
X11278571Y-85526190D01*
X11154761Y-85588095D01*
X10659523Y-85588095D01*
X10659523Y-84288095D01*
X11092857Y-84288095D01*
X11216666Y-84350000D01*
X11278571Y-84411904D01*
X11340476Y-84535714D01*
X11340476Y-84659523D01*
X11278571Y-84783333D01*
X11216666Y-84845238D01*
X11092857Y-84907142D01*
X10659523Y-84907142D01*
D10*
D11*
X11402380Y-135464285D02*
X11340476Y-135526190D01*
X11154761Y-135588095D01*
X11030952Y-135588095D01*
X10845238Y-135526190D01*
X10721428Y-135402380D01*
X10659523Y-135278571D01*
X10597619Y-135030952D01*
X10597619Y-134845238D01*
X10659523Y-134597619D01*
X10721428Y-134473809D01*
X10845238Y-134350000D01*
X11030952Y-134288095D01*
X11154761Y-134288095D01*
X11340476Y-134350000D01*
X11402380Y-134411904D01*
D10*
D11*
X10659523Y-185588095D02*
X10659523Y-184288095D01*
X10969047Y-184288095D01*
X11154761Y-184350000D01*
X11278571Y-184473809D01*
X11340476Y-184597619D01*
X11402380Y-184845238D01*
X11402380Y-185030952D01*
X11340476Y-185278571D01*
X11278571Y-185402380D01*
X11154761Y-185526190D01*
X10969047Y-185588095D01*
X10659523Y-185588095D01*
D10*
D11*
X287002200Y-60000000D02*
X285002200Y-60000000D01*
D10*
D11*
X287002200Y-110000000D02*
X285002200Y-110000000D01*
D10*
D11*
X287002200Y-160000000D02*
X285002200Y-160000000D01*
D10*
D11*
X285692676Y-35216666D02*
X286311723Y-35216666D01*
X285568866Y-35588095D02*
X286002200Y-34288095D01*
X286435533Y-35588095D01*
D10*
D11*
X286095057Y-84907142D02*
X286280771Y-84969047D01*
X286342676Y-85030952D01*
X286404580Y-85154761D01*
X286404580Y-85340476D01*
X286342676Y-85464285D01*
X286280771Y-85526190D01*
X286156961Y-85588095D01*
X285661723Y-85588095D01*
X285661723Y-84288095D01*
X286095057Y-84288095D01*
X286218866Y-84350000D01*
X286280771Y-84411904D01*
X286342676Y-84535714D01*
X286342676Y-84659523D01*
X286280771Y-84783333D01*
X286218866Y-84845238D01*
X286095057Y-84907142D01*
X285661723Y-84907142D01*
D10*
D11*
X286404580Y-135464285D02*
X286342676Y-135526190D01*
X286156961Y-135588095D01*
X286033152Y-135588095D01*
X285847438Y-135526190D01*
X285723628Y-135402380D01*
X285661723Y-135278571D01*
X285599819Y-135030952D01*
X285599819Y-134845238D01*
X285661723Y-134597619D01*
X285723628Y-134473809D01*
X285847438Y-134350000D01*
X286033152Y-134288095D01*
X286156961Y-134288095D01*
X286342676Y-134350000D01*
X286404580Y-134411904D01*
D10*
D11*
X285661723Y-185588095D02*
X285661723Y-184288095D01*
X285971247Y-184288095D01*
X286156961Y-184350000D01*
X286280771Y-184473809D01*
X286342676Y-184597619D01*
X286404580Y-184845238D01*
X286404580Y-185030952D01*
X286342676Y-185278571D01*
X286280771Y-185402380D01*
X286156961Y-185526190D01*
X285971247Y-185588095D01*
X285661723Y-185588095D01*
D10*
D11*
X200434342Y-193785771D02*
X200434342Y-192285771D01*
X200791485Y-192285771D01*
X201005771Y-192357200D01*
X201148628Y-192500057D01*
X201220057Y-192642914D01*
X201291485Y-192928628D01*
X201291485Y-193142914D01*
X201220057Y-193428628D01*
X201148628Y-193571485D01*
X201005771Y-193714342D01*
X200791485Y-193785771D01*
X200434342Y-193785771D01*
X202577200Y-193785771D02*
X202577200Y-193000057D01*
X202505771Y-192857200D01*
X202362914Y-192785771D01*
X202077200Y-192785771D01*
X201934342Y-192857200D01*
X202577200Y-193714342D02*
X202434342Y-193785771D01*
X202077200Y-193785771D01*
X201934342Y-193714342D01*
X201862914Y-193571485D01*
X201862914Y-193428628D01*
X201934342Y-193285771D01*
X202077200Y-193214342D01*
X202434342Y-193214342D01*
X202577200Y-193142914D01*
X203077200Y-192785771D02*
X203648628Y-192785771D01*
X203291485Y-192285771D02*
X203291485Y-193571485D01*
X203362914Y-193714342D01*
X203505771Y-193785771D01*
X203648628Y-193785771D01*
X204720057Y-193714342D02*
X204577200Y-193785771D01*
X204291485Y-193785771D01*
X204148628Y-193714342D01*
X204077200Y-193571485D01*
X204077200Y-193000057D01*
X204148628Y-192857200D01*
X204291485Y-192785771D01*
X204577200Y-192785771D01*
X204720057Y-192857200D01*
X204791485Y-193000057D01*
X204791485Y-193142914D01*
X204077200Y-193285771D01*
X205434342Y-193642914D02*
X205505771Y-193714342D01*
X205434342Y-193785771D01*
X205362914Y-193714342D01*
X205434342Y-193642914D01*
X205434342Y-193785771D01*
X205434342Y-192857200D02*
X205505771Y-192928628D01*
X205434342Y-193000057D01*
X205362914Y-192928628D01*
X205434342Y-192857200D01*
X205434342Y-193000057D01*
D10*
D11*
X177002200Y-194507200D02*
X285002200Y-194507200D01*
D10*
D11*
X178434342Y-196585771D02*
X178434342Y-195085771D01*
X179291485Y-196585771D02*
X178648628Y-195728628D01*
X179291485Y-195085771D02*
X178434342Y-195942914D01*
X179934342Y-196585771D02*
X179934342Y-195585771D01*
X179934342Y-195085771D02*
X179862914Y-195157200D01*
X179934342Y-195228628D01*
X180005771Y-195157200D01*
X179934342Y-195085771D01*
X179934342Y-195228628D01*
X181505771Y-196442914D02*
X181434342Y-196514342D01*
X181220057Y-196585771D01*
X181077200Y-196585771D01*
X180862914Y-196514342D01*
X180720057Y-196371485D01*
X180648628Y-196228628D01*
X180577200Y-195942914D01*
X180577200Y-195728628D01*
X180648628Y-195442914D01*
X180720057Y-195300057D01*
X180862914Y-195157200D01*
X181077200Y-195085771D01*
X181220057Y-195085771D01*
X181434342Y-195157200D01*
X181505771Y-195228628D01*
X182791485Y-196585771D02*
X182791485Y-195800057D01*
X182720057Y-195657200D01*
X182577200Y-195585771D01*
X182291485Y-195585771D01*
X182148628Y-195657200D01*
X182791485Y-196514342D02*
X182648628Y-196585771D01*
X182291485Y-196585771D01*
X182148628Y-196514342D01*
X182077200Y-196371485D01*
X182077200Y-196228628D01*
X182148628Y-196085771D01*
X182291485Y-196014342D01*
X182648628Y-196014342D01*
X182791485Y-195942914D01*
X184148628Y-196585771D02*
X184148628Y-195085771D01*
X184148628Y-196514342D02*
X184005771Y-196585771D01*
X183720057Y-196585771D01*
X183577200Y-196514342D01*
X183505771Y-196442914D01*
X183434342Y-196300057D01*
X183434342Y-195871485D01*
X183505771Y-195728628D01*
X183577200Y-195657200D01*
X183720057Y-195585771D01*
X184005771Y-195585771D01*
X184148628Y-195657200D01*
X186005771Y-195800057D02*
X186505771Y-195800057D01*
X186720057Y-196585771D02*
X186005771Y-196585771D01*
X186005771Y-195085771D01*
X186720057Y-195085771D01*
X187362914Y-196442914D02*
X187434342Y-196514342D01*
X187362914Y-196585771D01*
X187291485Y-196514342D01*
X187362914Y-196442914D01*
X187362914Y-196585771D01*
X188077200Y-196585771D02*
X188077200Y-195085771D01*
X188434342Y-195085771D01*
X188648628Y-195157200D01*
X188791485Y-195300057D01*
X188862914Y-195442914D01*
X188934342Y-195728628D01*
X188934342Y-195942914D01*
X188862914Y-196228628D01*
X188791485Y-196371485D01*
X188648628Y-196514342D01*
X188434342Y-196585771D01*
X188077200Y-196585771D01*
X189577200Y-196442914D02*
X189648628Y-196514342D01*
X189577200Y-196585771D01*
X189505771Y-196514342D01*
X189577200Y-196442914D01*
X189577200Y-196585771D01*
X190220057Y-196157200D02*
X190934342Y-196157200D01*
X190077200Y-196585771D02*
X190577200Y-195085771D01*
X191077200Y-196585771D01*
X191577200Y-196442914D02*
X191648628Y-196514342D01*
X191577200Y-196585771D01*
X191505771Y-196514342D01*
X191577200Y-196442914D01*
X191577200Y-196585771D01*
X194577200Y-196585771D02*
X194577200Y-195085771D01*
X194720057Y-196014342D02*
X195148628Y-196585771D01*
X195148628Y-195585771D02*
X194577200Y-196157200D01*
X195791485Y-196585771D02*
X195791485Y-195585771D01*
X195791485Y-195085771D02*
X195720057Y-195157200D01*
X195791485Y-195228628D01*
X195862914Y-195157200D01*
X195791485Y-195085771D01*
X195791485Y-195228628D01*
X197148628Y-196514342D02*
X197005771Y-196585771D01*
X196720057Y-196585771D01*
X196577200Y-196514342D01*
X196505771Y-196442914D01*
X196434342Y-196300057D01*
X196434342Y-195871485D01*
X196505771Y-195728628D01*
X196577200Y-195657200D01*
X196720057Y-195585771D01*
X197005771Y-195585771D01*
X197148628Y-195657200D01*
X198434342Y-196585771D02*
X198434342Y-195800057D01*
X198362914Y-195657200D01*
X198220057Y-195585771D01*
X197934342Y-195585771D01*
X197791485Y-195657200D01*
X198434342Y-196514342D02*
X198291485Y-196585771D01*
X197934342Y-196585771D01*
X197791485Y-196514342D01*
X197720057Y-196371485D01*
X197720057Y-196228628D01*
X197791485Y-196085771D01*
X197934342Y-196014342D01*
X198291485Y-196014342D01*
X198434342Y-195942914D01*
X199791485Y-196585771D02*
X199791485Y-195085771D01*
X199791485Y-196514342D02*
X199648628Y-196585771D01*
X199362914Y-196585771D01*
X199220057Y-196514342D01*
X199148628Y-196442914D01*
X199077200Y-196300057D01*
X199077200Y-195871485D01*
X199148628Y-195728628D01*
X199220057Y-195657200D01*
X199362914Y-195585771D01*
X199648628Y-195585771D01*
X199791485Y-195657200D01*
X202362914Y-195085771D02*
X201648628Y-195085771D01*
X201577200Y-195800057D01*
X201648628Y-195728628D01*
X201791485Y-195657200D01*
X202148628Y-195657200D01*
X202291485Y-195728628D01*
X202362914Y-195800057D01*
X202434342Y-195942914D01*
X202434342Y-196300057D01*
X202362914Y-196442914D01*
X202291485Y-196514342D01*
X202148628Y-196585771D01*
X201791485Y-196585771D01*
X201648628Y-196514342D01*
X201577200Y-196442914D01*
X203077200Y-196442914D02*
X203148628Y-196514342D01*
X203077200Y-196585771D01*
X203005771Y-196514342D01*
X203077200Y-196442914D01*
X203077200Y-196585771D01*
X204577200Y-196585771D02*
X203720057Y-196585771D01*
X204148628Y-196585771D02*
X204148628Y-195085771D01*
X204005771Y-195300057D01*
X203862914Y-195442914D01*
X203720057Y-195514342D01*
X205220057Y-196442914D02*
X205291485Y-196514342D01*
X205220057Y-196585771D01*
X205148628Y-196514342D01*
X205220057Y-196442914D01*
X205220057Y-196585771D01*
X206648628Y-195085771D02*
X205934342Y-195085771D01*
X205862914Y-195800057D01*
X205934342Y-195728628D01*
X206077200Y-195657200D01*
X206434342Y-195657200D01*
X206577200Y-195728628D01*
X206648628Y-195800057D01*
X206720057Y-195942914D01*
X206720057Y-196300057D01*
X206648628Y-196442914D01*
X206577200Y-196514342D01*
X206434342Y-196585771D01*
X206077200Y-196585771D01*
X205934342Y-196514342D01*
X205862914Y-196442914D01*
X207362914Y-196014342D02*
X208505771Y-196014342D01*
X209934342Y-195085771D02*
X209220057Y-195085771D01*
X209148628Y-195800057D01*
X209220057Y-195728628D01*
X209362914Y-195657200D01*
X209720057Y-195657200D01*
X209862914Y-195728628D01*
X209934342Y-195800057D01*
X210005771Y-195942914D01*
X210005771Y-196300057D01*
X209934342Y-196442914D01*
X209862914Y-196514342D01*
X209720057Y-196585771D01*
X209362914Y-196585771D01*
X209220057Y-196514342D01*
X209148628Y-196442914D01*
X210577200Y-195228628D02*
X210648628Y-195157200D01*
X210791485Y-195085771D01*
X211148628Y-195085771D01*
X211291485Y-195157200D01*
X211362914Y-195228628D01*
X211434342Y-195371485D01*
X211434342Y-195514342D01*
X211362914Y-195728628D01*
X210505771Y-196585771D01*
X211434342Y-196585771D01*
X212791485Y-195085771D02*
X212077200Y-195085771D01*
X212005771Y-195800057D01*
X212077200Y-195728628D01*
X212220057Y-195657200D01*
X212577200Y-195657200D01*
X212720057Y-195728628D01*
X212791485Y-195800057D01*
X212862914Y-195942914D01*
X212862914Y-196300057D01*
X212791485Y-196442914D01*
X212720057Y-196514342D01*
X212577200Y-196585771D01*
X212220057Y-196585771D01*
X212077200Y-196514342D01*
X212005771Y-196442914D01*
X214148628Y-195585771D02*
X214148628Y-196585771D01*
X213791485Y-195014342D02*
X213434342Y-196085771D01*
X214362914Y-196085771D01*
X215005771Y-196585771D02*
X215291485Y-196585771D01*
X215434342Y-196514342D01*
X215505771Y-196442914D01*
X215648628Y-196228628D01*
X215720057Y-195942914D01*
X215720057Y-195371485D01*
X215648628Y-195228628D01*
X215577200Y-195157200D01*
X215434342Y-195085771D01*
X215148628Y-195085771D01*
X215005771Y-195157200D01*
X214934342Y-195228628D01*
X214862914Y-195371485D01*
X214862914Y-195728628D01*
X214934342Y-195871485D01*
X215005771Y-195942914D01*
X215148628Y-196014342D01*
X215434342Y-196014342D01*
X215577200Y-195942914D01*
X215648628Y-195871485D01*
X215720057Y-195728628D01*
X217005771Y-196514342D02*
X216862914Y-196585771D01*
X216577200Y-196585771D01*
X216434342Y-196514342D01*
X216362914Y-196442914D01*
X216291485Y-196300057D01*
X216291485Y-195871485D01*
X216362914Y-195728628D01*
X216434342Y-195657200D01*
X216577200Y-195585771D01*
X216862914Y-195585771D01*
X217005771Y-195657200D01*
X218362914Y-195085771D02*
X217648628Y-195085771D01*
X217577200Y-195800057D01*
X217648628Y-195728628D01*
X217791485Y-195657200D01*
X218148628Y-195657200D01*
X218291485Y-195728628D01*
X218362914Y-195800057D01*
X218434342Y-195942914D01*
X218434342Y-196300057D01*
X218362914Y-196442914D01*
X218291485Y-196514342D01*
X218148628Y-196585771D01*
X217791485Y-196585771D01*
X217648628Y-196514342D01*
X217577200Y-196442914D01*
X218720057Y-194677200D02*
X220148628Y-194677200D01*
X219291485Y-195728628D02*
X219148628Y-195657200D01*
X219077200Y-195585771D01*
X219005771Y-195442914D01*
X219005771Y-195371485D01*
X219077200Y-195228628D01*
X219148628Y-195157200D01*
X219291485Y-195085771D01*
X219577200Y-195085771D01*
X219720057Y-195157200D01*
X219791485Y-195228628D01*
X219862914Y-195371485D01*
X219862914Y-195442914D01*
X219791485Y-195585771D01*
X219720057Y-195657200D01*
X219577200Y-195728628D01*
X219291485Y-195728628D01*
X219148628Y-195800057D01*
X219077200Y-195871485D01*
X219005771Y-196014342D01*
X219005771Y-196300057D01*
X219077200Y-196442914D01*
X219148628Y-196514342D01*
X219291485Y-196585771D01*
X219577200Y-196585771D01*
X219720057Y-196514342D01*
X219791485Y-196442914D01*
X219862914Y-196300057D01*
X219862914Y-196014342D01*
X219791485Y-195871485D01*
X219720057Y-195800057D01*
X219577200Y-195728628D01*
X220148628Y-194677200D02*
X221577199Y-194677200D01*
X221148628Y-195585771D02*
X221148628Y-196585771D01*
X220791485Y-195014342D02*
X220434342Y-196085771D01*
X221362914Y-196085771D01*
X222577199Y-195585771D02*
X222577199Y-196585771D01*
X221934342Y-195585771D02*
X221934342Y-196371485D01*
X222005771Y-196514342D01*
X222148628Y-196585771D01*
X222362914Y-196585771D01*
X222505771Y-196514342D01*
X222577199Y-196442914D01*
X223291485Y-196585771D02*
X223291485Y-195085771D01*
X223291485Y-195657200D02*
X223434342Y-195585771D01*
X223720057Y-195585771D01*
X223862914Y-195657200D01*
X223934342Y-195728628D01*
X224005771Y-195871485D01*
X224005771Y-196300057D01*
X223934342Y-196442914D01*
X223862914Y-196514342D01*
X223720057Y-196585771D01*
X223434342Y-196585771D01*
X223291485Y-196514342D01*
X225291485Y-195585771D02*
X225291485Y-196585771D01*
X224648628Y-195585771D02*
X224648628Y-196371485D01*
X224720057Y-196514342D01*
X224862914Y-196585771D01*
X225077199Y-196585771D01*
X225220057Y-196514342D01*
X225291485Y-196442914D01*
X226005771Y-195585771D02*
X226005771Y-196585771D01*
X226005771Y-195728628D02*
X226077199Y-195657200D01*
X226220057Y-195585771D01*
X226434342Y-195585771D01*
X226577199Y-195657200D01*
X226648628Y-195800057D01*
X226648628Y-196585771D01*
X227148628Y-195585771D02*
X227720057Y-195585771D01*
X227362914Y-195085771D02*
X227362914Y-196371485D01*
X227434342Y-196514342D01*
X227577200Y-196585771D01*
X227720057Y-196585771D01*
X228862914Y-195585771D02*
X228862914Y-196585771D01*
X228220057Y-195585771D02*
X228220057Y-196371485D01*
X228291485Y-196514342D01*
X228434342Y-196585771D01*
X228648628Y-196585771D01*
X228791485Y-196514342D01*
X228862914Y-196442914D01*
X230362914Y-196585771D02*
X229505771Y-196585771D01*
X229934342Y-196585771D02*
X229934342Y-195085771D01*
X229791485Y-195300057D01*
X229648628Y-195442914D01*
X229505771Y-195514342D01*
X231220057Y-195728628D02*
X231077199Y-195657200D01*
X231005771Y-195585771D01*
X230934342Y-195442914D01*
X230934342Y-195371485D01*
X231005771Y-195228628D01*
X231077199Y-195157200D01*
X231220057Y-195085771D01*
X231505771Y-195085771D01*
X231648628Y-195157200D01*
X231720057Y-195228628D01*
X231791485Y-195371485D01*
X231791485Y-195442914D01*
X231720057Y-195585771D01*
X231648628Y-195657200D01*
X231505771Y-195728628D01*
X231220057Y-195728628D01*
X231077199Y-195800057D01*
X231005771Y-195871485D01*
X230934342Y-196014342D01*
X230934342Y-196300057D01*
X231005771Y-196442914D01*
X231077199Y-196514342D01*
X231220057Y-196585771D01*
X231505771Y-196585771D01*
X231648628Y-196514342D01*
X231720057Y-196442914D01*
X231791485Y-196300057D01*
X231791485Y-196014342D01*
X231720057Y-195871485D01*
X231648628Y-195800057D01*
X231505771Y-195728628D01*
X232434342Y-196442914D02*
X232505771Y-196514342D01*
X232434342Y-196585771D01*
X232362914Y-196514342D01*
X232434342Y-196442914D01*
X232434342Y-196585771D01*
X233434342Y-195085771D02*
X233577199Y-195085771D01*
X233720057Y-195157200D01*
X233791485Y-195228628D01*
X233862914Y-195371485D01*
X233934342Y-195657200D01*
X233934342Y-196014342D01*
X233862914Y-196300057D01*
X233791485Y-196442914D01*
X233720057Y-196514342D01*
X233577199Y-196585771D01*
X233434342Y-196585771D01*
X233291485Y-196514342D01*
X233220057Y-196442914D01*
X233148628Y-196300057D01*
X233077199Y-196014342D01*
X233077199Y-195657200D01*
X233148628Y-195371485D01*
X233220057Y-195228628D01*
X233291485Y-195157200D01*
X233434342Y-195085771D01*
X235220057Y-195585771D02*
X235220057Y-196585771D01*
X234862914Y-195014342D02*
X234505771Y-196085771D01*
X235434342Y-196085771D01*
X236005771Y-196442914D02*
X236077199Y-196514342D01*
X236005771Y-196585771D01*
X235934342Y-196514342D01*
X236005771Y-196442914D01*
X236005771Y-196585771D01*
X237505771Y-196585771D02*
X236648628Y-196585771D01*
X237077199Y-196585771D02*
X237077199Y-195085771D01*
X236934342Y-195300057D01*
X236791485Y-195442914D01*
X236648628Y-195514342D01*
D10*
D11*
X177002200Y-191507200D02*
X285002200Y-191507200D01*
D10*
D12*
X264411485Y-193785771D02*
X263911485Y-193071485D01*
X263554342Y-193785771D02*
X263554342Y-192285771D01*
X264125771Y-192285771D01*
X264268628Y-192357200D01*
X264340057Y-192428628D01*
X264411485Y-192571485D01*
X264411485Y-192785771D01*
X264340057Y-192928628D01*
X264268628Y-193000057D01*
X264125771Y-193071485D01*
X263554342Y-193071485D01*
X265625771Y-193714342D02*
X265482914Y-193785771D01*
X265197200Y-193785771D01*
X265054342Y-193714342D01*
X264982914Y-193571485D01*
X264982914Y-193000057D01*
X265054342Y-192857200D01*
X265197200Y-192785771D01*
X265482914Y-192785771D01*
X265625771Y-192857200D01*
X265697200Y-193000057D01*
X265697200Y-193142914D01*
X264982914Y-193285771D01*
X266197200Y-192785771D02*
X266554342Y-193785771D01*
X266911485Y-192785771D01*
X267482914Y-193642914D02*
X267554342Y-193714342D01*
X267482914Y-193785771D01*
X267411485Y-193714342D01*
X267482914Y-193642914D01*
X267482914Y-193785771D01*
X267482914Y-192857200D02*
X267554342Y-192928628D01*
X267482914Y-193000057D01*
X267411485Y-192928628D01*
X267482914Y-192857200D01*
X267482914Y-193000057D01*
D10*
D11*
X178362914Y-193714342D02*
X178577200Y-193785771D01*
X178934342Y-193785771D01*
X179077200Y-193714342D01*
X179148628Y-193642914D01*
X179220057Y-193500057D01*
X179220057Y-193357200D01*
X179148628Y-193214342D01*
X179077200Y-193142914D01*
X178934342Y-193071485D01*
X178648628Y-193000057D01*
X178505771Y-192928628D01*
X178434342Y-192857200D01*
X178362914Y-192714342D01*
X178362914Y-192571485D01*
X178434342Y-192428628D01*
X178505771Y-192357200D01*
X178648628Y-192285771D01*
X179005771Y-192285771D01*
X179220057Y-192357200D01*
X179862914Y-193785771D02*
X179862914Y-192785771D01*
X179862914Y-192285771D02*
X179791485Y-192357200D01*
X179862914Y-192428628D01*
X179934342Y-192357200D01*
X179862914Y-192285771D01*
X179862914Y-192428628D01*
X180434342Y-192785771D02*
X181220057Y-192785771D01*
X180434342Y-193785771D01*
X181220057Y-193785771D01*
X182362914Y-193714342D02*
X182220057Y-193785771D01*
X181934342Y-193785771D01*
X181791485Y-193714342D01*
X181720057Y-193571485D01*
X181720057Y-193000057D01*
X181791485Y-192857200D01*
X181934342Y-192785771D01*
X182220057Y-192785771D01*
X182362914Y-192857200D01*
X182434342Y-193000057D01*
X182434342Y-193142914D01*
X181720057Y-193285771D01*
X183077200Y-193642914D02*
X183148628Y-193714342D01*
X183077200Y-193785771D01*
X183005771Y-193714342D01*
X183077200Y-193642914D01*
X183077200Y-193785771D01*
X183077200Y-192857200D02*
X183148628Y-192928628D01*
X183077200Y-193000057D01*
X183005771Y-192928628D01*
X183077200Y-192857200D01*
X183077200Y-193000057D01*
X184862914Y-193357200D02*
X185577200Y-193357200D01*
X184720057Y-193785771D02*
X185220057Y-192285771D01*
X185720057Y-193785771D01*
X186862914Y-192785771D02*
X186862914Y-193785771D01*
X186505771Y-192214342D02*
X186148628Y-193285771D01*
X187077200Y-193285771D01*
D10*
D11*
X263434342Y-196585771D02*
X263434342Y-195085771D01*
X264791485Y-196585771D02*
X264791485Y-195085771D01*
X264791485Y-196514342D02*
X264648628Y-196585771D01*
X264362914Y-196585771D01*
X264220057Y-196514342D01*
X264148628Y-196442914D01*
X264077200Y-196300057D01*
X264077200Y-195871485D01*
X264148628Y-195728628D01*
X264220057Y-195657200D01*
X264362914Y-195585771D01*
X264648628Y-195585771D01*
X264791485Y-195657200D01*
X265505771Y-196442914D02*
X265577200Y-196514342D01*
X265505771Y-196585771D01*
X265434342Y-196514342D01*
X265505771Y-196442914D01*
X265505771Y-196585771D01*
X265505771Y-195657200D02*
X265577200Y-195728628D01*
X265505771Y-195800057D01*
X265434342Y-195728628D01*
X265505771Y-195657200D01*
X265505771Y-195800057D01*
X268148628Y-196585771D02*
X267291485Y-196585771D01*
X267720057Y-196585771D02*
X267720057Y-195085771D01*
X267577200Y-195300057D01*
X267434342Y-195442914D01*
X267291485Y-195514342D01*
X269862914Y-195014342D02*
X268577200Y-196942914D01*
X271148628Y-196585771D02*
X270291485Y-196585771D01*
X270720057Y-196585771D02*
X270720057Y-195085771D01*
X270577200Y-195300057D01*
X270434342Y-195442914D01*
X270291485Y-195514342D01*
D10*
D11*
X177002200Y-187507200D02*
X285002200Y-187507200D01*
D10*
D13*
X178714580Y-188211961D02*
X179857438Y-188211961D01*
X179036009Y-190211961D02*
X179286009Y-188211961D01*
X180274104Y-190211961D02*
X180440771Y-188878628D01*
X180524104Y-188211961D02*
X180416961Y-188307200D01*
X180500295Y-188402438D01*
X180607438Y-188307200D01*
X180524104Y-188211961D01*
X180500295Y-188402438D01*
X181107438Y-188878628D02*
X181869342Y-188878628D01*
X181476485Y-188211961D02*
X181262200Y-189926247D01*
X181333628Y-190116723D01*
X181512200Y-190211961D01*
X181702676Y-190211961D01*
X182655057Y-190211961D02*
X182476485Y-190116723D01*
X182405057Y-189926247D01*
X182619342Y-188211961D01*
X184190771Y-190116723D02*
X183988390Y-190211961D01*
X183607438Y-190211961D01*
X183428866Y-190116723D01*
X183357438Y-189926247D01*
X183452676Y-189164342D01*
X183571723Y-188973866D01*
X183774104Y-188878628D01*
X184155057Y-188878628D01*
X184333628Y-188973866D01*
X184405057Y-189164342D01*
X184381247Y-189354819D01*
X183405057Y-189545295D01*
X185155057Y-190021485D02*
X185238390Y-190116723D01*
X185131247Y-190211961D01*
X185047914Y-190116723D01*
X185155057Y-190021485D01*
X185131247Y-190211961D01*
X185286009Y-188973866D02*
X185369342Y-189069104D01*
X185262200Y-189164342D01*
X185178866Y-189069104D01*
X185286009Y-188973866D01*
X185262200Y-189164342D01*
D10*
D11*
X178934342Y-185600057D02*
X178434342Y-185600057D01*
X178434342Y-186385771D02*
X178434342Y-184885771D01*
X179148628Y-184885771D01*
X179720057Y-186385771D02*
X179720057Y-185385771D01*
X179720057Y-184885771D02*
X179648628Y-184957200D01*
X179720057Y-185028628D01*
X179791485Y-184957200D01*
X179720057Y-184885771D01*
X179720057Y-185028628D01*
X180648628Y-186385771D02*
X180505771Y-186314342D01*
X180434342Y-186171485D01*
X180434342Y-184885771D01*
X181791485Y-186314342D02*
X181648628Y-186385771D01*
X181362914Y-186385771D01*
X181220057Y-186314342D01*
X181148628Y-186171485D01*
X181148628Y-185600057D01*
X181220057Y-185457200D01*
X181362914Y-185385771D01*
X181648628Y-185385771D01*
X181791485Y-185457200D01*
X181862914Y-185600057D01*
X181862914Y-185742914D01*
X181148628Y-185885771D01*
X182505771Y-186242914D02*
X182577200Y-186314342D01*
X182505771Y-186385771D01*
X182434342Y-186314342D01*
X182505771Y-186242914D01*
X182505771Y-186385771D01*
X182505771Y-185457200D02*
X182577200Y-185528628D01*
X182505771Y-185600057D01*
X182434342Y-185528628D01*
X182505771Y-185457200D01*
X182505771Y-185600057D01*
X184362914Y-186385771D02*
X184362914Y-184885771D01*
X184362914Y-185457200D02*
X184505771Y-185385771D01*
X184791485Y-185385771D01*
X184934342Y-185457200D01*
X185005771Y-185528628D01*
X185077200Y-185671485D01*
X185077200Y-186100057D01*
X185005771Y-186242914D01*
X184934342Y-186314342D01*
X184791485Y-186385771D01*
X184505771Y-186385771D01*
X184362914Y-186314342D01*
X185934342Y-186385771D02*
X185791485Y-186314342D01*
X185720057Y-186171485D01*
X185720057Y-184885771D01*
X187148628Y-186385771D02*
X187148628Y-184885771D01*
X187148628Y-186314342D02*
X187005771Y-186385771D01*
X186720057Y-186385771D01*
X186577200Y-186314342D01*
X186505771Y-186242914D01*
X186434342Y-186100057D01*
X186434342Y-185671485D01*
X186505771Y-185528628D01*
X186577200Y-185457200D01*
X186720057Y-185385771D01*
X187005771Y-185385771D01*
X187148628Y-185457200D01*
X188505771Y-186314342D02*
X188362914Y-186385771D01*
X188077200Y-186385771D01*
X187934342Y-186314342D01*
X187862914Y-186242914D01*
X187791485Y-186100057D01*
X187791485Y-185671485D01*
X187862914Y-185528628D01*
X187934342Y-185457200D01*
X188077200Y-185385771D01*
X188362914Y-185385771D01*
X188505771Y-185457200D01*
X188791485Y-186528628D02*
X189934342Y-186528628D01*
X190291485Y-186385771D02*
X190291485Y-185385771D01*
X190291485Y-185528628D02*
X190362914Y-185457200D01*
X190505771Y-185385771D01*
X190720057Y-185385771D01*
X190862914Y-185457200D01*
X190934342Y-185600057D01*
X190934342Y-186385771D01*
X190934342Y-185600057D02*
X191005771Y-185457200D01*
X191148628Y-185385771D01*
X191362914Y-185385771D01*
X191505771Y-185457200D01*
X191577200Y-185600057D01*
X191577200Y-186385771D01*
X192505771Y-186385771D02*
X192362914Y-186314342D01*
X192291485Y-186242914D01*
X192220057Y-186100057D01*
X192220057Y-185671485D01*
X192291485Y-185528628D01*
X192362914Y-185457200D01*
X192505771Y-185385771D01*
X192720057Y-185385771D01*
X192862914Y-185457200D01*
X192934342Y-185528628D01*
X193005771Y-185671485D01*
X193005771Y-186100057D01*
X192934342Y-186242914D01*
X192862914Y-186314342D01*
X192720057Y-186385771D01*
X192505771Y-186385771D01*
X193434342Y-185385771D02*
X194005771Y-185385771D01*
X193648628Y-184885771D02*
X193648628Y-186171485D01*
X193720057Y-186314342D01*
X193862914Y-186385771D01*
X194005771Y-186385771D01*
X194720057Y-186385771D02*
X194577200Y-186314342D01*
X194505771Y-186242914D01*
X194434342Y-186100057D01*
X194434342Y-185671485D01*
X194505771Y-185528628D01*
X194577200Y-185457200D01*
X194720057Y-185385771D01*
X194934342Y-185385771D01*
X195077200Y-185457200D01*
X195148628Y-185528628D01*
X195220057Y-185671485D01*
X195220057Y-186100057D01*
X195148628Y-186242914D01*
X195077200Y-186314342D01*
X194934342Y-186385771D01*
X194720057Y-186385771D01*
X195862914Y-186385771D02*
X195862914Y-185385771D01*
X195862914Y-185671485D02*
X195934342Y-185528628D01*
X196005771Y-185457200D01*
X196148628Y-185385771D01*
X196291485Y-185385771D01*
X196434342Y-186528628D02*
X197577200Y-186528628D01*
X198577200Y-186314342D02*
X198434342Y-186385771D01*
X198148628Y-186385771D01*
X198005771Y-186314342D01*
X197934342Y-186242914D01*
X197862914Y-186100057D01*
X197862914Y-185671485D01*
X197934342Y-185528628D01*
X198005771Y-185457200D01*
X198148628Y-185385771D01*
X198434342Y-185385771D01*
X198577200Y-185457200D01*
X199220057Y-185385771D02*
X199220057Y-186385771D01*
X199220057Y-185528628D02*
X199291485Y-185457200D01*
X199434342Y-185385771D01*
X199648628Y-185385771D01*
X199791485Y-185457200D01*
X199862914Y-185600057D01*
X199862914Y-186385771D01*
X200362914Y-185385771D02*
X200934342Y-185385771D01*
X200577200Y-184885771D02*
X200577200Y-186171485D01*
X200648628Y-186314342D01*
X200791485Y-186385771D01*
X200934342Y-186385771D01*
X201434342Y-186385771D02*
X201434342Y-185385771D01*
X201434342Y-185671485D02*
X201505771Y-185528628D01*
X201577200Y-185457200D01*
X201720057Y-185385771D01*
X201862914Y-185385771D01*
X202577200Y-186385771D02*
X202434342Y-186314342D01*
X202362914Y-186242914D01*
X202291485Y-186100057D01*
X202291485Y-185671485D01*
X202362914Y-185528628D01*
X202434342Y-185457200D01*
X202577200Y-185385771D01*
X202791485Y-185385771D01*
X202934342Y-185457200D01*
X203005771Y-185528628D01*
X203077200Y-185671485D01*
X203077200Y-186100057D01*
X203005771Y-186242914D01*
X202934342Y-186314342D01*
X202791485Y-186385771D01*
X202577200Y-186385771D01*
X203934342Y-186385771D02*
X203791485Y-186314342D01*
X203720057Y-186171485D01*
X203720057Y-184885771D01*
X204720057Y-186385771D02*
X204577200Y-186314342D01*
X204505771Y-186171485D01*
X204505771Y-184885771D01*
X205862914Y-186314342D02*
X205720057Y-186385771D01*
X205434342Y-186385771D01*
X205291485Y-186314342D01*
X205220057Y-186171485D01*
X205220057Y-185600057D01*
X205291485Y-185457200D01*
X205434342Y-185385771D01*
X205720057Y-185385771D01*
X205862914Y-185457200D01*
X205934342Y-185600057D01*
X205934342Y-185742914D01*
X205220057Y-185885771D01*
X206577200Y-186385771D02*
X206577200Y-185385771D01*
X206577200Y-185671485D02*
X206648628Y-185528628D01*
X206720057Y-185457200D01*
X206862914Y-185385771D01*
X207005771Y-185385771D01*
X207505771Y-186242914D02*
X207577200Y-186314342D01*
X207505771Y-186385771D01*
X207434342Y-186314342D01*
X207505771Y-186242914D01*
X207505771Y-186385771D01*
X208220057Y-186385771D02*
X208220057Y-184885771D01*
X208362914Y-185814342D02*
X208791485Y-186385771D01*
X208791485Y-185385771D02*
X208220057Y-185957200D01*
X209434342Y-186385771D02*
X209434342Y-185385771D01*
X209434342Y-184885771D02*
X209362914Y-184957200D01*
X209434342Y-185028628D01*
X209505771Y-184957200D01*
X209434342Y-184885771D01*
X209434342Y-185028628D01*
X210791485Y-186314342D02*
X210648628Y-186385771D01*
X210362914Y-186385771D01*
X210220057Y-186314342D01*
X210148628Y-186242914D01*
X210077200Y-186100057D01*
X210077200Y-185671485D01*
X210148628Y-185528628D01*
X210220057Y-185457200D01*
X210362914Y-185385771D01*
X210648628Y-185385771D01*
X210791485Y-185457200D01*
X212077200Y-186385771D02*
X212077200Y-185600057D01*
X212005771Y-185457200D01*
X211862914Y-185385771D01*
X211577200Y-185385771D01*
X211434342Y-185457200D01*
X212077200Y-186314342D02*
X211934342Y-186385771D01*
X211577200Y-186385771D01*
X211434342Y-186314342D01*
X211362914Y-186171485D01*
X211362914Y-186028628D01*
X211434342Y-185885771D01*
X211577200Y-185814342D01*
X211934342Y-185814342D01*
X212077200Y-185742914D01*
X213434342Y-186385771D02*
X213434342Y-184885771D01*
X213434342Y-186314342D02*
X213291485Y-186385771D01*
X213005771Y-186385771D01*
X212862914Y-186314342D01*
X212791485Y-186242914D01*
X212720057Y-186100057D01*
X212720057Y-185671485D01*
X212791485Y-185528628D01*
X212862914Y-185457200D01*
X213005771Y-185385771D01*
X213291485Y-185385771D01*
X213434342Y-185457200D01*
X213791485Y-186528628D02*
X214934342Y-186528628D01*
X215291485Y-185385771D02*
X215291485Y-186885771D01*
X215291485Y-185457200D02*
X215434342Y-185385771D01*
X215720057Y-185385771D01*
X215862914Y-185457200D01*
X215934342Y-185528628D01*
X216005771Y-185671485D01*
X216005771Y-186100057D01*
X215934342Y-186242914D01*
X215862914Y-186314342D01*
X215720057Y-186385771D01*
X215434342Y-186385771D01*
X215291485Y-186314342D01*
X217291485Y-186314342D02*
X217148628Y-186385771D01*
X216862914Y-186385771D01*
X216720057Y-186314342D01*
X216648628Y-186242914D01*
X216577200Y-186100057D01*
X216577200Y-185671485D01*
X216648628Y-185528628D01*
X216720057Y-185457200D01*
X216862914Y-185385771D01*
X217148628Y-185385771D01*
X217291485Y-185457200D01*
X217934342Y-186385771D02*
X217934342Y-184885771D01*
X217934342Y-185457200D02*
X218077200Y-185385771D01*
X218362914Y-185385771D01*
X218505771Y-185457200D01*
X218577200Y-185528628D01*
X218648628Y-185671485D01*
X218648628Y-186100057D01*
X218577200Y-186242914D01*
X218505771Y-186314342D01*
X218362914Y-186385771D01*
X218077200Y-186385771D01*
X217934342Y-186314342D01*
D10*
D11*
X177002200Y-181507200D02*
X285002200Y-181507200D01*
D10*
D11*
X178362914Y-183614342D02*
X178577200Y-183685771D01*
X178934342Y-183685771D01*
X179077200Y-183614342D01*
X179148628Y-183542914D01*
X179220057Y-183400057D01*
X179220057Y-183257200D01*
X179148628Y-183114342D01*
X179077200Y-183042914D01*
X178934342Y-182971485D01*
X178648628Y-182900057D01*
X178505771Y-182828628D01*
X178434342Y-182757200D01*
X178362914Y-182614342D01*
X178362914Y-182471485D01*
X178434342Y-182328628D01*
X178505771Y-182257200D01*
X178648628Y-182185771D01*
X179005771Y-182185771D01*
X179220057Y-182257200D01*
X179862914Y-183685771D02*
X179862914Y-182185771D01*
X180505771Y-183685771D02*
X180505771Y-182900057D01*
X180434342Y-182757200D01*
X180291485Y-182685771D01*
X180077200Y-182685771D01*
X179934342Y-182757200D01*
X179862914Y-182828628D01*
X181791485Y-183614342D02*
X181648628Y-183685771D01*
X181362914Y-183685771D01*
X181220057Y-183614342D01*
X181148628Y-183471485D01*
X181148628Y-182900057D01*
X181220057Y-182757200D01*
X181362914Y-182685771D01*
X181648628Y-182685771D01*
X181791485Y-182757200D01*
X181862914Y-182900057D01*
X181862914Y-183042914D01*
X181148628Y-183185771D01*
X183077200Y-183614342D02*
X182934342Y-183685771D01*
X182648628Y-183685771D01*
X182505771Y-183614342D01*
X182434342Y-183471485D01*
X182434342Y-182900057D01*
X182505771Y-182757200D01*
X182648628Y-182685771D01*
X182934342Y-182685771D01*
X183077200Y-182757200D01*
X183148628Y-182900057D01*
X183148628Y-183042914D01*
X182434342Y-183185771D01*
X183577200Y-182685771D02*
X184148628Y-182685771D01*
X183791485Y-182185771D02*
X183791485Y-183471485D01*
X183862914Y-183614342D01*
X184005771Y-183685771D01*
X184148628Y-183685771D01*
X184648628Y-183542914D02*
X184720057Y-183614342D01*
X184648628Y-183685771D01*
X184577200Y-183614342D01*
X184648628Y-183542914D01*
X184648628Y-183685771D01*
X184648628Y-182757200D02*
X184720057Y-182828628D01*
X184648628Y-182900057D01*
X184577200Y-182828628D01*
X184648628Y-182757200D01*
X184648628Y-182900057D01*
D10*
D11*
X197002200Y-191507200D02*
X197002200Y-194507200D01*
D10*
D11*
X261002200Y-191507200D02*
X261002200Y-198007200D01*
D10*
G36*
X115073297Y-91977704D02*
G01*
X115347637Y-92060924D01*
X115600462Y-92196062D01*
X115822070Y-92377930D01*
X116003938Y-92599538D01*
X116139076Y-92852363D01*
X116222296Y-93126703D01*
X116251000Y-93418140D01*
X116251000Y-96581860D01*
X116222296Y-96873297D01*
X116139076Y-97147637D01*
X116003938Y-97400462D01*
X115822070Y-97622070D01*
X115600462Y-97803938D01*
X115347637Y-97939076D01*
X115073297Y-98022296D01*
X114781860Y-98051000D01*
X111618140Y-98051000D01*
X111326703Y-98022296D01*
X111052363Y-97939076D01*
X110799538Y-97803938D01*
X110577930Y-97622070D01*
X110396062Y-97400462D01*
X110260924Y-97147637D01*
X110177704Y-96873297D01*
X110149000Y-96581860D01*
X110149000Y-93418140D01*
X110177704Y-93126703D01*
X110260924Y-92852363D01*
X110396062Y-92599538D01*
X110577930Y-92377930D01*
X110799538Y-92196062D01*
X111052363Y-92060924D01*
X111326703Y-91977704D01*
X111618140Y-91949000D01*
X114781860Y-91949000D01*
X115073297Y-91977704D01*
G37*
G36*
X146189943Y-92066248D02*
G01*
X146745189Y-92296238D01*
X146867449Y-92377930D01*
X147244899Y-92630134D01*
X147669866Y-93055101D01*
X147669867Y-93055103D01*
X148003762Y-93554811D01*
X148233752Y-94110057D01*
X148351000Y-94699501D01*
X148351000Y-95300499D01*
X148233752Y-95889943D01*
X148003762Y-96445189D01*
X148003761Y-96445190D01*
X147669866Y-96944899D01*
X147244899Y-97369866D01*
X146993347Y-97537948D01*
X146745189Y-97703762D01*
X146189943Y-97933752D01*
X145600499Y-98051000D01*
X144999501Y-98051000D01*
X144410057Y-97933752D01*
X143854811Y-97703762D01*
X143606653Y-97537948D01*
X143355101Y-97369866D01*
X142930134Y-96944899D01*
X142596239Y-96445190D01*
X142596238Y-96445189D01*
X142366248Y-95889943D01*
X142249000Y-95300499D01*
X142249000Y-94699501D01*
X142366248Y-94110057D01*
X142596238Y-93554811D01*
X142930133Y-93055103D01*
X142930134Y-93055101D01*
X143355101Y-92630134D01*
X143732551Y-92377930D01*
X143854811Y-92296238D01*
X144410057Y-92066248D01*
X144999501Y-91949000D01*
X145600499Y-91949000D01*
X146189943Y-92066248D01*
G37*
G36*
X154373297Y-91977704D02*
G01*
X154647637Y-92060924D01*
X154900462Y-92196062D01*
X155122070Y-92377930D01*
X155303938Y-92599538D01*
X155439076Y-92852363D01*
X155522296Y-93126703D01*
X155551000Y-93418140D01*
X155551000Y-96581860D01*
X155522296Y-96873297D01*
X155439076Y-97147637D01*
X155303938Y-97400462D01*
X155122070Y-97622070D01*
X154900462Y-97803938D01*
X154647637Y-97939076D01*
X154373297Y-98022296D01*
X154081860Y-98051000D01*
X150918140Y-98051000D01*
X150626703Y-98022296D01*
X150352363Y-97939076D01*
X150099538Y-97803938D01*
X149877930Y-97622070D01*
X149696062Y-97400462D01*
X149560924Y-97147637D01*
X149477704Y-96873297D01*
X149449000Y-96581860D01*
X149449000Y-93418140D01*
X149477704Y-93126703D01*
X149560924Y-92852363D01*
X149696062Y-92599538D01*
X149877930Y-92377930D01*
X150099538Y-92196062D01*
X150352363Y-92060924D01*
X150626703Y-91977704D01*
X150918140Y-91949000D01*
X154081860Y-91949000D01*
X154373297Y-91977704D01*
G37*
G36*
X106889943Y-92066248D02*
G01*
X107445189Y-92296238D01*
X107567449Y-92377930D01*
X107944899Y-92630134D01*
X108369866Y-93055101D01*
X108369867Y-93055103D01*
X108703762Y-93554811D01*
X108933752Y-94110057D01*
X109051000Y-94699501D01*
X109051000Y-95300499D01*
X108933752Y-95889943D01*
X108703762Y-96445189D01*
X108703761Y-96445190D01*
X108369866Y-96944899D01*
X107944899Y-97369866D01*
X107693347Y-97537948D01*
X107445189Y-97703762D01*
X106889943Y-97933752D01*
X106300499Y-98051000D01*
X105699501Y-98051000D01*
X105110057Y-97933752D01*
X104554811Y-97703762D01*
X104306653Y-97537948D01*
X104055101Y-97369866D01*
X103630134Y-96944899D01*
X103296239Y-96445190D01*
X103296238Y-96445189D01*
X103066248Y-95889943D01*
X102949000Y-95300499D01*
X102949000Y-94699501D01*
X103066248Y-94110057D01*
X103296238Y-93554811D01*
X103630133Y-93055103D01*
X103630134Y-93055101D01*
X104055101Y-92630134D01*
X104432551Y-92377930D01*
X104554811Y-92296238D01*
X105110057Y-92066248D01*
X105699501Y-91949000D01*
X106300499Y-91949000D01*
X106889943Y-92066248D01*
G37*
G36*
X137215170Y-92007879D02*
G01*
X137509868Y-92066498D01*
X138065067Y-92296469D01*
X138350867Y-92487435D01*
X138564733Y-92630335D01*
X138989665Y-93055267D01*
X139132565Y-93269133D01*
X139323531Y-93554933D01*
X139553502Y-94110132D01*
X139670740Y-94699528D01*
X139670740Y-95300472D01*
X139553502Y-95889868D01*
X139323531Y-96445067D01*
X139132565Y-96730867D01*
X138989665Y-96944733D01*
X138564733Y-97369665D01*
X138350867Y-97512565D01*
X138065067Y-97703531D01*
X137509868Y-97933502D01*
X137215170Y-97992121D01*
X136920473Y-98050740D01*
X136319527Y-98050740D01*
X136024830Y-97992121D01*
X135730132Y-97933502D01*
X135174933Y-97703531D01*
X134889133Y-97512565D01*
X134675267Y-97369665D01*
X134250335Y-96944733D01*
X134107435Y-96730867D01*
X133916469Y-96445067D01*
X133686498Y-95889868D01*
X133569260Y-95300472D01*
X133569260Y-94699528D01*
X133686498Y-94110132D01*
X133916469Y-93554933D01*
X134107435Y-93269133D01*
X134250335Y-93055267D01*
X134675267Y-92630335D01*
X134889133Y-92487435D01*
X135174933Y-92296469D01*
X135730132Y-92066498D01*
X136024830Y-92007879D01*
X136319527Y-91949260D01*
X136920473Y-91949260D01*
X137215170Y-92007879D01*
G37*
G36*
X124430740Y-98050740D02*
G01*
X118329260Y-98050740D01*
X118329260Y-91949260D01*
X124430740Y-91949260D01*
X124430740Y-98050740D01*
G37*
G36*
X129595170Y-92007879D02*
G01*
X129889868Y-92066498D01*
X130445067Y-92296469D01*
X130730867Y-92487435D01*
X130944733Y-92630335D01*
X131369665Y-93055267D01*
X131512565Y-93269133D01*
X131703531Y-93554933D01*
X131933502Y-94110132D01*
X132050740Y-94699528D01*
X132050740Y-95300472D01*
X131933502Y-95889868D01*
X131703531Y-96445067D01*
X131512565Y-96730867D01*
X131369665Y-96944733D01*
X130944733Y-97369665D01*
X130730867Y-97512565D01*
X130445067Y-97703531D01*
X129889868Y-97933502D01*
X129595170Y-97992121D01*
X129300473Y-98050740D01*
X128699527Y-98050740D01*
X128404830Y-97992121D01*
X128110132Y-97933502D01*
X127554933Y-97703531D01*
X127269133Y-97512565D01*
X127055267Y-97369665D01*
X126630335Y-96944733D01*
X126487435Y-96730867D01*
X126296469Y-96445067D01*
X126066498Y-95889868D01*
X125949260Y-95300472D01*
X125949260Y-94699528D01*
X126066498Y-94110132D01*
X126296469Y-93554933D01*
X126487435Y-93269133D01*
X126630335Y-93055267D01*
X127055267Y-92630335D01*
X127269133Y-92487435D01*
X127554933Y-92296469D01*
X128110132Y-92066498D01*
X128404830Y-92007879D01*
X128699527Y-91949260D01*
X129300473Y-91949260D01*
X129595170Y-92007879D01*
G37*
G36*
X103525331Y-74768211D02*
G01*
X103853092Y-74903974D01*
X104148070Y-75101072D01*
X104398928Y-75351930D01*
X104596026Y-75646908D01*
X104731789Y-75974669D01*
X104801000Y-76322616D01*
X104801000Y-76677384D01*
X104731789Y-77025331D01*
X104596026Y-77353092D01*
X104398928Y-77648070D01*
X104148070Y-77898928D01*
X103853092Y-78096026D01*
X103525331Y-78231789D01*
X103177384Y-78301000D01*
X102822616Y-78301000D01*
X102474669Y-78231789D01*
X102146908Y-78096026D01*
X101851930Y-77898928D01*
X101601072Y-77648070D01*
X101403974Y-77353092D01*
X101268211Y-77025331D01*
X101199000Y-76677384D01*
X101199000Y-76322616D01*
X101268211Y-75974669D01*
X101403974Y-75646908D01*
X101601072Y-75351930D01*
X101851930Y-75101072D01*
X102146908Y-74903974D01*
X102474669Y-74768211D01*
X102822616Y-74699000D01*
X103177384Y-74699000D01*
X103525331Y-74768211D01*
G37*
G36*
X155525331Y-74768211D02*
G01*
X155853092Y-74903974D01*
X156148070Y-75101072D01*
X156398928Y-75351930D01*
X156596026Y-75646908D01*
X156731789Y-75974669D01*
X156801000Y-76322616D01*
X156801000Y-76677384D01*
X156731789Y-77025331D01*
X156596026Y-77353092D01*
X156398928Y-77648070D01*
X156148070Y-77898928D01*
X155853092Y-78096026D01*
X155525331Y-78231789D01*
X155177384Y-78301000D01*
X154822616Y-78301000D01*
X154474669Y-78231789D01*
X154146908Y-78096026D01*
X153851930Y-77898928D01*
X153601072Y-77648070D01*
X153403974Y-77353092D01*
X153268211Y-77025331D01*
X153199000Y-76677384D01*
X153199000Y-76322616D01*
X153268211Y-75974669D01*
X153403974Y-75646908D01*
X153601072Y-75351930D01*
X153851930Y-75101072D01*
X154146908Y-74903974D01*
X154474669Y-74768211D01*
X154822616Y-74699000D01*
X155177384Y-74699000D01*
X155525331Y-74768211D01*
G37*
G36*
X130171934Y-69952671D02*
G01*
X130201877Y-69961754D01*
X130229465Y-69976500D01*
X130253651Y-69996349D01*
X130273500Y-70020535D01*
X130288246Y-70048123D01*
X130297329Y-70078066D01*
X130301000Y-70115340D01*
X130301000Y-74284660D01*
X130297329Y-74321934D01*
X130288246Y-74351877D01*
X130273500Y-74379465D01*
X130253651Y-74403651D01*
X130229465Y-74423500D01*
X130201877Y-74438246D01*
X130171934Y-74447329D01*
X130134660Y-74451000D01*
X127865340Y-74451000D01*
X127828066Y-74447329D01*
X127798123Y-74438246D01*
X127770535Y-74423500D01*
X127746349Y-74403651D01*
X127726500Y-74379465D01*
X127711754Y-74351877D01*
X127702671Y-74321934D01*
X127699000Y-74284660D01*
X127699000Y-70115340D01*
X127702671Y-70078066D01*
X127711754Y-70048123D01*
X127726500Y-70020535D01*
X127746349Y-69996349D01*
X127770535Y-69976500D01*
X127798123Y-69961754D01*
X127828066Y-69952671D01*
X127865340Y-69949000D01*
X130134660Y-69949000D01*
X130171934Y-69952671D01*
G37*
G36*
X141671934Y-69952671D02*
G01*
X141701877Y-69961754D01*
X141729465Y-69976500D01*
X141753651Y-69996349D01*
X141773500Y-70020535D01*
X141788246Y-70048123D01*
X141797329Y-70078066D01*
X141801000Y-70115340D01*
X141801000Y-74284660D01*
X141797329Y-74321934D01*
X141788246Y-74351877D01*
X141773500Y-74379465D01*
X141753651Y-74403651D01*
X141729465Y-74423500D01*
X141701877Y-74438246D01*
X141671934Y-74447329D01*
X141634660Y-74451000D01*
X139365340Y-74451000D01*
X139328066Y-74447329D01*
X139298123Y-74438246D01*
X139270535Y-74423500D01*
X139246349Y-74403651D01*
X139226500Y-74379465D01*
X139211754Y-74351877D01*
X139202671Y-74321934D01*
X139199000Y-74284660D01*
X139199000Y-70115340D01*
X139202671Y-70078066D01*
X139211754Y-70048123D01*
X139226500Y-70020535D01*
X139246349Y-69996349D01*
X139270535Y-69976500D01*
X139298123Y-69961754D01*
X139328066Y-69952671D01*
X139365340Y-69949000D01*
X141634660Y-69949000D01*
X141671934Y-69952671D01*
G37*
G36*
X153171934Y-69952671D02*
G01*
X153201877Y-69961754D01*
X153229465Y-69976500D01*
X153253651Y-69996349D01*
X153273500Y-70020535D01*
X153288246Y-70048123D01*
X153297329Y-70078066D01*
X153301000Y-70115340D01*
X153301000Y-74284660D01*
X153297329Y-74321934D01*
X153288246Y-74351877D01*
X153273500Y-74379465D01*
X153253651Y-74403651D01*
X153229465Y-74423500D01*
X153201877Y-74438246D01*
X153171934Y-74447329D01*
X153134660Y-74451000D01*
X150865340Y-74451000D01*
X150828066Y-74447329D01*
X150798123Y-74438246D01*
X150770535Y-74423500D01*
X150746349Y-74403651D01*
X150726500Y-74379465D01*
X150711754Y-74351877D01*
X150702671Y-74321934D01*
X150699000Y-74284660D01*
X150699000Y-70115340D01*
X150702671Y-70078066D01*
X150711754Y-70048123D01*
X150726500Y-70020535D01*
X150746349Y-69996349D01*
X150770535Y-69976500D01*
X150798123Y-69961754D01*
X150828066Y-69952671D01*
X150865340Y-69949000D01*
X153134660Y-69949000D01*
X153171934Y-69952671D01*
G37*
G36*
X107171934Y-69952671D02*
G01*
X107201877Y-69961754D01*
X107229465Y-69976500D01*
X107253651Y-69996349D01*
X107273500Y-70020535D01*
X107288246Y-70048123D01*
X107297329Y-70078066D01*
X107301000Y-70115340D01*
X107301000Y-74284660D01*
X107297329Y-74321934D01*
X107288246Y-74351877D01*
X107273500Y-74379465D01*
X107253651Y-74403651D01*
X107229465Y-74423500D01*
X107201877Y-74438246D01*
X107171934Y-74447329D01*
X107134660Y-74451000D01*
X104865340Y-74451000D01*
X104828066Y-74447329D01*
X104798123Y-74438246D01*
X104770535Y-74423500D01*
X104746349Y-74403651D01*
X104726500Y-74379465D01*
X104711754Y-74351877D01*
X104702671Y-74321934D01*
X104699000Y-74284660D01*
X104699000Y-70115340D01*
X104702671Y-70078066D01*
X104711754Y-70048123D01*
X104726500Y-70020535D01*
X104746349Y-69996349D01*
X104770535Y-69976500D01*
X104798123Y-69961754D01*
X104828066Y-69952671D01*
X104865340Y-69949000D01*
X107134660Y-69949000D01*
X107171934Y-69952671D01*
G37*
G36*
X118671934Y-69952671D02*
G01*
X118701877Y-69961754D01*
X118729465Y-69976500D01*
X118753651Y-69996349D01*
X118773500Y-70020535D01*
X118788246Y-70048123D01*
X118797329Y-70078066D01*
X118801000Y-70115340D01*
X118801000Y-74284660D01*
X118797329Y-74321934D01*
X118788246Y-74351877D01*
X118773500Y-74379465D01*
X118753651Y-74403651D01*
X118729465Y-74423500D01*
X118701877Y-74438246D01*
X118671934Y-74447329D01*
X118634660Y-74451000D01*
X116365340Y-74451000D01*
X116328066Y-74447329D01*
X116298123Y-74438246D01*
X116270535Y-74423500D01*
X116246349Y-74403651D01*
X116226500Y-74379465D01*
X116211754Y-74351877D01*
X116202671Y-74321934D01*
X116199000Y-74284660D01*
X116199000Y-70115340D01*
X116202671Y-70078066D01*
X116211754Y-70048123D01*
X116226500Y-70020535D01*
X116246349Y-69996349D01*
X116270535Y-69976500D01*
X116298123Y-69961754D01*
X116328066Y-69952671D01*
X116365340Y-69949000D01*
X118634660Y-69949000D01*
X118671934Y-69952671D01*
G37*
G36*
X153171934Y-61552671D02*
G01*
X153201877Y-61561754D01*
X153229465Y-61576500D01*
X153253651Y-61596349D01*
X153273500Y-61620535D01*
X153288246Y-61648123D01*
X153297329Y-61678066D01*
X153301000Y-61715340D01*
X153301000Y-65884660D01*
X153297329Y-65921934D01*
X153288246Y-65951877D01*
X153273500Y-65979465D01*
X153253651Y-66003651D01*
X153229465Y-66023500D01*
X153201877Y-66038246D01*
X153171934Y-66047329D01*
X153134660Y-66051000D01*
X150865340Y-66051000D01*
X150828066Y-66047329D01*
X150798123Y-66038246D01*
X150770535Y-66023500D01*
X150746349Y-66003651D01*
X150726500Y-65979465D01*
X150711754Y-65951877D01*
X150702671Y-65921934D01*
X150699000Y-65884660D01*
X150699000Y-61715340D01*
X150702671Y-61678066D01*
X150711754Y-61648123D01*
X150726500Y-61620535D01*
X150746349Y-61596349D01*
X150770535Y-61576500D01*
X150798123Y-61561754D01*
X150828066Y-61552671D01*
X150865340Y-61549000D01*
X153134660Y-61549000D01*
X153171934Y-61552671D01*
G37*
G36*
X141671934Y-61552671D02*
G01*
X141701877Y-61561754D01*
X141729465Y-61576500D01*
X141753651Y-61596349D01*
X141773500Y-61620535D01*
X141788246Y-61648123D01*
X141797329Y-61678066D01*
X141801000Y-61715340D01*
X141801000Y-65884660D01*
X141797329Y-65921934D01*
X141788246Y-65951877D01*
X141773500Y-65979465D01*
X141753651Y-66003651D01*
X141729465Y-66023500D01*
X141701877Y-66038246D01*
X141671934Y-66047329D01*
X141634660Y-66051000D01*
X139365340Y-66051000D01*
X139328066Y-66047329D01*
X139298123Y-66038246D01*
X139270535Y-66023500D01*
X139246349Y-66003651D01*
X139226500Y-65979465D01*
X139211754Y-65951877D01*
X139202671Y-65921934D01*
X139199000Y-65884660D01*
X139199000Y-61715340D01*
X139202671Y-61678066D01*
X139211754Y-61648123D01*
X139226500Y-61620535D01*
X139246349Y-61596349D01*
X139270535Y-61576500D01*
X139298123Y-61561754D01*
X139328066Y-61552671D01*
X139365340Y-61549000D01*
X141634660Y-61549000D01*
X141671934Y-61552671D01*
G37*
G36*
X130171934Y-61552671D02*
G01*
X130201877Y-61561754D01*
X130229465Y-61576500D01*
X130253651Y-61596349D01*
X130273500Y-61620535D01*
X130288246Y-61648123D01*
X130297329Y-61678066D01*
X130301000Y-61715340D01*
X130301000Y-65884660D01*
X130297329Y-65921934D01*
X130288246Y-65951877D01*
X130273500Y-65979465D01*
X130253651Y-66003651D01*
X130229465Y-66023500D01*
X130201877Y-66038246D01*
X130171934Y-66047329D01*
X130134660Y-66051000D01*
X127865340Y-66051000D01*
X127828066Y-66047329D01*
X127798123Y-66038246D01*
X127770535Y-66023500D01*
X127746349Y-66003651D01*
X127726500Y-65979465D01*
X127711754Y-65951877D01*
X127702671Y-65921934D01*
X127699000Y-65884660D01*
X127699000Y-61715340D01*
X127702671Y-61678066D01*
X127711754Y-61648123D01*
X127726500Y-61620535D01*
X127746349Y-61596349D01*
X127770535Y-61576500D01*
X127798123Y-61561754D01*
X127828066Y-61552671D01*
X127865340Y-61549000D01*
X130134660Y-61549000D01*
X130171934Y-61552671D01*
G37*
G36*
X118671934Y-61552671D02*
G01*
X118701877Y-61561754D01*
X118729465Y-61576500D01*
X118753651Y-61596349D01*
X118773500Y-61620535D01*
X118788246Y-61648123D01*
X118797329Y-61678066D01*
X118801000Y-61715340D01*
X118801000Y-65884660D01*
X118797329Y-65921934D01*
X118788246Y-65951877D01*
X118773500Y-65979465D01*
X118753651Y-66003651D01*
X118729465Y-66023500D01*
X118701877Y-66038246D01*
X118671934Y-66047329D01*
X118634660Y-66051000D01*
X116365340Y-66051000D01*
X116328066Y-66047329D01*
X116298123Y-66038246D01*
X116270535Y-66023500D01*
X116246349Y-66003651D01*
X116226500Y-65979465D01*
X116211754Y-65951877D01*
X116202671Y-65921934D01*
X116199000Y-65884660D01*
X116199000Y-61715340D01*
X116202671Y-61678066D01*
X116211754Y-61648123D01*
X116226500Y-61620535D01*
X116246349Y-61596349D01*
X116270535Y-61576500D01*
X116298123Y-61561754D01*
X116328066Y-61552671D01*
X116365340Y-61549000D01*
X118634660Y-61549000D01*
X118671934Y-61552671D01*
G37*
G36*
X107171934Y-61552671D02*
G01*
X107201877Y-61561754D01*
X107229465Y-61576500D01*
X107253651Y-61596349D01*
X107273500Y-61620535D01*
X107288246Y-61648123D01*
X107297329Y-61678066D01*
X107301000Y-61715340D01*
X107301000Y-65884660D01*
X107297329Y-65921934D01*
X107288246Y-65951877D01*
X107273500Y-65979465D01*
X107253651Y-66003651D01*
X107229465Y-66023500D01*
X107201877Y-66038246D01*
X107171934Y-66047329D01*
X107134660Y-66051000D01*
X104865340Y-66051000D01*
X104828066Y-66047329D01*
X104798123Y-66038246D01*
X104770535Y-66023500D01*
X104746349Y-66003651D01*
X104726500Y-65979465D01*
X104711754Y-65951877D01*
X104702671Y-65921934D01*
X104699000Y-65884660D01*
X104699000Y-61715340D01*
X104702671Y-61678066D01*
X104711754Y-61648123D01*
X104726500Y-61620535D01*
X104746349Y-61596349D01*
X104770535Y-61576500D01*
X104798123Y-61561754D01*
X104828066Y-61552671D01*
X104865340Y-61549000D01*
X107134660Y-61549000D01*
X107171934Y-61552671D01*
G37*
G36*
X149033642Y-60529781D02*
G01*
X149179414Y-60590162D01*
X149179416Y-60590163D01*
X149310608Y-60677822D01*
X149422178Y-60789392D01*
X149509837Y-60920584D01*
X149509838Y-60920586D01*
X149570219Y-61066358D01*
X149601000Y-61221107D01*
X149601000Y-61378893D01*
X149570219Y-61533642D01*
X149522799Y-61648123D01*
X149509837Y-61679416D01*
X149422178Y-61810608D01*
X149310608Y-61922178D01*
X149179416Y-62009837D01*
X149179415Y-62009838D01*
X149179414Y-62009838D01*
X149033642Y-62070219D01*
X148878893Y-62101000D01*
X148721107Y-62101000D01*
X148566358Y-62070219D01*
X148420586Y-62009838D01*
X148420585Y-62009838D01*
X148420584Y-62009837D01*
X148289392Y-61922178D01*
X148177822Y-61810608D01*
X148090163Y-61679416D01*
X148077201Y-61648123D01*
X148029781Y-61533642D01*
X147999000Y-61378893D01*
X147999000Y-61221107D01*
X148029781Y-61066358D01*
X148090162Y-60920586D01*
X148090163Y-60920584D01*
X148177822Y-60789392D01*
X148289392Y-60677822D01*
X148420584Y-60590163D01*
X148420586Y-60590162D01*
X148566358Y-60529781D01*
X148721107Y-60499000D01*
X148878893Y-60499000D01*
X149033642Y-60529781D01*
G37*
G36*
X146833642Y-60529781D02*
G01*
X146979414Y-60590162D01*
X146979416Y-60590163D01*
X147110608Y-60677822D01*
X147222178Y-60789392D01*
X147309837Y-60920584D01*
X147309838Y-60920586D01*
X147370219Y-61066358D01*
X147401000Y-61221107D01*
X147401000Y-61378893D01*
X147370219Y-61533642D01*
X147322799Y-61648123D01*
X147309837Y-61679416D01*
X147222178Y-61810608D01*
X147110608Y-61922178D01*
X146979416Y-62009837D01*
X146979415Y-62009838D01*
X146979414Y-62009838D01*
X146833642Y-62070219D01*
X146678893Y-62101000D01*
X146521107Y-62101000D01*
X146366358Y-62070219D01*
X146220586Y-62009838D01*
X146220585Y-62009838D01*
X146220584Y-62009837D01*
X146089392Y-61922178D01*
X145977822Y-61810608D01*
X145890163Y-61679416D01*
X145877201Y-61648123D01*
X145829781Y-61533642D01*
X145799000Y-61378893D01*
X145799000Y-61221107D01*
X145829781Y-61066358D01*
X145890162Y-60920586D01*
X145890163Y-60920584D01*
X145977822Y-60789392D01*
X146089392Y-60677822D01*
X146220584Y-60590163D01*
X146220586Y-60590162D01*
X146366358Y-60529781D01*
X146521107Y-60499000D01*
X146678893Y-60499000D01*
X146833642Y-60529781D01*
G37*
G36*
X111233642Y-60429781D02*
G01*
X111379414Y-60490162D01*
X111379416Y-60490163D01*
X111510608Y-60577822D01*
X111622178Y-60689392D01*
X111688995Y-60789392D01*
X111709838Y-60820586D01*
X111770219Y-60966358D01*
X111801000Y-61121107D01*
X111801000Y-61278893D01*
X111770219Y-61433642D01*
X111712897Y-61572029D01*
X111709837Y-61579416D01*
X111622178Y-61710608D01*
X111510608Y-61822178D01*
X111379416Y-61909837D01*
X111379415Y-61909838D01*
X111379414Y-61909838D01*
X111233642Y-61970219D01*
X111078893Y-62001000D01*
X110921107Y-62001000D01*
X110766358Y-61970219D01*
X110620586Y-61909838D01*
X110620585Y-61909838D01*
X110620584Y-61909837D01*
X110489392Y-61822178D01*
X110377822Y-61710608D01*
X110290163Y-61579416D01*
X110287103Y-61572029D01*
X110229781Y-61433642D01*
X110199000Y-61278893D01*
X110199000Y-61121107D01*
X110229781Y-60966358D01*
X110290162Y-60820586D01*
X110311005Y-60789392D01*
X110377822Y-60689392D01*
X110489392Y-60577822D01*
X110620584Y-60490163D01*
X110620586Y-60490162D01*
X110766358Y-60429781D01*
X110921107Y-60399000D01*
X111078893Y-60399000D01*
X111233642Y-60429781D01*
G37*
G36*
X109133642Y-60429781D02*
G01*
X109279414Y-60490162D01*
X109279416Y-60490163D01*
X109410608Y-60577822D01*
X109522178Y-60689392D01*
X109588995Y-60789392D01*
X109609838Y-60820586D01*
X109670219Y-60966358D01*
X109701000Y-61121107D01*
X109701000Y-61278893D01*
X109670219Y-61433642D01*
X109612897Y-61572029D01*
X109609837Y-61579416D01*
X109522178Y-61710608D01*
X109410608Y-61822178D01*
X109279416Y-61909837D01*
X109279415Y-61909838D01*
X109279414Y-61909838D01*
X109133642Y-61970219D01*
X108978893Y-62001000D01*
X108821107Y-62001000D01*
X108666358Y-61970219D01*
X108520586Y-61909838D01*
X108520585Y-61909838D01*
X108520584Y-61909837D01*
X108389392Y-61822178D01*
X108277822Y-61710608D01*
X108190163Y-61579416D01*
X108187103Y-61572029D01*
X108129781Y-61433642D01*
X108099000Y-61278893D01*
X108099000Y-61121107D01*
X108129781Y-60966358D01*
X108190162Y-60820586D01*
X108211005Y-60789392D01*
X108277822Y-60689392D01*
X108389392Y-60577822D01*
X108520584Y-60490163D01*
X108520586Y-60490162D01*
X108666358Y-60429781D01*
X108821107Y-60399000D01*
X108978893Y-60399000D01*
X109133642Y-60429781D01*
G37*
G36*
X145041938Y-61231716D02*
G01*
X145062557Y-61237971D01*
X145081553Y-61248124D01*
X145098208Y-61261792D01*
X145111876Y-61278447D01*
X145122029Y-61297443D01*
X145128284Y-61318062D01*
X145131000Y-61345640D01*
X145131000Y-61854360D01*
X145128284Y-61881938D01*
X145122029Y-61902557D01*
X145111876Y-61921553D01*
X145098208Y-61938208D01*
X145081553Y-61951876D01*
X145062557Y-61962029D01*
X145041938Y-61968284D01*
X145014360Y-61971000D01*
X144555640Y-61971000D01*
X144528062Y-61968284D01*
X144507443Y-61962029D01*
X144488447Y-61951876D01*
X144471792Y-61938208D01*
X144458124Y-61921553D01*
X144447971Y-61902557D01*
X144441716Y-61881938D01*
X144439000Y-61854360D01*
X144439000Y-61345640D01*
X144441716Y-61318062D01*
X144447971Y-61297443D01*
X144458124Y-61278447D01*
X144471792Y-61261792D01*
X144488447Y-61248124D01*
X144507443Y-61237971D01*
X144528062Y-61231716D01*
X144555640Y-61229000D01*
X145014360Y-61229000D01*
X145041938Y-61231716D01*
G37*
G36*
X144071938Y-61231716D02*
G01*
X144092557Y-61237971D01*
X144111553Y-61248124D01*
X144128208Y-61261792D01*
X144141876Y-61278447D01*
X144152029Y-61297443D01*
X144158284Y-61318062D01*
X144161000Y-61345640D01*
X144161000Y-61854360D01*
X144158284Y-61881938D01*
X144152029Y-61902557D01*
X144141876Y-61921553D01*
X144128208Y-61938208D01*
X144111553Y-61951876D01*
X144092557Y-61962029D01*
X144071938Y-61968284D01*
X144044360Y-61971000D01*
X143585640Y-61971000D01*
X143558062Y-61968284D01*
X143537443Y-61962029D01*
X143518447Y-61951876D01*
X143501792Y-61938208D01*
X143488124Y-61921553D01*
X143477971Y-61902557D01*
X143471716Y-61881938D01*
X143469000Y-61854360D01*
X143469000Y-61345640D01*
X143471716Y-61318062D01*
X143477971Y-61297443D01*
X143488124Y-61278447D01*
X143501792Y-61261792D01*
X143518447Y-61248124D01*
X143537443Y-61237971D01*
X143558062Y-61231716D01*
X143585640Y-61229000D01*
X144044360Y-61229000D01*
X144071938Y-61231716D01*
G37*
G36*
X157301000Y-61751000D02*
G01*
X155899000Y-61751000D01*
X155899000Y-59999000D01*
X157301000Y-59999000D01*
X157301000Y-61751000D01*
G37*
G36*
X132781938Y-60891716D02*
G01*
X132802557Y-60897971D01*
X132821553Y-60908124D01*
X132838208Y-60921792D01*
X132851876Y-60938447D01*
X132862029Y-60957443D01*
X132868284Y-60978062D01*
X132871000Y-61005640D01*
X132871000Y-61464360D01*
X132868284Y-61491938D01*
X132862029Y-61512557D01*
X132851876Y-61531553D01*
X132838208Y-61548208D01*
X132821553Y-61561876D01*
X132802557Y-61572029D01*
X132781938Y-61578284D01*
X132754360Y-61581000D01*
X132245640Y-61581000D01*
X132218062Y-61578284D01*
X132197443Y-61572029D01*
X132178447Y-61561876D01*
X132161792Y-61548208D01*
X132148124Y-61531553D01*
X132137971Y-61512557D01*
X132131716Y-61491938D01*
X132129000Y-61464360D01*
X132129000Y-61005640D01*
X132131716Y-60978062D01*
X132137971Y-60957443D01*
X132148124Y-60938447D01*
X132161792Y-60921792D01*
X132178447Y-60908124D01*
X132197443Y-60897971D01*
X132218062Y-60891716D01*
X132245640Y-60889000D01*
X132754360Y-60889000D01*
X132781938Y-60891716D01*
G37*
G36*
X102216242Y-60153404D02*
G01*
X102253337Y-60164657D01*
X102287515Y-60182925D01*
X102317481Y-60207519D01*
X102342075Y-60237485D01*
X102360343Y-60271663D01*
X102371596Y-60308758D01*
X102376000Y-60353474D01*
X102376000Y-61246526D01*
X102371596Y-61291242D01*
X102360343Y-61328337D01*
X102342075Y-61362515D01*
X102317481Y-61392481D01*
X102287515Y-61417075D01*
X102253337Y-61435343D01*
X102216242Y-61446596D01*
X102171526Y-61451000D01*
X100678474Y-61451000D01*
X100633758Y-61446596D01*
X100596663Y-61435343D01*
X100562485Y-61417075D01*
X100532519Y-61392481D01*
X100507925Y-61362515D01*
X100489657Y-61328337D01*
X100478404Y-61291242D01*
X100474000Y-61246526D01*
X100474000Y-60353474D01*
X100478404Y-60308758D01*
X100489657Y-60271663D01*
X100507925Y-60237485D01*
X100532519Y-60207519D01*
X100562485Y-60182925D01*
X100596663Y-60164657D01*
X100633758Y-60153404D01*
X100678474Y-60149000D01*
X102171526Y-60149000D01*
X102216242Y-60153404D01*
G37*
G36*
X134301000Y-61401000D02*
G01*
X133299000Y-61401000D01*
X133299000Y-59599000D01*
X134301000Y-59599000D01*
X134301000Y-61401000D01*
G37*
G36*
X125901000Y-61401000D02*
G01*
X124899000Y-61401000D01*
X124899000Y-59599000D01*
X125901000Y-59599000D01*
X125901000Y-61401000D01*
G37*
G36*
X137701000Y-61401000D02*
G01*
X136699000Y-61401000D01*
X136699000Y-59599000D01*
X137701000Y-59599000D01*
X137701000Y-61401000D01*
G37*
G36*
X122501000Y-61401000D02*
G01*
X121499000Y-61401000D01*
X121499000Y-59599000D01*
X122501000Y-59599000D01*
X122501000Y-61401000D01*
G37*
G36*
X151641938Y-60331716D02*
G01*
X151662557Y-60337971D01*
X151681553Y-60348124D01*
X151698208Y-60361792D01*
X151711876Y-60378447D01*
X151722029Y-60397443D01*
X151728284Y-60418062D01*
X151731000Y-60445640D01*
X151731000Y-60954360D01*
X151728284Y-60981938D01*
X151722029Y-61002557D01*
X151711876Y-61021553D01*
X151698208Y-61038208D01*
X151681553Y-61051876D01*
X151662557Y-61062029D01*
X151641938Y-61068284D01*
X151614360Y-61071000D01*
X151155640Y-61071000D01*
X151128062Y-61068284D01*
X151107443Y-61062029D01*
X151088447Y-61051876D01*
X151071792Y-61038208D01*
X151058124Y-61021553D01*
X151047971Y-61002557D01*
X151041716Y-60981938D01*
X151039000Y-60954360D01*
X151039000Y-60445640D01*
X151041716Y-60418062D01*
X151047971Y-60397443D01*
X151058124Y-60378447D01*
X151071792Y-60361792D01*
X151088447Y-60348124D01*
X151107443Y-60337971D01*
X151128062Y-60331716D01*
X151155640Y-60329000D01*
X151614360Y-60329000D01*
X151641938Y-60331716D01*
G37*
G36*
X150671938Y-60331716D02*
G01*
X150692557Y-60337971D01*
X150711553Y-60348124D01*
X150728208Y-60361792D01*
X150741876Y-60378447D01*
X150752029Y-60397443D01*
X150758284Y-60418062D01*
X150761000Y-60445640D01*
X150761000Y-60954360D01*
X150758284Y-60981938D01*
X150752029Y-61002557D01*
X150741876Y-61021553D01*
X150728208Y-61038208D01*
X150711553Y-61051876D01*
X150692557Y-61062029D01*
X150671938Y-61068284D01*
X150644360Y-61071000D01*
X150185640Y-61071000D01*
X150158062Y-61068284D01*
X150137443Y-61062029D01*
X150118447Y-61051876D01*
X150101792Y-61038208D01*
X150088124Y-61021553D01*
X150077971Y-61002557D01*
X150071716Y-60981938D01*
X150069000Y-60954360D01*
X150069000Y-60445640D01*
X150071716Y-60418062D01*
X150077971Y-60397443D01*
X150088124Y-60378447D01*
X150101792Y-60361792D01*
X150118447Y-60348124D01*
X150137443Y-60337971D01*
X150158062Y-60331716D01*
X150185640Y-60329000D01*
X150644360Y-60329000D01*
X150671938Y-60331716D01*
G37*
G36*
X129941938Y-60331716D02*
G01*
X129962557Y-60337971D01*
X129981553Y-60348124D01*
X129998208Y-60361792D01*
X130011876Y-60378447D01*
X130022029Y-60397443D01*
X130028284Y-60418062D01*
X130031000Y-60445640D01*
X130031000Y-60954360D01*
X130028284Y-60981938D01*
X130022029Y-61002557D01*
X130011876Y-61021553D01*
X129998208Y-61038208D01*
X129981553Y-61051876D01*
X129962557Y-61062029D01*
X129941938Y-61068284D01*
X129914360Y-61071000D01*
X129455640Y-61071000D01*
X129428062Y-61068284D01*
X129407443Y-61062029D01*
X129388447Y-61051876D01*
X129371792Y-61038208D01*
X129358124Y-61021553D01*
X129347971Y-61002557D01*
X129341716Y-60981938D01*
X129339000Y-60954360D01*
X129339000Y-60445640D01*
X129341716Y-60418062D01*
X129347971Y-60397443D01*
X129358124Y-60378447D01*
X129371792Y-60361792D01*
X129388447Y-60348124D01*
X129407443Y-60337971D01*
X129428062Y-60331716D01*
X129455640Y-60329000D01*
X129914360Y-60329000D01*
X129941938Y-60331716D01*
G37*
G36*
X128971938Y-60331716D02*
G01*
X128992557Y-60337971D01*
X129011553Y-60348124D01*
X129028208Y-60361792D01*
X129041876Y-60378447D01*
X129052029Y-60397443D01*
X129058284Y-60418062D01*
X129061000Y-60445640D01*
X129061000Y-60954360D01*
X129058284Y-60981938D01*
X129052029Y-61002557D01*
X129041876Y-61021553D01*
X129028208Y-61038208D01*
X129011553Y-61051876D01*
X128992557Y-61062029D01*
X128971938Y-61068284D01*
X128944360Y-61071000D01*
X128485640Y-61071000D01*
X128458062Y-61068284D01*
X128437443Y-61062029D01*
X128418447Y-61051876D01*
X128401792Y-61038208D01*
X128388124Y-61021553D01*
X128377971Y-61002557D01*
X128371716Y-60981938D01*
X128369000Y-60954360D01*
X128369000Y-60445640D01*
X128371716Y-60418062D01*
X128377971Y-60397443D01*
X128388124Y-60378447D01*
X128401792Y-60361792D01*
X128418447Y-60348124D01*
X128437443Y-60337971D01*
X128458062Y-60331716D01*
X128485640Y-60329000D01*
X128944360Y-60329000D01*
X128971938Y-60331716D01*
G37*
G36*
X139641938Y-60231716D02*
G01*
X139662557Y-60237971D01*
X139681553Y-60248124D01*
X139698208Y-60261792D01*
X139711876Y-60278447D01*
X139722029Y-60297443D01*
X139728284Y-60318062D01*
X139731000Y-60345640D01*
X139731000Y-60854360D01*
X139728284Y-60881938D01*
X139722029Y-60902557D01*
X139711876Y-60921553D01*
X139698208Y-60938208D01*
X139681553Y-60951876D01*
X139662557Y-60962029D01*
X139641938Y-60968284D01*
X139614360Y-60971000D01*
X139155640Y-60971000D01*
X139128062Y-60968284D01*
X139107443Y-60962029D01*
X139088447Y-60951876D01*
X139071792Y-60938208D01*
X139058124Y-60921553D01*
X139047971Y-60902557D01*
X139041716Y-60881938D01*
X139039000Y-60854360D01*
X139039000Y-60345640D01*
X139041716Y-60318062D01*
X139047971Y-60297443D01*
X139058124Y-60278447D01*
X139071792Y-60261792D01*
X139088447Y-60248124D01*
X139107443Y-60237971D01*
X139128062Y-60231716D01*
X139155640Y-60229000D01*
X139614360Y-60229000D01*
X139641938Y-60231716D01*
G37*
G36*
X138671938Y-60231716D02*
G01*
X138692557Y-60237971D01*
X138711553Y-60248124D01*
X138728208Y-60261792D01*
X138741876Y-60278447D01*
X138752029Y-60297443D01*
X138758284Y-60318062D01*
X138761000Y-60345640D01*
X138761000Y-60854360D01*
X138758284Y-60881938D01*
X138752029Y-60902557D01*
X138741876Y-60921553D01*
X138728208Y-60938208D01*
X138711553Y-60951876D01*
X138692557Y-60962029D01*
X138671938Y-60968284D01*
X138644360Y-60971000D01*
X138185640Y-60971000D01*
X138158062Y-60968284D01*
X138137443Y-60962029D01*
X138118447Y-60951876D01*
X138101792Y-60938208D01*
X138088124Y-60921553D01*
X138077971Y-60902557D01*
X138071716Y-60881938D01*
X138069000Y-60854360D01*
X138069000Y-60345640D01*
X138071716Y-60318062D01*
X138077971Y-60297443D01*
X138088124Y-60278447D01*
X138101792Y-60261792D01*
X138118447Y-60248124D01*
X138137443Y-60237971D01*
X138158062Y-60231716D01*
X138185640Y-60229000D01*
X138644360Y-60229000D01*
X138671938Y-60231716D01*
G37*
G36*
X154851000Y-55776000D02*
G01*
X154805999Y-55776000D01*
X154781613Y-55778402D01*
X154758164Y-55785515D01*
X154736553Y-55797066D01*
X154717611Y-55812611D01*
X154702066Y-55831553D01*
X154690515Y-55853164D01*
X154683402Y-55876613D01*
X154681000Y-55900999D01*
X154681000Y-59099001D01*
X154683402Y-59123387D01*
X154690515Y-59146836D01*
X154702066Y-59168447D01*
X154717611Y-59187389D01*
X154736553Y-59202934D01*
X154758164Y-59214485D01*
X154781613Y-59221598D01*
X154805999Y-59224000D01*
X154851000Y-59224000D01*
X154851000Y-60751000D01*
X153199000Y-60751000D01*
X153199000Y-54249000D01*
X154851000Y-54249000D01*
X154851000Y-55776000D01*
G37*
G36*
X132781938Y-59921716D02*
G01*
X132802557Y-59927971D01*
X132821553Y-59938124D01*
X132838208Y-59951792D01*
X132851876Y-59968447D01*
X132862029Y-59987443D01*
X132868284Y-60008062D01*
X132871000Y-60035640D01*
X132871000Y-60494360D01*
X132868284Y-60521938D01*
X132862029Y-60542557D01*
X132851876Y-60561553D01*
X132838208Y-60578208D01*
X132821553Y-60591876D01*
X132802557Y-60602029D01*
X132781938Y-60608284D01*
X132754360Y-60611000D01*
X132245640Y-60611000D01*
X132218062Y-60608284D01*
X132197443Y-60602029D01*
X132178447Y-60591876D01*
X132161792Y-60578208D01*
X132148124Y-60561553D01*
X132137971Y-60542557D01*
X132131716Y-60521938D01*
X132129000Y-60494360D01*
X132129000Y-60035640D01*
X132131716Y-60008062D01*
X132137971Y-59987443D01*
X132148124Y-59968447D01*
X132161792Y-59951792D01*
X132178447Y-59938124D01*
X132197443Y-59927971D01*
X132218062Y-59921716D01*
X132245640Y-59919000D01*
X132754360Y-59919000D01*
X132781938Y-59921716D01*
G37*
G36*
X151641938Y-59231716D02*
G01*
X151662557Y-59237971D01*
X151681553Y-59248124D01*
X151698208Y-59261792D01*
X151711876Y-59278447D01*
X151722029Y-59297443D01*
X151728284Y-59318062D01*
X151731000Y-59345640D01*
X151731000Y-59854360D01*
X151728284Y-59881938D01*
X151722029Y-59902557D01*
X151711876Y-59921553D01*
X151698208Y-59938208D01*
X151681553Y-59951876D01*
X151662557Y-59962029D01*
X151641938Y-59968284D01*
X151614360Y-59971000D01*
X151155640Y-59971000D01*
X151128062Y-59968284D01*
X151107443Y-59962029D01*
X151088447Y-59951876D01*
X151071792Y-59938208D01*
X151058124Y-59921553D01*
X151047971Y-59902557D01*
X151041716Y-59881938D01*
X151039000Y-59854360D01*
X151039000Y-59345640D01*
X151041716Y-59318062D01*
X151047971Y-59297443D01*
X151058124Y-59278447D01*
X151071792Y-59261792D01*
X151088447Y-59248124D01*
X151107443Y-59237971D01*
X151128062Y-59231716D01*
X151155640Y-59229000D01*
X151614360Y-59229000D01*
X151641938Y-59231716D01*
G37*
G36*
X150671938Y-59231716D02*
G01*
X150692557Y-59237971D01*
X150711553Y-59248124D01*
X150728208Y-59261792D01*
X150741876Y-59278447D01*
X150752029Y-59297443D01*
X150758284Y-59318062D01*
X150761000Y-59345640D01*
X150761000Y-59854360D01*
X150758284Y-59881938D01*
X150752029Y-59902557D01*
X150741876Y-59921553D01*
X150728208Y-59938208D01*
X150711553Y-59951876D01*
X150692557Y-59962029D01*
X150671938Y-59968284D01*
X150644360Y-59971000D01*
X150185640Y-59971000D01*
X150158062Y-59968284D01*
X150137443Y-59962029D01*
X150118447Y-59951876D01*
X150101792Y-59938208D01*
X150088124Y-59921553D01*
X150077971Y-59902557D01*
X150071716Y-59881938D01*
X150069000Y-59854360D01*
X150069000Y-59345640D01*
X150071716Y-59318062D01*
X150077971Y-59297443D01*
X150088124Y-59278447D01*
X150101792Y-59261792D01*
X150118447Y-59248124D01*
X150137443Y-59237971D01*
X150158062Y-59231716D01*
X150185640Y-59229000D01*
X150644360Y-59229000D01*
X150671938Y-59231716D01*
G37*
G36*
X106034928Y-59151764D02*
G01*
X106056009Y-59158160D01*
X106075445Y-59168548D01*
X106092476Y-59182524D01*
X106106452Y-59199555D01*
X106116840Y-59218991D01*
X106123236Y-59240072D01*
X106126000Y-59268140D01*
X106126000Y-59731860D01*
X106123236Y-59759928D01*
X106116840Y-59781009D01*
X106106452Y-59800445D01*
X106092476Y-59817476D01*
X106075445Y-59831452D01*
X106056009Y-59841840D01*
X106034928Y-59848236D01*
X106006860Y-59851000D01*
X104593140Y-59851000D01*
X104565072Y-59848236D01*
X104543991Y-59841840D01*
X104524555Y-59831452D01*
X104507524Y-59817476D01*
X104493548Y-59800445D01*
X104483160Y-59781009D01*
X104476764Y-59759928D01*
X104474000Y-59731860D01*
X104474000Y-59268140D01*
X104476764Y-59240072D01*
X104483160Y-59218991D01*
X104493548Y-59199555D01*
X104507524Y-59182524D01*
X104524555Y-59168548D01*
X104543991Y-59158160D01*
X104565072Y-59151764D01*
X104593140Y-59149000D01*
X106006860Y-59149000D01*
X106034928Y-59151764D01*
G37*
G36*
X157601000Y-59601000D02*
G01*
X155599000Y-59601000D01*
X155599000Y-58499000D01*
X157601000Y-58499000D01*
X157601000Y-59601000D01*
G37*
G36*
X146833642Y-57829781D02*
G01*
X146979414Y-57890162D01*
X146979416Y-57890163D01*
X147110608Y-57977822D01*
X147222178Y-58089392D01*
X147309837Y-58220584D01*
X147309838Y-58220586D01*
X147370219Y-58366358D01*
X147401000Y-58521107D01*
X147401000Y-58678893D01*
X147370219Y-58833642D01*
X147309838Y-58979414D01*
X147309837Y-58979416D01*
X147222178Y-59110608D01*
X147110608Y-59222178D01*
X146979416Y-59309837D01*
X146979415Y-59309838D01*
X146979414Y-59309838D01*
X146833642Y-59370219D01*
X146678893Y-59401000D01*
X146521107Y-59401000D01*
X146366358Y-59370219D01*
X146220586Y-59309838D01*
X146220585Y-59309838D01*
X146220584Y-59309837D01*
X146089392Y-59222178D01*
X145977822Y-59110608D01*
X145890163Y-58979416D01*
X145890162Y-58979414D01*
X145829781Y-58833642D01*
X145799000Y-58678893D01*
X145799000Y-58521107D01*
X145829781Y-58366358D01*
X145890162Y-58220586D01*
X145890163Y-58220584D01*
X145977822Y-58089392D01*
X146089392Y-57977822D01*
X146220584Y-57890163D01*
X146220586Y-57890162D01*
X146366358Y-57829781D01*
X146521107Y-57799000D01*
X146678893Y-57799000D01*
X146833642Y-57829781D01*
G37*
G36*
X149133642Y-57729781D02*
G01*
X149279414Y-57790162D01*
X149279416Y-57790163D01*
X149410608Y-57877822D01*
X149522178Y-57989392D01*
X149549979Y-58031000D01*
X149609838Y-58120586D01*
X149670219Y-58266358D01*
X149701000Y-58421107D01*
X149701000Y-58578893D01*
X149670219Y-58733642D01*
X149609838Y-58879414D01*
X149609837Y-58879416D01*
X149522178Y-59010608D01*
X149410608Y-59122178D01*
X149279416Y-59209837D01*
X149279415Y-59209838D01*
X149279414Y-59209838D01*
X149133642Y-59270219D01*
X148978893Y-59301000D01*
X148821107Y-59301000D01*
X148666358Y-59270219D01*
X148520586Y-59209838D01*
X148520585Y-59209838D01*
X148520584Y-59209837D01*
X148389392Y-59122178D01*
X148277822Y-59010608D01*
X148190163Y-58879416D01*
X148190162Y-58879414D01*
X148129781Y-58733642D01*
X148099000Y-58578893D01*
X148099000Y-58421107D01*
X148129781Y-58266358D01*
X148190162Y-58120586D01*
X148250021Y-58031000D01*
X148277822Y-57989392D01*
X148389392Y-57877822D01*
X148520584Y-57790163D01*
X148520586Y-57790162D01*
X148666358Y-57729781D01*
X148821107Y-57699000D01*
X148978893Y-57699000D01*
X149133642Y-57729781D01*
G37*
G36*
X106034928Y-58151764D02*
G01*
X106056009Y-58158160D01*
X106075445Y-58168548D01*
X106092476Y-58182524D01*
X106106452Y-58199555D01*
X106116840Y-58218991D01*
X106123236Y-58240072D01*
X106126000Y-58268140D01*
X106126000Y-58731860D01*
X106123236Y-58759928D01*
X106116840Y-58781009D01*
X106106452Y-58800445D01*
X106092476Y-58817476D01*
X106075445Y-58831452D01*
X106056009Y-58841840D01*
X106034928Y-58848236D01*
X106006860Y-58851000D01*
X104593140Y-58851000D01*
X104565072Y-58848236D01*
X104543991Y-58841840D01*
X104524555Y-58831452D01*
X104507524Y-58817476D01*
X104493548Y-58800445D01*
X104483160Y-58781009D01*
X104476764Y-58759928D01*
X104474000Y-58731860D01*
X104474000Y-58268140D01*
X104476764Y-58240072D01*
X104483160Y-58218991D01*
X104493548Y-58199555D01*
X104507524Y-58182524D01*
X104524555Y-58168548D01*
X104543991Y-58158160D01*
X104565072Y-58151764D01*
X104593140Y-58149000D01*
X106006860Y-58149000D01*
X106034928Y-58151764D01*
G37*
G36*
X113081000Y-58031000D02*
G01*
X111919000Y-58031000D01*
X111919000Y-55569000D01*
X113081000Y-55569000D01*
X113081000Y-58031000D01*
G37*
G36*
X110881000Y-58031000D02*
G01*
X109719000Y-58031000D01*
X109719000Y-55569000D01*
X110881000Y-55569000D01*
X110881000Y-58031000D01*
G37*
G36*
X151941938Y-57231716D02*
G01*
X151962557Y-57237971D01*
X151981553Y-57248124D01*
X151998208Y-57261792D01*
X152011876Y-57278447D01*
X152022029Y-57297443D01*
X152028284Y-57318062D01*
X152031000Y-57345640D01*
X152031000Y-57854360D01*
X152028284Y-57881938D01*
X152022029Y-57902557D01*
X152011876Y-57921553D01*
X151998208Y-57938208D01*
X151981553Y-57951876D01*
X151962557Y-57962029D01*
X151941938Y-57968284D01*
X151914360Y-57971000D01*
X151455640Y-57971000D01*
X151428062Y-57968284D01*
X151407443Y-57962029D01*
X151388447Y-57951876D01*
X151371792Y-57938208D01*
X151358124Y-57921553D01*
X151347971Y-57902557D01*
X151341716Y-57881938D01*
X151339000Y-57854360D01*
X151339000Y-57345640D01*
X151341716Y-57318062D01*
X151347971Y-57297443D01*
X151358124Y-57278447D01*
X151371792Y-57261792D01*
X151388447Y-57248124D01*
X151407443Y-57237971D01*
X151428062Y-57231716D01*
X151455640Y-57229000D01*
X151914360Y-57229000D01*
X151941938Y-57231716D01*
G37*
G36*
X150971938Y-57231716D02*
G01*
X150992557Y-57237971D01*
X151011553Y-57248124D01*
X151028208Y-57261792D01*
X151041876Y-57278447D01*
X151052029Y-57297443D01*
X151058284Y-57318062D01*
X151061000Y-57345640D01*
X151061000Y-57854360D01*
X151058284Y-57881938D01*
X151052029Y-57902557D01*
X151041876Y-57921553D01*
X151028208Y-57938208D01*
X151011553Y-57951876D01*
X150992557Y-57962029D01*
X150971938Y-57968284D01*
X150944360Y-57971000D01*
X150485640Y-57971000D01*
X150458062Y-57968284D01*
X150437443Y-57962029D01*
X150418447Y-57951876D01*
X150401792Y-57938208D01*
X150388124Y-57921553D01*
X150377971Y-57902557D01*
X150371716Y-57881938D01*
X150369000Y-57854360D01*
X150369000Y-57345640D01*
X150371716Y-57318062D01*
X150377971Y-57297443D01*
X150388124Y-57278447D01*
X150401792Y-57261792D01*
X150418447Y-57248124D01*
X150437443Y-57237971D01*
X150458062Y-57231716D01*
X150485640Y-57229000D01*
X150944360Y-57229000D01*
X150971938Y-57231716D01*
G37*
G36*
X106034928Y-57151764D02*
G01*
X106056009Y-57158160D01*
X106075445Y-57168548D01*
X106092476Y-57182524D01*
X106106452Y-57199555D01*
X106116840Y-57218991D01*
X106123236Y-57240072D01*
X106126000Y-57268140D01*
X106126000Y-57731860D01*
X106123236Y-57759928D01*
X106116840Y-57781009D01*
X106106452Y-57800445D01*
X106092476Y-57817476D01*
X106075445Y-57831452D01*
X106056009Y-57841840D01*
X106034928Y-57848236D01*
X106006860Y-57851000D01*
X104593140Y-57851000D01*
X104565072Y-57848236D01*
X104543991Y-57841840D01*
X104524555Y-57831452D01*
X104507524Y-57817476D01*
X104493548Y-57800445D01*
X104483160Y-57781009D01*
X104476764Y-57759928D01*
X104474000Y-57731860D01*
X104474000Y-57268140D01*
X104476764Y-57240072D01*
X104483160Y-57218991D01*
X104493548Y-57199555D01*
X104507524Y-57182524D01*
X104524555Y-57168548D01*
X104543991Y-57158160D01*
X104565072Y-57151764D01*
X104593140Y-57149000D01*
X106006860Y-57149000D01*
X106034928Y-57151764D01*
G37*
G36*
X114081938Y-56941716D02*
G01*
X114102557Y-56947971D01*
X114121553Y-56958124D01*
X114138208Y-56971792D01*
X114151876Y-56988447D01*
X114162029Y-57007443D01*
X114168284Y-57028062D01*
X114171000Y-57055640D01*
X114171000Y-57514360D01*
X114168284Y-57541938D01*
X114162029Y-57562557D01*
X114151876Y-57581553D01*
X114138208Y-57598208D01*
X114121553Y-57611876D01*
X114102557Y-57622029D01*
X114081938Y-57628284D01*
X114054360Y-57631000D01*
X113545640Y-57631000D01*
X113518062Y-57628284D01*
X113497443Y-57622029D01*
X113478447Y-57611876D01*
X113461792Y-57598208D01*
X113448124Y-57581553D01*
X113437971Y-57562557D01*
X113431716Y-57541938D01*
X113429000Y-57514360D01*
X113429000Y-57055640D01*
X113431716Y-57028062D01*
X113437971Y-57007443D01*
X113448124Y-56988447D01*
X113461792Y-56971792D01*
X113478447Y-56958124D01*
X113497443Y-56947971D01*
X113518062Y-56941716D01*
X113545640Y-56939000D01*
X114054360Y-56939000D01*
X114081938Y-56941716D01*
G37*
G36*
X108681938Y-56941716D02*
G01*
X108702557Y-56947971D01*
X108721553Y-56958124D01*
X108738208Y-56971792D01*
X108751876Y-56988447D01*
X108762029Y-57007443D01*
X108768284Y-57028062D01*
X108771000Y-57055640D01*
X108771000Y-57514360D01*
X108768284Y-57541938D01*
X108762029Y-57562557D01*
X108751876Y-57581553D01*
X108738208Y-57598208D01*
X108721553Y-57611876D01*
X108702557Y-57622029D01*
X108681938Y-57628284D01*
X108654360Y-57631000D01*
X108145640Y-57631000D01*
X108118062Y-57628284D01*
X108097443Y-57622029D01*
X108078447Y-57611876D01*
X108061792Y-57598208D01*
X108048124Y-57581553D01*
X108037971Y-57562557D01*
X108031716Y-57541938D01*
X108029000Y-57514360D01*
X108029000Y-57055640D01*
X108031716Y-57028062D01*
X108037971Y-57007443D01*
X108048124Y-56988447D01*
X108061792Y-56971792D01*
X108078447Y-56958124D01*
X108097443Y-56947971D01*
X108118062Y-56941716D01*
X108145640Y-56939000D01*
X108654360Y-56939000D01*
X108681938Y-56941716D01*
G37*
G36*
X157601000Y-57301000D02*
G01*
X155599000Y-57301000D01*
X155599000Y-55399000D01*
X157601000Y-55399000D01*
X157601000Y-57301000D01*
G37*
G36*
X128237780Y-56178447D02*
G01*
X128299350Y-56190694D01*
X128398770Y-56231875D01*
X128488246Y-56291661D01*
X128564339Y-56367754D01*
X128624125Y-56457230D01*
X128665306Y-56556650D01*
X128665306Y-56556651D01*
X128686063Y-56661000D01*
X128686300Y-56662194D01*
X128686300Y-56769806D01*
X128665306Y-56875350D01*
X128624125Y-56974770D01*
X128564339Y-57064246D01*
X128488246Y-57140339D01*
X128398770Y-57200125D01*
X128299350Y-57241306D01*
X128246578Y-57251803D01*
X128193807Y-57262300D01*
X128086193Y-57262300D01*
X128033422Y-57251803D01*
X127980650Y-57241306D01*
X127881230Y-57200125D01*
X127791754Y-57140339D01*
X127715661Y-57064246D01*
X127655875Y-56974770D01*
X127614694Y-56875350D01*
X127593700Y-56769806D01*
X127593700Y-56662194D01*
X127593938Y-56661000D01*
X127614694Y-56556651D01*
X127614694Y-56556650D01*
X127655875Y-56457230D01*
X127715661Y-56367754D01*
X127791754Y-56291661D01*
X127881230Y-56231875D01*
X127980650Y-56190694D01*
X128042220Y-56178447D01*
X128086193Y-56169700D01*
X128193807Y-56169700D01*
X128237780Y-56178447D01*
G37*
G36*
X150971938Y-56131716D02*
G01*
X150992557Y-56137971D01*
X151011553Y-56148124D01*
X151028208Y-56161792D01*
X151041876Y-56178447D01*
X151052029Y-56197443D01*
X151058284Y-56218062D01*
X151061000Y-56245640D01*
X151061000Y-56754360D01*
X151058284Y-56781938D01*
X151052029Y-56802557D01*
X151041876Y-56821553D01*
X151028208Y-56838208D01*
X151011553Y-56851876D01*
X150992557Y-56862029D01*
X150971938Y-56868284D01*
X150944360Y-56871000D01*
X150485640Y-56871000D01*
X150458062Y-56868284D01*
X150437443Y-56862029D01*
X150418447Y-56851876D01*
X150401792Y-56838208D01*
X150388124Y-56821553D01*
X150377971Y-56802557D01*
X150371716Y-56781938D01*
X150369000Y-56754360D01*
X150369000Y-56245640D01*
X150371716Y-56218062D01*
X150377971Y-56197443D01*
X150388124Y-56178447D01*
X150401792Y-56161792D01*
X150418447Y-56148124D01*
X150437443Y-56137971D01*
X150458062Y-56131716D01*
X150485640Y-56129000D01*
X150944360Y-56129000D01*
X150971938Y-56131716D01*
G37*
G36*
X151941938Y-56131716D02*
G01*
X151962557Y-56137971D01*
X151981553Y-56148124D01*
X151998208Y-56161792D01*
X152011876Y-56178447D01*
X152022029Y-56197443D01*
X152028284Y-56218062D01*
X152031000Y-56245640D01*
X152031000Y-56754360D01*
X152028284Y-56781938D01*
X152022029Y-56802557D01*
X152011876Y-56821553D01*
X151998208Y-56838208D01*
X151981553Y-56851876D01*
X151962557Y-56862029D01*
X151941938Y-56868284D01*
X151914360Y-56871000D01*
X151455640Y-56871000D01*
X151428062Y-56868284D01*
X151407443Y-56862029D01*
X151388447Y-56851876D01*
X151371792Y-56838208D01*
X151358124Y-56821553D01*
X151347971Y-56802557D01*
X151341716Y-56781938D01*
X151339000Y-56754360D01*
X151339000Y-56245640D01*
X151341716Y-56218062D01*
X151347971Y-56197443D01*
X151358124Y-56178447D01*
X151371792Y-56161792D01*
X151388447Y-56148124D01*
X151407443Y-56137971D01*
X151428062Y-56131716D01*
X151455640Y-56129000D01*
X151914360Y-56129000D01*
X151941938Y-56131716D01*
G37*
G36*
X106034928Y-56151764D02*
G01*
X106056009Y-56158160D01*
X106075445Y-56168548D01*
X106092476Y-56182524D01*
X106106452Y-56199555D01*
X106116840Y-56218991D01*
X106123236Y-56240072D01*
X106126000Y-56268140D01*
X106126000Y-56731860D01*
X106123236Y-56759928D01*
X106116840Y-56781009D01*
X106106452Y-56800445D01*
X106092476Y-56817476D01*
X106075445Y-56831452D01*
X106056009Y-56841840D01*
X106034928Y-56848236D01*
X106006860Y-56851000D01*
X104593140Y-56851000D01*
X104565072Y-56848236D01*
X104543991Y-56841840D01*
X104524555Y-56831452D01*
X104507524Y-56817476D01*
X104493548Y-56800445D01*
X104483160Y-56781009D01*
X104476764Y-56759928D01*
X104474000Y-56731860D01*
X104474000Y-56268140D01*
X104476764Y-56240072D01*
X104483160Y-56218991D01*
X104493548Y-56199555D01*
X104507524Y-56182524D01*
X104524555Y-56168548D01*
X104543991Y-56158160D01*
X104565072Y-56151764D01*
X104593140Y-56149000D01*
X106006860Y-56149000D01*
X106034928Y-56151764D01*
G37*
G36*
X125729714Y-55907389D02*
G01*
X125810645Y-55940912D01*
X125883480Y-55989579D01*
X125945421Y-56051520D01*
X125994088Y-56124355D01*
X125994089Y-56124357D01*
X126027611Y-56205286D01*
X126044514Y-56290262D01*
X126044700Y-56291201D01*
X126044700Y-56378799D01*
X126027611Y-56464714D01*
X125994088Y-56545645D01*
X125945421Y-56618480D01*
X125883480Y-56680421D01*
X125810645Y-56729088D01*
X125810644Y-56729089D01*
X125810643Y-56729089D01*
X125729714Y-56762611D01*
X125643801Y-56779700D01*
X125556199Y-56779700D01*
X125470286Y-56762611D01*
X125389357Y-56729089D01*
X125389356Y-56729089D01*
X125389355Y-56729088D01*
X125316520Y-56680421D01*
X125254579Y-56618480D01*
X125205912Y-56545645D01*
X125172389Y-56464714D01*
X125155300Y-56378799D01*
X125155300Y-56291201D01*
X125155487Y-56290262D01*
X125172389Y-56205286D01*
X125205911Y-56124357D01*
X125205912Y-56124355D01*
X125254579Y-56051520D01*
X125316520Y-55989579D01*
X125389355Y-55940912D01*
X125470286Y-55907389D01*
X125556199Y-55890300D01*
X125643801Y-55890300D01*
X125729714Y-55907389D01*
G37*
G36*
X126999714Y-55907389D02*
G01*
X127080645Y-55940912D01*
X127153480Y-55989579D01*
X127215421Y-56051520D01*
X127264088Y-56124355D01*
X127264089Y-56124357D01*
X127297611Y-56205286D01*
X127314514Y-56290262D01*
X127314700Y-56291201D01*
X127314700Y-56378799D01*
X127297611Y-56464714D01*
X127264088Y-56545645D01*
X127215421Y-56618480D01*
X127153480Y-56680421D01*
X127080645Y-56729088D01*
X127080644Y-56729089D01*
X127080643Y-56729089D01*
X126999714Y-56762611D01*
X126913801Y-56779700D01*
X126826199Y-56779700D01*
X126740286Y-56762611D01*
X126659357Y-56729089D01*
X126659356Y-56729089D01*
X126659355Y-56729088D01*
X126586520Y-56680421D01*
X126524579Y-56618480D01*
X126475912Y-56545645D01*
X126442389Y-56464714D01*
X126425300Y-56378799D01*
X126425300Y-56291201D01*
X126425487Y-56290262D01*
X126442389Y-56205286D01*
X126475911Y-56124357D01*
X126475912Y-56124355D01*
X126524579Y-56051520D01*
X126586520Y-55989579D01*
X126659355Y-55940912D01*
X126740286Y-55907389D01*
X126826199Y-55890300D01*
X126913801Y-55890300D01*
X126999714Y-55907389D01*
G37*
G36*
X124459714Y-55907389D02*
G01*
X124540645Y-55940912D01*
X124613480Y-55989579D01*
X124675421Y-56051520D01*
X124724088Y-56124355D01*
X124724089Y-56124357D01*
X124757611Y-56205286D01*
X124774514Y-56290262D01*
X124774700Y-56291201D01*
X124774700Y-56378799D01*
X124757611Y-56464714D01*
X124724088Y-56545645D01*
X124675421Y-56618480D01*
X124613480Y-56680421D01*
X124540645Y-56729088D01*
X124540644Y-56729089D01*
X124540643Y-56729089D01*
X124459714Y-56762611D01*
X124373801Y-56779700D01*
X124286199Y-56779700D01*
X124200286Y-56762611D01*
X124119357Y-56729089D01*
X124119356Y-56729089D01*
X124119355Y-56729088D01*
X124046520Y-56680421D01*
X123984579Y-56618480D01*
X123935912Y-56545645D01*
X123902389Y-56464714D01*
X123885300Y-56378799D01*
X123885300Y-56291201D01*
X123885487Y-56290262D01*
X123902389Y-56205286D01*
X123935911Y-56124357D01*
X123935912Y-56124355D01*
X123984579Y-56051520D01*
X124046520Y-55989579D01*
X124119355Y-55940912D01*
X124200286Y-55907389D01*
X124286199Y-55890300D01*
X124373801Y-55890300D01*
X124459714Y-55907389D01*
G37*
G36*
X108681938Y-55971716D02*
G01*
X108702557Y-55977971D01*
X108721553Y-55988124D01*
X108738208Y-56001792D01*
X108751876Y-56018447D01*
X108762029Y-56037443D01*
X108768284Y-56058062D01*
X108771000Y-56085640D01*
X108771000Y-56544360D01*
X108768284Y-56571938D01*
X108762029Y-56592557D01*
X108751876Y-56611553D01*
X108738208Y-56628208D01*
X108721553Y-56641876D01*
X108702557Y-56652029D01*
X108681938Y-56658284D01*
X108654360Y-56661000D01*
X108145640Y-56661000D01*
X108118062Y-56658284D01*
X108097443Y-56652029D01*
X108078447Y-56641876D01*
X108061792Y-56628208D01*
X108048124Y-56611553D01*
X108037971Y-56592557D01*
X108031716Y-56571938D01*
X108029000Y-56544360D01*
X108029000Y-56085640D01*
X108031716Y-56058062D01*
X108037971Y-56037443D01*
X108048124Y-56018447D01*
X108061792Y-56001792D01*
X108078447Y-55988124D01*
X108097443Y-55977971D01*
X108118062Y-55971716D01*
X108145640Y-55969000D01*
X108654360Y-55969000D01*
X108681938Y-55971716D01*
G37*
G36*
X114081938Y-55971716D02*
G01*
X114102557Y-55977971D01*
X114121553Y-55988124D01*
X114138208Y-56001792D01*
X114151876Y-56018447D01*
X114162029Y-56037443D01*
X114168284Y-56058062D01*
X114171000Y-56085640D01*
X114171000Y-56544360D01*
X114168284Y-56571938D01*
X114162029Y-56592557D01*
X114151876Y-56611553D01*
X114138208Y-56628208D01*
X114121553Y-56641876D01*
X114102557Y-56652029D01*
X114081938Y-56658284D01*
X114054360Y-56661000D01*
X113545640Y-56661000D01*
X113518062Y-56658284D01*
X113497443Y-56652029D01*
X113478447Y-56641876D01*
X113461792Y-56628208D01*
X113448124Y-56611553D01*
X113437971Y-56592557D01*
X113431716Y-56571938D01*
X113429000Y-56544360D01*
X113429000Y-56085640D01*
X113431716Y-56058062D01*
X113437971Y-56037443D01*
X113448124Y-56018447D01*
X113461792Y-56001792D01*
X113478447Y-55988124D01*
X113497443Y-55977971D01*
X113518062Y-55971716D01*
X113545640Y-55969000D01*
X114054360Y-55969000D01*
X114081938Y-55971716D01*
G37*
G36*
X123166578Y-55164197D02*
G01*
X123219350Y-55174694D01*
X123318770Y-55215875D01*
X123408246Y-55275661D01*
X123484339Y-55351754D01*
X123544125Y-55441230D01*
X123585306Y-55540650D01*
X123606300Y-55646194D01*
X123606300Y-55753806D01*
X123585306Y-55859350D01*
X123544125Y-55958770D01*
X123484339Y-56048246D01*
X123408246Y-56124339D01*
X123318770Y-56184125D01*
X123219350Y-56225306D01*
X123186325Y-56231875D01*
X123113807Y-56246300D01*
X123006193Y-56246300D01*
X122933675Y-56231875D01*
X122900650Y-56225306D01*
X122801230Y-56184125D01*
X122711754Y-56124339D01*
X122635661Y-56048246D01*
X122575875Y-55958770D01*
X122534694Y-55859350D01*
X122513700Y-55753806D01*
X122513700Y-55646194D01*
X122534694Y-55540650D01*
X122575875Y-55441230D01*
X122635661Y-55351754D01*
X122711754Y-55275661D01*
X122801230Y-55215875D01*
X122900650Y-55174694D01*
X122953422Y-55164197D01*
X123006193Y-55153700D01*
X123113807Y-55153700D01*
X123166578Y-55164197D01*
G37*
G36*
X102216242Y-54553404D02*
G01*
X102253337Y-54564657D01*
X102287515Y-54582925D01*
X102317481Y-54607519D01*
X102342075Y-54637485D01*
X102360343Y-54671663D01*
X102371596Y-54708758D01*
X102376000Y-54753474D01*
X102376000Y-55646526D01*
X102371596Y-55691242D01*
X102360343Y-55728337D01*
X102342075Y-55762515D01*
X102317481Y-55792481D01*
X102287515Y-55817075D01*
X102253337Y-55835343D01*
X102216242Y-55846596D01*
X102171526Y-55851000D01*
X100678474Y-55851000D01*
X100633758Y-55846596D01*
X100596663Y-55835343D01*
X100562485Y-55817075D01*
X100532519Y-55792481D01*
X100507925Y-55762515D01*
X100489657Y-55728337D01*
X100478404Y-55691242D01*
X100474000Y-55646526D01*
X100474000Y-54753474D01*
X100478404Y-54708758D01*
X100489657Y-54671663D01*
X100507925Y-54637485D01*
X100532519Y-54607519D01*
X100562485Y-54582925D01*
X100596663Y-54564657D01*
X100633758Y-54553404D01*
X100678474Y-54549000D01*
X102171526Y-54549000D01*
X102216242Y-54553404D01*
G37*
G36*
X151933642Y-54029781D02*
G01*
X152079414Y-54090162D01*
X152079416Y-54090163D01*
X152210608Y-54177822D01*
X152322178Y-54289392D01*
X152409837Y-54420584D01*
X152409838Y-54420586D01*
X152470219Y-54566358D01*
X152501000Y-54721107D01*
X152501000Y-54878893D01*
X152470219Y-55033642D01*
X152439087Y-55108801D01*
X152409837Y-55179416D01*
X152322178Y-55310608D01*
X152210608Y-55422178D01*
X152079416Y-55509837D01*
X152079415Y-55509838D01*
X152079414Y-55509838D01*
X151933642Y-55570219D01*
X151778893Y-55601000D01*
X151621107Y-55601000D01*
X151466358Y-55570219D01*
X151320586Y-55509838D01*
X151320585Y-55509838D01*
X151320584Y-55509837D01*
X151189392Y-55422178D01*
X151077822Y-55310608D01*
X150990163Y-55179416D01*
X150960913Y-55108801D01*
X150929781Y-55033642D01*
X150899000Y-54878893D01*
X150899000Y-54721107D01*
X150929781Y-54566358D01*
X150990162Y-54420586D01*
X150990163Y-54420584D01*
X151077822Y-54289392D01*
X151189392Y-54177822D01*
X151320584Y-54090163D01*
X151320586Y-54090162D01*
X151466358Y-54029781D01*
X151621107Y-53999000D01*
X151778893Y-53999000D01*
X151933642Y-54029781D01*
G37*
G36*
X149281938Y-54906716D02*
G01*
X149302557Y-54912971D01*
X149321553Y-54923124D01*
X149338208Y-54936792D01*
X149351876Y-54953447D01*
X149362029Y-54972443D01*
X149368284Y-54993062D01*
X149371000Y-55020640D01*
X149371000Y-55479360D01*
X149368284Y-55506938D01*
X149362029Y-55527557D01*
X149351876Y-55546553D01*
X149338208Y-55563208D01*
X149321553Y-55576876D01*
X149302557Y-55587029D01*
X149281938Y-55593284D01*
X149254360Y-55596000D01*
X148745640Y-55596000D01*
X148718062Y-55593284D01*
X148697443Y-55587029D01*
X148678447Y-55576876D01*
X148661792Y-55563208D01*
X148648124Y-55546553D01*
X148637971Y-55527557D01*
X148631716Y-55506938D01*
X148629000Y-55479360D01*
X148629000Y-55020640D01*
X148631716Y-54993062D01*
X148637971Y-54972443D01*
X148648124Y-54953447D01*
X148661792Y-54936792D01*
X148678447Y-54923124D01*
X148697443Y-54912971D01*
X148718062Y-54906716D01*
X148745640Y-54904000D01*
X149254360Y-54904000D01*
X149281938Y-54906716D01*
G37*
G36*
X134531938Y-54906716D02*
G01*
X134552557Y-54912971D01*
X134571553Y-54923124D01*
X134588208Y-54936792D01*
X134601876Y-54953447D01*
X134612029Y-54972443D01*
X134618284Y-54993062D01*
X134621000Y-55020640D01*
X134621000Y-55479360D01*
X134618284Y-55506938D01*
X134612029Y-55527557D01*
X134601876Y-55546553D01*
X134588208Y-55563208D01*
X134571553Y-55576876D01*
X134552557Y-55587029D01*
X134531938Y-55593284D01*
X134504360Y-55596000D01*
X133995640Y-55596000D01*
X133968062Y-55593284D01*
X133947443Y-55587029D01*
X133928447Y-55576876D01*
X133911792Y-55563208D01*
X133898124Y-55546553D01*
X133887971Y-55527557D01*
X133881716Y-55506938D01*
X133879000Y-55479360D01*
X133879000Y-55020640D01*
X133881716Y-54993062D01*
X133887971Y-54972443D01*
X133898124Y-54953447D01*
X133911792Y-54936792D01*
X133928447Y-54923124D01*
X133947443Y-54912971D01*
X133968062Y-54906716D01*
X133995640Y-54904000D01*
X134504360Y-54904000D01*
X134531938Y-54906716D01*
G37*
G36*
X147031938Y-54891716D02*
G01*
X147052557Y-54897971D01*
X147071553Y-54908124D01*
X147088208Y-54921792D01*
X147101876Y-54938447D01*
X147112029Y-54957443D01*
X147118284Y-54978062D01*
X147121000Y-55005640D01*
X147121000Y-55464360D01*
X147118284Y-55491938D01*
X147112029Y-55512557D01*
X147101876Y-55531553D01*
X147088208Y-55548208D01*
X147071553Y-55561876D01*
X147052557Y-55572029D01*
X147031938Y-55578284D01*
X147004360Y-55581000D01*
X146495640Y-55581000D01*
X146468062Y-55578284D01*
X146447443Y-55572029D01*
X146428447Y-55561876D01*
X146411792Y-55548208D01*
X146398124Y-55531553D01*
X146387971Y-55512557D01*
X146381716Y-55491938D01*
X146379000Y-55464360D01*
X146379000Y-55005640D01*
X146381716Y-54978062D01*
X146387971Y-54957443D01*
X146398124Y-54938447D01*
X146411792Y-54921792D01*
X146428447Y-54908124D01*
X146447443Y-54897971D01*
X146468062Y-54891716D01*
X146495640Y-54889000D01*
X147004360Y-54889000D01*
X147031938Y-54891716D01*
G37*
G36*
X150281938Y-54891716D02*
G01*
X150302557Y-54897971D01*
X150321553Y-54908124D01*
X150338208Y-54921792D01*
X150351876Y-54938447D01*
X150362029Y-54957443D01*
X150368284Y-54978062D01*
X150371000Y-55005640D01*
X150371000Y-55464360D01*
X150368284Y-55491938D01*
X150362029Y-55512557D01*
X150351876Y-55531553D01*
X150338208Y-55548208D01*
X150321553Y-55561876D01*
X150302557Y-55572029D01*
X150281938Y-55578284D01*
X150254360Y-55581000D01*
X149745640Y-55581000D01*
X149718062Y-55578284D01*
X149697443Y-55572029D01*
X149678447Y-55561876D01*
X149661792Y-55548208D01*
X149648124Y-55531553D01*
X149637971Y-55512557D01*
X149631716Y-55491938D01*
X149629000Y-55464360D01*
X149629000Y-55005640D01*
X149631716Y-54978062D01*
X149637971Y-54957443D01*
X149648124Y-54938447D01*
X149661792Y-54921792D01*
X149678447Y-54908124D01*
X149697443Y-54897971D01*
X149718062Y-54891716D01*
X149745640Y-54889000D01*
X150254360Y-54889000D01*
X150281938Y-54891716D01*
G37*
G36*
X148031938Y-54891716D02*
G01*
X148052557Y-54897971D01*
X148071553Y-54908124D01*
X148088208Y-54921792D01*
X148101876Y-54938447D01*
X148112029Y-54957443D01*
X148118284Y-54978062D01*
X148121000Y-55005640D01*
X148121000Y-55464360D01*
X148118284Y-55491938D01*
X148112029Y-55512557D01*
X148101876Y-55531553D01*
X148088208Y-55548208D01*
X148071553Y-55561876D01*
X148052557Y-55572029D01*
X148031938Y-55578284D01*
X148004360Y-55581000D01*
X147495640Y-55581000D01*
X147468062Y-55578284D01*
X147447443Y-55572029D01*
X147428447Y-55561876D01*
X147411792Y-55548208D01*
X147398124Y-55531553D01*
X147387971Y-55512557D01*
X147381716Y-55491938D01*
X147379000Y-55464360D01*
X147379000Y-55005640D01*
X147381716Y-54978062D01*
X147387971Y-54957443D01*
X147398124Y-54938447D01*
X147411792Y-54921792D01*
X147428447Y-54908124D01*
X147447443Y-54897971D01*
X147468062Y-54891716D01*
X147495640Y-54889000D01*
X148004360Y-54889000D01*
X148031938Y-54891716D01*
G37*
G36*
X135531938Y-54891716D02*
G01*
X135552557Y-54897971D01*
X135571553Y-54908124D01*
X135588208Y-54921792D01*
X135601876Y-54938447D01*
X135612029Y-54957443D01*
X135618284Y-54978062D01*
X135621000Y-55005640D01*
X135621000Y-55464360D01*
X135618284Y-55491938D01*
X135612029Y-55512557D01*
X135601876Y-55531553D01*
X135588208Y-55548208D01*
X135571553Y-55561876D01*
X135552557Y-55572029D01*
X135531938Y-55578284D01*
X135504360Y-55581000D01*
X134995640Y-55581000D01*
X134968062Y-55578284D01*
X134947443Y-55572029D01*
X134928447Y-55561876D01*
X134911792Y-55548208D01*
X134898124Y-55531553D01*
X134887971Y-55512557D01*
X134881716Y-55491938D01*
X134879000Y-55464360D01*
X134879000Y-55005640D01*
X134881716Y-54978062D01*
X134887971Y-54957443D01*
X134898124Y-54938447D01*
X134911792Y-54921792D01*
X134928447Y-54908124D01*
X134947443Y-54897971D01*
X134968062Y-54891716D01*
X134995640Y-54889000D01*
X135504360Y-54889000D01*
X135531938Y-54891716D01*
G37*
G36*
X144031938Y-54891716D02*
G01*
X144052557Y-54897971D01*
X144071553Y-54908124D01*
X144088208Y-54921792D01*
X144101876Y-54938447D01*
X144112029Y-54957443D01*
X144118284Y-54978062D01*
X144121000Y-55005640D01*
X144121000Y-55464360D01*
X144118284Y-55491938D01*
X144112029Y-55512557D01*
X144101876Y-55531553D01*
X144088208Y-55548208D01*
X144071553Y-55561876D01*
X144052557Y-55572029D01*
X144031938Y-55578284D01*
X144004360Y-55581000D01*
X143495640Y-55581000D01*
X143468062Y-55578284D01*
X143447443Y-55572029D01*
X143428447Y-55561876D01*
X143411792Y-55548208D01*
X143398124Y-55531553D01*
X143387971Y-55512557D01*
X143381716Y-55491938D01*
X143379000Y-55464360D01*
X143379000Y-55005640D01*
X143381716Y-54978062D01*
X143387971Y-54957443D01*
X143398124Y-54938447D01*
X143411792Y-54921792D01*
X143428447Y-54908124D01*
X143447443Y-54897971D01*
X143468062Y-54891716D01*
X143495640Y-54889000D01*
X144004360Y-54889000D01*
X144031938Y-54891716D01*
G37*
G36*
X131531938Y-54891716D02*
G01*
X131552557Y-54897971D01*
X131571553Y-54908124D01*
X131588208Y-54921792D01*
X131601876Y-54938447D01*
X131612029Y-54957443D01*
X131618284Y-54978062D01*
X131621000Y-55005640D01*
X131621000Y-55464360D01*
X131618284Y-55491938D01*
X131612029Y-55512557D01*
X131601876Y-55531553D01*
X131588208Y-55548208D01*
X131571553Y-55561876D01*
X131552557Y-55572029D01*
X131531938Y-55578284D01*
X131504360Y-55581000D01*
X130995640Y-55581000D01*
X130968062Y-55578284D01*
X130947443Y-55572029D01*
X130928447Y-55561876D01*
X130911792Y-55548208D01*
X130898124Y-55531553D01*
X130887971Y-55512557D01*
X130881716Y-55491938D01*
X130879000Y-55464360D01*
X130879000Y-55005640D01*
X130881716Y-54978062D01*
X130887971Y-54957443D01*
X130898124Y-54938447D01*
X130911792Y-54921792D01*
X130928447Y-54908124D01*
X130947443Y-54897971D01*
X130968062Y-54891716D01*
X130995640Y-54889000D01*
X131504360Y-54889000D01*
X131531938Y-54891716D01*
G37*
G36*
X132531938Y-54891716D02*
G01*
X132552557Y-54897971D01*
X132571553Y-54908124D01*
X132588208Y-54921792D01*
X132601876Y-54938447D01*
X132612029Y-54957443D01*
X132618284Y-54978062D01*
X132621000Y-55005640D01*
X132621000Y-55464360D01*
X132618284Y-55491938D01*
X132612029Y-55512557D01*
X132601876Y-55531553D01*
X132588208Y-55548208D01*
X132571553Y-55561876D01*
X132552557Y-55572029D01*
X132531938Y-55578284D01*
X132504360Y-55581000D01*
X131995640Y-55581000D01*
X131968062Y-55578284D01*
X131947443Y-55572029D01*
X131928447Y-55561876D01*
X131911792Y-55548208D01*
X131898124Y-55531553D01*
X131887971Y-55512557D01*
X131881716Y-55491938D01*
X131879000Y-55464360D01*
X131879000Y-55005640D01*
X131881716Y-54978062D01*
X131887971Y-54957443D01*
X131898124Y-54938447D01*
X131911792Y-54921792D01*
X131928447Y-54908124D01*
X131947443Y-54897971D01*
X131968062Y-54891716D01*
X131995640Y-54889000D01*
X132504360Y-54889000D01*
X132531938Y-54891716D01*
G37*
G36*
X145031938Y-54891716D02*
G01*
X145052557Y-54897971D01*
X145071553Y-54908124D01*
X145088208Y-54921792D01*
X145101876Y-54938447D01*
X145112029Y-54957443D01*
X145118284Y-54978062D01*
X145121000Y-55005640D01*
X145121000Y-55464360D01*
X145118284Y-55491938D01*
X145112029Y-55512557D01*
X145101876Y-55531553D01*
X145088208Y-55548208D01*
X145071553Y-55561876D01*
X145052557Y-55572029D01*
X145031938Y-55578284D01*
X145004360Y-55581000D01*
X144495640Y-55581000D01*
X144468062Y-55578284D01*
X144447443Y-55572029D01*
X144428447Y-55561876D01*
X144411792Y-55548208D01*
X144398124Y-55531553D01*
X144387971Y-55512557D01*
X144381716Y-55491938D01*
X144379000Y-55464360D01*
X144379000Y-55005640D01*
X144381716Y-54978062D01*
X144387971Y-54957443D01*
X144398124Y-54938447D01*
X144411792Y-54921792D01*
X144428447Y-54908124D01*
X144447443Y-54897971D01*
X144468062Y-54891716D01*
X144495640Y-54889000D01*
X145004360Y-54889000D01*
X145031938Y-54891716D01*
G37*
G36*
X126999714Y-54637389D02*
G01*
X127077360Y-54669551D01*
X127080645Y-54670912D01*
X127153480Y-54719579D01*
X127215421Y-54781520D01*
X127264088Y-54854355D01*
X127264089Y-54854357D01*
X127297611Y-54935286D01*
X127314589Y-55020640D01*
X127314700Y-55021201D01*
X127314700Y-55108799D01*
X127297611Y-55194714D01*
X127264088Y-55275645D01*
X127215421Y-55348480D01*
X127153480Y-55410421D01*
X127080645Y-55459088D01*
X127080644Y-55459089D01*
X127080643Y-55459089D01*
X126999714Y-55492611D01*
X126913801Y-55509700D01*
X126826199Y-55509700D01*
X126740286Y-55492611D01*
X126659357Y-55459089D01*
X126659356Y-55459089D01*
X126659355Y-55459088D01*
X126586520Y-55410421D01*
X126524579Y-55348480D01*
X126475912Y-55275645D01*
X126442389Y-55194714D01*
X126425300Y-55108799D01*
X126425300Y-55021201D01*
X126425412Y-55020640D01*
X126442389Y-54935286D01*
X126475911Y-54854357D01*
X126475912Y-54854355D01*
X126524579Y-54781520D01*
X126586520Y-54719579D01*
X126659355Y-54670912D01*
X126662641Y-54669551D01*
X126740286Y-54637389D01*
X126826199Y-54620300D01*
X126913801Y-54620300D01*
X126999714Y-54637389D01*
G37*
G36*
X125729714Y-54637389D02*
G01*
X125807360Y-54669551D01*
X125810645Y-54670912D01*
X125883480Y-54719579D01*
X125945421Y-54781520D01*
X125994088Y-54854355D01*
X125994089Y-54854357D01*
X126027611Y-54935286D01*
X126044589Y-55020640D01*
X126044700Y-55021201D01*
X126044700Y-55108799D01*
X126027611Y-55194714D01*
X125994088Y-55275645D01*
X125945421Y-55348480D01*
X125883480Y-55410421D01*
X125810645Y-55459088D01*
X125810644Y-55459089D01*
X125810643Y-55459089D01*
X125729714Y-55492611D01*
X125643801Y-55509700D01*
X125556199Y-55509700D01*
X125470286Y-55492611D01*
X125389357Y-55459089D01*
X125389356Y-55459089D01*
X125389355Y-55459088D01*
X125316520Y-55410421D01*
X125254579Y-55348480D01*
X125205912Y-55275645D01*
X125172389Y-55194714D01*
X125155300Y-55108799D01*
X125155300Y-55021201D01*
X125155412Y-55020640D01*
X125172389Y-54935286D01*
X125205911Y-54854357D01*
X125205912Y-54854355D01*
X125254579Y-54781520D01*
X125316520Y-54719579D01*
X125389355Y-54670912D01*
X125392641Y-54669551D01*
X125470286Y-54637389D01*
X125556199Y-54620300D01*
X125643801Y-54620300D01*
X125729714Y-54637389D01*
G37*
G36*
X124459714Y-54637389D02*
G01*
X124537360Y-54669551D01*
X124540645Y-54670912D01*
X124613480Y-54719579D01*
X124675421Y-54781520D01*
X124724088Y-54854355D01*
X124724089Y-54854357D01*
X124757611Y-54935286D01*
X124774589Y-55020640D01*
X124774700Y-55021201D01*
X124774700Y-55108799D01*
X124757611Y-55194714D01*
X124724088Y-55275645D01*
X124675421Y-55348480D01*
X124613480Y-55410421D01*
X124540645Y-55459088D01*
X124540644Y-55459089D01*
X124540643Y-55459089D01*
X124459714Y-55492611D01*
X124373801Y-55509700D01*
X124286199Y-55509700D01*
X124200286Y-55492611D01*
X124119357Y-55459089D01*
X124119356Y-55459089D01*
X124119355Y-55459088D01*
X124046520Y-55410421D01*
X123984579Y-55348480D01*
X123935912Y-55275645D01*
X123902389Y-55194714D01*
X123885300Y-55108799D01*
X123885300Y-55021201D01*
X123885412Y-55020640D01*
X123902389Y-54935286D01*
X123935911Y-54854357D01*
X123935912Y-54854355D01*
X123984579Y-54781520D01*
X124046520Y-54719579D01*
X124119355Y-54670912D01*
X124122641Y-54669551D01*
X124200286Y-54637389D01*
X124286199Y-54620300D01*
X124373801Y-54620300D01*
X124459714Y-54637389D01*
G37*
G36*
X128233723Y-54145640D02*
G01*
X128299350Y-54158694D01*
X128398770Y-54199875D01*
X128488246Y-54259661D01*
X128564339Y-54335754D01*
X128624125Y-54425230D01*
X128665306Y-54524650D01*
X128671186Y-54554212D01*
X128686300Y-54630193D01*
X128686300Y-54737807D01*
X128680238Y-54768284D01*
X128665306Y-54843350D01*
X128624125Y-54942770D01*
X128564339Y-55032246D01*
X128488246Y-55108339D01*
X128398770Y-55168125D01*
X128299350Y-55209306D01*
X128266325Y-55215875D01*
X128193807Y-55230300D01*
X128086193Y-55230300D01*
X128013675Y-55215875D01*
X127980650Y-55209306D01*
X127881230Y-55168125D01*
X127791754Y-55108339D01*
X127715661Y-55032246D01*
X127655875Y-54942770D01*
X127614694Y-54843350D01*
X127599762Y-54768284D01*
X127593700Y-54737807D01*
X127593700Y-54630193D01*
X127608814Y-54554212D01*
X127614694Y-54524650D01*
X127655875Y-54425230D01*
X127715661Y-54335754D01*
X127791754Y-54259661D01*
X127881230Y-54199875D01*
X127980650Y-54158694D01*
X128046277Y-54145640D01*
X128086193Y-54137700D01*
X128193807Y-54137700D01*
X128233723Y-54145640D01*
G37*
G36*
X157301000Y-55001000D02*
G01*
X155899000Y-55001000D01*
X155899000Y-53249000D01*
X157301000Y-53249000D01*
X157301000Y-55001000D01*
G37*
G36*
X115341938Y-54031716D02*
G01*
X115362557Y-54037971D01*
X115381553Y-54048124D01*
X115398208Y-54061792D01*
X115411876Y-54078447D01*
X115422029Y-54097443D01*
X115428284Y-54118062D01*
X115431000Y-54145640D01*
X115431000Y-54654360D01*
X115428284Y-54681938D01*
X115422029Y-54702557D01*
X115411876Y-54721553D01*
X115398208Y-54738208D01*
X115381553Y-54751876D01*
X115362557Y-54762029D01*
X115341938Y-54768284D01*
X115314360Y-54771000D01*
X114855640Y-54771000D01*
X114828062Y-54768284D01*
X114807443Y-54762029D01*
X114788447Y-54751876D01*
X114771792Y-54738208D01*
X114758124Y-54721553D01*
X114747971Y-54702557D01*
X114741716Y-54681938D01*
X114739000Y-54654360D01*
X114739000Y-54145640D01*
X114741716Y-54118062D01*
X114747971Y-54097443D01*
X114758124Y-54078447D01*
X114771792Y-54061792D01*
X114788447Y-54048124D01*
X114807443Y-54037971D01*
X114828062Y-54031716D01*
X114855640Y-54029000D01*
X115314360Y-54029000D01*
X115341938Y-54031716D01*
G37*
G36*
X114371938Y-54031716D02*
G01*
X114392557Y-54037971D01*
X114411553Y-54048124D01*
X114428208Y-54061792D01*
X114441876Y-54078447D01*
X114452029Y-54097443D01*
X114458284Y-54118062D01*
X114461000Y-54145640D01*
X114461000Y-54654360D01*
X114458284Y-54681938D01*
X114452029Y-54702557D01*
X114441876Y-54721553D01*
X114428208Y-54738208D01*
X114411553Y-54751876D01*
X114392557Y-54762029D01*
X114371938Y-54768284D01*
X114344360Y-54771000D01*
X113885640Y-54771000D01*
X113858062Y-54768284D01*
X113837443Y-54762029D01*
X113818447Y-54751876D01*
X113801792Y-54738208D01*
X113788124Y-54721553D01*
X113777971Y-54702557D01*
X113771716Y-54681938D01*
X113769000Y-54654360D01*
X113769000Y-54145640D01*
X113771716Y-54118062D01*
X113777971Y-54097443D01*
X113788124Y-54078447D01*
X113801792Y-54061792D01*
X113818447Y-54048124D01*
X113837443Y-54037971D01*
X113858062Y-54031716D01*
X113885640Y-54029000D01*
X114344360Y-54029000D01*
X114371938Y-54031716D01*
G37*
G36*
X111541938Y-54031716D02*
G01*
X111562557Y-54037971D01*
X111581553Y-54048124D01*
X111598208Y-54061792D01*
X111611876Y-54078447D01*
X111622029Y-54097443D01*
X111628284Y-54118062D01*
X111631000Y-54145640D01*
X111631000Y-54654360D01*
X111628284Y-54681938D01*
X111622029Y-54702557D01*
X111611876Y-54721553D01*
X111598208Y-54738208D01*
X111581553Y-54751876D01*
X111562557Y-54762029D01*
X111541938Y-54768284D01*
X111514360Y-54771000D01*
X111055640Y-54771000D01*
X111028062Y-54768284D01*
X111007443Y-54762029D01*
X110988447Y-54751876D01*
X110971792Y-54738208D01*
X110958124Y-54721553D01*
X110947971Y-54702557D01*
X110941716Y-54681938D01*
X110939000Y-54654360D01*
X110939000Y-54145640D01*
X110941716Y-54118062D01*
X110947971Y-54097443D01*
X110958124Y-54078447D01*
X110971792Y-54061792D01*
X110988447Y-54048124D01*
X111007443Y-54037971D01*
X111028062Y-54031716D01*
X111055640Y-54029000D01*
X111514360Y-54029000D01*
X111541938Y-54031716D01*
G37*
G36*
X110571938Y-54031716D02*
G01*
X110592557Y-54037971D01*
X110611553Y-54048124D01*
X110628208Y-54061792D01*
X110641876Y-54078447D01*
X110652029Y-54097443D01*
X110658284Y-54118062D01*
X110661000Y-54145640D01*
X110661000Y-54654360D01*
X110658284Y-54681938D01*
X110652029Y-54702557D01*
X110641876Y-54721553D01*
X110628208Y-54738208D01*
X110611553Y-54751876D01*
X110592557Y-54762029D01*
X110571938Y-54768284D01*
X110544360Y-54771000D01*
X110085640Y-54771000D01*
X110058062Y-54768284D01*
X110037443Y-54762029D01*
X110018447Y-54751876D01*
X110001792Y-54738208D01*
X109988124Y-54721553D01*
X109977971Y-54702557D01*
X109971716Y-54681938D01*
X109969000Y-54654360D01*
X109969000Y-54145640D01*
X109971716Y-54118062D01*
X109977971Y-54097443D01*
X109988124Y-54078447D01*
X110001792Y-54061792D01*
X110018447Y-54048124D01*
X110037443Y-54037971D01*
X110058062Y-54031716D01*
X110085640Y-54029000D01*
X110544360Y-54029000D01*
X110571938Y-54031716D01*
G37*
G36*
X149281938Y-53936716D02*
G01*
X149302557Y-53942971D01*
X149321553Y-53953124D01*
X149338208Y-53966792D01*
X149351876Y-53983447D01*
X149362029Y-54002443D01*
X149368284Y-54023062D01*
X149371000Y-54050640D01*
X149371000Y-54509360D01*
X149368284Y-54536938D01*
X149362029Y-54557557D01*
X149351876Y-54576553D01*
X149338208Y-54593208D01*
X149321553Y-54606876D01*
X149302557Y-54617029D01*
X149281938Y-54623284D01*
X149254360Y-54626000D01*
X148745640Y-54626000D01*
X148718062Y-54623284D01*
X148697443Y-54617029D01*
X148678447Y-54606876D01*
X148661792Y-54593208D01*
X148648124Y-54576553D01*
X148637971Y-54557557D01*
X148631716Y-54536938D01*
X148629000Y-54509360D01*
X148629000Y-54050640D01*
X148631716Y-54023062D01*
X148637971Y-54002443D01*
X148648124Y-53983447D01*
X148661792Y-53966792D01*
X148678447Y-53953124D01*
X148697443Y-53942971D01*
X148718062Y-53936716D01*
X148745640Y-53934000D01*
X149254360Y-53934000D01*
X149281938Y-53936716D01*
G37*
G36*
X134531938Y-53936716D02*
G01*
X134552557Y-53942971D01*
X134571553Y-53953124D01*
X134588208Y-53966792D01*
X134601876Y-53983447D01*
X134612029Y-54002443D01*
X134618284Y-54023062D01*
X134621000Y-54050640D01*
X134621000Y-54509360D01*
X134618284Y-54536938D01*
X134612029Y-54557557D01*
X134601876Y-54576553D01*
X134588208Y-54593208D01*
X134571553Y-54606876D01*
X134552557Y-54617029D01*
X134531938Y-54623284D01*
X134504360Y-54626000D01*
X133995640Y-54626000D01*
X133968062Y-54623284D01*
X133947443Y-54617029D01*
X133928447Y-54606876D01*
X133911792Y-54593208D01*
X133898124Y-54576553D01*
X133887971Y-54557557D01*
X133881716Y-54536938D01*
X133879000Y-54509360D01*
X133879000Y-54050640D01*
X133881716Y-54023062D01*
X133887971Y-54002443D01*
X133898124Y-53983447D01*
X133911792Y-53966792D01*
X133928447Y-53953124D01*
X133947443Y-53942971D01*
X133968062Y-53936716D01*
X133995640Y-53934000D01*
X134504360Y-53934000D01*
X134531938Y-53936716D01*
G37*
G36*
X135531938Y-53921716D02*
G01*
X135552557Y-53927971D01*
X135571553Y-53938124D01*
X135588208Y-53951792D01*
X135601876Y-53968447D01*
X135612029Y-53987443D01*
X135618284Y-54008062D01*
X135621000Y-54035640D01*
X135621000Y-54494360D01*
X135618284Y-54521938D01*
X135612029Y-54542557D01*
X135601876Y-54561553D01*
X135588208Y-54578208D01*
X135571553Y-54591876D01*
X135552557Y-54602029D01*
X135531938Y-54608284D01*
X135504360Y-54611000D01*
X134995640Y-54611000D01*
X134968062Y-54608284D01*
X134947443Y-54602029D01*
X134928447Y-54591876D01*
X134911792Y-54578208D01*
X134898124Y-54561553D01*
X134887971Y-54542557D01*
X134881716Y-54521938D01*
X134879000Y-54494360D01*
X134879000Y-54035640D01*
X134881716Y-54008062D01*
X134887971Y-53987443D01*
X134898124Y-53968447D01*
X134911792Y-53951792D01*
X134928447Y-53938124D01*
X134947443Y-53927971D01*
X134968062Y-53921716D01*
X134995640Y-53919000D01*
X135504360Y-53919000D01*
X135531938Y-53921716D01*
G37*
G36*
X132531938Y-53921716D02*
G01*
X132552557Y-53927971D01*
X132571553Y-53938124D01*
X132588208Y-53951792D01*
X132601876Y-53968447D01*
X132612029Y-53987443D01*
X132618284Y-54008062D01*
X132621000Y-54035640D01*
X132621000Y-54494360D01*
X132618284Y-54521938D01*
X132612029Y-54542557D01*
X132601876Y-54561553D01*
X132588208Y-54578208D01*
X132571553Y-54591876D01*
X132552557Y-54602029D01*
X132531938Y-54608284D01*
X132504360Y-54611000D01*
X131995640Y-54611000D01*
X131968062Y-54608284D01*
X131947443Y-54602029D01*
X131928447Y-54591876D01*
X131911792Y-54578208D01*
X131898124Y-54561553D01*
X131887971Y-54542557D01*
X131881716Y-54521938D01*
X131879000Y-54494360D01*
X131879000Y-54035640D01*
X131881716Y-54008062D01*
X131887971Y-53987443D01*
X131898124Y-53968447D01*
X131911792Y-53951792D01*
X131928447Y-53938124D01*
X131947443Y-53927971D01*
X131968062Y-53921716D01*
X131995640Y-53919000D01*
X132504360Y-53919000D01*
X132531938Y-53921716D01*
G37*
G36*
X144031938Y-53921716D02*
G01*
X144052557Y-53927971D01*
X144071553Y-53938124D01*
X144088208Y-53951792D01*
X144101876Y-53968447D01*
X144112029Y-53987443D01*
X144118284Y-54008062D01*
X144121000Y-54035640D01*
X144121000Y-54494360D01*
X144118284Y-54521938D01*
X144112029Y-54542557D01*
X144101876Y-54561553D01*
X144088208Y-54578208D01*
X144071553Y-54591876D01*
X144052557Y-54602029D01*
X144031938Y-54608284D01*
X144004360Y-54611000D01*
X143495640Y-54611000D01*
X143468062Y-54608284D01*
X143447443Y-54602029D01*
X143428447Y-54591876D01*
X143411792Y-54578208D01*
X143398124Y-54561553D01*
X143387971Y-54542557D01*
X143381716Y-54521938D01*
X143379000Y-54494360D01*
X143379000Y-54035640D01*
X143381716Y-54008062D01*
X143387971Y-53987443D01*
X143398124Y-53968447D01*
X143411792Y-53951792D01*
X143428447Y-53938124D01*
X143447443Y-53927971D01*
X143468062Y-53921716D01*
X143495640Y-53919000D01*
X144004360Y-53919000D01*
X144031938Y-53921716D01*
G37*
G36*
X145031938Y-53921716D02*
G01*
X145052557Y-53927971D01*
X145071553Y-53938124D01*
X145088208Y-53951792D01*
X145101876Y-53968447D01*
X145112029Y-53987443D01*
X145118284Y-54008062D01*
X145121000Y-54035640D01*
X145121000Y-54494360D01*
X145118284Y-54521938D01*
X145112029Y-54542557D01*
X145101876Y-54561553D01*
X145088208Y-54578208D01*
X145071553Y-54591876D01*
X145052557Y-54602029D01*
X145031938Y-54608284D01*
X145004360Y-54611000D01*
X144495640Y-54611000D01*
X144468062Y-54608284D01*
X144447443Y-54602029D01*
X144428447Y-54591876D01*
X144411792Y-54578208D01*
X144398124Y-54561553D01*
X144387971Y-54542557D01*
X144381716Y-54521938D01*
X144379000Y-54494360D01*
X144379000Y-54035640D01*
X144381716Y-54008062D01*
X144387971Y-53987443D01*
X144398124Y-53968447D01*
X144411792Y-53951792D01*
X144428447Y-53938124D01*
X144447443Y-53927971D01*
X144468062Y-53921716D01*
X144495640Y-53919000D01*
X145004360Y-53919000D01*
X145031938Y-53921716D01*
G37*
G36*
X147031938Y-53921716D02*
G01*
X147052557Y-53927971D01*
X147071553Y-53938124D01*
X147088208Y-53951792D01*
X147101876Y-53968447D01*
X147112029Y-53987443D01*
X147118284Y-54008062D01*
X147121000Y-54035640D01*
X147121000Y-54494360D01*
X147118284Y-54521938D01*
X147112029Y-54542557D01*
X147101876Y-54561553D01*
X147088208Y-54578208D01*
X147071553Y-54591876D01*
X147052557Y-54602029D01*
X147031938Y-54608284D01*
X147004360Y-54611000D01*
X146495640Y-54611000D01*
X146468062Y-54608284D01*
X146447443Y-54602029D01*
X146428447Y-54591876D01*
X146411792Y-54578208D01*
X146398124Y-54561553D01*
X146387971Y-54542557D01*
X146381716Y-54521938D01*
X146379000Y-54494360D01*
X146379000Y-54035640D01*
X146381716Y-54008062D01*
X146387971Y-53987443D01*
X146398124Y-53968447D01*
X146411792Y-53951792D01*
X146428447Y-53938124D01*
X146447443Y-53927971D01*
X146468062Y-53921716D01*
X146495640Y-53919000D01*
X147004360Y-53919000D01*
X147031938Y-53921716D01*
G37*
G36*
X148031938Y-53921716D02*
G01*
X148052557Y-53927971D01*
X148071553Y-53938124D01*
X148088208Y-53951792D01*
X148101876Y-53968447D01*
X148112029Y-53987443D01*
X148118284Y-54008062D01*
X148121000Y-54035640D01*
X148121000Y-54494360D01*
X148118284Y-54521938D01*
X148112029Y-54542557D01*
X148101876Y-54561553D01*
X148088208Y-54578208D01*
X148071553Y-54591876D01*
X148052557Y-54602029D01*
X148031938Y-54608284D01*
X148004360Y-54611000D01*
X147495640Y-54611000D01*
X147468062Y-54608284D01*
X147447443Y-54602029D01*
X147428447Y-54591876D01*
X147411792Y-54578208D01*
X147398124Y-54561553D01*
X147387971Y-54542557D01*
X147381716Y-54521938D01*
X147379000Y-54494360D01*
X147379000Y-54035640D01*
X147381716Y-54008062D01*
X147387971Y-53987443D01*
X147398124Y-53968447D01*
X147411792Y-53951792D01*
X147428447Y-53938124D01*
X147447443Y-53927971D01*
X147468062Y-53921716D01*
X147495640Y-53919000D01*
X148004360Y-53919000D01*
X148031938Y-53921716D01*
G37*
G36*
X150281938Y-53921716D02*
G01*
X150302557Y-53927971D01*
X150321553Y-53938124D01*
X150338208Y-53951792D01*
X150351876Y-53968447D01*
X150362029Y-53987443D01*
X150368284Y-54008062D01*
X150371000Y-54035640D01*
X150371000Y-54494360D01*
X150368284Y-54521938D01*
X150362029Y-54542557D01*
X150351876Y-54561553D01*
X150338208Y-54578208D01*
X150321553Y-54591876D01*
X150302557Y-54602029D01*
X150281938Y-54608284D01*
X150254360Y-54611000D01*
X149745640Y-54611000D01*
X149718062Y-54608284D01*
X149697443Y-54602029D01*
X149678447Y-54591876D01*
X149661792Y-54578208D01*
X149648124Y-54561553D01*
X149637971Y-54542557D01*
X149631716Y-54521938D01*
X149629000Y-54494360D01*
X149629000Y-54035640D01*
X149631716Y-54008062D01*
X149637971Y-53987443D01*
X149648124Y-53968447D01*
X149661792Y-53951792D01*
X149678447Y-53938124D01*
X149697443Y-53927971D01*
X149718062Y-53921716D01*
X149745640Y-53919000D01*
X150254360Y-53919000D01*
X150281938Y-53921716D01*
G37*
G36*
X131531938Y-53921716D02*
G01*
X131552557Y-53927971D01*
X131571553Y-53938124D01*
X131588208Y-53951792D01*
X131601876Y-53968447D01*
X131612029Y-53987443D01*
X131618284Y-54008062D01*
X131621000Y-54035640D01*
X131621000Y-54494360D01*
X131618284Y-54521938D01*
X131612029Y-54542557D01*
X131601876Y-54561553D01*
X131588208Y-54578208D01*
X131571553Y-54591876D01*
X131552557Y-54602029D01*
X131531938Y-54608284D01*
X131504360Y-54611000D01*
X130995640Y-54611000D01*
X130968062Y-54608284D01*
X130947443Y-54602029D01*
X130928447Y-54591876D01*
X130911792Y-54578208D01*
X130898124Y-54561553D01*
X130887971Y-54542557D01*
X130881716Y-54521938D01*
X130879000Y-54494360D01*
X130879000Y-54035640D01*
X130881716Y-54008062D01*
X130887971Y-53987443D01*
X130898124Y-53968447D01*
X130911792Y-53951792D01*
X130928447Y-53938124D01*
X130947443Y-53927971D01*
X130968062Y-53921716D01*
X130995640Y-53919000D01*
X131504360Y-53919000D01*
X131531938Y-53921716D01*
G37*
G36*
X134513512Y-51103927D02*
G01*
X134662812Y-51133624D01*
X134826784Y-51201544D01*
X134974354Y-51300147D01*
X135099853Y-51425646D01*
X135198456Y-51573216D01*
X135266376Y-51737188D01*
X135301000Y-51911259D01*
X135301000Y-52088741D01*
X135266376Y-52262812D01*
X135198456Y-52426784D01*
X135099853Y-52574354D01*
X134974354Y-52699853D01*
X134826784Y-52798456D01*
X134662812Y-52866376D01*
X134513512Y-52896073D01*
X134488742Y-52901000D01*
X134311258Y-52901000D01*
X134286488Y-52896073D01*
X134137188Y-52866376D01*
X133973216Y-52798456D01*
X133825646Y-52699853D01*
X133700147Y-52574354D01*
X133601544Y-52426784D01*
X133533624Y-52262812D01*
X133499000Y-52088741D01*
X133499000Y-51911259D01*
X133533624Y-51737188D01*
X133601544Y-51573216D01*
X133700147Y-51425646D01*
X133825646Y-51300147D01*
X133973216Y-51201544D01*
X134137188Y-51133624D01*
X134286488Y-51103927D01*
X134311258Y-51099000D01*
X134488742Y-51099000D01*
X134513512Y-51103927D01*
G37*
G36*
X131973512Y-51103927D02*
G01*
X132122812Y-51133624D01*
X132286784Y-51201544D01*
X132434354Y-51300147D01*
X132559853Y-51425646D01*
X132658456Y-51573216D01*
X132726376Y-51737188D01*
X132761000Y-51911259D01*
X132761000Y-52088741D01*
X132726376Y-52262812D01*
X132658456Y-52426784D01*
X132559853Y-52574354D01*
X132434354Y-52699853D01*
X132286784Y-52798456D01*
X132122812Y-52866376D01*
X131973512Y-52896073D01*
X131948742Y-52901000D01*
X131771258Y-52901000D01*
X131746488Y-52896073D01*
X131597188Y-52866376D01*
X131433216Y-52798456D01*
X131285646Y-52699853D01*
X131160147Y-52574354D01*
X131061544Y-52426784D01*
X130993624Y-52262812D01*
X130959000Y-52088741D01*
X130959000Y-51911259D01*
X130993624Y-51737188D01*
X131061544Y-51573216D01*
X131160147Y-51425646D01*
X131285646Y-51300147D01*
X131433216Y-51201544D01*
X131597188Y-51133624D01*
X131746488Y-51103927D01*
X131771258Y-51099000D01*
X131948742Y-51099000D01*
X131973512Y-51103927D01*
G37*
G36*
X129433512Y-51103927D02*
G01*
X129582812Y-51133624D01*
X129746784Y-51201544D01*
X129894354Y-51300147D01*
X130019853Y-51425646D01*
X130118456Y-51573216D01*
X130186376Y-51737188D01*
X130221000Y-51911259D01*
X130221000Y-52088741D01*
X130186376Y-52262812D01*
X130118456Y-52426784D01*
X130019853Y-52574354D01*
X129894354Y-52699853D01*
X129746784Y-52798456D01*
X129582812Y-52866376D01*
X129433512Y-52896073D01*
X129408742Y-52901000D01*
X129231258Y-52901000D01*
X129206488Y-52896073D01*
X129057188Y-52866376D01*
X128893216Y-52798456D01*
X128745646Y-52699853D01*
X128620147Y-52574354D01*
X128521544Y-52426784D01*
X128453624Y-52262812D01*
X128419000Y-52088741D01*
X128419000Y-51911259D01*
X128453624Y-51737188D01*
X128521544Y-51573216D01*
X128620147Y-51425646D01*
X128745646Y-51300147D01*
X128893216Y-51201544D01*
X129057188Y-51133624D01*
X129206488Y-51103927D01*
X129231258Y-51099000D01*
X129408742Y-51099000D01*
X129433512Y-51103927D01*
G37*
G36*
X126893512Y-51103927D02*
G01*
X127042812Y-51133624D01*
X127206784Y-51201544D01*
X127354354Y-51300147D01*
X127479853Y-51425646D01*
X127578456Y-51573216D01*
X127646376Y-51737188D01*
X127681000Y-51911259D01*
X127681000Y-52088741D01*
X127646376Y-52262812D01*
X127578456Y-52426784D01*
X127479853Y-52574354D01*
X127354354Y-52699853D01*
X127206784Y-52798456D01*
X127042812Y-52866376D01*
X126893512Y-52896073D01*
X126868742Y-52901000D01*
X126691258Y-52901000D01*
X126666488Y-52896073D01*
X126517188Y-52866376D01*
X126353216Y-52798456D01*
X126205646Y-52699853D01*
X126080147Y-52574354D01*
X125981544Y-52426784D01*
X125913624Y-52262812D01*
X125879000Y-52088741D01*
X125879000Y-51911259D01*
X125913624Y-51737188D01*
X125981544Y-51573216D01*
X126080147Y-51425646D01*
X126205646Y-51300147D01*
X126353216Y-51201544D01*
X126517188Y-51133624D01*
X126666488Y-51103927D01*
X126691258Y-51099000D01*
X126868742Y-51099000D01*
X126893512Y-51103927D01*
G37*
G36*
X124353512Y-51103927D02*
G01*
X124502812Y-51133624D01*
X124666784Y-51201544D01*
X124814354Y-51300147D01*
X124939853Y-51425646D01*
X125038456Y-51573216D01*
X125106376Y-51737188D01*
X125141000Y-51911259D01*
X125141000Y-52088741D01*
X125106376Y-52262812D01*
X125038456Y-52426784D01*
X124939853Y-52574354D01*
X124814354Y-52699853D01*
X124666784Y-52798456D01*
X124502812Y-52866376D01*
X124353512Y-52896073D01*
X124328742Y-52901000D01*
X124151258Y-52901000D01*
X124126488Y-52896073D01*
X123977188Y-52866376D01*
X123813216Y-52798456D01*
X123665646Y-52699853D01*
X123540147Y-52574354D01*
X123441544Y-52426784D01*
X123373624Y-52262812D01*
X123339000Y-52088741D01*
X123339000Y-51911259D01*
X123373624Y-51737188D01*
X123441544Y-51573216D01*
X123540147Y-51425646D01*
X123665646Y-51300147D01*
X123813216Y-51201544D01*
X123977188Y-51133624D01*
X124126488Y-51103927D01*
X124151258Y-51099000D01*
X124328742Y-51099000D01*
X124353512Y-51103927D01*
G37*
G36*
X121813512Y-51103927D02*
G01*
X121962812Y-51133624D01*
X122126784Y-51201544D01*
X122274354Y-51300147D01*
X122399853Y-51425646D01*
X122498456Y-51573216D01*
X122566376Y-51737188D01*
X122601000Y-51911259D01*
X122601000Y-52088741D01*
X122566376Y-52262812D01*
X122498456Y-52426784D01*
X122399853Y-52574354D01*
X122274354Y-52699853D01*
X122126784Y-52798456D01*
X121962812Y-52866376D01*
X121813512Y-52896073D01*
X121788742Y-52901000D01*
X121611258Y-52901000D01*
X121586488Y-52896073D01*
X121437188Y-52866376D01*
X121273216Y-52798456D01*
X121125646Y-52699853D01*
X121000147Y-52574354D01*
X120901544Y-52426784D01*
X120833624Y-52262812D01*
X120799000Y-52088741D01*
X120799000Y-51911259D01*
X120833624Y-51737188D01*
X120901544Y-51573216D01*
X121000147Y-51425646D01*
X121125646Y-51300147D01*
X121273216Y-51201544D01*
X121437188Y-51133624D01*
X121586488Y-51103927D01*
X121611258Y-51099000D01*
X121788742Y-51099000D01*
X121813512Y-51103927D01*
G37*
G36*
X119273512Y-51103927D02*
G01*
X119422812Y-51133624D01*
X119586784Y-51201544D01*
X119734354Y-51300147D01*
X119859853Y-51425646D01*
X119958456Y-51573216D01*
X120026376Y-51737188D01*
X120061000Y-51911259D01*
X120061000Y-52088741D01*
X120026376Y-52262812D01*
X119958456Y-52426784D01*
X119859853Y-52574354D01*
X119734354Y-52699853D01*
X119586784Y-52798456D01*
X119422812Y-52866376D01*
X119273512Y-52896073D01*
X119248742Y-52901000D01*
X119071258Y-52901000D01*
X119046488Y-52896073D01*
X118897188Y-52866376D01*
X118733216Y-52798456D01*
X118585646Y-52699853D01*
X118460147Y-52574354D01*
X118361544Y-52426784D01*
X118293624Y-52262812D01*
X118259000Y-52088741D01*
X118259000Y-51911259D01*
X118293624Y-51737188D01*
X118361544Y-51573216D01*
X118460147Y-51425646D01*
X118585646Y-51300147D01*
X118733216Y-51201544D01*
X118897188Y-51133624D01*
X119046488Y-51103927D01*
X119071258Y-51099000D01*
X119248742Y-51099000D01*
X119273512Y-51103927D01*
G37*
G36*
X116733512Y-51103927D02*
G01*
X116882812Y-51133624D01*
X117046784Y-51201544D01*
X117194354Y-51300147D01*
X117319853Y-51425646D01*
X117418456Y-51573216D01*
X117486376Y-51737188D01*
X117521000Y-51911259D01*
X117521000Y-52088741D01*
X117486376Y-52262812D01*
X117418456Y-52426784D01*
X117319853Y-52574354D01*
X117194354Y-52699853D01*
X117046784Y-52798456D01*
X116882812Y-52866376D01*
X116733512Y-52896073D01*
X116708742Y-52901000D01*
X116531258Y-52901000D01*
X116506488Y-52896073D01*
X116357188Y-52866376D01*
X116193216Y-52798456D01*
X116045646Y-52699853D01*
X115920147Y-52574354D01*
X115821544Y-52426784D01*
X115753624Y-52262812D01*
X115719000Y-52088741D01*
X115719000Y-51911259D01*
X115753624Y-51737188D01*
X115821544Y-51573216D01*
X115920147Y-51425646D01*
X116045646Y-51300147D01*
X116193216Y-51201544D01*
X116357188Y-51133624D01*
X116506488Y-51103927D01*
X116531258Y-51099000D01*
X116708742Y-51099000D01*
X116733512Y-51103927D01*
G37*
G36*
X152293512Y-51103927D02*
G01*
X152442812Y-51133624D01*
X152606784Y-51201544D01*
X152754354Y-51300147D01*
X152879853Y-51425646D01*
X152978456Y-51573216D01*
X153046376Y-51737188D01*
X153081000Y-51911259D01*
X153081000Y-52088741D01*
X153046376Y-52262812D01*
X152978456Y-52426784D01*
X152879853Y-52574354D01*
X152754354Y-52699853D01*
X152606784Y-52798456D01*
X152442812Y-52866376D01*
X152293512Y-52896073D01*
X152268742Y-52901000D01*
X152091258Y-52901000D01*
X152066488Y-52896073D01*
X151917188Y-52866376D01*
X151753216Y-52798456D01*
X151605646Y-52699853D01*
X151480147Y-52574354D01*
X151381544Y-52426784D01*
X151313624Y-52262812D01*
X151279000Y-52088741D01*
X151279000Y-51911259D01*
X151313624Y-51737188D01*
X151381544Y-51573216D01*
X151480147Y-51425646D01*
X151605646Y-51300147D01*
X151753216Y-51201544D01*
X151917188Y-51133624D01*
X152066488Y-51103927D01*
X152091258Y-51099000D01*
X152268742Y-51099000D01*
X152293512Y-51103927D01*
G37*
G36*
X111653512Y-51103927D02*
G01*
X111802812Y-51133624D01*
X111966784Y-51201544D01*
X112114354Y-51300147D01*
X112239853Y-51425646D01*
X112338456Y-51573216D01*
X112406376Y-51737188D01*
X112441000Y-51911259D01*
X112441000Y-52088741D01*
X112406376Y-52262812D01*
X112338456Y-52426784D01*
X112239853Y-52574354D01*
X112114354Y-52699853D01*
X111966784Y-52798456D01*
X111802812Y-52866376D01*
X111653512Y-52896073D01*
X111628742Y-52901000D01*
X111451258Y-52901000D01*
X111426488Y-52896073D01*
X111277188Y-52866376D01*
X111113216Y-52798456D01*
X110965646Y-52699853D01*
X110840147Y-52574354D01*
X110741544Y-52426784D01*
X110673624Y-52262812D01*
X110639000Y-52088741D01*
X110639000Y-51911259D01*
X110673624Y-51737188D01*
X110741544Y-51573216D01*
X110840147Y-51425646D01*
X110965646Y-51300147D01*
X111113216Y-51201544D01*
X111277188Y-51133624D01*
X111426488Y-51103927D01*
X111451258Y-51099000D01*
X111628742Y-51099000D01*
X111653512Y-51103927D01*
G37*
G36*
X109901000Y-52901000D02*
G01*
X108099000Y-52901000D01*
X108099000Y-51099000D01*
X109901000Y-51099000D01*
X109901000Y-52901000D01*
G37*
G36*
X137053512Y-51103927D02*
G01*
X137202812Y-51133624D01*
X137366784Y-51201544D01*
X137514354Y-51300147D01*
X137639853Y-51425646D01*
X137738456Y-51573216D01*
X137806376Y-51737188D01*
X137841000Y-51911259D01*
X137841000Y-52088741D01*
X137806376Y-52262812D01*
X137738456Y-52426784D01*
X137639853Y-52574354D01*
X137514354Y-52699853D01*
X137366784Y-52798456D01*
X137202812Y-52866376D01*
X137053512Y-52896073D01*
X137028742Y-52901000D01*
X136851258Y-52901000D01*
X136826488Y-52896073D01*
X136677188Y-52866376D01*
X136513216Y-52798456D01*
X136365646Y-52699853D01*
X136240147Y-52574354D01*
X136141544Y-52426784D01*
X136073624Y-52262812D01*
X136039000Y-52088741D01*
X136039000Y-51911259D01*
X136073624Y-51737188D01*
X136141544Y-51573216D01*
X136240147Y-51425646D01*
X136365646Y-51300147D01*
X136513216Y-51201544D01*
X136677188Y-51133624D01*
X136826488Y-51103927D01*
X136851258Y-51099000D01*
X137028742Y-51099000D01*
X137053512Y-51103927D01*
G37*
G36*
X139593512Y-51103927D02*
G01*
X139742812Y-51133624D01*
X139906784Y-51201544D01*
X140054354Y-51300147D01*
X140179853Y-51425646D01*
X140278456Y-51573216D01*
X140346376Y-51737188D01*
X140381000Y-51911259D01*
X140381000Y-52088741D01*
X140346376Y-52262812D01*
X140278456Y-52426784D01*
X140179853Y-52574354D01*
X140054354Y-52699853D01*
X139906784Y-52798456D01*
X139742812Y-52866376D01*
X139593512Y-52896073D01*
X139568742Y-52901000D01*
X139391258Y-52901000D01*
X139366488Y-52896073D01*
X139217188Y-52866376D01*
X139053216Y-52798456D01*
X138905646Y-52699853D01*
X138780147Y-52574354D01*
X138681544Y-52426784D01*
X138613624Y-52262812D01*
X138579000Y-52088741D01*
X138579000Y-51911259D01*
X138613624Y-51737188D01*
X138681544Y-51573216D01*
X138780147Y-51425646D01*
X138905646Y-51300147D01*
X139053216Y-51201544D01*
X139217188Y-51133624D01*
X139366488Y-51103927D01*
X139391258Y-51099000D01*
X139568742Y-51099000D01*
X139593512Y-51103927D01*
G37*
G36*
X142133512Y-51103927D02*
G01*
X142282812Y-51133624D01*
X142446784Y-51201544D01*
X142594354Y-51300147D01*
X142719853Y-51425646D01*
X142818456Y-51573216D01*
X142886376Y-51737188D01*
X142921000Y-51911259D01*
X142921000Y-52088741D01*
X142886376Y-52262812D01*
X142818456Y-52426784D01*
X142719853Y-52574354D01*
X142594354Y-52699853D01*
X142446784Y-52798456D01*
X142282812Y-52866376D01*
X142133512Y-52896073D01*
X142108742Y-52901000D01*
X141931258Y-52901000D01*
X141906488Y-52896073D01*
X141757188Y-52866376D01*
X141593216Y-52798456D01*
X141445646Y-52699853D01*
X141320147Y-52574354D01*
X141221544Y-52426784D01*
X141153624Y-52262812D01*
X141119000Y-52088741D01*
X141119000Y-51911259D01*
X141153624Y-51737188D01*
X141221544Y-51573216D01*
X141320147Y-51425646D01*
X141445646Y-51300147D01*
X141593216Y-51201544D01*
X141757188Y-51133624D01*
X141906488Y-51103927D01*
X141931258Y-51099000D01*
X142108742Y-51099000D01*
X142133512Y-51103927D01*
G37*
G36*
X144673512Y-51103927D02*
G01*
X144822812Y-51133624D01*
X144986784Y-51201544D01*
X145134354Y-51300147D01*
X145259853Y-51425646D01*
X145358456Y-51573216D01*
X145426376Y-51737188D01*
X145461000Y-51911259D01*
X145461000Y-52088741D01*
X145426376Y-52262812D01*
X145358456Y-52426784D01*
X145259853Y-52574354D01*
X145134354Y-52699853D01*
X144986784Y-52798456D01*
X144822812Y-52866376D01*
X144673512Y-52896073D01*
X144648742Y-52901000D01*
X144471258Y-52901000D01*
X144446488Y-52896073D01*
X144297188Y-52866376D01*
X144133216Y-52798456D01*
X143985646Y-52699853D01*
X143860147Y-52574354D01*
X143761544Y-52426784D01*
X143693624Y-52262812D01*
X143659000Y-52088741D01*
X143659000Y-51911259D01*
X143693624Y-51737188D01*
X143761544Y-51573216D01*
X143860147Y-51425646D01*
X143985646Y-51300147D01*
X144133216Y-51201544D01*
X144297188Y-51133624D01*
X144446488Y-51103927D01*
X144471258Y-51099000D01*
X144648742Y-51099000D01*
X144673512Y-51103927D01*
G37*
G36*
X147213512Y-51103927D02*
G01*
X147362812Y-51133624D01*
X147526784Y-51201544D01*
X147674354Y-51300147D01*
X147799853Y-51425646D01*
X147898456Y-51573216D01*
X147966376Y-51737188D01*
X148001000Y-51911259D01*
X148001000Y-52088741D01*
X147966376Y-52262812D01*
X147898456Y-52426784D01*
X147799853Y-52574354D01*
X147674354Y-52699853D01*
X147526784Y-52798456D01*
X147362812Y-52866376D01*
X147213512Y-52896073D01*
X147188742Y-52901000D01*
X147011258Y-52901000D01*
X146986488Y-52896073D01*
X146837188Y-52866376D01*
X146673216Y-52798456D01*
X146525646Y-52699853D01*
X146400147Y-52574354D01*
X146301544Y-52426784D01*
X146233624Y-52262812D01*
X146199000Y-52088741D01*
X146199000Y-51911259D01*
X146233624Y-51737188D01*
X146301544Y-51573216D01*
X146400147Y-51425646D01*
X146525646Y-51300147D01*
X146673216Y-51201544D01*
X146837188Y-51133624D01*
X146986488Y-51103927D01*
X147011258Y-51099000D01*
X147188742Y-51099000D01*
X147213512Y-51103927D01*
G37*
G36*
X149753512Y-51103927D02*
G01*
X149902812Y-51133624D01*
X150066784Y-51201544D01*
X150214354Y-51300147D01*
X150339853Y-51425646D01*
X150438456Y-51573216D01*
X150506376Y-51737188D01*
X150541000Y-51911259D01*
X150541000Y-52088741D01*
X150506376Y-52262812D01*
X150438456Y-52426784D01*
X150339853Y-52574354D01*
X150214354Y-52699853D01*
X150066784Y-52798456D01*
X149902812Y-52866376D01*
X149753512Y-52896073D01*
X149728742Y-52901000D01*
X149551258Y-52901000D01*
X149526488Y-52896073D01*
X149377188Y-52866376D01*
X149213216Y-52798456D01*
X149065646Y-52699853D01*
X148940147Y-52574354D01*
X148841544Y-52426784D01*
X148773624Y-52262812D01*
X148739000Y-52088741D01*
X148739000Y-51911259D01*
X148773624Y-51737188D01*
X148841544Y-51573216D01*
X148940147Y-51425646D01*
X149065646Y-51300147D01*
X149213216Y-51201544D01*
X149377188Y-51133624D01*
X149526488Y-51103927D01*
X149551258Y-51099000D01*
X149728742Y-51099000D01*
X149753512Y-51103927D01*
G37*
G36*
X114193512Y-51103927D02*
G01*
X114342812Y-51133624D01*
X114506784Y-51201544D01*
X114654354Y-51300147D01*
X114779853Y-51425646D01*
X114878456Y-51573216D01*
X114946376Y-51737188D01*
X114981000Y-51911259D01*
X114981000Y-52088741D01*
X114946376Y-52262812D01*
X114878456Y-52426784D01*
X114779853Y-52574354D01*
X114654354Y-52699853D01*
X114506784Y-52798456D01*
X114342812Y-52866376D01*
X114193512Y-52896073D01*
X114168742Y-52901000D01*
X113991258Y-52901000D01*
X113966488Y-52896073D01*
X113817188Y-52866376D01*
X113653216Y-52798456D01*
X113505646Y-52699853D01*
X113380147Y-52574354D01*
X113281544Y-52426784D01*
X113213624Y-52262812D01*
X113179000Y-52088741D01*
X113179000Y-51911259D01*
X113213624Y-51737188D01*
X113281544Y-51573216D01*
X113380147Y-51425646D01*
X113505646Y-51300147D01*
X113653216Y-51201544D01*
X113817188Y-51133624D01*
X113966488Y-51103927D01*
X113991258Y-51099000D01*
X114168742Y-51099000D01*
X114193512Y-51103927D01*
G37*
M02*
