G04 #@! TF.GenerationSoftware,KiCad,Pcbnew,5.1.5-52549c5~84~ubuntu18.04.1*
G04 #@! TF.CreationDate,2020-02-17T23:24:27+01:00*
G04 #@! TF.ProjectId,bldc_motor_encoder,626c6463-5f6d-46f7-946f-725f656e636f,rev?*
G04 #@! TF.SameCoordinates,Original*
G04 #@! TF.FileFunction,Soldermask,Top*
G04 #@! TF.FilePolarity,Negative*
%FSLAX46Y46*%
G04 Gerber Fmt 4.6, Leading zero omitted, Abs format (unit mm)*
G04 Created by KiCad (PCBNEW 5.1.5-52549c5~84~ubuntu18.04.1) date 2020-02-17 23:24:27*
%MOMM*%
%LPD*%
G04 APERTURE LIST*
%ADD10C,0.100000*%
G04 APERTURE END LIST*
D10*
G36*
X134131606Y-94008562D02*
G01*
X134650455Y-94223476D01*
X134959213Y-94429782D01*
X135117406Y-94535483D01*
X135514517Y-94932594D01*
X135537077Y-94966358D01*
X135826524Y-95399545D01*
X136041438Y-95918394D01*
X136151000Y-96469201D01*
X136151000Y-97030799D01*
X136041438Y-97581606D01*
X135826524Y-98100455D01*
X135514516Y-98567407D01*
X135117407Y-98964516D01*
X134650455Y-99276524D01*
X134131606Y-99491438D01*
X133856202Y-99546219D01*
X133580800Y-99601000D01*
X133019200Y-99601000D01*
X132468394Y-99491438D01*
X131949545Y-99276524D01*
X131482593Y-98964516D01*
X131085484Y-98567407D01*
X130773476Y-98100455D01*
X130558562Y-97581606D01*
X130449000Y-97030799D01*
X130449000Y-96469201D01*
X130558562Y-95918394D01*
X130773476Y-95399545D01*
X131062923Y-94966358D01*
X131085483Y-94932594D01*
X131482594Y-94535483D01*
X131640787Y-94429782D01*
X131949545Y-94223476D01*
X132468394Y-94008562D01*
X133019200Y-93899000D01*
X133580800Y-93899000D01*
X134131606Y-94008562D01*
G37*
G36*
X149101000Y-98501000D02*
G01*
X147299000Y-98501000D01*
X147299000Y-96699000D01*
X149101000Y-96699000D01*
X149101000Y-98501000D01*
G37*
G36*
X138153512Y-96703927D02*
G01*
X138302812Y-96733624D01*
X138466784Y-96801544D01*
X138614354Y-96900147D01*
X138739853Y-97025646D01*
X138838456Y-97173216D01*
X138906376Y-97337188D01*
X138941000Y-97511259D01*
X138941000Y-97688741D01*
X138906376Y-97862812D01*
X138838456Y-98026784D01*
X138739853Y-98174354D01*
X138614354Y-98299853D01*
X138466784Y-98398456D01*
X138302812Y-98466376D01*
X138153512Y-98496073D01*
X138128742Y-98501000D01*
X137951258Y-98501000D01*
X137926488Y-98496073D01*
X137777188Y-98466376D01*
X137613216Y-98398456D01*
X137465646Y-98299853D01*
X137340147Y-98174354D01*
X137241544Y-98026784D01*
X137173624Y-97862812D01*
X137139000Y-97688741D01*
X137139000Y-97511259D01*
X137173624Y-97337188D01*
X137241544Y-97173216D01*
X137340147Y-97025646D01*
X137465646Y-96900147D01*
X137613216Y-96801544D01*
X137777188Y-96733624D01*
X137926488Y-96703927D01*
X137951258Y-96699000D01*
X138128742Y-96699000D01*
X138153512Y-96703927D01*
G37*
G36*
X140693512Y-96703927D02*
G01*
X140842812Y-96733624D01*
X141006784Y-96801544D01*
X141154354Y-96900147D01*
X141279853Y-97025646D01*
X141378456Y-97173216D01*
X141446376Y-97337188D01*
X141481000Y-97511259D01*
X141481000Y-97688741D01*
X141446376Y-97862812D01*
X141378456Y-98026784D01*
X141279853Y-98174354D01*
X141154354Y-98299853D01*
X141006784Y-98398456D01*
X140842812Y-98466376D01*
X140693512Y-98496073D01*
X140668742Y-98501000D01*
X140491258Y-98501000D01*
X140466488Y-98496073D01*
X140317188Y-98466376D01*
X140153216Y-98398456D01*
X140005646Y-98299853D01*
X139880147Y-98174354D01*
X139781544Y-98026784D01*
X139713624Y-97862812D01*
X139679000Y-97688741D01*
X139679000Y-97511259D01*
X139713624Y-97337188D01*
X139781544Y-97173216D01*
X139880147Y-97025646D01*
X140005646Y-96900147D01*
X140153216Y-96801544D01*
X140317188Y-96733624D01*
X140466488Y-96703927D01*
X140491258Y-96699000D01*
X140668742Y-96699000D01*
X140693512Y-96703927D01*
G37*
G36*
X143233512Y-96703927D02*
G01*
X143382812Y-96733624D01*
X143546784Y-96801544D01*
X143694354Y-96900147D01*
X143819853Y-97025646D01*
X143918456Y-97173216D01*
X143986376Y-97337188D01*
X144021000Y-97511259D01*
X144021000Y-97688741D01*
X143986376Y-97862812D01*
X143918456Y-98026784D01*
X143819853Y-98174354D01*
X143694354Y-98299853D01*
X143546784Y-98398456D01*
X143382812Y-98466376D01*
X143233512Y-98496073D01*
X143208742Y-98501000D01*
X143031258Y-98501000D01*
X143006488Y-98496073D01*
X142857188Y-98466376D01*
X142693216Y-98398456D01*
X142545646Y-98299853D01*
X142420147Y-98174354D01*
X142321544Y-98026784D01*
X142253624Y-97862812D01*
X142219000Y-97688741D01*
X142219000Y-97511259D01*
X142253624Y-97337188D01*
X142321544Y-97173216D01*
X142420147Y-97025646D01*
X142545646Y-96900147D01*
X142693216Y-96801544D01*
X142857188Y-96733624D01*
X143006488Y-96703927D01*
X143031258Y-96699000D01*
X143208742Y-96699000D01*
X143233512Y-96703927D01*
G37*
G36*
X145773512Y-96703927D02*
G01*
X145922812Y-96733624D01*
X146086784Y-96801544D01*
X146234354Y-96900147D01*
X146359853Y-97025646D01*
X146458456Y-97173216D01*
X146526376Y-97337188D01*
X146561000Y-97511259D01*
X146561000Y-97688741D01*
X146526376Y-97862812D01*
X146458456Y-98026784D01*
X146359853Y-98174354D01*
X146234354Y-98299853D01*
X146086784Y-98398456D01*
X145922812Y-98466376D01*
X145773512Y-98496073D01*
X145748742Y-98501000D01*
X145571258Y-98501000D01*
X145546488Y-98496073D01*
X145397188Y-98466376D01*
X145233216Y-98398456D01*
X145085646Y-98299853D01*
X144960147Y-98174354D01*
X144861544Y-98026784D01*
X144793624Y-97862812D01*
X144759000Y-97688741D01*
X144759000Y-97511259D01*
X144793624Y-97337188D01*
X144861544Y-97173216D01*
X144960147Y-97025646D01*
X145085646Y-96900147D01*
X145233216Y-96801544D01*
X145397188Y-96733624D01*
X145546488Y-96703927D01*
X145571258Y-96699000D01*
X145748742Y-96699000D01*
X145773512Y-96703927D01*
G37*
G36*
X138233642Y-94429781D02*
G01*
X138379414Y-94490162D01*
X138379416Y-94490163D01*
X138510608Y-94577822D01*
X138622178Y-94689392D01*
X138709837Y-94820584D01*
X138709838Y-94820586D01*
X138770219Y-94966358D01*
X138801000Y-95121107D01*
X138801000Y-95278893D01*
X138770219Y-95433642D01*
X138709838Y-95579414D01*
X138709837Y-95579416D01*
X138622178Y-95710608D01*
X138510608Y-95822178D01*
X138379416Y-95909837D01*
X138379415Y-95909838D01*
X138379414Y-95909838D01*
X138233642Y-95970219D01*
X138078893Y-96001000D01*
X137921107Y-96001000D01*
X137766358Y-95970219D01*
X137620586Y-95909838D01*
X137620585Y-95909838D01*
X137620584Y-95909837D01*
X137489392Y-95822178D01*
X137377822Y-95710608D01*
X137290163Y-95579416D01*
X137290162Y-95579414D01*
X137229781Y-95433642D01*
X137199000Y-95278893D01*
X137199000Y-95121107D01*
X137229781Y-94966358D01*
X137290162Y-94820586D01*
X137290163Y-94820584D01*
X137377822Y-94689392D01*
X137489392Y-94577822D01*
X137620584Y-94490163D01*
X137620586Y-94490162D01*
X137766358Y-94429781D01*
X137921107Y-94399000D01*
X138078893Y-94399000D01*
X138233642Y-94429781D01*
G37*
G36*
X148233642Y-91729781D02*
G01*
X148379414Y-91790162D01*
X148379416Y-91790163D01*
X148510608Y-91877822D01*
X148622178Y-91989392D01*
X148709837Y-92120584D01*
X148709838Y-92120586D01*
X148770219Y-92266358D01*
X148801000Y-92421107D01*
X148801000Y-92578893D01*
X148770219Y-92733642D01*
X148709838Y-92879414D01*
X148709837Y-92879416D01*
X148622178Y-93010608D01*
X148510608Y-93122178D01*
X148379416Y-93209837D01*
X148379415Y-93209838D01*
X148379414Y-93209838D01*
X148233642Y-93270219D01*
X148078893Y-93301000D01*
X147921107Y-93301000D01*
X147766358Y-93270219D01*
X147620586Y-93209838D01*
X147620585Y-93209838D01*
X147620584Y-93209837D01*
X147489392Y-93122178D01*
X147377822Y-93010608D01*
X147290163Y-92879416D01*
X147290162Y-92879414D01*
X147229781Y-92733642D01*
X147199000Y-92578893D01*
X147199000Y-92421107D01*
X147229781Y-92266358D01*
X147290162Y-92120586D01*
X147290163Y-92120584D01*
X147377822Y-91989392D01*
X147489392Y-91877822D01*
X147620584Y-91790163D01*
X147620586Y-91790162D01*
X147766358Y-91729781D01*
X147921107Y-91699000D01*
X148078893Y-91699000D01*
X148233642Y-91729781D01*
G37*
G36*
X132733642Y-91729781D02*
G01*
X132879414Y-91790162D01*
X132879416Y-91790163D01*
X133010608Y-91877822D01*
X133122178Y-91989392D01*
X133209837Y-92120584D01*
X133209838Y-92120586D01*
X133270219Y-92266358D01*
X133301000Y-92421107D01*
X133301000Y-92578893D01*
X133270219Y-92733642D01*
X133209838Y-92879414D01*
X133209837Y-92879416D01*
X133122178Y-93010608D01*
X133010608Y-93122178D01*
X132879416Y-93209837D01*
X132879415Y-93209838D01*
X132879414Y-93209838D01*
X132733642Y-93270219D01*
X132578893Y-93301000D01*
X132421107Y-93301000D01*
X132266358Y-93270219D01*
X132120586Y-93209838D01*
X132120585Y-93209838D01*
X132120584Y-93209837D01*
X131989392Y-93122178D01*
X131877822Y-93010608D01*
X131790163Y-92879416D01*
X131790162Y-92879414D01*
X131729781Y-92733642D01*
X131699000Y-92578893D01*
X131699000Y-92421107D01*
X131729781Y-92266358D01*
X131790162Y-92120586D01*
X131790163Y-92120584D01*
X131877822Y-91989392D01*
X131989392Y-91877822D01*
X132120584Y-91790163D01*
X132120586Y-91790162D01*
X132266358Y-91729781D01*
X132421107Y-91699000D01*
X132578893Y-91699000D01*
X132733642Y-91729781D01*
G37*
G36*
X143726000Y-92226000D02*
G01*
X142174000Y-92226000D01*
X142174000Y-87774000D01*
X143726000Y-87774000D01*
X143726000Y-92226000D01*
G37*
G36*
X137826000Y-92226000D02*
G01*
X136274000Y-92226000D01*
X136274000Y-87774000D01*
X137826000Y-87774000D01*
X137826000Y-92226000D01*
G37*
G36*
X131733642Y-89729781D02*
G01*
X131879414Y-89790162D01*
X131879416Y-89790163D01*
X132010608Y-89877822D01*
X132122178Y-89989392D01*
X132209837Y-90120584D01*
X132209838Y-90120586D01*
X132270219Y-90266358D01*
X132301000Y-90421107D01*
X132301000Y-90578893D01*
X132270219Y-90733642D01*
X132209838Y-90879414D01*
X132209837Y-90879416D01*
X132122178Y-91010608D01*
X132010608Y-91122178D01*
X131879416Y-91209837D01*
X131879415Y-91209838D01*
X131879414Y-91209838D01*
X131733642Y-91270219D01*
X131578893Y-91301000D01*
X131421107Y-91301000D01*
X131266358Y-91270219D01*
X131120586Y-91209838D01*
X131120585Y-91209838D01*
X131120584Y-91209837D01*
X130989392Y-91122178D01*
X130877822Y-91010608D01*
X130790163Y-90879416D01*
X130790162Y-90879414D01*
X130729781Y-90733642D01*
X130699000Y-90578893D01*
X130699000Y-90421107D01*
X130729781Y-90266358D01*
X130790162Y-90120586D01*
X130790163Y-90120584D01*
X130877822Y-89989392D01*
X130989392Y-89877822D01*
X131120584Y-89790163D01*
X131120586Y-89790162D01*
X131266358Y-89729781D01*
X131421107Y-89699000D01*
X131578893Y-89699000D01*
X131733642Y-89729781D01*
G37*
G36*
X145681938Y-89791716D02*
G01*
X145702557Y-89797971D01*
X145721553Y-89808124D01*
X145738208Y-89821792D01*
X145751876Y-89838447D01*
X145762029Y-89857443D01*
X145768284Y-89878062D01*
X145771000Y-89905640D01*
X145771000Y-90364360D01*
X145768284Y-90391938D01*
X145762029Y-90412557D01*
X145751876Y-90431553D01*
X145738208Y-90448208D01*
X145721553Y-90461876D01*
X145702557Y-90472029D01*
X145681938Y-90478284D01*
X145654360Y-90481000D01*
X145145640Y-90481000D01*
X145118062Y-90478284D01*
X145097443Y-90472029D01*
X145078447Y-90461876D01*
X145061792Y-90448208D01*
X145048124Y-90431553D01*
X145037971Y-90412557D01*
X145031716Y-90391938D01*
X145029000Y-90364360D01*
X145029000Y-89905640D01*
X145031716Y-89878062D01*
X145037971Y-89857443D01*
X145048124Y-89838447D01*
X145061792Y-89821792D01*
X145078447Y-89808124D01*
X145097443Y-89797971D01*
X145118062Y-89791716D01*
X145145640Y-89789000D01*
X145654360Y-89789000D01*
X145681938Y-89791716D01*
G37*
G36*
X146881938Y-89741716D02*
G01*
X146902557Y-89747971D01*
X146921553Y-89758124D01*
X146938208Y-89771792D01*
X146951876Y-89788447D01*
X146962029Y-89807443D01*
X146968284Y-89828062D01*
X146971000Y-89855640D01*
X146971000Y-90314360D01*
X146968284Y-90341938D01*
X146962029Y-90362557D01*
X146951876Y-90381553D01*
X146938208Y-90398208D01*
X146921553Y-90411876D01*
X146902557Y-90422029D01*
X146881938Y-90428284D01*
X146854360Y-90431000D01*
X146345640Y-90431000D01*
X146318062Y-90428284D01*
X146297443Y-90422029D01*
X146278447Y-90411876D01*
X146261792Y-90398208D01*
X146248124Y-90381553D01*
X146237971Y-90362557D01*
X146231716Y-90341938D01*
X146229000Y-90314360D01*
X146229000Y-89855640D01*
X146231716Y-89828062D01*
X146237971Y-89807443D01*
X146248124Y-89788447D01*
X146261792Y-89771792D01*
X146278447Y-89758124D01*
X146297443Y-89747971D01*
X146318062Y-89741716D01*
X146345640Y-89739000D01*
X146854360Y-89739000D01*
X146881938Y-89741716D01*
G37*
G36*
X133233642Y-87979781D02*
G01*
X133379414Y-88040162D01*
X133379416Y-88040163D01*
X133510608Y-88127822D01*
X133622178Y-88239392D01*
X133680047Y-88326000D01*
X133709838Y-88370586D01*
X133770219Y-88516358D01*
X133801000Y-88671107D01*
X133801000Y-88828893D01*
X133770219Y-88983642D01*
X133732791Y-89074000D01*
X133709837Y-89129416D01*
X133622178Y-89260608D01*
X133510608Y-89372178D01*
X133379416Y-89459837D01*
X133379415Y-89459838D01*
X133379414Y-89459838D01*
X133233642Y-89520219D01*
X133078893Y-89551000D01*
X132921107Y-89551000D01*
X132766358Y-89520219D01*
X132620586Y-89459838D01*
X132620585Y-89459838D01*
X132620584Y-89459837D01*
X132489392Y-89372178D01*
X132377822Y-89260608D01*
X132290163Y-89129416D01*
X132267209Y-89074000D01*
X132229781Y-88983642D01*
X132199000Y-88828893D01*
X132199000Y-88671107D01*
X132229781Y-88516358D01*
X132290162Y-88370586D01*
X132319953Y-88326000D01*
X132377822Y-88239392D01*
X132489392Y-88127822D01*
X132620584Y-88040163D01*
X132620586Y-88040162D01*
X132766358Y-87979781D01*
X132921107Y-87949000D01*
X133078893Y-87949000D01*
X133233642Y-87979781D01*
G37*
G36*
X145681938Y-88821716D02*
G01*
X145702557Y-88827971D01*
X145721553Y-88838124D01*
X145738208Y-88851792D01*
X145751876Y-88868447D01*
X145762029Y-88887443D01*
X145768284Y-88908062D01*
X145771000Y-88935640D01*
X145771000Y-89394360D01*
X145768284Y-89421938D01*
X145762029Y-89442557D01*
X145751876Y-89461553D01*
X145738208Y-89478208D01*
X145721553Y-89491876D01*
X145702557Y-89502029D01*
X145681938Y-89508284D01*
X145654360Y-89511000D01*
X145145640Y-89511000D01*
X145118062Y-89508284D01*
X145097443Y-89502029D01*
X145078447Y-89491876D01*
X145061792Y-89478208D01*
X145048124Y-89461553D01*
X145037971Y-89442557D01*
X145031716Y-89421938D01*
X145029000Y-89394360D01*
X145029000Y-88935640D01*
X145031716Y-88908062D01*
X145037971Y-88887443D01*
X145048124Y-88868447D01*
X145061792Y-88851792D01*
X145078447Y-88838124D01*
X145097443Y-88827971D01*
X145118062Y-88821716D01*
X145145640Y-88819000D01*
X145654360Y-88819000D01*
X145681938Y-88821716D01*
G37*
G36*
X146881938Y-88771716D02*
G01*
X146902557Y-88777971D01*
X146921553Y-88788124D01*
X146938208Y-88801792D01*
X146951876Y-88818447D01*
X146962029Y-88837443D01*
X146968284Y-88858062D01*
X146971000Y-88885640D01*
X146971000Y-89344360D01*
X146968284Y-89371938D01*
X146962029Y-89392557D01*
X146951876Y-89411553D01*
X146938208Y-89428208D01*
X146921553Y-89441876D01*
X146902557Y-89452029D01*
X146881938Y-89458284D01*
X146854360Y-89461000D01*
X146345640Y-89461000D01*
X146318062Y-89458284D01*
X146297443Y-89452029D01*
X146278447Y-89441876D01*
X146261792Y-89428208D01*
X146248124Y-89411553D01*
X146237971Y-89392557D01*
X146231716Y-89371938D01*
X146229000Y-89344360D01*
X146229000Y-88885640D01*
X146231716Y-88858062D01*
X146237971Y-88837443D01*
X146248124Y-88818447D01*
X146261792Y-88801792D01*
X146278447Y-88788124D01*
X146297443Y-88777971D01*
X146318062Y-88771716D01*
X146345640Y-88769000D01*
X146854360Y-88769000D01*
X146881938Y-88771716D01*
G37*
G36*
X135559928Y-84576764D02*
G01*
X135581009Y-84583160D01*
X135600445Y-84593548D01*
X135617476Y-84607524D01*
X135631452Y-84624555D01*
X135641840Y-84643991D01*
X135648236Y-84665072D01*
X135651000Y-84693140D01*
X135651000Y-86106860D01*
X135648236Y-86134928D01*
X135641840Y-86156009D01*
X135631452Y-86175445D01*
X135617476Y-86192476D01*
X135600445Y-86206452D01*
X135581009Y-86216840D01*
X135559928Y-86223236D01*
X135531860Y-86226000D01*
X135068140Y-86226000D01*
X135040072Y-86223236D01*
X135018991Y-86216840D01*
X134999555Y-86206452D01*
X134982524Y-86192476D01*
X134968548Y-86175445D01*
X134958160Y-86156009D01*
X134951764Y-86134928D01*
X134949000Y-86106860D01*
X134949000Y-84693140D01*
X134951764Y-84665072D01*
X134958160Y-84643991D01*
X134968548Y-84624555D01*
X134982524Y-84607524D01*
X134999555Y-84593548D01*
X135018991Y-84583160D01*
X135040072Y-84576764D01*
X135068140Y-84574000D01*
X135531860Y-84574000D01*
X135559928Y-84576764D01*
G37*
G36*
X137559928Y-84576764D02*
G01*
X137581009Y-84583160D01*
X137600445Y-84593548D01*
X137617476Y-84607524D01*
X137631452Y-84624555D01*
X137641840Y-84643991D01*
X137648236Y-84665072D01*
X137651000Y-84693140D01*
X137651000Y-86106860D01*
X137648236Y-86134928D01*
X137641840Y-86156009D01*
X137631452Y-86175445D01*
X137617476Y-86192476D01*
X137600445Y-86206452D01*
X137581009Y-86216840D01*
X137559928Y-86223236D01*
X137531860Y-86226000D01*
X137068140Y-86226000D01*
X137040072Y-86223236D01*
X137018991Y-86216840D01*
X136999555Y-86206452D01*
X136982524Y-86192476D01*
X136968548Y-86175445D01*
X136958160Y-86156009D01*
X136951764Y-86134928D01*
X136949000Y-86106860D01*
X136949000Y-84693140D01*
X136951764Y-84665072D01*
X136958160Y-84643991D01*
X136968548Y-84624555D01*
X136982524Y-84607524D01*
X136999555Y-84593548D01*
X137018991Y-84583160D01*
X137040072Y-84576764D01*
X137068140Y-84574000D01*
X137531860Y-84574000D01*
X137559928Y-84576764D01*
G37*
G36*
X136559928Y-84576764D02*
G01*
X136581009Y-84583160D01*
X136600445Y-84593548D01*
X136617476Y-84607524D01*
X136631452Y-84624555D01*
X136641840Y-84643991D01*
X136648236Y-84665072D01*
X136651000Y-84693140D01*
X136651000Y-86106860D01*
X136648236Y-86134928D01*
X136641840Y-86156009D01*
X136631452Y-86175445D01*
X136617476Y-86192476D01*
X136600445Y-86206452D01*
X136581009Y-86216840D01*
X136559928Y-86223236D01*
X136531860Y-86226000D01*
X136068140Y-86226000D01*
X136040072Y-86223236D01*
X136018991Y-86216840D01*
X135999555Y-86206452D01*
X135982524Y-86192476D01*
X135968548Y-86175445D01*
X135958160Y-86156009D01*
X135951764Y-86134928D01*
X135949000Y-86106860D01*
X135949000Y-84693140D01*
X135951764Y-84665072D01*
X135958160Y-84643991D01*
X135968548Y-84624555D01*
X135982524Y-84607524D01*
X135999555Y-84593548D01*
X136018991Y-84583160D01*
X136040072Y-84576764D01*
X136068140Y-84574000D01*
X136531860Y-84574000D01*
X136559928Y-84576764D01*
G37*
G36*
X132559928Y-84576764D02*
G01*
X132581009Y-84583160D01*
X132600445Y-84593548D01*
X132617476Y-84607524D01*
X132631452Y-84624555D01*
X132641840Y-84643991D01*
X132648236Y-84665072D01*
X132651000Y-84693140D01*
X132651000Y-86106860D01*
X132648236Y-86134928D01*
X132641840Y-86156009D01*
X132631452Y-86175445D01*
X132617476Y-86192476D01*
X132600445Y-86206452D01*
X132581009Y-86216840D01*
X132559928Y-86223236D01*
X132531860Y-86226000D01*
X132068140Y-86226000D01*
X132040072Y-86223236D01*
X132018991Y-86216840D01*
X131999555Y-86206452D01*
X131982524Y-86192476D01*
X131968548Y-86175445D01*
X131958160Y-86156009D01*
X131951764Y-86134928D01*
X131949000Y-86106860D01*
X131949000Y-84693140D01*
X131951764Y-84665072D01*
X131958160Y-84643991D01*
X131968548Y-84624555D01*
X131982524Y-84607524D01*
X131999555Y-84593548D01*
X132018991Y-84583160D01*
X132040072Y-84576764D01*
X132068140Y-84574000D01*
X132531860Y-84574000D01*
X132559928Y-84576764D01*
G37*
G36*
X134559928Y-84576764D02*
G01*
X134581009Y-84583160D01*
X134600445Y-84593548D01*
X134617476Y-84607524D01*
X134631452Y-84624555D01*
X134641840Y-84643991D01*
X134648236Y-84665072D01*
X134651000Y-84693140D01*
X134651000Y-86106860D01*
X134648236Y-86134928D01*
X134641840Y-86156009D01*
X134631452Y-86175445D01*
X134617476Y-86192476D01*
X134600445Y-86206452D01*
X134581009Y-86216840D01*
X134559928Y-86223236D01*
X134531860Y-86226000D01*
X134068140Y-86226000D01*
X134040072Y-86223236D01*
X134018991Y-86216840D01*
X133999555Y-86206452D01*
X133982524Y-86192476D01*
X133968548Y-86175445D01*
X133958160Y-86156009D01*
X133951764Y-86134928D01*
X133949000Y-86106860D01*
X133949000Y-84693140D01*
X133951764Y-84665072D01*
X133958160Y-84643991D01*
X133968548Y-84624555D01*
X133982524Y-84607524D01*
X133999555Y-84593548D01*
X134018991Y-84583160D01*
X134040072Y-84576764D01*
X134068140Y-84574000D01*
X134531860Y-84574000D01*
X134559928Y-84576764D01*
G37*
G36*
X133559928Y-84576764D02*
G01*
X133581009Y-84583160D01*
X133600445Y-84593548D01*
X133617476Y-84607524D01*
X133631452Y-84624555D01*
X133641840Y-84643991D01*
X133648236Y-84665072D01*
X133651000Y-84693140D01*
X133651000Y-86106860D01*
X133648236Y-86134928D01*
X133641840Y-86156009D01*
X133631452Y-86175445D01*
X133617476Y-86192476D01*
X133600445Y-86206452D01*
X133581009Y-86216840D01*
X133559928Y-86223236D01*
X133531860Y-86226000D01*
X133068140Y-86226000D01*
X133040072Y-86223236D01*
X133018991Y-86216840D01*
X132999555Y-86206452D01*
X132982524Y-86192476D01*
X132968548Y-86175445D01*
X132958160Y-86156009D01*
X132951764Y-86134928D01*
X132949000Y-86106860D01*
X132949000Y-84693140D01*
X132951764Y-84665072D01*
X132958160Y-84643991D01*
X132968548Y-84624555D01*
X132982524Y-84607524D01*
X132999555Y-84593548D01*
X133018991Y-84583160D01*
X133040072Y-84576764D01*
X133068140Y-84574000D01*
X133531860Y-84574000D01*
X133559928Y-84576764D01*
G37*
G36*
X147256202Y-80503781D02*
G01*
X147531606Y-80558562D01*
X148050455Y-80773476D01*
X148517407Y-81085484D01*
X148914516Y-81482593D01*
X149226524Y-81949545D01*
X149441438Y-82468394D01*
X149551000Y-83019201D01*
X149551000Y-83580799D01*
X149441438Y-84131606D01*
X149226524Y-84650455D01*
X148914516Y-85117407D01*
X148517407Y-85514516D01*
X148050455Y-85826524D01*
X147531606Y-86041438D01*
X147256202Y-86096219D01*
X146980800Y-86151000D01*
X146419200Y-86151000D01*
X146143798Y-86096219D01*
X145868394Y-86041438D01*
X145349545Y-85826524D01*
X144882593Y-85514516D01*
X144485484Y-85117407D01*
X144173476Y-84650455D01*
X143958562Y-84131606D01*
X143849000Y-83580799D01*
X143849000Y-83019201D01*
X143958562Y-82468394D01*
X144173476Y-81949545D01*
X144485484Y-81482593D01*
X144882593Y-81085484D01*
X145349545Y-80773476D01*
X145868394Y-80558562D01*
X146419200Y-80449000D01*
X146980800Y-80449000D01*
X147256202Y-80503781D01*
G37*
G36*
X140733642Y-84229781D02*
G01*
X140879414Y-84290162D01*
X140879416Y-84290163D01*
X141010608Y-84377822D01*
X141122178Y-84489392D01*
X141209837Y-84620584D01*
X141209838Y-84620586D01*
X141270219Y-84766358D01*
X141301000Y-84921107D01*
X141301000Y-85078893D01*
X141270219Y-85233642D01*
X141209838Y-85379414D01*
X141209837Y-85379416D01*
X141122178Y-85510608D01*
X141010608Y-85622178D01*
X140879416Y-85709837D01*
X140879415Y-85709838D01*
X140879414Y-85709838D01*
X140733642Y-85770219D01*
X140578893Y-85801000D01*
X140421107Y-85801000D01*
X140266358Y-85770219D01*
X140120586Y-85709838D01*
X140120585Y-85709838D01*
X140120584Y-85709837D01*
X139989392Y-85622178D01*
X139877822Y-85510608D01*
X139790163Y-85379416D01*
X139790162Y-85379414D01*
X139729781Y-85233642D01*
X139699000Y-85078893D01*
X139699000Y-84921107D01*
X139729781Y-84766358D01*
X139790162Y-84620586D01*
X139790163Y-84620584D01*
X139877822Y-84489392D01*
X139989392Y-84377822D01*
X140120584Y-84290163D01*
X140120586Y-84290162D01*
X140266358Y-84229781D01*
X140421107Y-84199000D01*
X140578893Y-84199000D01*
X140733642Y-84229781D01*
G37*
G36*
X139091242Y-80578404D02*
G01*
X139128337Y-80589657D01*
X139162515Y-80607925D01*
X139192481Y-80632519D01*
X139217075Y-80662485D01*
X139235343Y-80696663D01*
X139246596Y-80733758D01*
X139251000Y-80778474D01*
X139251000Y-82271526D01*
X139246596Y-82316242D01*
X139235343Y-82353337D01*
X139217075Y-82387515D01*
X139192481Y-82417481D01*
X139162515Y-82442075D01*
X139128337Y-82460343D01*
X139091242Y-82471596D01*
X139046526Y-82476000D01*
X138153474Y-82476000D01*
X138108758Y-82471596D01*
X138071663Y-82460343D01*
X138037485Y-82442075D01*
X138007519Y-82417481D01*
X137982925Y-82387515D01*
X137964657Y-82353337D01*
X137953404Y-82316242D01*
X137949000Y-82271526D01*
X137949000Y-80778474D01*
X137953404Y-80733758D01*
X137964657Y-80696663D01*
X137982925Y-80662485D01*
X138007519Y-80632519D01*
X138037485Y-80607925D01*
X138071663Y-80589657D01*
X138108758Y-80578404D01*
X138153474Y-80574000D01*
X139046526Y-80574000D01*
X139091242Y-80578404D01*
G37*
G36*
X131491242Y-80578404D02*
G01*
X131528337Y-80589657D01*
X131562515Y-80607925D01*
X131592481Y-80632519D01*
X131617075Y-80662485D01*
X131635343Y-80696663D01*
X131646596Y-80733758D01*
X131651000Y-80778474D01*
X131651000Y-82271526D01*
X131646596Y-82316242D01*
X131635343Y-82353337D01*
X131617075Y-82387515D01*
X131592481Y-82417481D01*
X131562515Y-82442075D01*
X131528337Y-82460343D01*
X131491242Y-82471596D01*
X131446526Y-82476000D01*
X130553474Y-82476000D01*
X130508758Y-82471596D01*
X130471663Y-82460343D01*
X130437485Y-82442075D01*
X130407519Y-82417481D01*
X130382925Y-82387515D01*
X130364657Y-82353337D01*
X130353404Y-82316242D01*
X130349000Y-82271526D01*
X130349000Y-80778474D01*
X130353404Y-80733758D01*
X130364657Y-80696663D01*
X130382925Y-80662485D01*
X130407519Y-80632519D01*
X130437485Y-80607925D01*
X130471663Y-80589657D01*
X130508758Y-80578404D01*
X130553474Y-80574000D01*
X131446526Y-80574000D01*
X131491242Y-80578404D01*
G37*
M02*
