G04 #@! TF.GenerationSoftware,KiCad,Pcbnew,5.1.5-52549c5~84~ubuntu18.04.1*
G04 #@! TF.CreationDate,2020-02-17T23:24:27+01:00*
G04 #@! TF.ProjectId,bldc_motor_encoder,626c6463-5f6d-46f7-946f-725f656e636f,rev?*
G04 #@! TF.SameCoordinates,Original*
G04 #@! TF.FileFunction,Copper,L2,Bot*
G04 #@! TF.FilePolarity,Positive*
%FSLAX46Y46*%
G04 Gerber Fmt 4.6, Leading zero omitted, Abs format (unit mm)*
G04 Created by KiCad (PCBNEW 5.1.5-52549c5~84~ubuntu18.04.1) date 2020-02-17 23:24:27*
%MOMM*%
%LPD*%
G04 APERTURE LIST*
%ADD10O,1.700000X1.700000*%
%ADD11R,1.700000X1.700000*%
%ADD12C,5.600000*%
%ADD13C,0.100000*%
%ADD14C,0.800000*%
%ADD15C,0.250000*%
G04 APERTURE END LIST*
D10*
X138040000Y-97600000D03*
X140580000Y-97600000D03*
X143120000Y-97600000D03*
X145660000Y-97600000D03*
D11*
X148200000Y-97600000D03*
D12*
X133300000Y-96750000D03*
X146700000Y-83300000D03*
G04 #@! TA.AperFunction,SMDPad,CuDef*
D13*
G36*
X138974505Y-80626204D02*
G01*
X138998773Y-80629804D01*
X139022572Y-80635765D01*
X139045671Y-80644030D01*
X139067850Y-80654520D01*
X139088893Y-80667132D01*
X139108599Y-80681747D01*
X139126777Y-80698223D01*
X139143253Y-80716401D01*
X139157868Y-80736107D01*
X139170480Y-80757150D01*
X139180970Y-80779329D01*
X139189235Y-80802428D01*
X139195196Y-80826227D01*
X139198796Y-80850495D01*
X139200000Y-80874999D01*
X139200000Y-82175001D01*
X139198796Y-82199505D01*
X139195196Y-82223773D01*
X139189235Y-82247572D01*
X139180970Y-82270671D01*
X139170480Y-82292850D01*
X139157868Y-82313893D01*
X139143253Y-82333599D01*
X139126777Y-82351777D01*
X139108599Y-82368253D01*
X139088893Y-82382868D01*
X139067850Y-82395480D01*
X139045671Y-82405970D01*
X139022572Y-82414235D01*
X138998773Y-82420196D01*
X138974505Y-82423796D01*
X138950001Y-82425000D01*
X138249999Y-82425000D01*
X138225495Y-82423796D01*
X138201227Y-82420196D01*
X138177428Y-82414235D01*
X138154329Y-82405970D01*
X138132150Y-82395480D01*
X138111107Y-82382868D01*
X138091401Y-82368253D01*
X138073223Y-82351777D01*
X138056747Y-82333599D01*
X138042132Y-82313893D01*
X138029520Y-82292850D01*
X138019030Y-82270671D01*
X138010765Y-82247572D01*
X138004804Y-82223773D01*
X138001204Y-82199505D01*
X138000000Y-82175001D01*
X138000000Y-80874999D01*
X138001204Y-80850495D01*
X138004804Y-80826227D01*
X138010765Y-80802428D01*
X138019030Y-80779329D01*
X138029520Y-80757150D01*
X138042132Y-80736107D01*
X138056747Y-80716401D01*
X138073223Y-80698223D01*
X138091401Y-80681747D01*
X138111107Y-80667132D01*
X138132150Y-80654520D01*
X138154329Y-80644030D01*
X138177428Y-80635765D01*
X138201227Y-80629804D01*
X138225495Y-80626204D01*
X138249999Y-80625000D01*
X138950001Y-80625000D01*
X138974505Y-80626204D01*
G37*
G04 #@! TD.AperFunction*
G04 #@! TA.AperFunction,SMDPad,CuDef*
G36*
X131374505Y-80626204D02*
G01*
X131398773Y-80629804D01*
X131422572Y-80635765D01*
X131445671Y-80644030D01*
X131467850Y-80654520D01*
X131488893Y-80667132D01*
X131508599Y-80681747D01*
X131526777Y-80698223D01*
X131543253Y-80716401D01*
X131557868Y-80736107D01*
X131570480Y-80757150D01*
X131580970Y-80779329D01*
X131589235Y-80802428D01*
X131595196Y-80826227D01*
X131598796Y-80850495D01*
X131600000Y-80874999D01*
X131600000Y-82175001D01*
X131598796Y-82199505D01*
X131595196Y-82223773D01*
X131589235Y-82247572D01*
X131580970Y-82270671D01*
X131570480Y-82292850D01*
X131557868Y-82313893D01*
X131543253Y-82333599D01*
X131526777Y-82351777D01*
X131508599Y-82368253D01*
X131488893Y-82382868D01*
X131467850Y-82395480D01*
X131445671Y-82405970D01*
X131422572Y-82414235D01*
X131398773Y-82420196D01*
X131374505Y-82423796D01*
X131350001Y-82425000D01*
X130649999Y-82425000D01*
X130625495Y-82423796D01*
X130601227Y-82420196D01*
X130577428Y-82414235D01*
X130554329Y-82405970D01*
X130532150Y-82395480D01*
X130511107Y-82382868D01*
X130491401Y-82368253D01*
X130473223Y-82351777D01*
X130456747Y-82333599D01*
X130442132Y-82313893D01*
X130429520Y-82292850D01*
X130419030Y-82270671D01*
X130410765Y-82247572D01*
X130404804Y-82223773D01*
X130401204Y-82199505D01*
X130400000Y-82175001D01*
X130400000Y-80874999D01*
X130401204Y-80850495D01*
X130404804Y-80826227D01*
X130410765Y-80802428D01*
X130419030Y-80779329D01*
X130429520Y-80757150D01*
X130442132Y-80736107D01*
X130456747Y-80716401D01*
X130473223Y-80698223D01*
X130491401Y-80681747D01*
X130511107Y-80667132D01*
X130532150Y-80654520D01*
X130554329Y-80644030D01*
X130577428Y-80635765D01*
X130601227Y-80629804D01*
X130625495Y-80626204D01*
X130649999Y-80625000D01*
X131350001Y-80625000D01*
X131374505Y-80626204D01*
G37*
G04 #@! TD.AperFunction*
G04 #@! TA.AperFunction,SMDPad,CuDef*
G36*
X137464703Y-84625722D02*
G01*
X137479264Y-84627882D01*
X137493543Y-84631459D01*
X137507403Y-84636418D01*
X137520710Y-84642712D01*
X137533336Y-84650280D01*
X137545159Y-84659048D01*
X137556066Y-84668934D01*
X137565952Y-84679841D01*
X137574720Y-84691664D01*
X137582288Y-84704290D01*
X137588582Y-84717597D01*
X137593541Y-84731457D01*
X137597118Y-84745736D01*
X137599278Y-84760297D01*
X137600000Y-84775000D01*
X137600000Y-86025000D01*
X137599278Y-86039703D01*
X137597118Y-86054264D01*
X137593541Y-86068543D01*
X137588582Y-86082403D01*
X137582288Y-86095710D01*
X137574720Y-86108336D01*
X137565952Y-86120159D01*
X137556066Y-86131066D01*
X137545159Y-86140952D01*
X137533336Y-86149720D01*
X137520710Y-86157288D01*
X137507403Y-86163582D01*
X137493543Y-86168541D01*
X137479264Y-86172118D01*
X137464703Y-86174278D01*
X137450000Y-86175000D01*
X137150000Y-86175000D01*
X137135297Y-86174278D01*
X137120736Y-86172118D01*
X137106457Y-86168541D01*
X137092597Y-86163582D01*
X137079290Y-86157288D01*
X137066664Y-86149720D01*
X137054841Y-86140952D01*
X137043934Y-86131066D01*
X137034048Y-86120159D01*
X137025280Y-86108336D01*
X137017712Y-86095710D01*
X137011418Y-86082403D01*
X137006459Y-86068543D01*
X137002882Y-86054264D01*
X137000722Y-86039703D01*
X137000000Y-86025000D01*
X137000000Y-84775000D01*
X137000722Y-84760297D01*
X137002882Y-84745736D01*
X137006459Y-84731457D01*
X137011418Y-84717597D01*
X137017712Y-84704290D01*
X137025280Y-84691664D01*
X137034048Y-84679841D01*
X137043934Y-84668934D01*
X137054841Y-84659048D01*
X137066664Y-84650280D01*
X137079290Y-84642712D01*
X137092597Y-84636418D01*
X137106457Y-84631459D01*
X137120736Y-84627882D01*
X137135297Y-84625722D01*
X137150000Y-84625000D01*
X137450000Y-84625000D01*
X137464703Y-84625722D01*
G37*
G04 #@! TD.AperFunction*
G04 #@! TA.AperFunction,SMDPad,CuDef*
G36*
X136464703Y-84625722D02*
G01*
X136479264Y-84627882D01*
X136493543Y-84631459D01*
X136507403Y-84636418D01*
X136520710Y-84642712D01*
X136533336Y-84650280D01*
X136545159Y-84659048D01*
X136556066Y-84668934D01*
X136565952Y-84679841D01*
X136574720Y-84691664D01*
X136582288Y-84704290D01*
X136588582Y-84717597D01*
X136593541Y-84731457D01*
X136597118Y-84745736D01*
X136599278Y-84760297D01*
X136600000Y-84775000D01*
X136600000Y-86025000D01*
X136599278Y-86039703D01*
X136597118Y-86054264D01*
X136593541Y-86068543D01*
X136588582Y-86082403D01*
X136582288Y-86095710D01*
X136574720Y-86108336D01*
X136565952Y-86120159D01*
X136556066Y-86131066D01*
X136545159Y-86140952D01*
X136533336Y-86149720D01*
X136520710Y-86157288D01*
X136507403Y-86163582D01*
X136493543Y-86168541D01*
X136479264Y-86172118D01*
X136464703Y-86174278D01*
X136450000Y-86175000D01*
X136150000Y-86175000D01*
X136135297Y-86174278D01*
X136120736Y-86172118D01*
X136106457Y-86168541D01*
X136092597Y-86163582D01*
X136079290Y-86157288D01*
X136066664Y-86149720D01*
X136054841Y-86140952D01*
X136043934Y-86131066D01*
X136034048Y-86120159D01*
X136025280Y-86108336D01*
X136017712Y-86095710D01*
X136011418Y-86082403D01*
X136006459Y-86068543D01*
X136002882Y-86054264D01*
X136000722Y-86039703D01*
X136000000Y-86025000D01*
X136000000Y-84775000D01*
X136000722Y-84760297D01*
X136002882Y-84745736D01*
X136006459Y-84731457D01*
X136011418Y-84717597D01*
X136017712Y-84704290D01*
X136025280Y-84691664D01*
X136034048Y-84679841D01*
X136043934Y-84668934D01*
X136054841Y-84659048D01*
X136066664Y-84650280D01*
X136079290Y-84642712D01*
X136092597Y-84636418D01*
X136106457Y-84631459D01*
X136120736Y-84627882D01*
X136135297Y-84625722D01*
X136150000Y-84625000D01*
X136450000Y-84625000D01*
X136464703Y-84625722D01*
G37*
G04 #@! TD.AperFunction*
G04 #@! TA.AperFunction,SMDPad,CuDef*
G36*
X135464703Y-84625722D02*
G01*
X135479264Y-84627882D01*
X135493543Y-84631459D01*
X135507403Y-84636418D01*
X135520710Y-84642712D01*
X135533336Y-84650280D01*
X135545159Y-84659048D01*
X135556066Y-84668934D01*
X135565952Y-84679841D01*
X135574720Y-84691664D01*
X135582288Y-84704290D01*
X135588582Y-84717597D01*
X135593541Y-84731457D01*
X135597118Y-84745736D01*
X135599278Y-84760297D01*
X135600000Y-84775000D01*
X135600000Y-86025000D01*
X135599278Y-86039703D01*
X135597118Y-86054264D01*
X135593541Y-86068543D01*
X135588582Y-86082403D01*
X135582288Y-86095710D01*
X135574720Y-86108336D01*
X135565952Y-86120159D01*
X135556066Y-86131066D01*
X135545159Y-86140952D01*
X135533336Y-86149720D01*
X135520710Y-86157288D01*
X135507403Y-86163582D01*
X135493543Y-86168541D01*
X135479264Y-86172118D01*
X135464703Y-86174278D01*
X135450000Y-86175000D01*
X135150000Y-86175000D01*
X135135297Y-86174278D01*
X135120736Y-86172118D01*
X135106457Y-86168541D01*
X135092597Y-86163582D01*
X135079290Y-86157288D01*
X135066664Y-86149720D01*
X135054841Y-86140952D01*
X135043934Y-86131066D01*
X135034048Y-86120159D01*
X135025280Y-86108336D01*
X135017712Y-86095710D01*
X135011418Y-86082403D01*
X135006459Y-86068543D01*
X135002882Y-86054264D01*
X135000722Y-86039703D01*
X135000000Y-86025000D01*
X135000000Y-84775000D01*
X135000722Y-84760297D01*
X135002882Y-84745736D01*
X135006459Y-84731457D01*
X135011418Y-84717597D01*
X135017712Y-84704290D01*
X135025280Y-84691664D01*
X135034048Y-84679841D01*
X135043934Y-84668934D01*
X135054841Y-84659048D01*
X135066664Y-84650280D01*
X135079290Y-84642712D01*
X135092597Y-84636418D01*
X135106457Y-84631459D01*
X135120736Y-84627882D01*
X135135297Y-84625722D01*
X135150000Y-84625000D01*
X135450000Y-84625000D01*
X135464703Y-84625722D01*
G37*
G04 #@! TD.AperFunction*
G04 #@! TA.AperFunction,SMDPad,CuDef*
G36*
X134464703Y-84625722D02*
G01*
X134479264Y-84627882D01*
X134493543Y-84631459D01*
X134507403Y-84636418D01*
X134520710Y-84642712D01*
X134533336Y-84650280D01*
X134545159Y-84659048D01*
X134556066Y-84668934D01*
X134565952Y-84679841D01*
X134574720Y-84691664D01*
X134582288Y-84704290D01*
X134588582Y-84717597D01*
X134593541Y-84731457D01*
X134597118Y-84745736D01*
X134599278Y-84760297D01*
X134600000Y-84775000D01*
X134600000Y-86025000D01*
X134599278Y-86039703D01*
X134597118Y-86054264D01*
X134593541Y-86068543D01*
X134588582Y-86082403D01*
X134582288Y-86095710D01*
X134574720Y-86108336D01*
X134565952Y-86120159D01*
X134556066Y-86131066D01*
X134545159Y-86140952D01*
X134533336Y-86149720D01*
X134520710Y-86157288D01*
X134507403Y-86163582D01*
X134493543Y-86168541D01*
X134479264Y-86172118D01*
X134464703Y-86174278D01*
X134450000Y-86175000D01*
X134150000Y-86175000D01*
X134135297Y-86174278D01*
X134120736Y-86172118D01*
X134106457Y-86168541D01*
X134092597Y-86163582D01*
X134079290Y-86157288D01*
X134066664Y-86149720D01*
X134054841Y-86140952D01*
X134043934Y-86131066D01*
X134034048Y-86120159D01*
X134025280Y-86108336D01*
X134017712Y-86095710D01*
X134011418Y-86082403D01*
X134006459Y-86068543D01*
X134002882Y-86054264D01*
X134000722Y-86039703D01*
X134000000Y-86025000D01*
X134000000Y-84775000D01*
X134000722Y-84760297D01*
X134002882Y-84745736D01*
X134006459Y-84731457D01*
X134011418Y-84717597D01*
X134017712Y-84704290D01*
X134025280Y-84691664D01*
X134034048Y-84679841D01*
X134043934Y-84668934D01*
X134054841Y-84659048D01*
X134066664Y-84650280D01*
X134079290Y-84642712D01*
X134092597Y-84636418D01*
X134106457Y-84631459D01*
X134120736Y-84627882D01*
X134135297Y-84625722D01*
X134150000Y-84625000D01*
X134450000Y-84625000D01*
X134464703Y-84625722D01*
G37*
G04 #@! TD.AperFunction*
G04 #@! TA.AperFunction,SMDPad,CuDef*
G36*
X133464703Y-84625722D02*
G01*
X133479264Y-84627882D01*
X133493543Y-84631459D01*
X133507403Y-84636418D01*
X133520710Y-84642712D01*
X133533336Y-84650280D01*
X133545159Y-84659048D01*
X133556066Y-84668934D01*
X133565952Y-84679841D01*
X133574720Y-84691664D01*
X133582288Y-84704290D01*
X133588582Y-84717597D01*
X133593541Y-84731457D01*
X133597118Y-84745736D01*
X133599278Y-84760297D01*
X133600000Y-84775000D01*
X133600000Y-86025000D01*
X133599278Y-86039703D01*
X133597118Y-86054264D01*
X133593541Y-86068543D01*
X133588582Y-86082403D01*
X133582288Y-86095710D01*
X133574720Y-86108336D01*
X133565952Y-86120159D01*
X133556066Y-86131066D01*
X133545159Y-86140952D01*
X133533336Y-86149720D01*
X133520710Y-86157288D01*
X133507403Y-86163582D01*
X133493543Y-86168541D01*
X133479264Y-86172118D01*
X133464703Y-86174278D01*
X133450000Y-86175000D01*
X133150000Y-86175000D01*
X133135297Y-86174278D01*
X133120736Y-86172118D01*
X133106457Y-86168541D01*
X133092597Y-86163582D01*
X133079290Y-86157288D01*
X133066664Y-86149720D01*
X133054841Y-86140952D01*
X133043934Y-86131066D01*
X133034048Y-86120159D01*
X133025280Y-86108336D01*
X133017712Y-86095710D01*
X133011418Y-86082403D01*
X133006459Y-86068543D01*
X133002882Y-86054264D01*
X133000722Y-86039703D01*
X133000000Y-86025000D01*
X133000000Y-84775000D01*
X133000722Y-84760297D01*
X133002882Y-84745736D01*
X133006459Y-84731457D01*
X133011418Y-84717597D01*
X133017712Y-84704290D01*
X133025280Y-84691664D01*
X133034048Y-84679841D01*
X133043934Y-84668934D01*
X133054841Y-84659048D01*
X133066664Y-84650280D01*
X133079290Y-84642712D01*
X133092597Y-84636418D01*
X133106457Y-84631459D01*
X133120736Y-84627882D01*
X133135297Y-84625722D01*
X133150000Y-84625000D01*
X133450000Y-84625000D01*
X133464703Y-84625722D01*
G37*
G04 #@! TD.AperFunction*
G04 #@! TA.AperFunction,SMDPad,CuDef*
G36*
X132464703Y-84625722D02*
G01*
X132479264Y-84627882D01*
X132493543Y-84631459D01*
X132507403Y-84636418D01*
X132520710Y-84642712D01*
X132533336Y-84650280D01*
X132545159Y-84659048D01*
X132556066Y-84668934D01*
X132565952Y-84679841D01*
X132574720Y-84691664D01*
X132582288Y-84704290D01*
X132588582Y-84717597D01*
X132593541Y-84731457D01*
X132597118Y-84745736D01*
X132599278Y-84760297D01*
X132600000Y-84775000D01*
X132600000Y-86025000D01*
X132599278Y-86039703D01*
X132597118Y-86054264D01*
X132593541Y-86068543D01*
X132588582Y-86082403D01*
X132582288Y-86095710D01*
X132574720Y-86108336D01*
X132565952Y-86120159D01*
X132556066Y-86131066D01*
X132545159Y-86140952D01*
X132533336Y-86149720D01*
X132520710Y-86157288D01*
X132507403Y-86163582D01*
X132493543Y-86168541D01*
X132479264Y-86172118D01*
X132464703Y-86174278D01*
X132450000Y-86175000D01*
X132150000Y-86175000D01*
X132135297Y-86174278D01*
X132120736Y-86172118D01*
X132106457Y-86168541D01*
X132092597Y-86163582D01*
X132079290Y-86157288D01*
X132066664Y-86149720D01*
X132054841Y-86140952D01*
X132043934Y-86131066D01*
X132034048Y-86120159D01*
X132025280Y-86108336D01*
X132017712Y-86095710D01*
X132011418Y-86082403D01*
X132006459Y-86068543D01*
X132002882Y-86054264D01*
X132000722Y-86039703D01*
X132000000Y-86025000D01*
X132000000Y-84775000D01*
X132000722Y-84760297D01*
X132002882Y-84745736D01*
X132006459Y-84731457D01*
X132011418Y-84717597D01*
X132017712Y-84704290D01*
X132025280Y-84691664D01*
X132034048Y-84679841D01*
X132043934Y-84668934D01*
X132054841Y-84659048D01*
X132066664Y-84650280D01*
X132079290Y-84642712D01*
X132092597Y-84636418D01*
X132106457Y-84631459D01*
X132120736Y-84627882D01*
X132135297Y-84625722D01*
X132150000Y-84625000D01*
X132450000Y-84625000D01*
X132464703Y-84625722D01*
G37*
G04 #@! TD.AperFunction*
D14*
X135600000Y-90600000D03*
X138400000Y-85400000D03*
X132300000Y-83800000D03*
X145400000Y-88200000D03*
X146600000Y-88200000D03*
X132200000Y-87000000D03*
X137500000Y-83800000D03*
X140800000Y-88100000D03*
X136300000Y-83600000D03*
X134800000Y-91200000D03*
X135300000Y-87600000D03*
X134200000Y-92000000D03*
X134700000Y-83800000D03*
X137800000Y-92900000D03*
D15*
X137300000Y-85400000D02*
X138400000Y-85400000D01*
X132300000Y-85400000D02*
X132300000Y-86900000D01*
X132300000Y-86900000D02*
X132200000Y-87000000D01*
X136300000Y-85400000D02*
X136300000Y-86800000D01*
X136300000Y-86800000D02*
X137600000Y-88100000D01*
X137600000Y-88100000D02*
X140800000Y-88100000D01*
X136300000Y-83600000D02*
X136300000Y-85400000D01*
X135300000Y-85400000D02*
X135300000Y-87600000D01*
X135300000Y-87600000D02*
X133950010Y-88949990D01*
X133950010Y-88949990D02*
X133950010Y-90350010D01*
X133950010Y-90350010D02*
X134800000Y-91200000D01*
X143120000Y-97600000D02*
X141520000Y-96000000D01*
X141520000Y-96000000D02*
X138400000Y-96000000D01*
X136100000Y-93700000D02*
X136100000Y-92500000D01*
X138400000Y-96000000D02*
X136100000Y-93700000D01*
X136100000Y-92500000D02*
X134800000Y-91200000D01*
X134300000Y-85400000D02*
X134300000Y-87600000D01*
X134300000Y-87600000D02*
X133500000Y-88400000D01*
X133500000Y-88400000D02*
X133500000Y-91300000D01*
X133500000Y-91300000D02*
X134200000Y-92000000D01*
X134300000Y-84200000D02*
X134300000Y-85400000D01*
X134700000Y-83800000D02*
X134300000Y-84200000D01*
X145660000Y-97600000D02*
X143360000Y-95300000D01*
X143360000Y-95300000D02*
X138800000Y-95300000D01*
X137800000Y-94300000D02*
X137800000Y-92900000D01*
X138800000Y-95300000D02*
X137800000Y-94300000D01*
G36*
X137531647Y-80577448D02*
G01*
X137487400Y-80723309D01*
X137472460Y-80874999D01*
X137472460Y-82175001D01*
X137487400Y-82326691D01*
X137531647Y-82472552D01*
X137603499Y-82606979D01*
X137700196Y-82724804D01*
X137818021Y-82821501D01*
X137952448Y-82893353D01*
X138098309Y-82937600D01*
X138249999Y-82952540D01*
X138950001Y-82952540D01*
X139101691Y-82937600D01*
X139247552Y-82893353D01*
X139381979Y-82821501D01*
X139499804Y-82724804D01*
X139596501Y-82606979D01*
X139668353Y-82472552D01*
X139712600Y-82326691D01*
X139727540Y-82175001D01*
X139727540Y-80874999D01*
X139712600Y-80723309D01*
X139668353Y-80577448D01*
X139667045Y-80575000D01*
X144793409Y-80575000D01*
X144580436Y-80717304D01*
X144117304Y-81180436D01*
X143753423Y-81725022D01*
X143502778Y-82330133D01*
X143375000Y-82972516D01*
X143375000Y-83627484D01*
X143502778Y-84269867D01*
X143753423Y-84874978D01*
X144117304Y-85419564D01*
X144580436Y-85882696D01*
X145125022Y-86246577D01*
X145730133Y-86497222D01*
X146372516Y-86625000D01*
X147027484Y-86625000D01*
X147669867Y-86497222D01*
X148274978Y-86246577D01*
X148819564Y-85882696D01*
X149282696Y-85419564D01*
X149425001Y-85206590D01*
X149425000Y-96379377D01*
X149423027Y-96376973D01*
X149343086Y-96311367D01*
X149251881Y-96262617D01*
X149152918Y-96232597D01*
X149050000Y-96222460D01*
X147350000Y-96222460D01*
X147247082Y-96232597D01*
X147148119Y-96262617D01*
X147056914Y-96311367D01*
X146976973Y-96376973D01*
X146911367Y-96456914D01*
X146862617Y-96548119D01*
X146832597Y-96647082D01*
X146822460Y-96750000D01*
X146822460Y-96864810D01*
X146728032Y-96723489D01*
X146536511Y-96531968D01*
X146311307Y-96381491D01*
X146061073Y-96277841D01*
X145795426Y-96225000D01*
X145524574Y-96225000D01*
X145258927Y-96277841D01*
X145257621Y-96278382D01*
X143842198Y-94862960D01*
X143821843Y-94838157D01*
X143722868Y-94756930D01*
X143609948Y-94696573D01*
X143487422Y-94659405D01*
X143391932Y-94650000D01*
X143391921Y-94650000D01*
X143360000Y-94646856D01*
X143328079Y-94650000D01*
X139069239Y-94650000D01*
X138450000Y-94030762D01*
X138450000Y-93558148D01*
X138518495Y-93489653D01*
X138619725Y-93338152D01*
X138689453Y-93169813D01*
X138725000Y-92991105D01*
X138725000Y-92808895D01*
X138689453Y-92630187D01*
X138619725Y-92461848D01*
X138518495Y-92310347D01*
X138389653Y-92181505D01*
X138238152Y-92080275D01*
X138069813Y-92010547D01*
X137891105Y-91975000D01*
X137708895Y-91975000D01*
X137530187Y-92010547D01*
X137361848Y-92080275D01*
X137210347Y-92181505D01*
X137081505Y-92310347D01*
X136980275Y-92461848D01*
X136910547Y-92630187D01*
X136875000Y-92808895D01*
X136875000Y-92991105D01*
X136910547Y-93169813D01*
X136980275Y-93338152D01*
X137081505Y-93489653D01*
X137150001Y-93558149D01*
X137150000Y-93830762D01*
X136750000Y-93430762D01*
X136750000Y-92531924D01*
X136753144Y-92500000D01*
X136750000Y-92468076D01*
X136750000Y-92468068D01*
X136740595Y-92372578D01*
X136703427Y-92250052D01*
X136643070Y-92137132D01*
X136635100Y-92127421D01*
X136582199Y-92062960D01*
X136582196Y-92062957D01*
X136561843Y-92038157D01*
X136537043Y-92017804D01*
X135725000Y-91205762D01*
X135725000Y-91108895D01*
X135689453Y-90930187D01*
X135619725Y-90761848D01*
X135518495Y-90610347D01*
X135389653Y-90481505D01*
X135238152Y-90380275D01*
X135069813Y-90310547D01*
X134891105Y-90275000D01*
X134794238Y-90275000D01*
X134600010Y-90080772D01*
X134600010Y-89219228D01*
X135294239Y-88525000D01*
X135391105Y-88525000D01*
X135569813Y-88489453D01*
X135738152Y-88419725D01*
X135889653Y-88318495D01*
X136018495Y-88189653D01*
X136119725Y-88038152D01*
X136189453Y-87869813D01*
X136225000Y-87691105D01*
X136225000Y-87644238D01*
X137117804Y-88537043D01*
X137138157Y-88561843D01*
X137162957Y-88582196D01*
X137162960Y-88582199D01*
X137237132Y-88643070D01*
X137350052Y-88703427D01*
X137472578Y-88740595D01*
X137568068Y-88750000D01*
X137568076Y-88750000D01*
X137600000Y-88753144D01*
X137631924Y-88750000D01*
X140141852Y-88750000D01*
X140210347Y-88818495D01*
X140361848Y-88919725D01*
X140530187Y-88989453D01*
X140708895Y-89025000D01*
X140891105Y-89025000D01*
X141069813Y-88989453D01*
X141238152Y-88919725D01*
X141389653Y-88818495D01*
X141518495Y-88689653D01*
X141619725Y-88538152D01*
X141689453Y-88369813D01*
X141725000Y-88191105D01*
X141725000Y-88008895D01*
X141689453Y-87830187D01*
X141619725Y-87661848D01*
X141518495Y-87510347D01*
X141389653Y-87381505D01*
X141238152Y-87280275D01*
X141069813Y-87210547D01*
X140891105Y-87175000D01*
X140708895Y-87175000D01*
X140530187Y-87210547D01*
X140361848Y-87280275D01*
X140210347Y-87381505D01*
X140141852Y-87450000D01*
X137869239Y-87450000D01*
X136972349Y-86553110D01*
X137000000Y-86555834D01*
X137203250Y-86554000D01*
X137298000Y-86459250D01*
X137298000Y-85402000D01*
X137302000Y-85402000D01*
X137302000Y-86459250D01*
X137396750Y-86554000D01*
X137600000Y-86555834D01*
X137674297Y-86548516D01*
X137745739Y-86526845D01*
X137811580Y-86491652D01*
X137869290Y-86444290D01*
X137916652Y-86386580D01*
X137951845Y-86320739D01*
X137973516Y-86249297D01*
X137980834Y-86175000D01*
X137979000Y-85496750D01*
X137884250Y-85402000D01*
X137302000Y-85402000D01*
X137298000Y-85402000D01*
X137278000Y-85402000D01*
X137278000Y-85398000D01*
X137298000Y-85398000D01*
X137298000Y-85378000D01*
X137302000Y-85378000D01*
X137302000Y-85398000D01*
X137884250Y-85398000D01*
X137979000Y-85303250D01*
X137980834Y-84625000D01*
X137977711Y-84593293D01*
X138089653Y-84518495D01*
X138218495Y-84389653D01*
X138319725Y-84238152D01*
X138389453Y-84069813D01*
X138425000Y-83891105D01*
X138425000Y-83708895D01*
X138389453Y-83530187D01*
X138319725Y-83361848D01*
X138218495Y-83210347D01*
X138089653Y-83081505D01*
X137938152Y-82980275D01*
X137769813Y-82910547D01*
X137591105Y-82875000D01*
X137408895Y-82875000D01*
X137230187Y-82910547D01*
X137061848Y-82980275D01*
X137017833Y-83009685D01*
X136889653Y-82881505D01*
X136738152Y-82780275D01*
X136569813Y-82710547D01*
X136391105Y-82675000D01*
X136208895Y-82675000D01*
X136030187Y-82710547D01*
X135861848Y-82780275D01*
X135710347Y-82881505D01*
X135581505Y-83010347D01*
X135480275Y-83161848D01*
X135444232Y-83248865D01*
X135418495Y-83210347D01*
X135289653Y-83081505D01*
X135138152Y-82980275D01*
X134969813Y-82910547D01*
X134791105Y-82875000D01*
X134608895Y-82875000D01*
X134430187Y-82910547D01*
X134261848Y-82980275D01*
X134110347Y-83081505D01*
X133981505Y-83210347D01*
X133880275Y-83361848D01*
X133810547Y-83530187D01*
X133775000Y-83708895D01*
X133775000Y-83815114D01*
X133756930Y-83837132D01*
X133739462Y-83869813D01*
X133696573Y-83950053D01*
X133659405Y-84072579D01*
X133653540Y-84132126D01*
X133582181Y-84110479D01*
X133450000Y-84097460D01*
X133150000Y-84097460D01*
X133017819Y-84110479D01*
X132890717Y-84149035D01*
X132800000Y-84197524D01*
X132709283Y-84149035D01*
X132582181Y-84110479D01*
X132450000Y-84097460D01*
X132150000Y-84097460D01*
X132017819Y-84110479D01*
X131890717Y-84149035D01*
X131773579Y-84211646D01*
X131670907Y-84295907D01*
X131586646Y-84398579D01*
X131524035Y-84515717D01*
X131485479Y-84642819D01*
X131472460Y-84775000D01*
X131472460Y-86025000D01*
X131485479Y-86157181D01*
X131524035Y-86284283D01*
X131553132Y-86338720D01*
X131481505Y-86410347D01*
X131380275Y-86561848D01*
X131310547Y-86730187D01*
X131275000Y-86908895D01*
X131275000Y-87091105D01*
X131310547Y-87269813D01*
X131380275Y-87438152D01*
X131481505Y-87589653D01*
X131610347Y-87718495D01*
X131761848Y-87819725D01*
X131930187Y-87889453D01*
X132108895Y-87925000D01*
X132291105Y-87925000D01*
X132469813Y-87889453D01*
X132638152Y-87819725D01*
X132789653Y-87718495D01*
X132918495Y-87589653D01*
X133019725Y-87438152D01*
X133089453Y-87269813D01*
X133125000Y-87091105D01*
X133125000Y-86908895D01*
X133089453Y-86730187D01*
X133074939Y-86695147D01*
X133150000Y-86702540D01*
X133450000Y-86702540D01*
X133582181Y-86689521D01*
X133650001Y-86668948D01*
X133650001Y-87330761D01*
X133062962Y-87917800D01*
X133038157Y-87938157D01*
X133017802Y-87962960D01*
X132956930Y-88037132D01*
X132956385Y-88038152D01*
X132896573Y-88150053D01*
X132859405Y-88272579D01*
X132850000Y-88368069D01*
X132850000Y-88368079D01*
X132846856Y-88400000D01*
X132850000Y-88431922D01*
X132850001Y-91268069D01*
X132846856Y-91300000D01*
X132859406Y-91427422D01*
X132896573Y-91549947D01*
X132956930Y-91662868D01*
X133017802Y-91737040D01*
X133017805Y-91737043D01*
X133038158Y-91761843D01*
X133062957Y-91782195D01*
X133275000Y-91994238D01*
X133275000Y-92091105D01*
X133310547Y-92269813D01*
X133380275Y-92438152D01*
X133481505Y-92589653D01*
X133610347Y-92718495D01*
X133761848Y-92819725D01*
X133930187Y-92889453D01*
X134108895Y-92925000D01*
X134291105Y-92925000D01*
X134469813Y-92889453D01*
X134638152Y-92819725D01*
X134789653Y-92718495D01*
X134918495Y-92589653D01*
X135019725Y-92438152D01*
X135048777Y-92368015D01*
X135450001Y-92769240D01*
X135450000Y-93668078D01*
X135446856Y-93700000D01*
X135450000Y-93731921D01*
X135450000Y-93731931D01*
X135459405Y-93827421D01*
X135462662Y-93838157D01*
X135496573Y-93949947D01*
X135556930Y-94062868D01*
X135607369Y-94124328D01*
X135638157Y-94161843D01*
X135662962Y-94182200D01*
X137882264Y-96401503D01*
X137845767Y-96386446D01*
X137755040Y-96404493D01*
X137527284Y-96483057D01*
X137319231Y-96604545D01*
X137138877Y-96764287D01*
X136993152Y-96956145D01*
X136887657Y-97172746D01*
X136826446Y-97405767D01*
X136905752Y-97598000D01*
X138038000Y-97598000D01*
X138038000Y-97578000D01*
X138042000Y-97578000D01*
X138042000Y-97598000D01*
X138062000Y-97598000D01*
X138062000Y-97602000D01*
X138042000Y-97602000D01*
X138042000Y-98734248D01*
X138234233Y-98813554D01*
X138324960Y-98795507D01*
X138552716Y-98716943D01*
X138760769Y-98595455D01*
X138941123Y-98435713D01*
X139086848Y-98243855D01*
X139192343Y-98027254D01*
X139232580Y-97874078D01*
X139257841Y-98001073D01*
X139361491Y-98251307D01*
X139511968Y-98476511D01*
X139703489Y-98668032D01*
X139928693Y-98818509D01*
X140178927Y-98922159D01*
X140444574Y-98975000D01*
X140715426Y-98975000D01*
X140981073Y-98922159D01*
X141231307Y-98818509D01*
X141456511Y-98668032D01*
X141648032Y-98476511D01*
X141798509Y-98251307D01*
X141850000Y-98126996D01*
X141901491Y-98251307D01*
X142051968Y-98476511D01*
X142243489Y-98668032D01*
X142468693Y-98818509D01*
X142718927Y-98922159D01*
X142984574Y-98975000D01*
X143255426Y-98975000D01*
X143521073Y-98922159D01*
X143771307Y-98818509D01*
X143996511Y-98668032D01*
X144188032Y-98476511D01*
X144338509Y-98251307D01*
X144390000Y-98126996D01*
X144441491Y-98251307D01*
X144591968Y-98476511D01*
X144783489Y-98668032D01*
X145008693Y-98818509D01*
X145258927Y-98922159D01*
X145524574Y-98975000D01*
X145795426Y-98975000D01*
X146061073Y-98922159D01*
X146311307Y-98818509D01*
X146536511Y-98668032D01*
X146728032Y-98476511D01*
X146822460Y-98335190D01*
X146822460Y-98450000D01*
X146832597Y-98552918D01*
X146862617Y-98651881D01*
X146911367Y-98743086D01*
X146976973Y-98823027D01*
X147056914Y-98888633D01*
X147148119Y-98937383D01*
X147247082Y-98967403D01*
X147350000Y-98977540D01*
X149050000Y-98977540D01*
X149152918Y-98967403D01*
X149251881Y-98937383D01*
X149343086Y-98888633D01*
X149423027Y-98823027D01*
X149425000Y-98820623D01*
X149425000Y-99425000D01*
X139971754Y-99425000D01*
X139887280Y-99433320D01*
X139832293Y-99450000D01*
X135244006Y-99450000D01*
X135419564Y-99332696D01*
X135882696Y-98869564D01*
X136246577Y-98324978D01*
X136466418Y-97794233D01*
X136826446Y-97794233D01*
X136887657Y-98027254D01*
X136993152Y-98243855D01*
X137138877Y-98435713D01*
X137319231Y-98595455D01*
X137527284Y-98716943D01*
X137755040Y-98795507D01*
X137845767Y-98813554D01*
X138038000Y-98734248D01*
X138038000Y-97602000D01*
X136905752Y-97602000D01*
X136826446Y-97794233D01*
X136466418Y-97794233D01*
X136497222Y-97719867D01*
X136625000Y-97077484D01*
X136625000Y-96422516D01*
X136497222Y-95780133D01*
X136246577Y-95175022D01*
X135882696Y-94630436D01*
X135419564Y-94167304D01*
X134874978Y-93803423D01*
X134269867Y-93552778D01*
X133627484Y-93425000D01*
X132972516Y-93425000D01*
X132330133Y-93552778D01*
X131725022Y-93803423D01*
X131180436Y-94167304D01*
X130717304Y-94630436D01*
X130575000Y-94843409D01*
X130575000Y-82945153D01*
X130649999Y-82952540D01*
X131350001Y-82952540D01*
X131501691Y-82937600D01*
X131647552Y-82893353D01*
X131781979Y-82821501D01*
X131899804Y-82724804D01*
X131996501Y-82606979D01*
X132068353Y-82472552D01*
X132112600Y-82326691D01*
X132127540Y-82175001D01*
X132127540Y-80874999D01*
X132112600Y-80723309D01*
X132068353Y-80577448D01*
X132067045Y-80575000D01*
X137532955Y-80575000D01*
X137531647Y-80577448D01*
G37*
X137531647Y-80577448D02*
X137487400Y-80723309D01*
X137472460Y-80874999D01*
X137472460Y-82175001D01*
X137487400Y-82326691D01*
X137531647Y-82472552D01*
X137603499Y-82606979D01*
X137700196Y-82724804D01*
X137818021Y-82821501D01*
X137952448Y-82893353D01*
X138098309Y-82937600D01*
X138249999Y-82952540D01*
X138950001Y-82952540D01*
X139101691Y-82937600D01*
X139247552Y-82893353D01*
X139381979Y-82821501D01*
X139499804Y-82724804D01*
X139596501Y-82606979D01*
X139668353Y-82472552D01*
X139712600Y-82326691D01*
X139727540Y-82175001D01*
X139727540Y-80874999D01*
X139712600Y-80723309D01*
X139668353Y-80577448D01*
X139667045Y-80575000D01*
X144793409Y-80575000D01*
X144580436Y-80717304D01*
X144117304Y-81180436D01*
X143753423Y-81725022D01*
X143502778Y-82330133D01*
X143375000Y-82972516D01*
X143375000Y-83627484D01*
X143502778Y-84269867D01*
X143753423Y-84874978D01*
X144117304Y-85419564D01*
X144580436Y-85882696D01*
X145125022Y-86246577D01*
X145730133Y-86497222D01*
X146372516Y-86625000D01*
X147027484Y-86625000D01*
X147669867Y-86497222D01*
X148274978Y-86246577D01*
X148819564Y-85882696D01*
X149282696Y-85419564D01*
X149425001Y-85206590D01*
X149425000Y-96379377D01*
X149423027Y-96376973D01*
X149343086Y-96311367D01*
X149251881Y-96262617D01*
X149152918Y-96232597D01*
X149050000Y-96222460D01*
X147350000Y-96222460D01*
X147247082Y-96232597D01*
X147148119Y-96262617D01*
X147056914Y-96311367D01*
X146976973Y-96376973D01*
X146911367Y-96456914D01*
X146862617Y-96548119D01*
X146832597Y-96647082D01*
X146822460Y-96750000D01*
X146822460Y-96864810D01*
X146728032Y-96723489D01*
X146536511Y-96531968D01*
X146311307Y-96381491D01*
X146061073Y-96277841D01*
X145795426Y-96225000D01*
X145524574Y-96225000D01*
X145258927Y-96277841D01*
X145257621Y-96278382D01*
X143842198Y-94862960D01*
X143821843Y-94838157D01*
X143722868Y-94756930D01*
X143609948Y-94696573D01*
X143487422Y-94659405D01*
X143391932Y-94650000D01*
X143391921Y-94650000D01*
X143360000Y-94646856D01*
X143328079Y-94650000D01*
X139069239Y-94650000D01*
X138450000Y-94030762D01*
X138450000Y-93558148D01*
X138518495Y-93489653D01*
X138619725Y-93338152D01*
X138689453Y-93169813D01*
X138725000Y-92991105D01*
X138725000Y-92808895D01*
X138689453Y-92630187D01*
X138619725Y-92461848D01*
X138518495Y-92310347D01*
X138389653Y-92181505D01*
X138238152Y-92080275D01*
X138069813Y-92010547D01*
X137891105Y-91975000D01*
X137708895Y-91975000D01*
X137530187Y-92010547D01*
X137361848Y-92080275D01*
X137210347Y-92181505D01*
X137081505Y-92310347D01*
X136980275Y-92461848D01*
X136910547Y-92630187D01*
X136875000Y-92808895D01*
X136875000Y-92991105D01*
X136910547Y-93169813D01*
X136980275Y-93338152D01*
X137081505Y-93489653D01*
X137150001Y-93558149D01*
X137150000Y-93830762D01*
X136750000Y-93430762D01*
X136750000Y-92531924D01*
X136753144Y-92500000D01*
X136750000Y-92468076D01*
X136750000Y-92468068D01*
X136740595Y-92372578D01*
X136703427Y-92250052D01*
X136643070Y-92137132D01*
X136635100Y-92127421D01*
X136582199Y-92062960D01*
X136582196Y-92062957D01*
X136561843Y-92038157D01*
X136537043Y-92017804D01*
X135725000Y-91205762D01*
X135725000Y-91108895D01*
X135689453Y-90930187D01*
X135619725Y-90761848D01*
X135518495Y-90610347D01*
X135389653Y-90481505D01*
X135238152Y-90380275D01*
X135069813Y-90310547D01*
X134891105Y-90275000D01*
X134794238Y-90275000D01*
X134600010Y-90080772D01*
X134600010Y-89219228D01*
X135294239Y-88525000D01*
X135391105Y-88525000D01*
X135569813Y-88489453D01*
X135738152Y-88419725D01*
X135889653Y-88318495D01*
X136018495Y-88189653D01*
X136119725Y-88038152D01*
X136189453Y-87869813D01*
X136225000Y-87691105D01*
X136225000Y-87644238D01*
X137117804Y-88537043D01*
X137138157Y-88561843D01*
X137162957Y-88582196D01*
X137162960Y-88582199D01*
X137237132Y-88643070D01*
X137350052Y-88703427D01*
X137472578Y-88740595D01*
X137568068Y-88750000D01*
X137568076Y-88750000D01*
X137600000Y-88753144D01*
X137631924Y-88750000D01*
X140141852Y-88750000D01*
X140210347Y-88818495D01*
X140361848Y-88919725D01*
X140530187Y-88989453D01*
X140708895Y-89025000D01*
X140891105Y-89025000D01*
X141069813Y-88989453D01*
X141238152Y-88919725D01*
X141389653Y-88818495D01*
X141518495Y-88689653D01*
X141619725Y-88538152D01*
X141689453Y-88369813D01*
X141725000Y-88191105D01*
X141725000Y-88008895D01*
X141689453Y-87830187D01*
X141619725Y-87661848D01*
X141518495Y-87510347D01*
X141389653Y-87381505D01*
X141238152Y-87280275D01*
X141069813Y-87210547D01*
X140891105Y-87175000D01*
X140708895Y-87175000D01*
X140530187Y-87210547D01*
X140361848Y-87280275D01*
X140210347Y-87381505D01*
X140141852Y-87450000D01*
X137869239Y-87450000D01*
X136972349Y-86553110D01*
X137000000Y-86555834D01*
X137203250Y-86554000D01*
X137298000Y-86459250D01*
X137298000Y-85402000D01*
X137302000Y-85402000D01*
X137302000Y-86459250D01*
X137396750Y-86554000D01*
X137600000Y-86555834D01*
X137674297Y-86548516D01*
X137745739Y-86526845D01*
X137811580Y-86491652D01*
X137869290Y-86444290D01*
X137916652Y-86386580D01*
X137951845Y-86320739D01*
X137973516Y-86249297D01*
X137980834Y-86175000D01*
X137979000Y-85496750D01*
X137884250Y-85402000D01*
X137302000Y-85402000D01*
X137298000Y-85402000D01*
X137278000Y-85402000D01*
X137278000Y-85398000D01*
X137298000Y-85398000D01*
X137298000Y-85378000D01*
X137302000Y-85378000D01*
X137302000Y-85398000D01*
X137884250Y-85398000D01*
X137979000Y-85303250D01*
X137980834Y-84625000D01*
X137977711Y-84593293D01*
X138089653Y-84518495D01*
X138218495Y-84389653D01*
X138319725Y-84238152D01*
X138389453Y-84069813D01*
X138425000Y-83891105D01*
X138425000Y-83708895D01*
X138389453Y-83530187D01*
X138319725Y-83361848D01*
X138218495Y-83210347D01*
X138089653Y-83081505D01*
X137938152Y-82980275D01*
X137769813Y-82910547D01*
X137591105Y-82875000D01*
X137408895Y-82875000D01*
X137230187Y-82910547D01*
X137061848Y-82980275D01*
X137017833Y-83009685D01*
X136889653Y-82881505D01*
X136738152Y-82780275D01*
X136569813Y-82710547D01*
X136391105Y-82675000D01*
X136208895Y-82675000D01*
X136030187Y-82710547D01*
X135861848Y-82780275D01*
X135710347Y-82881505D01*
X135581505Y-83010347D01*
X135480275Y-83161848D01*
X135444232Y-83248865D01*
X135418495Y-83210347D01*
X135289653Y-83081505D01*
X135138152Y-82980275D01*
X134969813Y-82910547D01*
X134791105Y-82875000D01*
X134608895Y-82875000D01*
X134430187Y-82910547D01*
X134261848Y-82980275D01*
X134110347Y-83081505D01*
X133981505Y-83210347D01*
X133880275Y-83361848D01*
X133810547Y-83530187D01*
X133775000Y-83708895D01*
X133775000Y-83815114D01*
X133756930Y-83837132D01*
X133739462Y-83869813D01*
X133696573Y-83950053D01*
X133659405Y-84072579D01*
X133653540Y-84132126D01*
X133582181Y-84110479D01*
X133450000Y-84097460D01*
X133150000Y-84097460D01*
X133017819Y-84110479D01*
X132890717Y-84149035D01*
X132800000Y-84197524D01*
X132709283Y-84149035D01*
X132582181Y-84110479D01*
X132450000Y-84097460D01*
X132150000Y-84097460D01*
X132017819Y-84110479D01*
X131890717Y-84149035D01*
X131773579Y-84211646D01*
X131670907Y-84295907D01*
X131586646Y-84398579D01*
X131524035Y-84515717D01*
X131485479Y-84642819D01*
X131472460Y-84775000D01*
X131472460Y-86025000D01*
X131485479Y-86157181D01*
X131524035Y-86284283D01*
X131553132Y-86338720D01*
X131481505Y-86410347D01*
X131380275Y-86561848D01*
X131310547Y-86730187D01*
X131275000Y-86908895D01*
X131275000Y-87091105D01*
X131310547Y-87269813D01*
X131380275Y-87438152D01*
X131481505Y-87589653D01*
X131610347Y-87718495D01*
X131761848Y-87819725D01*
X131930187Y-87889453D01*
X132108895Y-87925000D01*
X132291105Y-87925000D01*
X132469813Y-87889453D01*
X132638152Y-87819725D01*
X132789653Y-87718495D01*
X132918495Y-87589653D01*
X133019725Y-87438152D01*
X133089453Y-87269813D01*
X133125000Y-87091105D01*
X133125000Y-86908895D01*
X133089453Y-86730187D01*
X133074939Y-86695147D01*
X133150000Y-86702540D01*
X133450000Y-86702540D01*
X133582181Y-86689521D01*
X133650001Y-86668948D01*
X133650001Y-87330761D01*
X133062962Y-87917800D01*
X133038157Y-87938157D01*
X133017802Y-87962960D01*
X132956930Y-88037132D01*
X132956385Y-88038152D01*
X132896573Y-88150053D01*
X132859405Y-88272579D01*
X132850000Y-88368069D01*
X132850000Y-88368079D01*
X132846856Y-88400000D01*
X132850000Y-88431922D01*
X132850001Y-91268069D01*
X132846856Y-91300000D01*
X132859406Y-91427422D01*
X132896573Y-91549947D01*
X132956930Y-91662868D01*
X133017802Y-91737040D01*
X133017805Y-91737043D01*
X133038158Y-91761843D01*
X133062957Y-91782195D01*
X133275000Y-91994238D01*
X133275000Y-92091105D01*
X133310547Y-92269813D01*
X133380275Y-92438152D01*
X133481505Y-92589653D01*
X133610347Y-92718495D01*
X133761848Y-92819725D01*
X133930187Y-92889453D01*
X134108895Y-92925000D01*
X134291105Y-92925000D01*
X134469813Y-92889453D01*
X134638152Y-92819725D01*
X134789653Y-92718495D01*
X134918495Y-92589653D01*
X135019725Y-92438152D01*
X135048777Y-92368015D01*
X135450001Y-92769240D01*
X135450000Y-93668078D01*
X135446856Y-93700000D01*
X135450000Y-93731921D01*
X135450000Y-93731931D01*
X135459405Y-93827421D01*
X135462662Y-93838157D01*
X135496573Y-93949947D01*
X135556930Y-94062868D01*
X135607369Y-94124328D01*
X135638157Y-94161843D01*
X135662962Y-94182200D01*
X137882264Y-96401503D01*
X137845767Y-96386446D01*
X137755040Y-96404493D01*
X137527284Y-96483057D01*
X137319231Y-96604545D01*
X137138877Y-96764287D01*
X136993152Y-96956145D01*
X136887657Y-97172746D01*
X136826446Y-97405767D01*
X136905752Y-97598000D01*
X138038000Y-97598000D01*
X138038000Y-97578000D01*
X138042000Y-97578000D01*
X138042000Y-97598000D01*
X138062000Y-97598000D01*
X138062000Y-97602000D01*
X138042000Y-97602000D01*
X138042000Y-98734248D01*
X138234233Y-98813554D01*
X138324960Y-98795507D01*
X138552716Y-98716943D01*
X138760769Y-98595455D01*
X138941123Y-98435713D01*
X139086848Y-98243855D01*
X139192343Y-98027254D01*
X139232580Y-97874078D01*
X139257841Y-98001073D01*
X139361491Y-98251307D01*
X139511968Y-98476511D01*
X139703489Y-98668032D01*
X139928693Y-98818509D01*
X140178927Y-98922159D01*
X140444574Y-98975000D01*
X140715426Y-98975000D01*
X140981073Y-98922159D01*
X141231307Y-98818509D01*
X141456511Y-98668032D01*
X141648032Y-98476511D01*
X141798509Y-98251307D01*
X141850000Y-98126996D01*
X141901491Y-98251307D01*
X142051968Y-98476511D01*
X142243489Y-98668032D01*
X142468693Y-98818509D01*
X142718927Y-98922159D01*
X142984574Y-98975000D01*
X143255426Y-98975000D01*
X143521073Y-98922159D01*
X143771307Y-98818509D01*
X143996511Y-98668032D01*
X144188032Y-98476511D01*
X144338509Y-98251307D01*
X144390000Y-98126996D01*
X144441491Y-98251307D01*
X144591968Y-98476511D01*
X144783489Y-98668032D01*
X145008693Y-98818509D01*
X145258927Y-98922159D01*
X145524574Y-98975000D01*
X145795426Y-98975000D01*
X146061073Y-98922159D01*
X146311307Y-98818509D01*
X146536511Y-98668032D01*
X146728032Y-98476511D01*
X146822460Y-98335190D01*
X146822460Y-98450000D01*
X146832597Y-98552918D01*
X146862617Y-98651881D01*
X146911367Y-98743086D01*
X146976973Y-98823027D01*
X147056914Y-98888633D01*
X147148119Y-98937383D01*
X147247082Y-98967403D01*
X147350000Y-98977540D01*
X149050000Y-98977540D01*
X149152918Y-98967403D01*
X149251881Y-98937383D01*
X149343086Y-98888633D01*
X149423027Y-98823027D01*
X149425000Y-98820623D01*
X149425000Y-99425000D01*
X139971754Y-99425000D01*
X139887280Y-99433320D01*
X139832293Y-99450000D01*
X135244006Y-99450000D01*
X135419564Y-99332696D01*
X135882696Y-98869564D01*
X136246577Y-98324978D01*
X136466418Y-97794233D01*
X136826446Y-97794233D01*
X136887657Y-98027254D01*
X136993152Y-98243855D01*
X137138877Y-98435713D01*
X137319231Y-98595455D01*
X137527284Y-98716943D01*
X137755040Y-98795507D01*
X137845767Y-98813554D01*
X138038000Y-98734248D01*
X138038000Y-97602000D01*
X136905752Y-97602000D01*
X136826446Y-97794233D01*
X136466418Y-97794233D01*
X136497222Y-97719867D01*
X136625000Y-97077484D01*
X136625000Y-96422516D01*
X136497222Y-95780133D01*
X136246577Y-95175022D01*
X135882696Y-94630436D01*
X135419564Y-94167304D01*
X134874978Y-93803423D01*
X134269867Y-93552778D01*
X133627484Y-93425000D01*
X132972516Y-93425000D01*
X132330133Y-93552778D01*
X131725022Y-93803423D01*
X131180436Y-94167304D01*
X130717304Y-94630436D01*
X130575000Y-94843409D01*
X130575000Y-82945153D01*
X130649999Y-82952540D01*
X131350001Y-82952540D01*
X131501691Y-82937600D01*
X131647552Y-82893353D01*
X131781979Y-82821501D01*
X131899804Y-82724804D01*
X131996501Y-82606979D01*
X132068353Y-82472552D01*
X132112600Y-82326691D01*
X132127540Y-82175001D01*
X132127540Y-80874999D01*
X132112600Y-80723309D01*
X132068353Y-80577448D01*
X132067045Y-80575000D01*
X137532955Y-80575000D01*
X137531647Y-80577448D01*
M02*
