G04 #@! TF.GenerationSoftware,KiCad,Pcbnew,5.1.5-52549c5~84~ubuntu18.04.1*
G04 #@! TF.CreationDate,2020-02-17T23:24:27+01:00*
G04 #@! TF.ProjectId,bldc_motor_encoder,626c6463-5f6d-46f7-946f-725f656e636f,rev?*
G04 #@! TF.SameCoordinates,Original*
G04 #@! TF.FileFunction,Soldermask,Bot*
G04 #@! TF.FilePolarity,Negative*
%FSLAX46Y46*%
G04 Gerber Fmt 4.6, Leading zero omitted, Abs format (unit mm)*
G04 Created by KiCad (PCBNEW 5.1.5-52549c5~84~ubuntu18.04.1) date 2020-02-17 23:24:27*
%MOMM*%
%LPD*%
G04 APERTURE LIST*
%ADD10C,0.100000*%
G04 APERTURE END LIST*
D10*
G36*
X134131606Y-94008562D02*
G01*
X134650455Y-94223476D01*
X135117407Y-94535484D01*
X135514516Y-94932593D01*
X135826524Y-95399545D01*
X136041438Y-95918394D01*
X136151000Y-96469201D01*
X136151000Y-97030799D01*
X136041438Y-97581606D01*
X135826524Y-98100455D01*
X135514516Y-98567407D01*
X135117407Y-98964516D01*
X134650455Y-99276524D01*
X134131606Y-99491438D01*
X133856202Y-99546219D01*
X133580800Y-99601000D01*
X133019200Y-99601000D01*
X132468394Y-99491438D01*
X131949545Y-99276524D01*
X131482593Y-98964516D01*
X131085484Y-98567407D01*
X130773476Y-98100455D01*
X130558562Y-97581606D01*
X130449000Y-97030799D01*
X130449000Y-96469201D01*
X130558562Y-95918394D01*
X130773476Y-95399545D01*
X131085484Y-94932593D01*
X131482593Y-94535484D01*
X131949545Y-94223476D01*
X132468394Y-94008562D01*
X133019200Y-93899000D01*
X133580800Y-93899000D01*
X134131606Y-94008562D01*
G37*
G36*
X149101000Y-98501000D02*
G01*
X147299000Y-98501000D01*
X147299000Y-96699000D01*
X149101000Y-96699000D01*
X149101000Y-98501000D01*
G37*
G36*
X145773512Y-96703927D02*
G01*
X145922812Y-96733624D01*
X146086784Y-96801544D01*
X146234354Y-96900147D01*
X146359853Y-97025646D01*
X146458456Y-97173216D01*
X146526376Y-97337188D01*
X146561000Y-97511259D01*
X146561000Y-97688741D01*
X146526376Y-97862812D01*
X146458456Y-98026784D01*
X146359853Y-98174354D01*
X146234354Y-98299853D01*
X146086784Y-98398456D01*
X145922812Y-98466376D01*
X145773512Y-98496073D01*
X145748742Y-98501000D01*
X145571258Y-98501000D01*
X145546488Y-98496073D01*
X145397188Y-98466376D01*
X145233216Y-98398456D01*
X145085646Y-98299853D01*
X144960147Y-98174354D01*
X144861544Y-98026784D01*
X144793624Y-97862812D01*
X144759000Y-97688741D01*
X144759000Y-97511259D01*
X144793624Y-97337188D01*
X144861544Y-97173216D01*
X144960147Y-97025646D01*
X145085646Y-96900147D01*
X145233216Y-96801544D01*
X145397188Y-96733624D01*
X145546488Y-96703927D01*
X145571258Y-96699000D01*
X145748742Y-96699000D01*
X145773512Y-96703927D01*
G37*
G36*
X143233512Y-96703927D02*
G01*
X143382812Y-96733624D01*
X143546784Y-96801544D01*
X143694354Y-96900147D01*
X143819853Y-97025646D01*
X143918456Y-97173216D01*
X143986376Y-97337188D01*
X144021000Y-97511259D01*
X144021000Y-97688741D01*
X143986376Y-97862812D01*
X143918456Y-98026784D01*
X143819853Y-98174354D01*
X143694354Y-98299853D01*
X143546784Y-98398456D01*
X143382812Y-98466376D01*
X143233512Y-98496073D01*
X143208742Y-98501000D01*
X143031258Y-98501000D01*
X143006488Y-98496073D01*
X142857188Y-98466376D01*
X142693216Y-98398456D01*
X142545646Y-98299853D01*
X142420147Y-98174354D01*
X142321544Y-98026784D01*
X142253624Y-97862812D01*
X142219000Y-97688741D01*
X142219000Y-97511259D01*
X142253624Y-97337188D01*
X142321544Y-97173216D01*
X142420147Y-97025646D01*
X142545646Y-96900147D01*
X142693216Y-96801544D01*
X142857188Y-96733624D01*
X143006488Y-96703927D01*
X143031258Y-96699000D01*
X143208742Y-96699000D01*
X143233512Y-96703927D01*
G37*
G36*
X140693512Y-96703927D02*
G01*
X140842812Y-96733624D01*
X141006784Y-96801544D01*
X141154354Y-96900147D01*
X141279853Y-97025646D01*
X141378456Y-97173216D01*
X141446376Y-97337188D01*
X141481000Y-97511259D01*
X141481000Y-97688741D01*
X141446376Y-97862812D01*
X141378456Y-98026784D01*
X141279853Y-98174354D01*
X141154354Y-98299853D01*
X141006784Y-98398456D01*
X140842812Y-98466376D01*
X140693512Y-98496073D01*
X140668742Y-98501000D01*
X140491258Y-98501000D01*
X140466488Y-98496073D01*
X140317188Y-98466376D01*
X140153216Y-98398456D01*
X140005646Y-98299853D01*
X139880147Y-98174354D01*
X139781544Y-98026784D01*
X139713624Y-97862812D01*
X139679000Y-97688741D01*
X139679000Y-97511259D01*
X139713624Y-97337188D01*
X139781544Y-97173216D01*
X139880147Y-97025646D01*
X140005646Y-96900147D01*
X140153216Y-96801544D01*
X140317188Y-96733624D01*
X140466488Y-96703927D01*
X140491258Y-96699000D01*
X140668742Y-96699000D01*
X140693512Y-96703927D01*
G37*
G36*
X138153512Y-96703927D02*
G01*
X138302812Y-96733624D01*
X138466784Y-96801544D01*
X138614354Y-96900147D01*
X138739853Y-97025646D01*
X138838456Y-97173216D01*
X138906376Y-97337188D01*
X138941000Y-97511259D01*
X138941000Y-97688741D01*
X138906376Y-97862812D01*
X138838456Y-98026784D01*
X138739853Y-98174354D01*
X138614354Y-98299853D01*
X138466784Y-98398456D01*
X138302812Y-98466376D01*
X138153512Y-98496073D01*
X138128742Y-98501000D01*
X137951258Y-98501000D01*
X137926488Y-98496073D01*
X137777188Y-98466376D01*
X137613216Y-98398456D01*
X137465646Y-98299853D01*
X137340147Y-98174354D01*
X137241544Y-98026784D01*
X137173624Y-97862812D01*
X137139000Y-97688741D01*
X137139000Y-97511259D01*
X137173624Y-97337188D01*
X137241544Y-97173216D01*
X137340147Y-97025646D01*
X137465646Y-96900147D01*
X137613216Y-96801544D01*
X137777188Y-96733624D01*
X137926488Y-96703927D01*
X137951258Y-96699000D01*
X138128742Y-96699000D01*
X138153512Y-96703927D01*
G37*
G36*
X132559928Y-84576764D02*
G01*
X132581009Y-84583160D01*
X132600445Y-84593548D01*
X132617476Y-84607524D01*
X132631452Y-84624555D01*
X132641840Y-84643991D01*
X132648236Y-84665072D01*
X132651000Y-84693140D01*
X132651000Y-86106860D01*
X132648236Y-86134928D01*
X132641840Y-86156009D01*
X132631452Y-86175445D01*
X132617476Y-86192476D01*
X132600445Y-86206452D01*
X132581009Y-86216840D01*
X132559928Y-86223236D01*
X132531860Y-86226000D01*
X132068140Y-86226000D01*
X132040072Y-86223236D01*
X132018991Y-86216840D01*
X131999555Y-86206452D01*
X131982524Y-86192476D01*
X131968548Y-86175445D01*
X131958160Y-86156009D01*
X131951764Y-86134928D01*
X131949000Y-86106860D01*
X131949000Y-84693140D01*
X131951764Y-84665072D01*
X131958160Y-84643991D01*
X131968548Y-84624555D01*
X131982524Y-84607524D01*
X131999555Y-84593548D01*
X132018991Y-84583160D01*
X132040072Y-84576764D01*
X132068140Y-84574000D01*
X132531860Y-84574000D01*
X132559928Y-84576764D01*
G37*
G36*
X135559928Y-84576764D02*
G01*
X135581009Y-84583160D01*
X135600445Y-84593548D01*
X135617476Y-84607524D01*
X135631452Y-84624555D01*
X135641840Y-84643991D01*
X135648236Y-84665072D01*
X135651000Y-84693140D01*
X135651000Y-86106860D01*
X135648236Y-86134928D01*
X135641840Y-86156009D01*
X135631452Y-86175445D01*
X135617476Y-86192476D01*
X135600445Y-86206452D01*
X135581009Y-86216840D01*
X135559928Y-86223236D01*
X135531860Y-86226000D01*
X135068140Y-86226000D01*
X135040072Y-86223236D01*
X135018991Y-86216840D01*
X134999555Y-86206452D01*
X134982524Y-86192476D01*
X134968548Y-86175445D01*
X134958160Y-86156009D01*
X134951764Y-86134928D01*
X134949000Y-86106860D01*
X134949000Y-84693140D01*
X134951764Y-84665072D01*
X134958160Y-84643991D01*
X134968548Y-84624555D01*
X134982524Y-84607524D01*
X134999555Y-84593548D01*
X135018991Y-84583160D01*
X135040072Y-84576764D01*
X135068140Y-84574000D01*
X135531860Y-84574000D01*
X135559928Y-84576764D01*
G37*
G36*
X133559928Y-84576764D02*
G01*
X133581009Y-84583160D01*
X133600445Y-84593548D01*
X133617476Y-84607524D01*
X133631452Y-84624555D01*
X133641840Y-84643991D01*
X133648236Y-84665072D01*
X133651000Y-84693140D01*
X133651000Y-86106860D01*
X133648236Y-86134928D01*
X133641840Y-86156009D01*
X133631452Y-86175445D01*
X133617476Y-86192476D01*
X133600445Y-86206452D01*
X133581009Y-86216840D01*
X133559928Y-86223236D01*
X133531860Y-86226000D01*
X133068140Y-86226000D01*
X133040072Y-86223236D01*
X133018991Y-86216840D01*
X132999555Y-86206452D01*
X132982524Y-86192476D01*
X132968548Y-86175445D01*
X132958160Y-86156009D01*
X132951764Y-86134928D01*
X132949000Y-86106860D01*
X132949000Y-84693140D01*
X132951764Y-84665072D01*
X132958160Y-84643991D01*
X132968548Y-84624555D01*
X132982524Y-84607524D01*
X132999555Y-84593548D01*
X133018991Y-84583160D01*
X133040072Y-84576764D01*
X133068140Y-84574000D01*
X133531860Y-84574000D01*
X133559928Y-84576764D01*
G37*
G36*
X134559928Y-84576764D02*
G01*
X134581009Y-84583160D01*
X134600445Y-84593548D01*
X134617476Y-84607524D01*
X134631452Y-84624555D01*
X134641840Y-84643991D01*
X134648236Y-84665072D01*
X134651000Y-84693140D01*
X134651000Y-86106860D01*
X134648236Y-86134928D01*
X134641840Y-86156009D01*
X134631452Y-86175445D01*
X134617476Y-86192476D01*
X134600445Y-86206452D01*
X134581009Y-86216840D01*
X134559928Y-86223236D01*
X134531860Y-86226000D01*
X134068140Y-86226000D01*
X134040072Y-86223236D01*
X134018991Y-86216840D01*
X133999555Y-86206452D01*
X133982524Y-86192476D01*
X133968548Y-86175445D01*
X133958160Y-86156009D01*
X133951764Y-86134928D01*
X133949000Y-86106860D01*
X133949000Y-84693140D01*
X133951764Y-84665072D01*
X133958160Y-84643991D01*
X133968548Y-84624555D01*
X133982524Y-84607524D01*
X133999555Y-84593548D01*
X134018991Y-84583160D01*
X134040072Y-84576764D01*
X134068140Y-84574000D01*
X134531860Y-84574000D01*
X134559928Y-84576764D01*
G37*
G36*
X136559928Y-84576764D02*
G01*
X136581009Y-84583160D01*
X136600445Y-84593548D01*
X136617476Y-84607524D01*
X136631452Y-84624555D01*
X136641840Y-84643991D01*
X136648236Y-84665072D01*
X136651000Y-84693140D01*
X136651000Y-86106860D01*
X136648236Y-86134928D01*
X136641840Y-86156009D01*
X136631452Y-86175445D01*
X136617476Y-86192476D01*
X136600445Y-86206452D01*
X136581009Y-86216840D01*
X136559928Y-86223236D01*
X136531860Y-86226000D01*
X136068140Y-86226000D01*
X136040072Y-86223236D01*
X136018991Y-86216840D01*
X135999555Y-86206452D01*
X135982524Y-86192476D01*
X135968548Y-86175445D01*
X135958160Y-86156009D01*
X135951764Y-86134928D01*
X135949000Y-86106860D01*
X135949000Y-84693140D01*
X135951764Y-84665072D01*
X135958160Y-84643991D01*
X135968548Y-84624555D01*
X135982524Y-84607524D01*
X135999555Y-84593548D01*
X136018991Y-84583160D01*
X136040072Y-84576764D01*
X136068140Y-84574000D01*
X136531860Y-84574000D01*
X136559928Y-84576764D01*
G37*
G36*
X137559928Y-84576764D02*
G01*
X137581009Y-84583160D01*
X137600445Y-84593548D01*
X137617476Y-84607524D01*
X137631452Y-84624555D01*
X137641840Y-84643991D01*
X137648236Y-84665072D01*
X137651000Y-84693140D01*
X137651000Y-86106860D01*
X137648236Y-86134928D01*
X137641840Y-86156009D01*
X137631452Y-86175445D01*
X137617476Y-86192476D01*
X137600445Y-86206452D01*
X137581009Y-86216840D01*
X137559928Y-86223236D01*
X137531860Y-86226000D01*
X137068140Y-86226000D01*
X137040072Y-86223236D01*
X137018991Y-86216840D01*
X136999555Y-86206452D01*
X136982524Y-86192476D01*
X136968548Y-86175445D01*
X136958160Y-86156009D01*
X136951764Y-86134928D01*
X136949000Y-86106860D01*
X136949000Y-84693140D01*
X136951764Y-84665072D01*
X136958160Y-84643991D01*
X136968548Y-84624555D01*
X136982524Y-84607524D01*
X136999555Y-84593548D01*
X137018991Y-84583160D01*
X137040072Y-84576764D01*
X137068140Y-84574000D01*
X137531860Y-84574000D01*
X137559928Y-84576764D01*
G37*
G36*
X147256202Y-80503781D02*
G01*
X147531606Y-80558562D01*
X148050455Y-80773476D01*
X148517407Y-81085484D01*
X148914516Y-81482593D01*
X149226524Y-81949545D01*
X149441438Y-82468394D01*
X149551000Y-83019201D01*
X149551000Y-83580799D01*
X149441438Y-84131606D01*
X149226524Y-84650455D01*
X148914516Y-85117407D01*
X148517407Y-85514516D01*
X148050455Y-85826524D01*
X147531606Y-86041438D01*
X147256202Y-86096219D01*
X146980800Y-86151000D01*
X146419200Y-86151000D01*
X146143798Y-86096219D01*
X145868394Y-86041438D01*
X145349545Y-85826524D01*
X144882593Y-85514516D01*
X144485484Y-85117407D01*
X144173476Y-84650455D01*
X143958562Y-84131606D01*
X143849000Y-83580799D01*
X143849000Y-83019201D01*
X143958562Y-82468394D01*
X144173476Y-81949545D01*
X144485484Y-81482593D01*
X144882593Y-81085484D01*
X145349545Y-80773476D01*
X145868394Y-80558562D01*
X146419200Y-80449000D01*
X146980800Y-80449000D01*
X147256202Y-80503781D01*
G37*
G36*
X139091242Y-80578404D02*
G01*
X139128337Y-80589657D01*
X139162515Y-80607925D01*
X139192481Y-80632519D01*
X139217075Y-80662485D01*
X139235343Y-80696663D01*
X139246596Y-80733758D01*
X139251000Y-80778474D01*
X139251000Y-82271526D01*
X139246596Y-82316242D01*
X139235343Y-82353337D01*
X139217075Y-82387515D01*
X139192481Y-82417481D01*
X139162515Y-82442075D01*
X139128337Y-82460343D01*
X139091242Y-82471596D01*
X139046526Y-82476000D01*
X138153474Y-82476000D01*
X138108758Y-82471596D01*
X138071663Y-82460343D01*
X138037485Y-82442075D01*
X138007519Y-82417481D01*
X137982925Y-82387515D01*
X137964657Y-82353337D01*
X137953404Y-82316242D01*
X137949000Y-82271526D01*
X137949000Y-80778474D01*
X137953404Y-80733758D01*
X137964657Y-80696663D01*
X137982925Y-80662485D01*
X138007519Y-80632519D01*
X138037485Y-80607925D01*
X138071663Y-80589657D01*
X138108758Y-80578404D01*
X138153474Y-80574000D01*
X139046526Y-80574000D01*
X139091242Y-80578404D01*
G37*
G36*
X131491242Y-80578404D02*
G01*
X131528337Y-80589657D01*
X131562515Y-80607925D01*
X131592481Y-80632519D01*
X131617075Y-80662485D01*
X131635343Y-80696663D01*
X131646596Y-80733758D01*
X131651000Y-80778474D01*
X131651000Y-82271526D01*
X131646596Y-82316242D01*
X131635343Y-82353337D01*
X131617075Y-82387515D01*
X131592481Y-82417481D01*
X131562515Y-82442075D01*
X131528337Y-82460343D01*
X131491242Y-82471596D01*
X131446526Y-82476000D01*
X130553474Y-82476000D01*
X130508758Y-82471596D01*
X130471663Y-82460343D01*
X130437485Y-82442075D01*
X130407519Y-82417481D01*
X130382925Y-82387515D01*
X130364657Y-82353337D01*
X130353404Y-82316242D01*
X130349000Y-82271526D01*
X130349000Y-80778474D01*
X130353404Y-80733758D01*
X130364657Y-80696663D01*
X130382925Y-80662485D01*
X130407519Y-80632519D01*
X130437485Y-80607925D01*
X130471663Y-80589657D01*
X130508758Y-80578404D01*
X130553474Y-80574000D01*
X131446526Y-80574000D01*
X131491242Y-80578404D01*
G37*
M02*
