G04 #@! TF.GenerationSoftware,KiCad,Pcbnew,5.1.5-52549c5~84~ubuntu18.04.1*
G04 #@! TF.CreationDate,2020-02-17T23:24:27+01:00*
G04 #@! TF.ProjectId,bldc_motor_encoder,626c6463-5f6d-46f7-946f-725f656e636f,rev?*
G04 #@! TF.SameCoordinates,Original*
G04 #@! TF.FileFunction,Paste,Bot*
G04 #@! TF.FilePolarity,Positive*
%FSLAX46Y46*%
G04 Gerber Fmt 4.6, Leading zero omitted, Abs format (unit mm)*
G04 Created by KiCad (PCBNEW 5.1.5-52549c5~84~ubuntu18.04.1) date 2020-02-17 23:24:27*
%MOMM*%
%LPD*%
G04 APERTURE LIST*
%ADD10C,0.100000*%
G04 APERTURE END LIST*
D10*
G36*
X138974505Y-80626204D02*
G01*
X138998773Y-80629804D01*
X139022572Y-80635765D01*
X139045671Y-80644030D01*
X139067850Y-80654520D01*
X139088893Y-80667132D01*
X139108599Y-80681747D01*
X139126777Y-80698223D01*
X139143253Y-80716401D01*
X139157868Y-80736107D01*
X139170480Y-80757150D01*
X139180970Y-80779329D01*
X139189235Y-80802428D01*
X139195196Y-80826227D01*
X139198796Y-80850495D01*
X139200000Y-80874999D01*
X139200000Y-82175001D01*
X139198796Y-82199505D01*
X139195196Y-82223773D01*
X139189235Y-82247572D01*
X139180970Y-82270671D01*
X139170480Y-82292850D01*
X139157868Y-82313893D01*
X139143253Y-82333599D01*
X139126777Y-82351777D01*
X139108599Y-82368253D01*
X139088893Y-82382868D01*
X139067850Y-82395480D01*
X139045671Y-82405970D01*
X139022572Y-82414235D01*
X138998773Y-82420196D01*
X138974505Y-82423796D01*
X138950001Y-82425000D01*
X138249999Y-82425000D01*
X138225495Y-82423796D01*
X138201227Y-82420196D01*
X138177428Y-82414235D01*
X138154329Y-82405970D01*
X138132150Y-82395480D01*
X138111107Y-82382868D01*
X138091401Y-82368253D01*
X138073223Y-82351777D01*
X138056747Y-82333599D01*
X138042132Y-82313893D01*
X138029520Y-82292850D01*
X138019030Y-82270671D01*
X138010765Y-82247572D01*
X138004804Y-82223773D01*
X138001204Y-82199505D01*
X138000000Y-82175001D01*
X138000000Y-80874999D01*
X138001204Y-80850495D01*
X138004804Y-80826227D01*
X138010765Y-80802428D01*
X138019030Y-80779329D01*
X138029520Y-80757150D01*
X138042132Y-80736107D01*
X138056747Y-80716401D01*
X138073223Y-80698223D01*
X138091401Y-80681747D01*
X138111107Y-80667132D01*
X138132150Y-80654520D01*
X138154329Y-80644030D01*
X138177428Y-80635765D01*
X138201227Y-80629804D01*
X138225495Y-80626204D01*
X138249999Y-80625000D01*
X138950001Y-80625000D01*
X138974505Y-80626204D01*
G37*
G36*
X131374505Y-80626204D02*
G01*
X131398773Y-80629804D01*
X131422572Y-80635765D01*
X131445671Y-80644030D01*
X131467850Y-80654520D01*
X131488893Y-80667132D01*
X131508599Y-80681747D01*
X131526777Y-80698223D01*
X131543253Y-80716401D01*
X131557868Y-80736107D01*
X131570480Y-80757150D01*
X131580970Y-80779329D01*
X131589235Y-80802428D01*
X131595196Y-80826227D01*
X131598796Y-80850495D01*
X131600000Y-80874999D01*
X131600000Y-82175001D01*
X131598796Y-82199505D01*
X131595196Y-82223773D01*
X131589235Y-82247572D01*
X131580970Y-82270671D01*
X131570480Y-82292850D01*
X131557868Y-82313893D01*
X131543253Y-82333599D01*
X131526777Y-82351777D01*
X131508599Y-82368253D01*
X131488893Y-82382868D01*
X131467850Y-82395480D01*
X131445671Y-82405970D01*
X131422572Y-82414235D01*
X131398773Y-82420196D01*
X131374505Y-82423796D01*
X131350001Y-82425000D01*
X130649999Y-82425000D01*
X130625495Y-82423796D01*
X130601227Y-82420196D01*
X130577428Y-82414235D01*
X130554329Y-82405970D01*
X130532150Y-82395480D01*
X130511107Y-82382868D01*
X130491401Y-82368253D01*
X130473223Y-82351777D01*
X130456747Y-82333599D01*
X130442132Y-82313893D01*
X130429520Y-82292850D01*
X130419030Y-82270671D01*
X130410765Y-82247572D01*
X130404804Y-82223773D01*
X130401204Y-82199505D01*
X130400000Y-82175001D01*
X130400000Y-80874999D01*
X130401204Y-80850495D01*
X130404804Y-80826227D01*
X130410765Y-80802428D01*
X130419030Y-80779329D01*
X130429520Y-80757150D01*
X130442132Y-80736107D01*
X130456747Y-80716401D01*
X130473223Y-80698223D01*
X130491401Y-80681747D01*
X130511107Y-80667132D01*
X130532150Y-80654520D01*
X130554329Y-80644030D01*
X130577428Y-80635765D01*
X130601227Y-80629804D01*
X130625495Y-80626204D01*
X130649999Y-80625000D01*
X131350001Y-80625000D01*
X131374505Y-80626204D01*
G37*
G36*
X137464703Y-84625722D02*
G01*
X137479264Y-84627882D01*
X137493543Y-84631459D01*
X137507403Y-84636418D01*
X137520710Y-84642712D01*
X137533336Y-84650280D01*
X137545159Y-84659048D01*
X137556066Y-84668934D01*
X137565952Y-84679841D01*
X137574720Y-84691664D01*
X137582288Y-84704290D01*
X137588582Y-84717597D01*
X137593541Y-84731457D01*
X137597118Y-84745736D01*
X137599278Y-84760297D01*
X137600000Y-84775000D01*
X137600000Y-86025000D01*
X137599278Y-86039703D01*
X137597118Y-86054264D01*
X137593541Y-86068543D01*
X137588582Y-86082403D01*
X137582288Y-86095710D01*
X137574720Y-86108336D01*
X137565952Y-86120159D01*
X137556066Y-86131066D01*
X137545159Y-86140952D01*
X137533336Y-86149720D01*
X137520710Y-86157288D01*
X137507403Y-86163582D01*
X137493543Y-86168541D01*
X137479264Y-86172118D01*
X137464703Y-86174278D01*
X137450000Y-86175000D01*
X137150000Y-86175000D01*
X137135297Y-86174278D01*
X137120736Y-86172118D01*
X137106457Y-86168541D01*
X137092597Y-86163582D01*
X137079290Y-86157288D01*
X137066664Y-86149720D01*
X137054841Y-86140952D01*
X137043934Y-86131066D01*
X137034048Y-86120159D01*
X137025280Y-86108336D01*
X137017712Y-86095710D01*
X137011418Y-86082403D01*
X137006459Y-86068543D01*
X137002882Y-86054264D01*
X137000722Y-86039703D01*
X137000000Y-86025000D01*
X137000000Y-84775000D01*
X137000722Y-84760297D01*
X137002882Y-84745736D01*
X137006459Y-84731457D01*
X137011418Y-84717597D01*
X137017712Y-84704290D01*
X137025280Y-84691664D01*
X137034048Y-84679841D01*
X137043934Y-84668934D01*
X137054841Y-84659048D01*
X137066664Y-84650280D01*
X137079290Y-84642712D01*
X137092597Y-84636418D01*
X137106457Y-84631459D01*
X137120736Y-84627882D01*
X137135297Y-84625722D01*
X137150000Y-84625000D01*
X137450000Y-84625000D01*
X137464703Y-84625722D01*
G37*
G36*
X136464703Y-84625722D02*
G01*
X136479264Y-84627882D01*
X136493543Y-84631459D01*
X136507403Y-84636418D01*
X136520710Y-84642712D01*
X136533336Y-84650280D01*
X136545159Y-84659048D01*
X136556066Y-84668934D01*
X136565952Y-84679841D01*
X136574720Y-84691664D01*
X136582288Y-84704290D01*
X136588582Y-84717597D01*
X136593541Y-84731457D01*
X136597118Y-84745736D01*
X136599278Y-84760297D01*
X136600000Y-84775000D01*
X136600000Y-86025000D01*
X136599278Y-86039703D01*
X136597118Y-86054264D01*
X136593541Y-86068543D01*
X136588582Y-86082403D01*
X136582288Y-86095710D01*
X136574720Y-86108336D01*
X136565952Y-86120159D01*
X136556066Y-86131066D01*
X136545159Y-86140952D01*
X136533336Y-86149720D01*
X136520710Y-86157288D01*
X136507403Y-86163582D01*
X136493543Y-86168541D01*
X136479264Y-86172118D01*
X136464703Y-86174278D01*
X136450000Y-86175000D01*
X136150000Y-86175000D01*
X136135297Y-86174278D01*
X136120736Y-86172118D01*
X136106457Y-86168541D01*
X136092597Y-86163582D01*
X136079290Y-86157288D01*
X136066664Y-86149720D01*
X136054841Y-86140952D01*
X136043934Y-86131066D01*
X136034048Y-86120159D01*
X136025280Y-86108336D01*
X136017712Y-86095710D01*
X136011418Y-86082403D01*
X136006459Y-86068543D01*
X136002882Y-86054264D01*
X136000722Y-86039703D01*
X136000000Y-86025000D01*
X136000000Y-84775000D01*
X136000722Y-84760297D01*
X136002882Y-84745736D01*
X136006459Y-84731457D01*
X136011418Y-84717597D01*
X136017712Y-84704290D01*
X136025280Y-84691664D01*
X136034048Y-84679841D01*
X136043934Y-84668934D01*
X136054841Y-84659048D01*
X136066664Y-84650280D01*
X136079290Y-84642712D01*
X136092597Y-84636418D01*
X136106457Y-84631459D01*
X136120736Y-84627882D01*
X136135297Y-84625722D01*
X136150000Y-84625000D01*
X136450000Y-84625000D01*
X136464703Y-84625722D01*
G37*
G36*
X135464703Y-84625722D02*
G01*
X135479264Y-84627882D01*
X135493543Y-84631459D01*
X135507403Y-84636418D01*
X135520710Y-84642712D01*
X135533336Y-84650280D01*
X135545159Y-84659048D01*
X135556066Y-84668934D01*
X135565952Y-84679841D01*
X135574720Y-84691664D01*
X135582288Y-84704290D01*
X135588582Y-84717597D01*
X135593541Y-84731457D01*
X135597118Y-84745736D01*
X135599278Y-84760297D01*
X135600000Y-84775000D01*
X135600000Y-86025000D01*
X135599278Y-86039703D01*
X135597118Y-86054264D01*
X135593541Y-86068543D01*
X135588582Y-86082403D01*
X135582288Y-86095710D01*
X135574720Y-86108336D01*
X135565952Y-86120159D01*
X135556066Y-86131066D01*
X135545159Y-86140952D01*
X135533336Y-86149720D01*
X135520710Y-86157288D01*
X135507403Y-86163582D01*
X135493543Y-86168541D01*
X135479264Y-86172118D01*
X135464703Y-86174278D01*
X135450000Y-86175000D01*
X135150000Y-86175000D01*
X135135297Y-86174278D01*
X135120736Y-86172118D01*
X135106457Y-86168541D01*
X135092597Y-86163582D01*
X135079290Y-86157288D01*
X135066664Y-86149720D01*
X135054841Y-86140952D01*
X135043934Y-86131066D01*
X135034048Y-86120159D01*
X135025280Y-86108336D01*
X135017712Y-86095710D01*
X135011418Y-86082403D01*
X135006459Y-86068543D01*
X135002882Y-86054264D01*
X135000722Y-86039703D01*
X135000000Y-86025000D01*
X135000000Y-84775000D01*
X135000722Y-84760297D01*
X135002882Y-84745736D01*
X135006459Y-84731457D01*
X135011418Y-84717597D01*
X135017712Y-84704290D01*
X135025280Y-84691664D01*
X135034048Y-84679841D01*
X135043934Y-84668934D01*
X135054841Y-84659048D01*
X135066664Y-84650280D01*
X135079290Y-84642712D01*
X135092597Y-84636418D01*
X135106457Y-84631459D01*
X135120736Y-84627882D01*
X135135297Y-84625722D01*
X135150000Y-84625000D01*
X135450000Y-84625000D01*
X135464703Y-84625722D01*
G37*
G36*
X134464703Y-84625722D02*
G01*
X134479264Y-84627882D01*
X134493543Y-84631459D01*
X134507403Y-84636418D01*
X134520710Y-84642712D01*
X134533336Y-84650280D01*
X134545159Y-84659048D01*
X134556066Y-84668934D01*
X134565952Y-84679841D01*
X134574720Y-84691664D01*
X134582288Y-84704290D01*
X134588582Y-84717597D01*
X134593541Y-84731457D01*
X134597118Y-84745736D01*
X134599278Y-84760297D01*
X134600000Y-84775000D01*
X134600000Y-86025000D01*
X134599278Y-86039703D01*
X134597118Y-86054264D01*
X134593541Y-86068543D01*
X134588582Y-86082403D01*
X134582288Y-86095710D01*
X134574720Y-86108336D01*
X134565952Y-86120159D01*
X134556066Y-86131066D01*
X134545159Y-86140952D01*
X134533336Y-86149720D01*
X134520710Y-86157288D01*
X134507403Y-86163582D01*
X134493543Y-86168541D01*
X134479264Y-86172118D01*
X134464703Y-86174278D01*
X134450000Y-86175000D01*
X134150000Y-86175000D01*
X134135297Y-86174278D01*
X134120736Y-86172118D01*
X134106457Y-86168541D01*
X134092597Y-86163582D01*
X134079290Y-86157288D01*
X134066664Y-86149720D01*
X134054841Y-86140952D01*
X134043934Y-86131066D01*
X134034048Y-86120159D01*
X134025280Y-86108336D01*
X134017712Y-86095710D01*
X134011418Y-86082403D01*
X134006459Y-86068543D01*
X134002882Y-86054264D01*
X134000722Y-86039703D01*
X134000000Y-86025000D01*
X134000000Y-84775000D01*
X134000722Y-84760297D01*
X134002882Y-84745736D01*
X134006459Y-84731457D01*
X134011418Y-84717597D01*
X134017712Y-84704290D01*
X134025280Y-84691664D01*
X134034048Y-84679841D01*
X134043934Y-84668934D01*
X134054841Y-84659048D01*
X134066664Y-84650280D01*
X134079290Y-84642712D01*
X134092597Y-84636418D01*
X134106457Y-84631459D01*
X134120736Y-84627882D01*
X134135297Y-84625722D01*
X134150000Y-84625000D01*
X134450000Y-84625000D01*
X134464703Y-84625722D01*
G37*
G36*
X133464703Y-84625722D02*
G01*
X133479264Y-84627882D01*
X133493543Y-84631459D01*
X133507403Y-84636418D01*
X133520710Y-84642712D01*
X133533336Y-84650280D01*
X133545159Y-84659048D01*
X133556066Y-84668934D01*
X133565952Y-84679841D01*
X133574720Y-84691664D01*
X133582288Y-84704290D01*
X133588582Y-84717597D01*
X133593541Y-84731457D01*
X133597118Y-84745736D01*
X133599278Y-84760297D01*
X133600000Y-84775000D01*
X133600000Y-86025000D01*
X133599278Y-86039703D01*
X133597118Y-86054264D01*
X133593541Y-86068543D01*
X133588582Y-86082403D01*
X133582288Y-86095710D01*
X133574720Y-86108336D01*
X133565952Y-86120159D01*
X133556066Y-86131066D01*
X133545159Y-86140952D01*
X133533336Y-86149720D01*
X133520710Y-86157288D01*
X133507403Y-86163582D01*
X133493543Y-86168541D01*
X133479264Y-86172118D01*
X133464703Y-86174278D01*
X133450000Y-86175000D01*
X133150000Y-86175000D01*
X133135297Y-86174278D01*
X133120736Y-86172118D01*
X133106457Y-86168541D01*
X133092597Y-86163582D01*
X133079290Y-86157288D01*
X133066664Y-86149720D01*
X133054841Y-86140952D01*
X133043934Y-86131066D01*
X133034048Y-86120159D01*
X133025280Y-86108336D01*
X133017712Y-86095710D01*
X133011418Y-86082403D01*
X133006459Y-86068543D01*
X133002882Y-86054264D01*
X133000722Y-86039703D01*
X133000000Y-86025000D01*
X133000000Y-84775000D01*
X133000722Y-84760297D01*
X133002882Y-84745736D01*
X133006459Y-84731457D01*
X133011418Y-84717597D01*
X133017712Y-84704290D01*
X133025280Y-84691664D01*
X133034048Y-84679841D01*
X133043934Y-84668934D01*
X133054841Y-84659048D01*
X133066664Y-84650280D01*
X133079290Y-84642712D01*
X133092597Y-84636418D01*
X133106457Y-84631459D01*
X133120736Y-84627882D01*
X133135297Y-84625722D01*
X133150000Y-84625000D01*
X133450000Y-84625000D01*
X133464703Y-84625722D01*
G37*
G36*
X132464703Y-84625722D02*
G01*
X132479264Y-84627882D01*
X132493543Y-84631459D01*
X132507403Y-84636418D01*
X132520710Y-84642712D01*
X132533336Y-84650280D01*
X132545159Y-84659048D01*
X132556066Y-84668934D01*
X132565952Y-84679841D01*
X132574720Y-84691664D01*
X132582288Y-84704290D01*
X132588582Y-84717597D01*
X132593541Y-84731457D01*
X132597118Y-84745736D01*
X132599278Y-84760297D01*
X132600000Y-84775000D01*
X132600000Y-86025000D01*
X132599278Y-86039703D01*
X132597118Y-86054264D01*
X132593541Y-86068543D01*
X132588582Y-86082403D01*
X132582288Y-86095710D01*
X132574720Y-86108336D01*
X132565952Y-86120159D01*
X132556066Y-86131066D01*
X132545159Y-86140952D01*
X132533336Y-86149720D01*
X132520710Y-86157288D01*
X132507403Y-86163582D01*
X132493543Y-86168541D01*
X132479264Y-86172118D01*
X132464703Y-86174278D01*
X132450000Y-86175000D01*
X132150000Y-86175000D01*
X132135297Y-86174278D01*
X132120736Y-86172118D01*
X132106457Y-86168541D01*
X132092597Y-86163582D01*
X132079290Y-86157288D01*
X132066664Y-86149720D01*
X132054841Y-86140952D01*
X132043934Y-86131066D01*
X132034048Y-86120159D01*
X132025280Y-86108336D01*
X132017712Y-86095710D01*
X132011418Y-86082403D01*
X132006459Y-86068543D01*
X132002882Y-86054264D01*
X132000722Y-86039703D01*
X132000000Y-86025000D01*
X132000000Y-84775000D01*
X132000722Y-84760297D01*
X132002882Y-84745736D01*
X132006459Y-84731457D01*
X132011418Y-84717597D01*
X132017712Y-84704290D01*
X132025280Y-84691664D01*
X132034048Y-84679841D01*
X132043934Y-84668934D01*
X132054841Y-84659048D01*
X132066664Y-84650280D01*
X132079290Y-84642712D01*
X132092597Y-84636418D01*
X132106457Y-84631459D01*
X132120736Y-84627882D01*
X132135297Y-84625722D01*
X132150000Y-84625000D01*
X132450000Y-84625000D01*
X132464703Y-84625722D01*
G37*
M02*
