M48
; DRILL file {KiCad 5.1.5-52549c5~84~ubuntu18.04.1} date Mon 17 Feb 2020 11:24:34 PM CET
; FORMAT={-:-/ absolute / metric / decimal}
; #@! TF.CreationDate,2020-02-17T23:24:34+01:00
; #@! TF.GenerationSoftware,Kicad,Pcbnew,5.1.5-52549c5~84~ubuntu18.04.1
; #@! TF.FileFunction,Plated,1,2,PTH
FMAT,2
METRIC
T1C0.400
T2C1.000
T3C3.200
%
G90
G05
T1
X132.2Y-87.0
X132.3Y-83.8
X134.2Y-92.0
X134.7Y-83.8
X134.8Y-91.2
X135.3Y-87.6
X135.6Y-90.6
X136.3Y-83.6
X137.5Y-83.8
X137.8Y-92.9
X138.4Y-85.4
X140.8Y-88.1
X145.4Y-88.2
X146.6Y-88.2
T2
X138.04Y-97.6
X140.58Y-97.6
X143.12Y-97.6
X145.66Y-97.6
X148.2Y-97.6
T3
X133.3Y-96.75
X146.7Y-83.3
T0
M30
